<?xml version="1.0" standalone="no"?>
<!DOCTYPE svg PUBLIC "-//W3C//DTD SVG 1.1//EN"
"http://www.w3.org/Graphics/SVG/1.1/DTD/svg11.dtd">
<svg width="416.126" height="172.46" viewBox="0 0 8669.29 3592.91" version="1.1"
xmlns="http://www.w3.org/2000/svg"
xmlns:xlink="http://www.w3.org/1999/xlink">
<polyline points="6755.87,2959.05 6893.7,2959.05 6893.7,2957.08 6893.7,2828.54 6893.7,2821.77" style="stroke:rgb(255,0,0);stroke-width:15.748031;fill:none;stroke-opacity:0.5;stroke-linecap:round;stroke-linejoin:round;;fill:none"/>
<polyline points="6755.87,2959.05 6893.7,2959.05 6893.7,2957.08 6893.7,2828.54 6893.7,2821.77" style="stroke:rgb(0,0,0);stroke-width:1px;fill:none;stroke-opacity:1;stroke-linecap:round;stroke-linejoin:round;;fill:none"/>
<polyline points="6893.7,2959.05 6895.67,2959.05 7024.73,2959.05 7031.53,2959.05" style="stroke:rgb(255,0,0);stroke-width:15.748031;fill:none;stroke-opacity:0.5;stroke-linecap:round;stroke-linejoin:round;;fill:none"/>
<polyline points="6893.7,2959.05 6895.67,2959.05 7024.73,2959.05 7031.53,2959.05" style="stroke:rgb(0,0,0);stroke-width:1px;fill:none;stroke-opacity:1;stroke-linecap:round;stroke-linejoin:round;;fill:none"/>
<polyline points="6893.7,2821.76 6893.7,2959.05" style="stroke:rgb(255,0,0);stroke-width:15.748031;fill:none;stroke-opacity:0.5;stroke-linecap:round;stroke-linejoin:round;;fill:none"/>
<polyline points="6893.7,2821.76 6893.7,2959.05" style="stroke:rgb(0,0,0);stroke-width:1px;fill:none;stroke-opacity:1;stroke-linecap:round;stroke-linejoin:round;;fill:none"/>
<polyline points="6893.7,3096.35 6893.7,3089.57 6893.7,2961.02 6893.7,2959.05 7031.52,2959.05" style="stroke:rgb(255,0,0);stroke-width:15.748031;fill:none;stroke-opacity:0.5;stroke-linecap:round;stroke-linejoin:round;;fill:none"/>
<polyline points="6893.7,3096.35 6893.7,3089.57 6893.7,2961.02 6893.7,2959.05 7031.52,2959.05" style="stroke:rgb(0,0,0);stroke-width:1px;fill:none;stroke-opacity:1;stroke-linecap:round;stroke-linejoin:round;;fill:none"/>
<polyline points="6893.7,3096.34 6893.7,2959.05 6891.73,2959.05 6762.67,2959.05 6755.87,2959.05" style="stroke:rgb(255,0,0);stroke-width:15.748031;fill:none;stroke-opacity:0.5;stroke-linecap:round;stroke-linejoin:round;;fill:none"/>
<polyline points="6893.7,3096.34 6893.7,2959.05 6891.73,2959.05 6762.67,2959.05 6755.87,2959.05" style="stroke:rgb(0,0,0);stroke-width:1px;fill:none;stroke-opacity:1;stroke-linecap:round;stroke-linejoin:round;;fill:none"/>
<polyline points="7635.86,979.375 7640.83,974.909 7640.97,974.767 7778.13,837.609 7779.52,836.217 7778.13,834.825 7640.98,697.669 7640.83,697.527 7635.87,693.063" style="stroke:rgb(255,0,0);stroke-width:15.748031;fill:none;stroke-opacity:0.5;stroke-linecap:round;stroke-linejoin:round;;fill:none"/>
<polyline points="7635.86,979.375 7640.83,974.909 7640.97,974.767 7778.13,837.609 7779.52,836.217 7778.13,834.825 7640.98,697.669 7640.83,697.527 7635.87,693.063" style="stroke:rgb(0,0,0);stroke-width:1px;fill:none;stroke-opacity:1;stroke-linecap:round;stroke-linejoin:round;;fill:none"/>
<polyline points="7635.87,693.066 7640.83,697.527 7640.98,697.669 7778.13,834.825 7779.52,836.217 7780.92,834.825 7918.07,697.669 7918.22,697.527 7923.18,693.064" style="stroke:rgb(255,0,0);stroke-width:15.748031;fill:none;stroke-opacity:0.5;stroke-linecap:round;stroke-linejoin:round;;fill:none"/>
<polyline points="7635.87,693.066 7640.83,697.527 7640.98,697.669 7778.13,834.825 7779.52,836.217 7780.92,834.825 7918.07,697.669 7918.22,697.527 7923.18,693.064" style="stroke:rgb(0,0,0);stroke-width:1px;fill:none;stroke-opacity:1;stroke-linecap:round;stroke-linejoin:round;;fill:none"/>
<polyline points="7779.53,836.217 7780.92,837.607 7918.07,974.765 7918.22,974.909 7923.18,979.376" style="stroke:rgb(255,0,0);stroke-width:15.748031;fill:none;stroke-opacity:0.5;stroke-linecap:round;stroke-linejoin:round;;fill:none"/>
<polyline points="7779.53,836.217 7780.92,837.607 7918.07,974.765 7918.22,974.909 7923.18,979.376" style="stroke:rgb(0,0,0);stroke-width:1px;fill:none;stroke-opacity:1;stroke-linecap:round;stroke-linejoin:round;;fill:none"/>
<polyline points="7923.18,693.063 7918.22,697.527 7918.07,697.669 7780.92,834.825 7779.53,836.217" style="stroke:rgb(255,0,0);stroke-width:15.748031;fill:none;stroke-opacity:0.5;stroke-linecap:round;stroke-linejoin:round;;fill:none"/>
<polyline points="7923.18,693.063 7918.22,697.527 7918.07,697.669 7780.92,834.825 7779.53,836.217" style="stroke:rgb(0,0,0);stroke-width:1px;fill:none;stroke-opacity:1;stroke-linecap:round;stroke-linejoin:round;;fill:none"/>
<polyline points="7635.87,979.371 7640.83,974.909 7640.97,974.767 7778.13,837.609 7779.52,836.217 7780.92,837.609 7918.07,974.765 7918.22,974.909 7923.18,979.374" style="stroke:rgb(255,0,0);stroke-width:15.748031;fill:none;stroke-opacity:0.5;stroke-linecap:round;stroke-linejoin:round;;fill:none"/>
<polyline points="7635.87,979.371 7640.83,974.909 7640.97,974.767 7778.13,837.609 7779.52,836.217 7780.92,837.609 7918.07,974.765 7918.22,974.909 7923.18,979.374" style="stroke:rgb(0,0,0);stroke-width:1px;fill:none;stroke-opacity:1;stroke-linecap:round;stroke-linejoin:round;;fill:none"/>
</svg>
