<?xml version="1.0" standalone="no"?>
<!DOCTYPE svg PUBLIC "-//W3C//DTD SVG 1.1//EN"
"http://www.w3.org/Graphics/SVG/1.1/DTD/svg11.dtd">
<svg width="416.126" height="172.46" viewBox="0 0 8669.29 3592.91" version="1.1"
xmlns="http://www.w3.org/2000/svg"
xmlns:xlink="http://www.w3.org/1999/xlink">
<circle cx="240.157" cy="3352.19" r="15.7" style=""/>
<circle cx="240.157" cy="400.787" r="15.7" style=""/>
<circle cx="432.957" cy="239.987" r="15.7" style=""/>
<circle cx="7723.56" cy="3351.39" r="15.7" style=""/>
<circle cx="7719.76" cy="1828.19" r="15.7" style=""/>
<circle cx="8431.76" cy="1827.19" r="15.7" style=""/>
<circle cx="8429.56" cy="238.787" r="15.7" style=""/>
<circle cx="1035.36" cy="1184.99" r="29.9" style=""/>
<circle cx="2216.56" cy="1184.99" r="29.9" style=""/>
<circle cx="2295.36" cy="3074.79" r="29.9" style=""/>
<circle cx="2688.96" cy="3192.99" r="29.9" style=""/>
<circle cx="3121.96" cy="3192.99" r="29.9" style=""/>
<circle cx="3436.96" cy="3074.79" r="29.9" style=""/>
<circle cx="3883.16" cy="2156.19" r="29.9" style=""/>
<circle cx="3870.16" cy="1578.79" r="29.9" style=""/>
<circle cx="4319.96" cy="1556.19" r="29.9" style=""/>
<circle cx="4736.16" cy="2444.79" r="29.9" style=""/>
<circle cx="5090.56" cy="3192.99" r="29.9" style=""/>
<circle cx="5483.76" cy="2956.19" r="29.9" style=""/>
<circle cx="5917.36" cy="3153.59" r="29.9" style=""/>
<circle cx="5487.76" cy="2191.39" r="29.9" style=""/>
<circle cx="7137.76" cy="1381.99" r="29.9" style=""/>
<circle cx="7137.76" cy="476.387" r="29.9" style=""/>
<circle cx="6389.76" cy="2117.99" r="31.5" style=""/>
<circle cx="6389.76" cy="2393.59" r="31.5" style=""/>
<circle cx="6172.96" cy="483.587" r="33.5" style=""/>
<circle cx="6503.76" cy="483.587" r="33.5" style=""/>
<circle cx="6834.36" cy="483.587" r="33.5" style=""/>
<circle cx="3200.76" cy="751.987" r="35.4" style=""/>
<circle cx="3200.76" cy="951.987" r="35.4" style=""/>
<circle cx="925.157" cy="2813.39" r="39.4" style=""/>
<circle cx="925.157" cy="2613.39" r="39.4" style=""/>
<circle cx="925.157" cy="2413.39" r="39.4" style=""/>
<circle cx="925.157" cy="2213.39" r="39.4" style=""/>
<circle cx="925.157" cy="2013.39" r="39.4" style=""/>
<circle cx="925.157" cy="1813.39" r="39.4" style=""/>
<circle cx="925.157" cy="1613.39" r="39.4" style=""/>
<circle cx="925.157" cy="1413.39" r="39.4" style=""/>
<circle cx="2725.16" cy="1413.39" r="39.4" style=""/>
<circle cx="2725.16" cy="1613.39" r="39.4" style=""/>
<circle cx="2725.16" cy="1813.39" r="39.4" style=""/>
<circle cx="2725.16" cy="2013.39" r="39.4" style=""/>
<circle cx="2725.16" cy="2213.39" r="39.4" style=""/>
<circle cx="2725.16" cy="2413.39" r="39.4" style=""/>
<circle cx="2725.16" cy="2613.39" r="39.4" style=""/>
<circle cx="2725.16" cy="2813.39" r="39.4" style=""/>
<circle cx="3207.16" cy="2518.59" r="39.4" style=""/>
<circle cx="3207.16" cy="2318.59" r="39.4" style=""/>
<circle cx="3207.16" cy="2118.59" r="39.4" style=""/>
<circle cx="3207.16" cy="1918.59" r="39.4" style=""/>
<circle cx="3207.16" cy="1718.59" r="39.4" style=""/>
<circle cx="3207.16" cy="1518.59" r="39.4" style=""/>
<circle cx="3673.16" cy="1532.99" r="39.4" style=""/>
<circle cx="3673.16" cy="1732.99" r="39.4" style=""/>
<circle cx="3673.16" cy="1932.99" r="39.4" style=""/>
<circle cx="3673.16" cy="2132.99" r="39.4" style=""/>
<circle cx="3207.16" cy="2718.59" r="39.4" style=""/>
<circle cx="3207.16" cy="2918.59" r="39.4" style=""/>
<circle cx="3633.96" cy="2899.59" r="39.4" style=""/>
<circle cx="3633.96" cy="2699.59" r="39.4" style=""/>
<circle cx="5720.56" cy="2952.19" r="39.4" style=""/>
<circle cx="5720.56" cy="2752.19" r="39.4" style=""/>
<circle cx="5720.56" cy="2552.19" r="39.4" style=""/>
<circle cx="5720.56" cy="2352.19" r="39.4" style=""/>
<circle cx="5720.56" cy="2152.19" r="39.4" style=""/>
<circle cx="5720.56" cy="1952.19" r="39.4" style=""/>
<circle cx="5720.56" cy="1752.19" r="39.4" style=""/>
<circle cx="6268.56" cy="1736.19" r="39.4" style=""/>
<circle cx="6468.56" cy="1736.19" r="39.4" style=""/>
<circle cx="4069.56" cy="756.187" r="40" style=""/>
<circle cx="4169.56" cy="556.187" r="40" style=""/>
<circle cx="4369.56" cy="556.187" r="40" style=""/>
<circle cx="4569.56" cy="556.187" r="40" style=""/>
<circle cx="4769.56" cy="556.187" r="40" style=""/>
<circle cx="4969.56" cy="556.187" r="40" style=""/>
<circle cx="5169.56" cy="556.187" r="40" style=""/>
<circle cx="5269.56" cy="756.187" r="40" style=""/>
<circle cx="5269.56" cy="956.187" r="40" style=""/>
<circle cx="5269.56" cy="1156.19" r="40" style=""/>
<circle cx="5269.56" cy="1356.19" r="40" style=""/>
<circle cx="5269.56" cy="1556.19" r="40" style=""/>
<circle cx="5269.56" cy="1756.19" r="40" style=""/>
<circle cx="5269.56" cy="1956.19" r="40" style=""/>
<circle cx="5269.56" cy="2156.19" r="40" style=""/>
<circle cx="5269.56" cy="2356.19" r="40" style=""/>
<circle cx="5269.56" cy="2556.19" r="40" style=""/>
<circle cx="5269.56" cy="2756.19" r="40" style=""/>
<circle cx="5269.56" cy="2956.19" r="40" style=""/>
<circle cx="5039.56" cy="2466.19" r="40" style=""/>
<circle cx="5039.56" cy="2266.19" r="40" style=""/>
<circle cx="5039.56" cy="1646.19" r="40" style=""/>
<circle cx="5039.56" cy="1446.19" r="40" style=""/>
<circle cx="4069.56" cy="956.187" r="40" style=""/>
<circle cx="4069.56" cy="1156.19" r="40" style=""/>
<circle cx="4069.56" cy="1356.19" r="40" style=""/>
<circle cx="4069.56" cy="1556.19" r="40" style=""/>
<circle cx="4069.56" cy="1756.19" r="40" style=""/>
<circle cx="4069.56" cy="1956.19" r="40" style=""/>
<circle cx="4069.56" cy="2156.19" r="40" style=""/>
<circle cx="4069.56" cy="2356.19" r="40" style=""/>
<circle cx="4069.56" cy="2556.19" r="40" style=""/>
<circle cx="4069.56" cy="2756.19" r="40" style=""/>
<circle cx="4069.56" cy="2956.19" r="40" style=""/>
<circle cx="1585.36" cy="830.787" r="47.2" style=""/>
<circle cx="2185.36" cy="830.787" r="47.2" style=""/>
<circle cx="7103.96" cy="1837.59" r="47.2" style=""/>
<circle cx="7103.96" cy="2237.59" r="47.2" style=""/>
<circle cx="6893.76" cy="2958.99" r="161.4" style=""/>
<circle cx="7779.56" cy="836.187" r="161.4" style=""/>
<circle cx="6172.96" cy="1286.79" r="86.6" style=""/>
<circle cx="6503.76" cy="1286.79" r="86.6" style=""/>
<circle cx="6834.36" cy="1286.79" r="86.6" style=""/>
</svg>
