<?xml version="1.0" standalone="no"?>
<!DOCTYPE svg PUBLIC "-//W3C//DTD SVG 1.1//EN"
"http://www.w3.org/Graphics/SVG/1.1/DTD/svg11.dtd">
<svg width="416.126" height="172.46" viewBox="0 0 8669.29 3592.91" version="1.1"
xmlns="http://www.w3.org/2000/svg"
xmlns:xlink="http://www.w3.org/1999/xlink">
<g fill-rule="evenodd"><path d="M 6762.67,2961.02 L 6891.73,2961.02 L 6891.73,3089.57 L 6879.98,3089.57 L 6853.15,3083.87 L 6828.08,3072.71 L 6805.89,3056.58 L 6787.53,3036.19 L 6773.81,3012.43 L 6765.33,2986.34 L 6762.67,2961.02 z " style="fill-opacity:1.000000;fill:rgb(103,198,105);stroke:rgb(0,0,0);stroke-width:2"/></g>
<g fill-rule="evenodd"><path d="M 6762.67,2957.08 L 6765.33,2931.77 L 6773.81,2905.68 L 6787.53,2881.92 L 6805.89,2861.53 L 6828.08,2845.4 L 6853.15,2834.24 L 6879.98,2828.54 L 6891.73,2828.54 L 6891.73,2957.08 L 6762.67,2957.08 z " style="fill-opacity:1.000000;fill:rgb(115,81,255);stroke:rgb(0,0,0);stroke-width:2"/></g>
<g fill-rule="evenodd"><path d="M 6895.67,3089.57 L 6895.67,2961.02 L 7024.73,2961.02 L 7022.07,2986.34 L 7013.59,3012.43 L 6999.87,3036.19 L 6981.51,3056.58 L 6959.32,3072.71 L 6934.25,3083.87 L 6907.42,3089.57 L 6895.67,3089.57 z " style="fill-opacity:1.000000;fill:rgb(74,236,41);stroke:rgb(0,0,0);stroke-width:2"/></g>
<g fill-rule="evenodd"><path d="M 6895.67,2828.54 L 6907.42,2828.54 L 6934.25,2834.24 L 6959.32,2845.4 L 6981.51,2861.53 L 6999.87,2881.92 L 7013.59,2905.68 L 7022.07,2931.77 L 7024.73,2957.08 L 6895.67,2957.08 L 6895.67,2828.54 z " style="fill-opacity:1.000000;fill:rgb(205,186,171);stroke:rgb(0,0,0);stroke-width:2"/></g>
<g fill-rule="evenodd"><path d="M 7582.68,836.219 L 7586.98,795.291 L 7599.7,756.153 L 7620.27,720.513 L 7639.59,699.063 L 7776.74,836.219 L 7639.58,973.376 L 7620.27,951.925 L 7599.7,916.285 L 7586.98,877.147 L 7582.68,836.219 z " style="fill-opacity:1.000000;fill:rgb(242,251,227);stroke:rgb(0,0,0);stroke-width:2"/></g>
<g fill-rule="evenodd"><path d="M 7642.22,976.306 L 7779.53,839.003 L 7916.83,976.306 L 7911.25,982.507 L 7877.95,1006.7 L 7840.36,1023.44 L 7800.1,1031.99 L 7758.95,1031.99 L 7718.7,1023.44 L 7681.1,1006.7 L 7647.81,982.507 L 7642.22,976.306 z " style="fill-opacity:1.000000;fill:rgb(70,124,194);stroke:rgb(0,0,0);stroke-width:2"/></g>
<g fill-rule="evenodd"><path d="M 7642.22,696.133 L 7647.81,689.931 L 7681.1,665.741 L 7718.7,649.003 L 7758.95,640.447 L 7800.1,640.447 L 7840.36,649.003 L 7877.95,665.741 L 7911.25,689.931 L 7916.83,696.134 L 7779.53,833.436 L 7642.22,696.133 z " style="fill-opacity:1.000000;fill:rgb(84,248,27);stroke:rgb(0,0,0);stroke-width:2"/></g>
<g fill-rule="evenodd"><path d="M 7782.31,836.219 L 7919.47,699.064 L 7938.78,720.513 L 7959.36,756.153 L 7972.08,795.291 L 7976.38,836.219 L 7972.08,877.147 L 7959.36,916.285 L 7938.78,951.925 L 7919.47,973.376 L 7782.31,836.219 z " style="fill-opacity:1.000000;fill:rgb(232,231,141);stroke:rgb(0,0,0);stroke-width:2"/></g>
</svg>
