<?xml version="1.0" standalone="no"?>
<!DOCTYPE svg PUBLIC "-//W3C//DTD SVG 1.1//EN"
"http://www.w3.org/Graphics/SVG/1.1/DTD/svg11.dtd">
<svg width="416.126" height="172.46" viewBox="0 0 8669.29 3592.91" version="1.1"
xmlns="http://www.w3.org/2000/svg"
xmlns:xlink="http://www.w3.org/1999/xlink">
<g fill-rule="evenodd"><path d="M 208.661,3352.21 L 209.35,3345.67 L 211.384,3339.4 L 214.677,3333.7 L 219.083,3328.81 L 224.409,3324.94 L 230.425,3322.26 L 236.865,3320.89 L 243.45,3320.89 L 249.89,3322.26 L 255.906,3324.94 L 261.232,3328.81 L 265.638,3333.7 L 268.931,3339.4 L 270.965,3345.67 L 271.654,3352.21 L 270.965,3358.76 L 268.931,3365.02 L 265.638,3370.73 L 261.232,3375.62 L 255.906,3379.49 L 249.89,3382.17 L 243.45,3383.54 L 236.865,3383.54 L 230.425,3382.17 L 224.409,3379.49 L 219.083,3375.62 L 214.677,3370.73 L 211.384,3365.02 L 209.35,3358.76 L 208.661,3352.21 z " style="fill-opacity:1.000000;fill:rgb(103,198,105);stroke:rgb(0,0,0);stroke-width:2"/></g>
<g fill-rule="evenodd"><path d="M 208.661,400.787 L 209.35,394.239 L 211.384,387.977 L 214.677,382.274 L 219.083,377.381 L 224.409,373.511 L 230.425,370.833 L 236.865,369.464 L 243.45,369.464 L 249.89,370.833 L 255.906,373.511 L 261.232,377.381 L 265.638,382.274 L 268.931,387.977 L 270.965,394.239 L 271.654,400.787 L 270.965,407.336 L 268.931,413.598 L 265.638,419.3 L 261.232,424.194 L 255.906,428.064 L 249.89,430.742 L 243.45,432.111 L 236.865,432.111 L 230.425,430.742 L 224.409,428.064 L 219.083,424.194 L 214.677,419.3 L 211.384,413.598 L 209.35,407.336 L 208.661,400.787 z " style="fill-opacity:1.000000;fill:rgb(115,81,255);stroke:rgb(0,0,0);stroke-width:2"/></g>
<g fill-rule="evenodd"><path d="M 401.456,239.957 L 402.144,233.408 L 404.179,227.146 L 407.471,221.444 L 411.877,216.551 L 417.204,212.68 L 423.219,210.002 L 429.66,208.633 L 436.244,208.633 L 442.685,210.002 L 448.7,212.68 L 454.027,216.551 L 458.433,221.444 L 461.725,227.146 L 463.76,233.408 L 464.448,239.957 L 463.76,246.505 L 461.725,252.767 L 458.433,258.47 L 454.027,263.363 L 448.7,267.233 L 442.685,269.911 L 436.244,271.28 L 429.66,271.28 L 423.219,269.911 L 417.204,267.233 L 411.877,263.363 L 407.471,258.47 L 404.179,252.767 L 402.144,246.505 L 401.456,239.957 z " style="fill-opacity:1.000000;fill:rgb(74,236,41);stroke:rgb(0,0,0);stroke-width:2"/></g>
<g fill-rule="evenodd"><path d="M 813.517,2819.32 L 813.517,2807.61 L 815.951,2796.16 L 820.713,2785.46 L 827.595,2775.99 L 836.295,2768.16 L 846.433,2762.3 L 857.568,2758.69 L 869.211,2757.46 L 981.211,2757.46 L 992.854,2758.69 L 1003.99,2762.3 L 1014.13,2768.16 L 1022.83,2775.99 L 1029.71,2785.46 L 1034.47,2796.16 L 1036.9,2807.61 L 1036.9,2819.32 L 1034.47,2830.77 L 1029.71,2841.46 L 1022.83,2850.93 L 1014.13,2858.77 L 1003.99,2864.62 L 992.854,2868.24 L 981.211,2869.46 L 981.211,2869.46 L 869.211,2869.46 L 857.568,2868.24 L 846.433,2864.62 L 836.295,2858.77 L 827.595,2850.93 L 820.713,2841.46 L 815.951,2830.77 L 813.517,2819.32 z " style="fill-opacity:1.000000;fill:rgb(205,186,171);stroke:rgb(0,0,0);stroke-width:2"/></g>
<g fill-rule="evenodd"><path d="M 813.517,2619.32 L 813.517,2607.61 L 815.951,2596.16 L 820.713,2585.46 L 827.595,2575.99 L 836.295,2568.16 L 846.433,2562.3 L 857.568,2558.69 L 869.211,2557.46 L 981.211,2557.46 L 992.854,2558.69 L 1003.99,2562.3 L 1014.13,2568.16 L 1022.83,2575.99 L 1029.71,2585.46 L 1034.47,2596.16 L 1036.9,2607.61 L 1036.9,2619.32 L 1034.47,2630.77 L 1029.71,2641.46 L 1022.83,2650.93 L 1014.13,2658.77 L 1003.99,2664.62 L 992.854,2668.24 L 981.211,2669.46 L 981.211,2669.46 L 869.211,2669.46 L 857.568,2668.24 L 846.433,2664.62 L 836.295,2658.77 L 827.595,2650.93 L 820.713,2641.46 L 815.951,2630.77 L 813.517,2619.32 z " style="fill-opacity:1.000000;fill:rgb(242,251,227);stroke:rgb(0,0,0);stroke-width:2"/></g>
<g fill-rule="evenodd"><path d="M 813.517,2419.32 L 813.517,2407.61 L 815.951,2396.16 L 820.713,2385.46 L 827.595,2375.99 L 836.295,2368.16 L 846.433,2362.3 L 857.568,2358.69 L 869.211,2357.46 L 981.211,2357.46 L 992.854,2358.69 L 1003.99,2362.3 L 1014.13,2368.16 L 1022.83,2375.99 L 1029.71,2385.46 L 1034.47,2396.16 L 1036.9,2407.61 L 1036.9,2419.32 L 1034.47,2430.77 L 1029.71,2441.46 L 1022.83,2450.93 L 1014.13,2458.77 L 1003.99,2464.62 L 992.854,2468.24 L 981.211,2469.46 L 981.211,2469.46 L 869.211,2469.46 L 857.568,2468.24 L 846.433,2464.62 L 836.295,2458.77 L 827.595,2450.93 L 820.713,2441.46 L 815.951,2430.77 L 813.517,2419.32 z " style="fill-opacity:1.000000;fill:rgb(70,124,194);stroke:rgb(0,0,0);stroke-width:2"/></g>
<g fill-rule="evenodd"><path d="M 813.517,2219.32 L 813.517,2207.61 L 815.951,2196.16 L 820.713,2185.46 L 827.595,2175.99 L 836.295,2168.16 L 846.433,2162.3 L 857.568,2158.69 L 869.211,2157.46 L 981.211,2157.46 L 992.854,2158.69 L 1003.99,2162.3 L 1014.13,2168.16 L 1022.83,2175.99 L 1029.71,2185.46 L 1034.47,2196.16 L 1036.9,2207.61 L 1036.9,2219.32 L 1034.47,2230.77 L 1029.71,2241.46 L 1022.83,2250.93 L 1014.13,2258.77 L 1003.99,2264.62 L 992.854,2268.24 L 981.211,2269.46 L 981.211,2269.46 L 869.211,2269.46 L 857.568,2268.24 L 846.433,2264.62 L 836.295,2258.77 L 827.595,2250.93 L 820.713,2241.46 L 815.951,2230.77 L 813.517,2219.32 z " style="fill-opacity:1.000000;fill:rgb(84,248,27);stroke:rgb(0,0,0);stroke-width:2"/></g>
<g fill-rule="evenodd"><path d="M 813.517,2019.32 L 813.517,2007.61 L 815.951,1996.16 L 820.713,1985.46 L 827.595,1975.99 L 836.295,1968.16 L 846.433,1962.3 L 857.568,1958.69 L 869.211,1957.46 L 981.211,1957.46 L 992.854,1958.69 L 1003.99,1962.3 L 1014.13,1968.16 L 1022.83,1975.99 L 1029.71,1985.46 L 1034.47,1996.16 L 1036.9,2007.61 L 1036.9,2019.32 L 1034.47,2030.77 L 1029.71,2041.46 L 1022.83,2050.93 L 1014.13,2058.77 L 1003.99,2064.62 L 992.854,2068.24 L 981.211,2069.46 L 981.211,2069.46 L 869.211,2069.46 L 857.568,2068.24 L 846.433,2064.62 L 836.295,2058.77 L 827.595,2050.93 L 820.713,2041.46 L 815.951,2030.77 L 813.517,2019.32 z " style="fill-opacity:1.000000;fill:rgb(232,231,141);stroke:rgb(0,0,0);stroke-width:2"/></g>
<g fill-rule="evenodd"><path d="M 813.517,1819.32 L 813.517,1807.61 L 815.951,1796.16 L 820.713,1785.46 L 827.595,1775.99 L 836.295,1768.16 L 846.433,1762.3 L 857.568,1758.69 L 869.211,1757.46 L 981.211,1757.46 L 992.854,1758.69 L 1003.99,1762.3 L 1014.13,1768.16 L 1022.83,1775.99 L 1029.71,1785.46 L 1034.47,1796.16 L 1036.9,1807.61 L 1036.9,1819.32 L 1034.47,1830.77 L 1029.71,1841.46 L 1022.83,1850.93 L 1014.13,1858.77 L 1003.99,1864.62 L 992.854,1868.24 L 981.211,1869.46 L 981.211,1869.46 L 869.211,1869.46 L 857.568,1868.24 L 846.433,1864.62 L 836.295,1858.77 L 827.595,1850.93 L 820.713,1841.46 L 815.951,1830.77 L 813.517,1819.32 z " style="fill-opacity:1.000000;fill:rgb(118,90,46);stroke:rgb(0,0,0);stroke-width:2"/></g>
<g fill-rule="evenodd"><path d="M 813.517,1619.32 L 813.517,1607.61 L 815.951,1596.16 L 820.713,1585.46 L 827.595,1575.99 L 836.295,1568.16 L 846.433,1562.3 L 857.568,1558.69 L 869.211,1557.46 L 981.211,1557.46 L 992.854,1558.69 L 1003.99,1562.3 L 1014.13,1568.16 L 1022.83,1575.99 L 1029.71,1585.46 L 1034.47,1596.16 L 1036.9,1607.61 L 1036.9,1619.32 L 1034.47,1630.77 L 1029.71,1641.46 L 1022.83,1650.93 L 1014.13,1658.77 L 1003.99,1664.62 L 992.854,1668.24 L 981.211,1669.46 L 981.211,1669.46 L 869.211,1669.46 L 857.568,1668.24 L 846.433,1664.62 L 836.295,1658.77 L 827.595,1650.93 L 820.713,1641.46 L 815.951,1630.77 L 813.517,1619.32 z " style="fill-opacity:1.000000;fill:rgb(99,51,159);stroke:rgb(0,0,0);stroke-width:2"/></g>
<g fill-rule="evenodd"><path d="M 813.517,1419.32 L 813.517,1407.61 L 815.951,1396.16 L 820.713,1385.46 L 827.595,1375.99 L 836.295,1368.16 L 846.433,1362.3 L 857.568,1358.69 L 869.211,1357.46 L 981.211,1357.46 L 992.854,1358.69 L 1003.99,1362.3 L 1014.13,1368.16 L 1022.83,1375.99 L 1029.71,1385.46 L 1034.47,1396.16 L 1036.9,1407.61 L 1036.9,1419.32 L 1034.47,1430.77 L 1029.71,1441.46 L 1022.83,1450.93 L 1014.13,1458.77 L 1003.99,1464.62 L 992.854,1468.24 L 981.211,1469.46 L 981.211,1469.46 L 869.211,1469.46 L 857.568,1468.24 L 846.433,1464.62 L 836.295,1458.77 L 827.595,1450.93 L 820.713,1441.46 L 815.951,1430.77 L 813.517,1419.32 z " style="fill-opacity:1.000000;fill:rgb(201,154,102);stroke:rgb(0,0,0);stroke-width:2"/></g>
<g fill-rule="evenodd"><path d="M 975.433,1185.04 L 976.744,1172.56 L 980.62,1160.64 L 986.892,1149.77 L 995.285,1140.45 L 1005.43,1133.08 L 1016.89,1127.98 L 1029.16,1125.37 L 1041.7,1125.37 L 1053.97,1127.98 L 1065.43,1133.08 L 1075.58,1140.45 L 1080.28,1145.67 L 2171.69,1145.67 L 2176.39,1140.45 L 2186.54,1133.08 L 2197.99,1127.98 L 2210.26,1125.37 L 2222.81,1125.37 L 2235.08,1127.98 L 2246.54,1133.08 L 2256.68,1140.45 L 2265.08,1149.77 L 2271.35,1160.64 L 2275.22,1172.56 L 2276.54,1185.04 L 2275.22,1197.51 L 2271.35,1209.44 L 2265.08,1220.31 L 2256.68,1229.63 L 2246.54,1237 L 2235.08,1242.1 L 2222.81,1244.71 L 2210.26,1244.71 L 2197.99,1242.1 L 2186.54,1237 L 2176.39,1229.63 L 2171.69,1224.41 L 1080.28,1224.41 L 1075.58,1229.63 L 1065.43,1237 L 1053.97,1242.1 L 1041.7,1244.71 L 1029.16,1244.71 L 1016.89,1242.1 L 1005.43,1237 L 995.285,1229.63 L 986.892,1220.31 L 980.62,1209.44 L 976.744,1197.51 L 975.433,1185.04 z " style="fill-opacity:1.000000;fill:rgb(50,13,183);stroke:rgb(0,0,0);stroke-width:2"/></g>
<g fill-rule="evenodd"><path d="M 1490.94,830.709 L 1493.01,811.063 L 1499.11,792.277 L 1508.99,775.17 L 1522.21,760.49 L 1538.19,748.879 L 1556.23,740.845 L 1575.56,736.738 L 1595.31,736.738 L 1614.63,740.845 L 1632.68,748.879 L 1648.66,760.49 L 1661.88,775.17 L 1671.75,792.277 L 1677.86,811.063 L 1679.92,830.709 L 1677.86,850.354 L 1671.75,869.14 L 1661.88,886.247 L 1648.66,900.927 L 1632.68,912.538 L 1614.63,920.572 L 1595.31,924.679 L 1575.56,924.679 L 1556.23,920.572 L 1538.19,912.538 L 1522.21,900.927 L 1508.99,886.247 L 1499.11,869.14 L 1493.01,850.354 L 1490.94,830.709 z " style="fill-opacity:1.000000;fill:rgb(49,88,163);stroke:rgb(0,0,0);stroke-width:2"/></g>
<g fill-rule="evenodd"><path d="M 2090.94,830.709 L 2093.01,811.063 L 2099.11,792.277 L 2108.99,775.17 L 2122.21,760.49 L 2138.19,748.879 L 2156.23,740.845 L 2175.56,736.738 L 2195.31,736.738 L 2214.63,740.845 L 2232.68,748.879 L 2248.66,760.49 L 2261.88,775.17 L 2271.75,792.277 L 2277.86,811.063 L 2279.92,830.709 L 2277.86,850.354 L 2271.75,869.14 L 2261.88,886.247 L 2248.66,900.927 L 2232.68,912.538 L 2214.63,920.572 L 2195.31,924.679 L 2175.56,924.679 L 2156.23,920.572 L 2138.19,912.538 L 2122.21,900.927 L 2108.99,886.247 L 2099.11,869.14 L 2093.01,850.354 L 2090.94,830.709 z " style="fill-opacity:1.000000;fill:rgb(90,37,93);stroke:rgb(0,0,0);stroke-width:2"/></g>
<g fill-rule="evenodd"><path d="M 2235.28,3074.8 L 2236.59,3062.33 L 2240.46,3050.4 L 2246.73,3039.54 L 2255.13,3030.21 L 2265.28,3022.84 L 2276.73,3017.74 L 2289,3015.13 L 2301.55,3015.13 L 2313.82,3017.74 L 2325.28,3022.84 L 2335.42,3030.21 L 2340.12,3035.43 L 3392.16,3035.43 L 3396.86,3030.21 L 3407.01,3022.84 L 3418.47,3017.74 L 3430.74,3015.13 L 3443.28,3015.13 L 3455.55,3017.74 L 3467.01,3022.84 L 3477.16,3030.21 L 3485.55,3039.54 L 3491.82,3050.4 L 3495.7,3062.33 L 3497.01,3074.8 L 3495.7,3087.28 L 3491.82,3099.21 L 3485.55,3110.07 L 3477.16,3119.39 L 3467.01,3126.76 L 3455.55,3131.87 L 3443.28,3134.47 L 3430.74,3134.47 L 3418.47,3131.87 L 3407.01,3126.76 L 3396.86,3119.39 L 3392.16,3114.17 L 2340.12,3114.17 L 2335.42,3119.39 L 2325.28,3126.76 L 2313.82,3131.87 L 2301.55,3134.47 L 2289,3134.47 L 2276.73,3131.87 L 2265.28,3126.76 L 2255.13,3119.39 L 2246.73,3110.07 L 2240.46,3099.21 L 2236.59,3087.28 L 2235.28,3074.8 z " style="fill-opacity:1.000000;fill:rgb(5,23,88);stroke:rgb(0,0,0);stroke-width:2"/></g>
<g fill-rule="evenodd"><path d="M 2613.52,2819.32 L 2613.52,2807.61 L 2615.95,2796.16 L 2620.71,2785.46 L 2627.59,2775.99 L 2636.29,2768.16 L 2646.43,2762.3 L 2657.57,2758.69 L 2669.21,2757.46 L 2781.21,2757.46 L 2792.85,2758.69 L 2803.99,2762.3 L 2814.13,2768.16 L 2822.83,2775.99 L 2829.71,2785.46 L 2834.47,2796.16 L 2836.9,2807.61 L 2836.9,2819.32 L 2834.47,2830.77 L 2829.71,2841.46 L 2822.83,2850.93 L 2814.13,2858.77 L 2803.99,2864.62 L 2792.85,2868.24 L 2781.21,2869.46 L 2781.21,2869.46 L 2669.21,2869.46 L 2657.57,2868.24 L 2646.43,2864.62 L 2636.29,2858.77 L 2627.59,2850.93 L 2620.71,2841.46 L 2615.95,2830.77 L 2613.52,2819.32 z " style="fill-opacity:1.000000;fill:rgb(233,94,212);stroke:rgb(0,0,0);stroke-width:2"/></g>
<g fill-rule="evenodd"><path d="M 2613.52,2619.32 L 2613.52,2607.61 L 2615.95,2596.16 L 2620.71,2585.46 L 2627.59,2575.99 L 2636.29,2568.16 L 2646.43,2562.3 L 2657.57,2558.69 L 2669.21,2557.46 L 2781.21,2557.46 L 2792.85,2558.69 L 2803.99,2562.3 L 2814.13,2568.16 L 2822.83,2575.99 L 2829.71,2585.46 L 2834.47,2596.16 L 2836.9,2607.61 L 2836.9,2619.32 L 2834.47,2630.77 L 2829.71,2641.46 L 2822.83,2650.93 L 2814.13,2658.77 L 2803.99,2664.62 L 2792.85,2668.24 L 2781.21,2669.46 L 2781.21,2669.46 L 2669.21,2669.46 L 2657.57,2668.24 L 2646.43,2664.62 L 2636.29,2658.77 L 2627.59,2650.93 L 2620.71,2641.46 L 2615.95,2630.77 L 2613.52,2619.32 z " style="fill-opacity:1.000000;fill:rgb(171,178,205);stroke:rgb(0,0,0);stroke-width:2"/></g>
<g fill-rule="evenodd"><path d="M 2613.52,2419.32 L 2613.52,2407.61 L 2615.95,2396.16 L 2620.71,2385.46 L 2627.59,2375.99 L 2636.29,2368.16 L 2646.43,2362.3 L 2657.57,2358.69 L 2669.21,2357.46 L 2781.21,2357.46 L 2792.85,2358.69 L 2803.99,2362.3 L 2814.13,2368.16 L 2822.83,2375.99 L 2829.71,2385.46 L 2834.47,2396.16 L 2836.9,2407.61 L 2836.9,2419.32 L 2834.47,2430.77 L 2829.71,2441.46 L 2822.83,2450.93 L 2814.13,2458.77 L 2803.99,2464.62 L 2792.85,2468.24 L 2781.21,2469.46 L 2781.21,2469.46 L 2669.21,2469.46 L 2657.57,2468.24 L 2646.43,2464.62 L 2636.29,2458.77 L 2627.59,2450.93 L 2620.71,2441.46 L 2615.95,2430.77 L 2613.52,2419.32 z " style="fill-opacity:1.000000;fill:rgb(198,155,180);stroke:rgb(0,0,0);stroke-width:2"/></g>
<g fill-rule="evenodd"><path d="M 2613.52,2219.32 L 2613.52,2207.61 L 2615.95,2196.16 L 2620.71,2185.46 L 2627.59,2175.99 L 2636.29,2168.16 L 2646.43,2162.3 L 2657.57,2158.69 L 2669.21,2157.46 L 2781.21,2157.46 L 2792.85,2158.69 L 2803.99,2162.3 L 2814.13,2168.16 L 2822.83,2175.99 L 2829.71,2185.46 L 2834.47,2196.16 L 2836.9,2207.61 L 2836.9,2219.32 L 2834.47,2230.77 L 2829.71,2241.46 L 2822.83,2250.93 L 2814.13,2258.77 L 2803.99,2264.62 L 2792.85,2268.24 L 2781.21,2269.46 L 2781.21,2269.46 L 2669.21,2269.46 L 2657.57,2268.24 L 2646.43,2264.62 L 2636.29,2258.77 L 2627.59,2250.93 L 2620.71,2241.46 L 2615.95,2230.77 L 2613.52,2219.32 z " style="fill-opacity:1.000000;fill:rgb(84,17,14);stroke:rgb(0,0,0);stroke-width:2"/></g>
<g fill-rule="evenodd"><path d="M 2613.52,2019.32 L 2613.52,2007.61 L 2615.95,1996.16 L 2620.71,1985.46 L 2627.59,1975.99 L 2636.29,1968.16 L 2646.43,1962.3 L 2657.57,1958.69 L 2669.21,1957.46 L 2781.21,1957.46 L 2792.85,1958.69 L 2803.99,1962.3 L 2814.13,1968.16 L 2822.83,1975.99 L 2829.71,1985.46 L 2834.47,1996.16 L 2836.9,2007.61 L 2836.9,2019.32 L 2834.47,2030.77 L 2829.71,2041.46 L 2822.83,2050.93 L 2814.13,2058.77 L 2803.99,2064.62 L 2792.85,2068.24 L 2781.21,2069.46 L 2781.21,2069.46 L 2669.21,2069.46 L 2657.57,2068.24 L 2646.43,2064.62 L 2636.29,2058.77 L 2627.59,2050.93 L 2620.71,2041.46 L 2615.95,2030.77 L 2613.52,2019.32 z " style="fill-opacity:1.000000;fill:rgb(130,116,65);stroke:rgb(0,0,0);stroke-width:2"/></g>
<g fill-rule="evenodd"><path d="M 2613.52,1819.32 L 2613.52,1807.61 L 2615.95,1796.16 L 2620.71,1785.46 L 2627.59,1775.99 L 2636.29,1768.16 L 2646.43,1762.3 L 2657.57,1758.69 L 2669.21,1757.46 L 2781.21,1757.46 L 2792.85,1758.69 L 2803.99,1762.3 L 2814.13,1768.16 L 2822.83,1775.99 L 2829.71,1785.46 L 2834.47,1796.16 L 2836.9,1807.61 L 2836.9,1819.32 L 2834.47,1830.77 L 2829.71,1841.46 L 2822.83,1850.93 L 2814.13,1858.77 L 2803.99,1864.62 L 2792.85,1868.24 L 2781.21,1869.46 L 2781.21,1869.46 L 2669.21,1869.46 L 2657.57,1868.24 L 2646.43,1864.62 L 2636.29,1858.77 L 2627.59,1850.93 L 2620.71,1841.46 L 2615.95,1830.77 L 2613.52,1819.32 z " style="fill-opacity:1.000000;fill:rgb(33,61,220);stroke:rgb(0,0,0);stroke-width:2"/></g>
<g fill-rule="evenodd"><path d="M 2613.52,1619.32 L 2613.52,1607.61 L 2615.95,1596.16 L 2620.71,1585.46 L 2627.59,1575.99 L 2636.29,1568.16 L 2646.43,1562.3 L 2657.57,1558.69 L 2669.21,1557.46 L 2781.21,1557.46 L 2792.85,1558.69 L 2803.99,1562.3 L 2814.13,1568.16 L 2822.83,1575.99 L 2829.71,1585.46 L 2834.47,1596.16 L 2836.9,1607.61 L 2836.9,1619.32 L 2834.47,1630.77 L 2829.71,1641.46 L 2822.83,1650.93 L 2814.13,1658.77 L 2803.99,1664.62 L 2792.85,1668.24 L 2781.21,1669.46 L 2781.21,1669.46 L 2669.21,1669.46 L 2657.57,1668.24 L 2646.43,1664.62 L 2636.29,1658.77 L 2627.59,1650.93 L 2620.71,1641.46 L 2615.95,1630.77 L 2613.52,1619.32 z " style="fill-opacity:1.000000;fill:rgb(135,112,233);stroke:rgb(0,0,0);stroke-width:2"/></g>
<g fill-rule="evenodd"><path d="M 2613.52,1419.32 L 2613.52,1407.61 L 2615.95,1396.16 L 2620.71,1385.46 L 2627.59,1375.99 L 2636.29,1368.16 L 2646.43,1362.3 L 2657.57,1358.69 L 2669.21,1357.46 L 2781.21,1357.46 L 2792.85,1358.69 L 2803.99,1362.3 L 2814.13,1368.16 L 2822.83,1375.99 L 2829.71,1385.46 L 2834.47,1396.16 L 2836.9,1407.61 L 2836.9,1419.32 L 2834.47,1430.77 L 2829.71,1441.46 L 2822.83,1450.93 L 2814.13,1458.77 L 2803.99,1464.62 L 2792.85,1468.24 L 2781.21,1469.46 L 2781.21,1469.46 L 2669.21,1469.46 L 2657.57,1468.24 L 2646.43,1464.62 L 2636.29,1458.77 L 2627.59,1450.93 L 2620.71,1441.46 L 2615.95,1430.77 L 2613.52,1419.32 z " style="fill-opacity:1.000000;fill:rgb(62,161,65);stroke:rgb(0,0,0);stroke-width:2"/></g>
<g fill-rule="evenodd"><path d="M 2628.98,3192.91 L 2630.29,3180.44 L 2634.16,3168.51 L 2640.44,3157.65 L 2648.83,3148.32 L 2658.98,3140.95 L 2670.44,3135.85 L 2682.7,3133.24 L 2695.25,3133.24 L 2707.52,3135.85 L 2718.98,3140.95 L 2729.12,3148.32 L 2733.82,3153.54 L 3077.2,3153.54 L 3081.9,3148.32 L 3092.05,3140.95 L 3103.51,3135.85 L 3115.78,3133.24 L 3128.32,3133.24 L 3140.59,3135.85 L 3152.05,3140.95 L 3162.2,3148.32 L 3170.59,3157.65 L 3176.86,3168.51 L 3180.74,3180.44 L 3182.05,3192.91 L 3180.74,3205.39 L 3176.86,3217.32 L 3170.59,3228.18 L 3162.2,3237.5 L 3152.05,3244.87 L 3140.59,3249.98 L 3128.32,3252.58 L 3115.78,3252.58 L 3103.51,3249.98 L 3092.05,3244.87 L 3081.9,3237.5 L 3077.2,3232.28 L 2733.82,3232.28 L 2729.12,3237.5 L 2718.98,3244.87 L 2707.52,3249.98 L 2695.25,3252.58 L 2682.7,3252.58 L 2670.44,3249.98 L 2658.98,3244.87 L 2648.83,3237.5 L 2640.44,3228.18 L 2634.16,3217.32 L 2630.29,3205.39 L 2628.98,3192.91 z " style="fill-opacity:1.000000;fill:rgb(225,252,103);stroke:rgb(0,0,0);stroke-width:2"/></g>
<g fill-rule="evenodd"><path d="M 3129.92,951.969 L 3131.47,937.235 L 3136.05,923.145 L 3143.46,910.314 L 3153.37,899.305 L 3165.35,890.597 L 3178.89,884.571 L 3193.38,881.491 L 3208.19,881.491 L 3222.69,884.571 L 3236.22,890.597 L 3248.21,899.305 L 3258.12,910.314 L 3265.53,923.145 L 3270.1,937.235 L 3271.65,951.969 L 3270.1,966.702 L 3265.53,980.792 L 3258.12,993.623 L 3248.21,1004.63 L 3236.22,1013.34 L 3222.69,1019.37 L 3208.19,1022.45 L 3193.38,1022.45 L 3178.89,1019.37 L 3165.35,1013.34 L 3153.37,1004.63 L 3143.46,993.623 L 3136.05,980.792 L 3131.47,966.702 L 3129.92,951.969 z " style="fill-opacity:1.000000;fill:rgb(62,1,126);stroke:rgb(0,0,0);stroke-width:2"/></g>
<g fill-rule="evenodd"><path d="M 3129.92,822.835 L 3129.92,681.102 L 3271.65,681.102 L 3271.65,822.835 L 3129.92,822.835 z " style="fill-opacity:1.000000;fill:rgb(151,234,220);stroke:rgb(0,0,0);stroke-width:2"/></g>
<g fill-rule="evenodd"><path d="M 3140.22,2918.5 L 3141.69,2904.58 L 3146.01,2891.27 L 3153.01,2879.16 L 3162.37,2868.76 L 3173.69,2860.53 L 3186.47,2854.84 L 3200.16,2851.93 L 3214.15,2851.93 L 3227.83,2854.84 L 3240.62,2860.53 L 3251.94,2868.76 L 3261.3,2879.16 L 3268.3,2891.27 L 3272.62,2904.58 L 3274.08,2918.5 L 3272.62,2932.41 L 3268.3,2945.72 L 3261.3,2957.84 L 3251.94,2968.23 L 3240.62,2976.46 L 3227.83,2982.15 L 3214.15,2985.06 L 3200.16,2985.06 L 3186.47,2982.15 L 3173.69,2976.46 L 3162.37,2968.23 L 3153.01,2957.84 L 3146.01,2945.72 L 3141.69,2932.41 L 3140.22,2918.5 z " style="fill-opacity:1.000000;fill:rgb(107,150,143);stroke:rgb(0,0,0);stroke-width:2"/></g>
<g fill-rule="evenodd"><path d="M 3140.22,2718.5 L 3141.69,2704.58 L 3146.01,2691.27 L 3153.01,2679.16 L 3162.37,2668.76 L 3173.69,2660.53 L 3186.47,2654.84 L 3200.16,2651.93 L 3214.15,2651.93 L 3227.83,2654.84 L 3240.62,2660.53 L 3251.94,2668.76 L 3261.3,2679.16 L 3268.3,2691.27 L 3272.62,2704.58 L 3274.08,2718.5 L 3272.62,2732.41 L 3268.3,2745.72 L 3261.3,2757.84 L 3251.94,2768.23 L 3240.62,2776.46 L 3227.83,2782.15 L 3214.15,2785.06 L 3200.16,2785.06 L 3186.47,2782.15 L 3173.69,2776.46 L 3162.37,2768.23 L 3153.01,2757.84 L 3146.01,2745.72 L 3141.69,2732.41 L 3140.22,2718.5 z " style="fill-opacity:1.000000;fill:rgb(56,92,42);stroke:rgb(0,0,0);stroke-width:2"/></g>
<g fill-rule="evenodd"><path d="M 3140.22,2518.5 L 3141.69,2504.58 L 3146.01,2491.27 L 3153.01,2479.16 L 3162.37,2468.76 L 3173.69,2460.53 L 3186.47,2454.84 L 3200.16,2451.93 L 3214.15,2451.93 L 3227.83,2454.84 L 3240.62,2460.53 L 3251.94,2468.76 L 3261.3,2479.16 L 3268.3,2491.27 L 3272.62,2504.58 L 3274.08,2518.5 L 3272.62,2532.41 L 3268.3,2545.72 L 3261.3,2557.84 L 3251.94,2568.23 L 3240.62,2576.46 L 3227.83,2582.15 L 3214.15,2585.06 L 3200.16,2585.06 L 3186.47,2582.15 L 3173.69,2576.46 L 3162.37,2568.23 L 3153.01,2557.84 L 3146.01,2545.72 L 3141.69,2532.41 L 3140.22,2518.5 z " style="fill-opacity:1.000000;fill:rgb(236,176,59);stroke:rgb(0,0,0);stroke-width:2"/></g>
<g fill-rule="evenodd"><path d="M 3140.22,2318.5 L 3141.69,2304.58 L 3146.01,2291.27 L 3153.01,2279.16 L 3162.37,2268.76 L 3173.69,2260.53 L 3186.47,2254.84 L 3200.16,2251.93 L 3214.15,2251.93 L 3227.83,2254.84 L 3240.62,2260.53 L 3251.94,2268.76 L 3261.3,2279.16 L 3268.3,2291.27 L 3272.62,2304.58 L 3274.08,2318.5 L 3272.62,2332.41 L 3268.3,2345.72 L 3261.3,2357.84 L 3251.94,2368.23 L 3240.62,2376.46 L 3227.83,2382.15 L 3214.15,2385.06 L 3200.16,2385.06 L 3186.47,2382.15 L 3173.69,2376.46 L 3162.37,2368.23 L 3153.01,2357.84 L 3146.01,2345.72 L 3141.69,2332.41 L 3140.22,2318.5 z " style="fill-opacity:1.000000;fill:rgb(251,50,175);stroke:rgb(0,0,0);stroke-width:2"/></g>
<g fill-rule="evenodd"><path d="M 3140.22,2118.5 L 3141.69,2104.58 L 3146.01,2091.27 L 3153.01,2079.16 L 3162.37,2068.76 L 3173.69,2060.53 L 3186.47,2054.84 L 3200.16,2051.93 L 3214.15,2051.93 L 3227.83,2054.84 L 3240.62,2060.53 L 3251.94,2068.76 L 3261.3,2079.16 L 3268.3,2091.27 L 3272.62,2104.58 L 3274.08,2118.5 L 3272.62,2132.41 L 3268.3,2145.72 L 3261.3,2157.84 L 3251.94,2168.23 L 3240.62,2176.46 L 3227.83,2182.15 L 3214.15,2185.06 L 3200.16,2185.06 L 3186.47,2182.15 L 3173.69,2176.46 L 3162.37,2168.23 L 3153.01,2157.84 L 3146.01,2145.72 L 3141.69,2132.41 L 3140.22,2118.5 z " style="fill-opacity:1.000000;fill:rgb(60,84,236);stroke:rgb(0,0,0);stroke-width:2"/></g>
<g fill-rule="evenodd"><path d="M 3140.22,1918.5 L 3141.69,1904.58 L 3146.01,1891.27 L 3153.01,1879.16 L 3162.37,1868.76 L 3173.69,1860.53 L 3186.47,1854.84 L 3200.16,1851.93 L 3214.15,1851.93 L 3227.83,1854.84 L 3240.62,1860.53 L 3251.94,1868.76 L 3261.3,1879.16 L 3268.3,1891.27 L 3272.62,1904.58 L 3274.08,1918.5 L 3272.62,1932.41 L 3268.3,1945.72 L 3261.3,1957.84 L 3251.94,1968.23 L 3240.62,1976.46 L 3227.83,1982.15 L 3214.15,1985.06 L 3200.16,1985.06 L 3186.47,1982.15 L 3173.69,1976.46 L 3162.37,1968.23 L 3153.01,1957.84 L 3146.01,1945.72 L 3141.69,1932.41 L 3140.22,1918.5 z " style="fill-opacity:1.000000;fill:rgb(24,219,92);stroke:rgb(0,0,0);stroke-width:2"/></g>
<g fill-rule="evenodd"><path d="M 3140.22,1718.5 L 3141.69,1704.58 L 3146.01,1691.27 L 3153.01,1679.16 L 3162.37,1668.76 L 3173.69,1660.53 L 3186.47,1654.84 L 3200.16,1651.93 L 3214.15,1651.93 L 3227.83,1654.84 L 3240.62,1660.53 L 3251.94,1668.76 L 3261.3,1679.16 L 3268.3,1691.27 L 3272.62,1704.58 L 3274.08,1718.5 L 3272.62,1732.41 L 3268.3,1745.72 L 3261.3,1757.84 L 3251.94,1768.23 L 3240.62,1776.46 L 3227.83,1782.15 L 3214.15,1785.06 L 3200.16,1785.06 L 3186.47,1782.15 L 3173.69,1776.46 L 3162.37,1768.23 L 3153.01,1757.84 L 3146.01,1745.72 L 3141.69,1732.41 L 3140.22,1718.5 z " style="fill-opacity:1.000000;fill:rgb(2,26,254);stroke:rgb(0,0,0);stroke-width:2"/></g>
<g fill-rule="evenodd"><path d="M 3140.22,1585.42 L 3140.22,1451.57 L 3274.08,1451.57 L 3274.08,1585.42 L 3140.22,1585.42 z " style="fill-opacity:1.000000;fill:rgb(67,251,250);stroke:rgb(0,0,0);stroke-width:2"/></g>
<g fill-rule="evenodd"><path d="M 3566.93,2966.54 L 3566.93,2832.68 L 3700.79,2832.68 L 3700.79,2966.54 L 3566.93,2966.54 z " style="fill-opacity:1.000000;fill:rgb(170,58,251);stroke:rgb(0,0,0);stroke-width:2"/></g>
<g fill-rule="evenodd"><path d="M 3566.93,2699.61 L 3568.39,2685.69 L 3572.72,2672.38 L 3579.71,2660.27 L 3589.07,2649.87 L 3600.39,2641.64 L 3613.18,2635.95 L 3626.86,2633.04 L 3640.85,2633.04 L 3654.54,2635.95 L 3667.32,2641.64 L 3678.64,2649.87 L 3688.01,2660.27 L 3695,2672.38 L 3699.32,2685.69 L 3700.79,2699.61 L 3699.32,2713.52 L 3695,2726.83 L 3688.01,2738.95 L 3678.64,2749.34 L 3667.32,2757.57 L 3654.54,2763.26 L 3640.85,2766.17 L 3626.86,2766.17 L 3613.18,2763.26 L 3600.39,2757.57 L 3589.07,2749.34 L 3579.71,2738.95 L 3572.72,2726.83 L 3568.39,2713.52 L 3566.93,2699.61 z " style="fill-opacity:1.000000;fill:rgb(41,209,230);stroke:rgb(0,0,0);stroke-width:2"/></g>
<g fill-rule="evenodd"><path d="M 3606.3,2200 L 3606.3,2066.14 L 3740.16,2066.14 L 3740.16,2200 L 3606.3,2200 z " style="fill-opacity:1.000000;fill:rgb(5,60,124);stroke:rgb(0,0,0);stroke-width:2"/></g>
<g fill-rule="evenodd"><path d="M 3606.3,1933.07 L 3607.76,1919.16 L 3612.09,1905.85 L 3619.08,1893.73 L 3628.44,1883.33 L 3639.76,1875.11 L 3652.55,1869.42 L 3666.23,1866.51 L 3680.22,1866.51 L 3693.91,1869.42 L 3706.69,1875.11 L 3718.01,1883.33 L 3727.38,1893.73 L 3734.37,1905.85 L 3738.69,1919.16 L 3740.16,1933.07 L 3738.69,1946.99 L 3734.37,1960.29 L 3727.38,1972.41 L 3718.01,1982.81 L 3706.69,1991.03 L 3693.91,1996.72 L 3680.22,1999.63 L 3666.23,1999.63 L 3652.55,1996.72 L 3639.76,1991.03 L 3628.44,1982.81 L 3619.08,1972.41 L 3612.09,1960.29 L 3607.76,1946.99 L 3606.3,1933.07 z " style="fill-opacity:1.000000;fill:rgb(148,117,216);stroke:rgb(0,0,0);stroke-width:2"/></g>
<g fill-rule="evenodd"><path d="M 3606.3,1733.07 L 3607.76,1719.16 L 3612.09,1705.85 L 3619.08,1693.73 L 3628.44,1683.33 L 3639.76,1675.11 L 3652.55,1669.42 L 3666.23,1666.51 L 3680.22,1666.51 L 3693.91,1669.42 L 3706.69,1675.11 L 3718.01,1683.33 L 3727.38,1693.73 L 3734.37,1705.85 L 3738.69,1719.16 L 3740.16,1733.07 L 3738.69,1746.99 L 3734.37,1760.29 L 3727.38,1772.41 L 3718.01,1782.81 L 3706.69,1791.03 L 3693.91,1796.72 L 3680.22,1799.63 L 3666.23,1799.63 L 3652.55,1796.72 L 3639.76,1791.03 L 3628.44,1782.81 L 3619.08,1772.41 L 3612.09,1760.29 L 3607.76,1746.99 L 3606.3,1733.07 z " style="fill-opacity:1.000000;fill:rgb(190,97,137);stroke:rgb(0,0,0);stroke-width:2"/></g>
<g fill-rule="evenodd"><path d="M 3606.3,1533.07 L 3607.76,1519.16 L 3612.09,1505.85 L 3619.08,1493.73 L 3628.44,1483.33 L 3639.76,1475.11 L 3652.55,1469.42 L 3666.23,1466.51 L 3680.22,1466.51 L 3693.91,1469.42 L 3706.69,1475.11 L 3718.01,1483.33 L 3727.38,1493.73 L 3734.37,1505.85 L 3738.69,1519.16 L 3740.16,1533.07 L 3738.69,1546.99 L 3734.37,1560.29 L 3727.38,1572.41 L 3718.01,1582.81 L 3706.69,1591.03 L 3693.91,1596.72 L 3680.22,1599.63 L 3666.23,1599.63 L 3652.55,1596.72 L 3639.76,1591.03 L 3628.44,1582.81 L 3619.08,1572.41 L 3612.09,1560.29 L 3607.76,1546.99 L 3606.3,1533.07 z " style="fill-opacity:1.000000;fill:rgb(249,92,187);stroke:rgb(0,0,0);stroke-width:2"/></g>
<g fill-rule="evenodd"><path d="M 3810.08,1578.74 L 3811.39,1566.27 L 3815.27,1554.34 L 3821.54,1543.47 L 3829.93,1534.15 L 3840.08,1526.78 L 3851.54,1521.68 L 3863.81,1519.07 L 3876.35,1519.07 L 3888.62,1521.68 L 3900.08,1526.78 L 3910.23,1534.15 L 3918.62,1543.47 L 3924.89,1554.34 L 3928.77,1566.27 L 3930.08,1578.74 L 3928.77,1591.21 L 3924.89,1603.14 L 3918.62,1614.01 L 3910.23,1623.33 L 3909.45,1623.89 L 3909.45,2102.68 L 3913.1,2104.31 L 3923.25,2111.68 L 3931.64,2121 L 3937.92,2131.86 L 3941.79,2143.79 L 3943.1,2156.27 L 3941.79,2168.74 L 3937.92,2180.67 L 3931.64,2191.53 L 3923.25,2200.86 L 3913.1,2208.23 L 3901.64,2213.33 L 3889.37,2215.94 L 3876.83,2215.94 L 3864.56,2213.33 L 3853.1,2208.23 L 3842.95,2200.86 L 3834.56,2191.53 L 3828.29,2180.67 L 3824.41,2168.74 L 3823.1,2156.27 L 3824.41,2143.79 L 3828.29,2131.86 L 3830.71,2127.68 L 3830.71,1623.89 L 3829.93,1623.33 L 3821.54,1614.01 L 3815.27,1603.14 L 3811.39,1591.21 L 3810.08,1578.74 z " style="fill-opacity:1.000000;fill:rgb(168,153,15);stroke:rgb(0,0,0);stroke-width:2"/></g>
<g fill-rule="evenodd"><path d="M 3995.62,2956.27 L 3997.23,2940.88 L 4002.01,2926.17 L 4009.75,2912.77 L 4020.1,2901.27 L 4032.62,2892.18 L 4046.75,2885.89 L 4061.88,2882.67 L 4077.35,2882.67 L 4092.48,2885.89 L 4106.62,2892.18 L 4119.13,2901.27 L 4129.48,2912.77 L 4137.22,2926.17 L 4142,2940.88 L 4143.62,2956.27 L 4142,2971.65 L 4137.22,2986.37 L 4129.48,2999.76 L 4119.13,3011.26 L 4106.62,3020.35 L 4092.48,3026.65 L 4077.35,3029.86 L 4061.88,3029.86 L 4046.75,3026.65 L 4032.62,3020.35 L 4020.1,3011.26 L 4009.75,2999.76 L 4002.01,2986.37 L 3997.23,2971.65 L 3995.62,2956.27 z " style="fill-opacity:1.000000;fill:rgb(149,177,235);stroke:rgb(0,0,0);stroke-width:2"/></g>
<g fill-rule="evenodd"><path d="M 3995.62,2756.27 L 3997.23,2740.88 L 4002.01,2726.17 L 4009.75,2712.77 L 4020.1,2701.27 L 4032.62,2692.18 L 4046.75,2685.89 L 4061.88,2682.67 L 4077.35,2682.67 L 4092.48,2685.89 L 4106.62,2692.18 L 4119.13,2701.27 L 4129.48,2712.77 L 4137.22,2726.17 L 4142,2740.88 L 4143.62,2756.27 L 4142,2771.65 L 4137.22,2786.37 L 4129.48,2799.76 L 4119.13,2811.26 L 4106.62,2820.35 L 4092.48,2826.65 L 4077.35,2829.86 L 4061.88,2829.86 L 4046.75,2826.65 L 4032.62,2820.35 L 4020.1,2811.26 L 4009.75,2799.76 L 4002.01,2786.37 L 3997.23,2771.65 L 3995.62,2756.27 z " style="fill-opacity:1.000000;fill:rgb(241,179,5);stroke:rgb(0,0,0);stroke-width:2"/></g>
<g fill-rule="evenodd"><path d="M 3995.62,2556.27 L 3997.23,2540.88 L 4002.01,2526.17 L 4009.75,2512.77 L 4020.1,2501.27 L 4032.62,2492.18 L 4046.75,2485.89 L 4061.88,2482.67 L 4077.35,2482.67 L 4092.48,2485.89 L 4106.62,2492.18 L 4119.13,2501.27 L 4129.48,2512.77 L 4137.22,2526.17 L 4142,2540.88 L 4143.62,2556.27 L 4142,2571.65 L 4137.22,2586.37 L 4129.48,2599.76 L 4119.13,2611.26 L 4106.62,2620.35 L 4092.48,2626.65 L 4077.35,2629.86 L 4061.88,2629.86 L 4046.75,2626.65 L 4032.62,2620.35 L 4020.1,2611.26 L 4009.75,2599.76 L 4002.01,2586.37 L 3997.23,2571.65 L 3995.62,2556.27 z " style="fill-opacity:1.000000;fill:rgb(239,247,0);stroke:rgb(0,0,0);stroke-width:2"/></g>
<g fill-rule="evenodd"><path d="M 3995.62,2356.27 L 3997.23,2340.88 L 4002.01,2326.17 L 4009.75,2312.77 L 4020.1,2301.27 L 4032.62,2292.18 L 4046.75,2285.89 L 4061.88,2282.67 L 4077.35,2282.67 L 4092.48,2285.89 L 4106.62,2292.18 L 4119.13,2301.27 L 4129.48,2312.77 L 4137.22,2326.17 L 4142,2340.88 L 4143.62,2356.27 L 4142,2371.65 L 4137.22,2386.37 L 4129.48,2399.76 L 4119.13,2411.26 L 4106.62,2420.35 L 4092.48,2426.65 L 4077.35,2429.86 L 4061.88,2429.86 L 4046.75,2426.65 L 4032.62,2420.35 L 4020.1,2411.26 L 4009.75,2399.76 L 4002.01,2386.37 L 3997.23,2371.65 L 3995.62,2356.27 z " style="fill-opacity:1.000000;fill:rgb(233,161,58);stroke:rgb(0,0,0);stroke-width:2"/></g>
<g fill-rule="evenodd"><path d="M 3995.62,2156.27 L 3997.23,2140.88 L 4002.01,2126.17 L 4009.75,2112.77 L 4020.1,2101.27 L 4032.62,2092.18 L 4046.75,2085.89 L 4061.88,2082.67 L 4077.35,2082.67 L 4092.48,2085.89 L 4106.62,2092.18 L 4119.13,2101.27 L 4129.48,2112.77 L 4137.22,2126.17 L 4142,2140.88 L 4143.62,2156.27 L 4142,2171.65 L 4137.22,2186.37 L 4129.48,2199.76 L 4119.13,2211.26 L 4106.62,2220.35 L 4092.48,2226.65 L 4077.35,2229.86 L 4061.88,2229.86 L 4046.75,2226.65 L 4032.62,2220.35 L 4020.1,2211.26 L 4009.75,2199.76 L 4002.01,2186.37 L 3997.23,2171.65 L 3995.62,2156.27 z " style="fill-opacity:1.000000;fill:rgb(229,202,11);stroke:rgb(0,0,0);stroke-width:2"/></g>
<g fill-rule="evenodd"><path d="M 3995.62,1956.27 L 3997.23,1940.88 L 4002.01,1926.17 L 4009.75,1912.77 L 4020.1,1901.27 L 4032.62,1892.18 L 4046.75,1885.89 L 4061.88,1882.67 L 4077.35,1882.67 L 4092.48,1885.89 L 4106.62,1892.18 L 4119.13,1901.27 L 4129.48,1912.77 L 4137.22,1926.17 L 4142,1940.88 L 4143.62,1956.27 L 4142,1971.65 L 4137.22,1986.37 L 4129.48,1999.76 L 4119.13,2011.26 L 4106.62,2020.35 L 4092.48,2026.65 L 4077.35,2029.86 L 4061.88,2029.86 L 4046.75,2026.65 L 4032.62,2020.35 L 4020.1,2011.26 L 4009.75,1999.76 L 4002.01,1986.37 L 3997.23,1971.65 L 3995.62,1956.27 z " style="fill-opacity:1.000000;fill:rgb(203,208,72);stroke:rgb(0,0,0);stroke-width:2"/></g>
<g fill-rule="evenodd"><path d="M 3995.62,1756.27 L 3997.23,1740.88 L 4002.01,1726.17 L 4009.75,1712.77 L 4020.1,1701.27 L 4032.62,1692.18 L 4046.75,1685.89 L 4061.88,1682.67 L 4077.35,1682.67 L 4092.48,1685.89 L 4106.62,1692.18 L 4119.13,1701.27 L 4129.48,1712.77 L 4137.22,1726.17 L 4142,1740.88 L 4143.62,1756.27 L 4142,1771.65 L 4137.22,1786.37 L 4129.48,1799.76 L 4119.13,1811.26 L 4106.62,1820.35 L 4092.48,1826.65 L 4077.35,1829.86 L 4061.88,1829.86 L 4046.75,1826.65 L 4032.62,1820.35 L 4020.1,1811.26 L 4009.75,1799.76 L 4002.01,1786.37 L 3997.23,1771.65 L 3995.62,1756.27 z " style="fill-opacity:1.000000;fill:rgb(71,100,189);stroke:rgb(0,0,0);stroke-width:2"/></g>
<g fill-rule="evenodd"><path d="M 3995.62,1556.27 L 3997.23,1540.88 L 4002.01,1526.17 L 4009.75,1512.77 L 4020.1,1501.27 L 4032.62,1492.18 L 4046.75,1485.89 L 4061.88,1482.67 L 4077.35,1482.67 L 4092.48,1485.89 L 4106.62,1492.18 L 4119.13,1501.27 L 4129.48,1512.77 L 4137.22,1526.17 L 4142,1540.88 L 4143.62,1556.27 L 4142,1571.65 L 4137.22,1586.37 L 4129.48,1599.76 L 4119.13,1611.26 L 4106.62,1620.35 L 4092.48,1626.65 L 4077.35,1629.86 L 4061.88,1629.86 L 4046.75,1626.65 L 4032.62,1620.35 L 4020.1,1611.26 L 4009.75,1599.76 L 4002.01,1586.37 L 3997.23,1571.65 L 3995.62,1556.27 z " style="fill-opacity:1.000000;fill:rgb(31,35,30);stroke:rgb(0,0,0);stroke-width:2"/></g>
<g fill-rule="evenodd"><path d="M 3995.62,1356.27 L 3997.23,1340.88 L 4002.01,1326.17 L 4009.75,1312.77 L 4020.1,1301.27 L 4032.62,1292.18 L 4046.75,1285.89 L 4061.88,1282.67 L 4077.35,1282.67 L 4092.48,1285.89 L 4106.62,1292.18 L 4119.13,1301.27 L 4129.48,1312.77 L 4137.22,1326.17 L 4142,1340.88 L 4143.62,1356.27 L 4142,1371.65 L 4137.22,1386.37 L 4129.48,1399.76 L 4119.13,1411.26 L 4106.62,1420.35 L 4092.48,1426.65 L 4077.35,1429.86 L 4061.88,1429.86 L 4046.75,1426.65 L 4032.62,1420.35 L 4020.1,1411.26 L 4009.75,1399.76 L 4002.01,1386.37 L 3997.23,1371.65 L 3995.62,1356.27 z " style="fill-opacity:1.000000;fill:rgb(168,28,123);stroke:rgb(0,0,0);stroke-width:2"/></g>
<g fill-rule="evenodd"><path d="M 3995.62,1156.27 L 3997.23,1140.88 L 4002.01,1126.17 L 4009.75,1112.77 L 4020.1,1101.27 L 4032.62,1092.18 L 4046.75,1085.89 L 4061.88,1082.67 L 4077.35,1082.67 L 4092.48,1085.89 L 4106.62,1092.18 L 4119.13,1101.27 L 4129.48,1112.77 L 4137.22,1126.17 L 4142,1140.88 L 4143.62,1156.27 L 4142,1171.65 L 4137.22,1186.37 L 4129.48,1199.76 L 4119.13,1211.26 L 4106.62,1220.35 L 4092.48,1226.65 L 4077.35,1229.86 L 4061.88,1229.86 L 4046.75,1226.65 L 4032.62,1220.35 L 4020.1,1211.26 L 4009.75,1199.76 L 4002.01,1186.37 L 3997.23,1171.65 L 3995.62,1156.27 z " style="fill-opacity:1.000000;fill:rgb(100,197,20);stroke:rgb(0,0,0);stroke-width:2"/></g>
<g fill-rule="evenodd"><path d="M 3995.62,956.267 L 3997.23,940.882 L 4002.01,926.169 L 4009.75,912.771 L 4020.1,901.275 L 4032.62,892.182 L 4046.75,885.889 L 4061.88,882.673 L 4077.35,882.673 L 4092.48,885.889 L 4106.62,892.182 L 4119.13,901.275 L 4129.48,912.771 L 4137.22,926.169 L 4142,940.882 L 4143.62,956.267 L 4142,971.653 L 4137.22,986.366 L 4129.48,999.764 L 4119.13,1011.26 L 4106.62,1020.35 L 4092.48,1026.65 L 4077.35,1029.86 L 4061.88,1029.86 L 4046.75,1026.65 L 4032.62,1020.35 L 4020.1,1011.26 L 4009.75,999.764 L 4002.01,986.366 L 3997.23,971.653 L 3995.62,956.267 z " style="fill-opacity:1.000000;fill:rgb(115,90,197);stroke:rgb(0,0,0);stroke-width:2"/></g>
<g fill-rule="evenodd"><path d="M 3995.62,756.267 L 3997.23,740.882 L 4002.01,726.169 L 4009.75,712.771 L 4020.1,701.275 L 4032.62,692.182 L 4046.75,685.889 L 4061.88,682.673 L 4077.35,682.673 L 4092.48,685.889 L 4106.62,692.182 L 4119.13,701.275 L 4129.48,712.771 L 4137.22,726.169 L 4142,740.882 L 4143.62,756.267 L 4142,771.653 L 4137.22,786.366 L 4129.48,799.764 L 4119.13,811.26 L 4106.62,820.353 L 4092.48,826.646 L 4077.35,829.862 L 4061.88,829.862 L 4046.75,826.646 L 4032.62,820.353 L 4020.1,811.26 L 4009.75,799.764 L 4002.01,786.366 L 3997.23,771.653 L 3995.62,756.267 z " style="fill-opacity:1.000000;fill:rgb(94,75,121);stroke:rgb(0,0,0);stroke-width:2"/></g>
<g fill-rule="evenodd"><path d="M 4095.62,556.267 L 4097.23,540.882 L 4102.01,526.169 L 4109.75,512.771 L 4120.1,501.275 L 4132.62,492.182 L 4146.75,485.889 L 4161.88,482.673 L 4177.35,482.673 L 4192.48,485.889 L 4206.62,492.182 L 4219.13,501.275 L 4229.48,512.771 L 4237.22,526.169 L 4242,540.882 L 4243.62,556.267 L 4242,571.653 L 4237.22,586.366 L 4229.48,599.764 L 4219.13,611.26 L 4206.62,620.353 L 4192.48,626.646 L 4177.35,629.862 L 4161.88,629.862 L 4146.75,626.646 L 4132.62,620.353 L 4120.1,611.26 L 4109.75,599.764 L 4102.01,586.366 L 4097.23,571.653 L 4095.62,556.267 z " style="fill-opacity:1.000000;fill:rgb(99,59,112);stroke:rgb(0,0,0);stroke-width:2"/></g>
<g fill-rule="evenodd"><path d="M 4260.05,1556.27 L 4261.36,1543.79 L 4265.23,1531.86 L 4271.51,1521 L 4279.9,1511.68 L 4290.05,1504.31 L 4301.51,1499.2 L 4313.78,1496.6 L 4326.32,1496.6 L 4338.59,1499.2 L 4350.05,1504.31 L 4360.19,1511.68 L 4368.59,1521 L 4374.86,1531.86 L 4378.74,1543.79 L 4380.05,1556.27 L 4379.64,1560.18 L 4764.06,1944.6 L 4768.07,1949.3 L 4771.3,1954.57 L 4773.66,1960.27 L 4775.1,1966.28 L 4775.59,1972.44 L 4775.59,2399.73 L 4776.37,2400.29 L 4784.76,2409.61 L 4791.03,2420.48 L 4794.91,2432.41 L 4796.22,2444.88 L 4794.91,2457.36 L 4791.03,2469.29 L 4784.76,2480.15 L 4776.37,2489.47 L 4766.22,2496.84 L 4754.76,2501.95 L 4742.49,2504.55 L 4729.95,2504.55 L 4717.68,2501.95 L 4706.22,2496.84 L 4696.07,2489.47 L 4687.68,2480.15 L 4681.41,2469.29 L 4677.53,2457.36 L 4676.22,2444.88 L 4677.53,2432.41 L 4681.41,2420.48 L 4687.68,2409.61 L 4696.07,2400.29 L 4696.85,2399.73 L 4696.85,1988.75 L 4324.04,1615.94 L 4313.78,1615.94 L 4301.51,1613.33 L 4290.05,1608.23 L 4279.9,1600.86 L 4271.51,1591.53 L 4265.23,1580.67 L 4261.36,1568.74 L 4260.05,1556.27 z " style="fill-opacity:1.000000;fill:rgb(100,36,17);stroke:rgb(0,0,0);stroke-width:2"/></g>
<g fill-rule="evenodd"><path d="M 4295.62,556.267 L 4297.23,540.882 L 4302.01,526.169 L 4309.75,512.771 L 4320.1,501.275 L 4332.62,492.182 L 4346.75,485.889 L 4361.88,482.673 L 4377.35,482.673 L 4392.48,485.889 L 4406.62,492.182 L 4419.13,501.275 L 4429.48,512.771 L 4437.22,526.169 L 4442,540.882 L 4443.62,556.267 L 4442,571.653 L 4437.22,586.366 L 4429.48,599.764 L 4419.13,611.26 L 4406.62,620.353 L 4392.48,626.646 L 4377.35,629.862 L 4361.88,629.862 L 4346.75,626.646 L 4332.62,620.353 L 4320.1,611.26 L 4309.75,599.764 L 4302.01,586.366 L 4297.23,571.653 L 4295.62,556.267 z " style="fill-opacity:1.000000;fill:rgb(158,9,220);stroke:rgb(0,0,0);stroke-width:2"/></g>
<g fill-rule="evenodd"><path d="M 4495.62,556.267 L 4497.23,540.882 L 4502.01,526.169 L 4509.75,512.771 L 4520.1,501.275 L 4532.62,492.182 L 4546.75,485.889 L 4561.88,482.673 L 4577.35,482.673 L 4592.48,485.889 L 4606.62,492.182 L 4619.13,501.275 L 4629.48,512.771 L 4637.22,526.169 L 4642,540.882 L 4643.62,556.267 L 4642,571.653 L 4637.22,586.366 L 4629.48,599.764 L 4619.13,611.26 L 4606.62,620.353 L 4592.48,626.646 L 4577.35,629.862 L 4561.88,629.862 L 4546.75,626.646 L 4532.62,620.353 L 4520.1,611.26 L 4509.75,599.764 L 4502.01,586.366 L 4497.23,571.653 L 4495.62,556.267 z " style="fill-opacity:1.000000;fill:rgb(170,212,172);stroke:rgb(0,0,0);stroke-width:2"/></g>
<g fill-rule="evenodd"><path d="M 4695.62,556.267 L 4697.23,540.882 L 4702.01,526.169 L 4709.75,512.771 L 4720.1,501.275 L 4732.62,492.182 L 4746.75,485.889 L 4761.88,482.673 L 4777.35,482.673 L 4792.48,485.889 L 4806.62,492.182 L 4819.13,501.275 L 4829.48,512.771 L 4837.22,526.169 L 4842,540.882 L 4843.62,556.267 L 4842,571.653 L 4837.22,586.366 L 4829.48,599.764 L 4819.13,611.26 L 4806.62,620.353 L 4792.48,626.646 L 4777.35,629.862 L 4761.88,629.862 L 4746.75,626.646 L 4732.62,620.353 L 4720.1,611.26 L 4709.75,599.764 L 4702.01,586.366 L 4697.23,571.653 L 4695.62,556.267 z " style="fill-opacity:1.000000;fill:rgb(242,27,16);stroke:rgb(0,0,0);stroke-width:2"/></g>
<g fill-rule="evenodd"><path d="M 4895.62,556.267 L 4897.23,540.882 L 4902.01,526.169 L 4909.75,512.771 L 4920.1,501.275 L 4932.62,492.182 L 4946.75,485.889 L 4961.88,482.673 L 4977.35,482.673 L 4992.48,485.889 L 5006.62,492.182 L 5019.13,501.275 L 5029.48,512.771 L 5037.22,526.169 L 5042,540.882 L 5043.62,556.267 L 5042,571.653 L 5037.22,586.366 L 5029.48,599.764 L 5019.13,611.26 L 5006.62,620.353 L 4992.48,626.646 L 4977.35,629.862 L 4961.88,629.862 L 4946.75,626.646 L 4932.62,620.353 L 4920.1,611.26 L 4909.75,599.764 L 4902.01,586.366 L 4897.23,571.653 L 4895.62,556.267 z " style="fill-opacity:1.000000;fill:rgb(175,59,51);stroke:rgb(0,0,0);stroke-width:2"/></g>
<g fill-rule="evenodd"><path d="M 4965.62,2466.27 L 4967.23,2450.88 L 4972.01,2436.17 L 4979.75,2422.77 L 4990.1,2411.27 L 5002.62,2402.18 L 5016.75,2395.89 L 5031.88,2392.67 L 5047.35,2392.67 L 5062.48,2395.89 L 5076.62,2402.18 L 5089.13,2411.27 L 5099.48,2422.77 L 5107.22,2436.17 L 5112,2450.88 L 5113.62,2466.27 L 5112,2481.65 L 5107.22,2496.37 L 5099.48,2509.76 L 5089.13,2521.26 L 5076.62,2530.35 L 5062.48,2536.65 L 5047.35,2539.86 L 5031.88,2539.86 L 5016.75,2536.65 L 5002.62,2530.35 L 4990.1,2521.26 L 4979.75,2509.76 L 4972.01,2496.37 L 4967.23,2481.65 L 4965.62,2466.27 z " style="fill-opacity:1.000000;fill:rgb(205,227,80);stroke:rgb(0,0,0);stroke-width:2"/></g>
<g fill-rule="evenodd"><path d="M 4965.62,2266.27 L 4967.23,2250.88 L 4972.01,2236.17 L 4979.75,2222.77 L 4990.1,2211.27 L 5002.62,2202.18 L 5016.75,2195.89 L 5031.88,2192.67 L 5047.35,2192.67 L 5062.48,2195.89 L 5076.62,2202.18 L 5089.13,2211.27 L 5099.48,2222.77 L 5107.22,2236.17 L 5112,2250.88 L 5113.62,2266.27 L 5112,2281.65 L 5107.22,2296.37 L 5099.48,2309.76 L 5089.13,2321.26 L 5076.62,2330.35 L 5062.48,2336.65 L 5047.35,2339.86 L 5031.88,2339.86 L 5016.75,2336.65 L 5002.62,2330.35 L 4990.1,2321.26 L 4979.75,2309.76 L 4972.01,2296.37 L 4967.23,2281.65 L 4965.62,2266.27 z " style="fill-opacity:1.000000;fill:rgb(72,71,21);stroke:rgb(0,0,0);stroke-width:2"/></g>
<g fill-rule="evenodd"><path d="M 4965.62,1646.27 L 4967.23,1630.88 L 4972.01,1616.17 L 4979.75,1602.77 L 4990.1,1591.27 L 5002.62,1582.18 L 5016.75,1575.89 L 5031.88,1572.67 L 5047.35,1572.67 L 5062.48,1575.89 L 5076.62,1582.18 L 5089.13,1591.27 L 5099.48,1602.77 L 5107.22,1616.17 L 5112,1630.88 L 5113.62,1646.27 L 5112,1661.65 L 5107.22,1676.37 L 5099.48,1689.76 L 5089.13,1701.26 L 5076.62,1710.35 L 5062.48,1716.65 L 5047.35,1719.86 L 5031.88,1719.86 L 5016.75,1716.65 L 5002.62,1710.35 L 4990.1,1701.26 L 4979.75,1689.76 L 4972.01,1676.37 L 4967.23,1661.65 L 4965.62,1646.27 z " style="fill-opacity:1.000000;fill:rgb(92,187,111);stroke:rgb(0,0,0);stroke-width:2"/></g>
<g fill-rule="evenodd"><path d="M 4965.62,1446.27 L 4967.23,1430.88 L 4972.01,1416.17 L 4979.75,1402.77 L 4990.1,1391.27 L 5002.62,1382.18 L 5016.75,1375.89 L 5031.88,1372.67 L 5047.35,1372.67 L 5062.48,1375.89 L 5076.62,1382.18 L 5089.13,1391.27 L 5099.48,1402.77 L 5107.22,1416.17 L 5112,1430.88 L 5113.62,1446.27 L 5112,1461.65 L 5107.22,1476.37 L 5099.48,1489.76 L 5089.13,1501.26 L 5076.62,1510.35 L 5062.48,1516.65 L 5047.35,1519.86 L 5031.88,1519.86 L 5016.75,1516.65 L 5002.62,1510.35 L 4990.1,1501.26 L 4979.75,1489.76 L 4972.01,1476.37 L 4967.23,1461.65 L 4965.62,1446.27 z " style="fill-opacity:1.000000;fill:rgb(34,25,186);stroke:rgb(0,0,0);stroke-width:2"/></g>
<g fill-rule="evenodd"><path d="M 5030.55,3192.91 L 5031.86,3180.44 L 5035.74,3168.51 L 5042.01,3157.65 L 5050.4,3148.32 L 5060.55,3140.95 L 5072.01,3135.85 L 5084.28,3133.24 L 5094.54,3133.24 L 5102.08,3125.7 L 5108.05,3120.81 L 5114.85,3117.17 L 5122.24,3114.93 L 5129.92,3114.17 L 5872.48,3114.17 L 5877.17,3108.95 L 5887.32,3101.58 L 5898.78,3096.48 L 5911.05,3093.87 L 5923.59,3093.87 L 5935.86,3096.48 L 5947.32,3101.58 L 5957.47,3108.95 L 5965.86,3118.28 L 5972.14,3129.14 L 5976.01,3141.07 L 5977.32,3153.54 L 5976.01,3166.02 L 5972.14,3177.95 L 5965.86,3188.81 L 5957.47,3198.13 L 5947.32,3205.5 L 5935.86,3210.61 L 5923.59,3213.21 L 5911.05,3213.21 L 5898.78,3210.61 L 5887.32,3205.5 L 5877.17,3198.13 L 5872.47,3192.91 L 5150.55,3192.91 L 5150.55,3192.91 L 5149.24,3205.39 L 5145.36,3217.32 L 5139.09,3228.18 L 5130.7,3237.5 L 5120.55,3244.87 L 5109.09,3249.98 L 5096.82,3252.58 L 5084.28,3252.58 L 5072.01,3249.98 L 5060.55,3244.87 L 5050.4,3237.5 L 5042.01,3228.18 L 5035.74,3217.32 L 5031.86,3205.39 L 5030.55,3192.91 z " style="fill-opacity:1.000000;fill:rgb(155,125,245);stroke:rgb(0,0,0);stroke-width:2"/></g>
<g fill-rule="evenodd"><path d="M 5095.62,556.267 L 5097.23,540.882 L 5102.01,526.169 L 5109.75,512.771 L 5120.1,501.275 L 5132.62,492.182 L 5146.75,485.889 L 5161.88,482.673 L 5177.35,482.673 L 5192.48,485.889 L 5206.62,492.182 L 5219.13,501.275 L 5229.48,512.771 L 5237.22,526.169 L 5242,540.882 L 5243.62,556.267 L 5242,571.653 L 5237.22,586.366 L 5229.48,599.764 L 5219.13,611.26 L 5206.62,620.353 L 5192.48,626.646 L 5177.35,629.862 L 5161.88,629.862 L 5146.75,626.646 L 5132.62,620.353 L 5120.1,611.26 L 5109.75,599.764 L 5102.01,586.366 L 5097.23,571.653 L 5095.62,556.267 z " style="fill-opacity:1.000000;fill:rgb(11,225,26);stroke:rgb(0,0,0);stroke-width:2"/></g>
<g fill-rule="evenodd"><path d="M 5195.62,2956.27 L 5197.23,2940.88 L 5202.01,2926.17 L 5209.75,2912.77 L 5220.1,2901.27 L 5232.62,2892.18 L 5246.75,2885.89 L 5261.88,2882.67 L 5277.35,2882.67 L 5292.48,2885.89 L 5306.62,2892.18 L 5319.13,2901.27 L 5329.48,2912.77 L 5337.22,2926.17 L 5342,2940.88 L 5343.62,2956.27 L 5342,2971.65 L 5337.22,2986.37 L 5329.48,2999.76 L 5319.13,3011.26 L 5306.62,3020.35 L 5292.48,3026.65 L 5277.35,3029.86 L 5261.88,3029.86 L 5246.75,3026.65 L 5232.62,3020.35 L 5220.1,3011.26 L 5209.75,2999.76 L 5202.01,2986.37 L 5197.23,2971.65 L 5195.62,2956.27 z " style="fill-opacity:1.000000;fill:rgb(28,127,35);stroke:rgb(0,0,0);stroke-width:2"/></g>
<g fill-rule="evenodd"><path d="M 5195.62,2756.27 L 5197.23,2740.88 L 5202.01,2726.17 L 5209.75,2712.77 L 5220.1,2701.27 L 5232.62,2692.18 L 5246.75,2685.89 L 5261.88,2682.67 L 5277.35,2682.67 L 5292.48,2685.89 L 5306.62,2692.18 L 5319.13,2701.27 L 5329.48,2712.77 L 5337.22,2726.17 L 5342,2740.88 L 5343.62,2756.27 L 5342,2771.65 L 5337.22,2786.37 L 5329.48,2799.76 L 5319.13,2811.26 L 5306.62,2820.35 L 5292.48,2826.65 L 5277.35,2829.86 L 5261.88,2829.86 L 5246.75,2826.65 L 5232.62,2820.35 L 5220.1,2811.26 L 5209.75,2799.76 L 5202.01,2786.37 L 5197.23,2771.65 L 5195.62,2756.27 z " style="fill-opacity:1.000000;fill:rgb(248,41,248);stroke:rgb(0,0,0);stroke-width:2"/></g>
<g fill-rule="evenodd"><path d="M 5195.62,2556.27 L 5197.23,2540.88 L 5202.01,2526.17 L 5209.75,2512.77 L 5220.1,2501.27 L 5232.62,2492.18 L 5246.75,2485.89 L 5261.88,2482.67 L 5277.35,2482.67 L 5292.48,2485.89 L 5306.62,2492.18 L 5319.13,2501.27 L 5329.48,2512.77 L 5337.22,2526.17 L 5342,2540.88 L 5343.62,2556.27 L 5342,2571.65 L 5337.22,2586.37 L 5329.48,2599.76 L 5319.13,2611.26 L 5306.62,2620.35 L 5292.48,2626.65 L 5277.35,2629.86 L 5261.88,2629.86 L 5246.75,2626.65 L 5232.62,2620.35 L 5220.1,2611.26 L 5209.75,2599.76 L 5202.01,2586.37 L 5197.23,2571.65 L 5195.62,2556.27 z " style="fill-opacity:1.000000;fill:rgb(164,27,19);stroke:rgb(0,0,0);stroke-width:2"/></g>
<g fill-rule="evenodd"><path d="M 5195.62,2356.27 L 5197.23,2340.88 L 5202.01,2326.17 L 5209.75,2312.77 L 5220.1,2301.27 L 5232.62,2292.18 L 5246.75,2285.89 L 5261.88,2282.67 L 5277.35,2282.67 L 5292.48,2285.89 L 5306.62,2292.18 L 5319.13,2301.27 L 5329.48,2312.77 L 5337.22,2326.17 L 5342,2340.88 L 5343.62,2356.27 L 5342,2371.65 L 5337.22,2386.37 L 5329.48,2399.76 L 5319.13,2411.26 L 5306.62,2420.35 L 5292.48,2426.65 L 5277.35,2429.86 L 5261.88,2429.86 L 5246.75,2426.65 L 5232.62,2420.35 L 5220.1,2411.26 L 5209.75,2399.76 L 5202.01,2386.37 L 5197.23,2371.65 L 5195.62,2356.27 z " style="fill-opacity:1.000000;fill:rgb(181,202,78);stroke:rgb(0,0,0);stroke-width:2"/></g>
<g fill-rule="evenodd"><path d="M 5195.62,2156.27 L 5197.23,2140.88 L 5202.01,2126.17 L 5209.75,2112.77 L 5220.1,2101.27 L 5232.62,2092.18 L 5246.75,2085.89 L 5261.88,2082.67 L 5277.35,2082.67 L 5292.48,2085.89 L 5306.62,2092.18 L 5319.13,2101.27 L 5329.48,2112.77 L 5337.22,2126.17 L 5342,2140.88 L 5343.62,2156.27 L 5342,2171.65 L 5337.22,2186.37 L 5329.48,2199.76 L 5319.13,2211.26 L 5306.62,2220.35 L 5292.48,2226.65 L 5277.35,2229.86 L 5261.88,2229.86 L 5246.75,2226.65 L 5232.62,2220.35 L 5220.1,2211.26 L 5209.75,2199.76 L 5202.01,2186.37 L 5197.23,2171.65 L 5195.62,2156.27 z " style="fill-opacity:1.000000;fill:rgb(232,152,50);stroke:rgb(0,0,0);stroke-width:2"/></g>
<g fill-rule="evenodd"><path d="M 5195.62,1956.27 L 5197.23,1940.88 L 5202.01,1926.17 L 5209.75,1912.77 L 5220.1,1901.27 L 5232.62,1892.18 L 5246.75,1885.89 L 5261.88,1882.67 L 5277.35,1882.67 L 5292.48,1885.89 L 5306.62,1892.18 L 5319.13,1901.27 L 5329.48,1912.77 L 5337.22,1926.17 L 5342,1940.88 L 5343.62,1956.27 L 5342,1971.65 L 5337.22,1986.37 L 5329.48,1999.76 L 5319.13,2011.26 L 5306.62,2020.35 L 5292.48,2026.65 L 5277.35,2029.86 L 5261.88,2029.86 L 5246.75,2026.65 L 5232.62,2020.35 L 5220.1,2011.26 L 5209.75,1999.76 L 5202.01,1986.37 L 5197.23,1971.65 L 5195.62,1956.27 z " style="fill-opacity:1.000000;fill:rgb(56,224,121);stroke:rgb(0,0,0);stroke-width:2"/></g>
<g fill-rule="evenodd"><path d="M 5195.62,1756.27 L 5197.23,1740.88 L 5202.01,1726.17 L 5209.75,1712.77 L 5220.1,1701.27 L 5232.62,1692.18 L 5246.75,1685.89 L 5261.88,1682.67 L 5277.35,1682.67 L 5292.48,1685.89 L 5306.62,1692.18 L 5319.13,1701.27 L 5329.48,1712.77 L 5337.22,1726.17 L 5342,1740.88 L 5343.62,1756.27 L 5342,1771.65 L 5337.22,1786.37 L 5329.48,1799.76 L 5319.13,1811.26 L 5306.62,1820.35 L 5292.48,1826.65 L 5277.35,1829.86 L 5261.88,1829.86 L 5246.75,1826.65 L 5232.62,1820.35 L 5220.1,1811.26 L 5209.75,1799.76 L 5202.01,1786.37 L 5197.23,1771.65 L 5195.62,1756.27 z " style="fill-opacity:1.000000;fill:rgb(77,61,52);stroke:rgb(0,0,0);stroke-width:2"/></g>
<g fill-rule="evenodd"><path d="M 5195.62,1556.27 L 5197.23,1540.88 L 5202.01,1526.17 L 5209.75,1512.77 L 5220.1,1501.27 L 5232.62,1492.18 L 5246.75,1485.89 L 5261.88,1482.67 L 5277.35,1482.67 L 5292.48,1485.89 L 5306.62,1492.18 L 5319.13,1501.27 L 5329.48,1512.77 L 5337.22,1526.17 L 5342,1540.88 L 5343.62,1556.27 L 5342,1571.65 L 5337.22,1586.37 L 5329.48,1599.76 L 5319.13,1611.26 L 5306.62,1620.35 L 5292.48,1626.65 L 5277.35,1629.86 L 5261.88,1629.86 L 5246.75,1626.65 L 5232.62,1620.35 L 5220.1,1611.26 L 5209.75,1599.76 L 5202.01,1586.37 L 5197.23,1571.65 L 5195.62,1556.27 z " style="fill-opacity:1.000000;fill:rgb(188,95,78);stroke:rgb(0,0,0);stroke-width:2"/></g>
<g fill-rule="evenodd"><path d="M 5195.62,1356.27 L 5197.23,1340.88 L 5202.01,1326.17 L 5209.75,1312.77 L 5220.1,1301.27 L 5232.62,1292.18 L 5246.75,1285.89 L 5261.88,1282.67 L 5277.35,1282.67 L 5292.48,1285.89 L 5306.62,1292.18 L 5319.13,1301.27 L 5329.48,1312.77 L 5337.22,1326.17 L 5342,1340.88 L 5343.62,1356.27 L 5342,1371.65 L 5337.22,1386.37 L 5329.48,1399.76 L 5319.13,1411.26 L 5306.62,1420.35 L 5292.48,1426.65 L 5277.35,1429.86 L 5261.88,1429.86 L 5246.75,1426.65 L 5232.62,1420.35 L 5220.1,1411.26 L 5209.75,1399.76 L 5202.01,1386.37 L 5197.23,1371.65 L 5195.62,1356.27 z " style="fill-opacity:1.000000;fill:rgb(119,250,203);stroke:rgb(0,0,0);stroke-width:2"/></g>
<g fill-rule="evenodd"><path d="M 5195.62,1156.27 L 5197.23,1140.88 L 5202.01,1126.17 L 5209.75,1112.77 L 5220.1,1101.27 L 5232.62,1092.18 L 5246.75,1085.89 L 5261.88,1082.67 L 5277.35,1082.67 L 5292.48,1085.89 L 5306.62,1092.18 L 5319.13,1101.27 L 5329.48,1112.77 L 5337.22,1126.17 L 5342,1140.88 L 5343.62,1156.27 L 5342,1171.65 L 5337.22,1186.37 L 5329.48,1199.76 L 5319.13,1211.26 L 5306.62,1220.35 L 5292.48,1226.65 L 5277.35,1229.86 L 5261.88,1229.86 L 5246.75,1226.65 L 5232.62,1220.35 L 5220.1,1211.26 L 5209.75,1199.76 L 5202.01,1186.37 L 5197.23,1171.65 L 5195.62,1156.27 z " style="fill-opacity:1.000000;fill:rgb(108,5,172);stroke:rgb(0,0,0);stroke-width:2"/></g>
<g fill-rule="evenodd"><path d="M 5195.62,956.267 L 5197.23,940.882 L 5202.01,926.169 L 5209.75,912.771 L 5220.1,901.275 L 5232.62,892.182 L 5246.75,885.889 L 5261.88,882.673 L 5277.35,882.673 L 5292.48,885.889 L 5306.62,892.182 L 5319.13,901.275 L 5329.48,912.771 L 5337.22,926.169 L 5342,940.882 L 5343.62,956.267 L 5342,971.653 L 5337.22,986.366 L 5329.48,999.764 L 5319.13,1011.26 L 5306.62,1020.35 L 5292.48,1026.65 L 5277.35,1029.86 L 5261.88,1029.86 L 5246.75,1026.65 L 5232.62,1020.35 L 5220.1,1011.26 L 5209.75,999.764 L 5202.01,986.366 L 5197.23,971.653 L 5195.62,956.267 z " style="fill-opacity:1.000000;fill:rgb(134,33,43);stroke:rgb(0,0,0);stroke-width:2"/></g>
<g fill-rule="evenodd"><path d="M 5195.62,756.267 L 5197.23,740.882 L 5202.01,726.169 L 5209.75,712.771 L 5220.1,701.275 L 5232.62,692.182 L 5246.75,685.889 L 5261.88,682.673 L 5277.35,682.673 L 5292.48,685.889 L 5306.62,692.182 L 5319.13,701.275 L 5329.48,712.771 L 5337.22,726.169 L 5342,740.882 L 5343.62,756.267 L 5342,771.653 L 5337.22,786.366 L 5329.48,799.764 L 5319.13,811.26 L 5306.62,820.353 L 5292.48,826.646 L 5277.35,829.862 L 5261.88,829.862 L 5246.75,826.646 L 5232.62,820.353 L 5220.1,811.26 L 5209.75,799.764 L 5202.01,786.366 L 5197.23,771.653 L 5195.62,756.267 z " style="fill-opacity:1.000000;fill:rgb(170,26,85);stroke:rgb(0,0,0);stroke-width:2"/></g>
<g fill-rule="evenodd"><path d="M 5423.83,2956.27 L 5425.14,2943.79 L 5429.01,2931.86 L 5435.29,2921 L 5443.68,2911.68 L 5448.43,2908.23 L 5448.43,2236.59 L 5447.65,2236.03 L 5439.26,2226.7 L 5432.99,2215.84 L 5429.11,2203.91 L 5427.8,2191.44 L 5429.11,2178.96 L 5432.99,2167.03 L 5439.26,2156.17 L 5447.65,2146.85 L 5457.8,2139.47 L 5469.26,2134.37 L 5481.53,2131.77 L 5494.07,2131.77 L 5506.34,2134.37 L 5517.8,2139.47 L 5527.95,2146.85 L 5536.34,2156.17 L 5542.61,2167.03 L 5546.49,2178.96 L 5547.8,2191.44 L 5546.49,2203.91 L 5542.61,2215.84 L 5536.34,2226.7 L 5527.95,2236.03 L 5527.17,2236.59 L 5527.17,2915.23 L 5532.37,2921 L 5538.64,2931.86 L 5542.52,2943.79 L 5543.83,2956.27 L 5542.52,2968.74 L 5538.64,2980.67 L 5532.37,2991.53 L 5523.97,3000.86 L 5513.83,3008.23 L 5502.37,3013.33 L 5490.1,3015.94 L 5477.55,3015.94 L 5465.29,3013.33 L 5453.83,3008.23 L 5443.68,3000.86 L 5435.29,2991.53 L 5429.01,2980.67 L 5425.14,2968.74 L 5423.83,2956.27 z " style="fill-opacity:1.000000;fill:rgb(162,190,112);stroke:rgb(0,0,0);stroke-width:2"/></g>
<g fill-rule="evenodd"><path d="M 5653.54,3019.09 L 5653.54,2885.23 L 5787.4,2885.23 L 5787.4,3019.09 L 5653.54,3019.09 z " style="fill-opacity:1.000000;fill:rgb(181,115,59);stroke:rgb(0,0,0);stroke-width:2"/></g>
<g fill-rule="evenodd"><path d="M 5653.54,2752.16 L 5655.01,2738.25 L 5659.33,2724.94 L 5666.33,2712.82 L 5675.69,2702.43 L 5687.01,2694.2 L 5699.79,2688.51 L 5713.48,2685.6 L 5727.47,2685.6 L 5741.15,2688.51 L 5753.94,2694.2 L 5765.26,2702.43 L 5774.62,2712.82 L 5781.62,2724.94 L 5785.94,2738.25 L 5787.4,2752.16 L 5785.94,2766.08 L 5781.62,2779.39 L 5774.62,2791.5 L 5765.26,2801.9 L 5753.94,2810.13 L 5741.15,2815.82 L 5727.47,2818.73 L 5713.48,2818.73 L 5699.79,2815.82 L 5687.01,2810.13 L 5675.69,2801.9 L 5666.33,2791.5 L 5659.33,2779.39 L 5655.01,2766.08 L 5653.54,2752.16 z " style="fill-opacity:1.000000;fill:rgb(4,92,211);stroke:rgb(0,0,0);stroke-width:2"/></g>
<g fill-rule="evenodd"><path d="M 5653.54,2552.16 L 5655.01,2538.25 L 5659.33,2524.94 L 5666.33,2512.82 L 5675.69,2502.43 L 5687.01,2494.2 L 5699.79,2488.51 L 5713.48,2485.6 L 5727.47,2485.6 L 5741.15,2488.51 L 5753.94,2494.2 L 5765.26,2502.43 L 5774.62,2512.82 L 5781.62,2524.94 L 5785.94,2538.25 L 5787.4,2552.16 L 5785.94,2566.08 L 5781.62,2579.39 L 5774.62,2591.5 L 5765.26,2601.9 L 5753.94,2610.13 L 5741.15,2615.82 L 5727.47,2618.73 L 5713.48,2618.73 L 5699.79,2615.82 L 5687.01,2610.13 L 5675.69,2601.9 L 5666.33,2591.5 L 5659.33,2579.39 L 5655.01,2566.08 L 5653.54,2552.16 z " style="fill-opacity:1.000000;fill:rgb(54,148,179);stroke:rgb(0,0,0);stroke-width:2"/></g>
<g fill-rule="evenodd"><path d="M 5653.54,2352.16 L 5655.01,2338.25 L 5659.33,2324.94 L 5666.33,2312.82 L 5675.69,2302.43 L 5687.01,2294.2 L 5699.79,2288.51 L 5713.48,2285.6 L 5727.47,2285.6 L 5741.15,2288.51 L 5753.94,2294.2 L 5765.26,2302.43 L 5774.62,2312.82 L 5781.62,2324.94 L 5785.94,2338.25 L 5787.4,2352.16 L 5785.94,2366.08 L 5781.62,2379.39 L 5774.62,2391.5 L 5765.26,2401.9 L 5753.94,2410.13 L 5741.15,2415.82 L 5727.47,2418.73 L 5713.48,2418.73 L 5699.79,2415.82 L 5687.01,2410.13 L 5675.69,2401.9 L 5666.33,2391.5 L 5659.33,2379.39 L 5655.01,2366.08 L 5653.54,2352.16 z " style="fill-opacity:1.000000;fill:rgb(175,226,240);stroke:rgb(0,0,0);stroke-width:2"/></g>
<g fill-rule="evenodd"><path d="M 5653.54,2152.16 L 5655.01,2138.25 L 5659.33,2124.94 L 5666.33,2112.82 L 5675.69,2102.43 L 5687.01,2094.2 L 5699.79,2088.51 L 5713.48,2085.6 L 5727.47,2085.6 L 5741.15,2088.51 L 5753.94,2094.2 L 5765.26,2102.43 L 5774.62,2112.82 L 5781.62,2124.94 L 5785.94,2138.25 L 5787.4,2152.16 L 5785.94,2166.08 L 5781.62,2179.39 L 5774.62,2191.5 L 5765.26,2201.9 L 5753.94,2210.13 L 5741.15,2215.82 L 5727.47,2218.73 L 5713.48,2218.73 L 5699.79,2215.82 L 5687.01,2210.13 L 5675.69,2201.9 L 5666.33,2191.5 L 5659.33,2179.39 L 5655.01,2166.08 L 5653.54,2152.16 z " style="fill-opacity:1.000000;fill:rgb(228,158,79);stroke:rgb(0,0,0);stroke-width:2"/></g>
<g fill-rule="evenodd"><path d="M 5653.54,1952.16 L 5655.01,1938.25 L 5659.33,1924.94 L 5666.33,1912.82 L 5675.69,1902.43 L 5687.01,1894.2 L 5699.79,1888.51 L 5713.48,1885.6 L 5727.47,1885.6 L 5741.15,1888.51 L 5753.94,1894.2 L 5765.26,1902.43 L 5774.62,1912.82 L 5781.62,1924.94 L 5785.94,1938.25 L 5787.4,1952.16 L 5785.94,1966.08 L 5781.62,1979.39 L 5774.62,1991.5 L 5765.26,2001.9 L 5753.94,2010.13 L 5741.15,2015.82 L 5727.47,2018.73 L 5713.48,2018.73 L 5699.79,2015.82 L 5687.01,2010.13 L 5675.69,2001.9 L 5666.33,1991.5 L 5659.33,1979.39 L 5655.01,1966.08 L 5653.54,1952.16 z " style="fill-opacity:1.000000;fill:rgb(50,21,73);stroke:rgb(0,0,0);stroke-width:2"/></g>
<g fill-rule="evenodd"><path d="M 5653.54,1752.16 L 5655.01,1738.25 L 5659.33,1724.94 L 5666.33,1712.82 L 5675.69,1702.43 L 5687.01,1694.2 L 5699.79,1688.51 L 5713.48,1685.6 L 5727.47,1685.6 L 5741.15,1688.51 L 5753.94,1694.2 L 5765.26,1702.43 L 5774.62,1712.82 L 5781.62,1724.94 L 5785.94,1738.25 L 5787.4,1752.16 L 5785.94,1766.08 L 5781.62,1779.39 L 5774.62,1791.5 L 5765.26,1801.9 L 5753.94,1810.13 L 5741.15,1815.82 L 5727.47,1818.73 L 5713.48,1818.73 L 5699.79,1815.82 L 5687.01,1810.13 L 5675.69,1801.9 L 5666.33,1791.5 L 5659.33,1779.39 L 5655.01,1766.08 L 5653.54,1752.16 z " style="fill-opacity:1.000000;fill:rgb(253,130,78);stroke:rgb(0,0,0);stroke-width:2"/></g>
<g fill-rule="evenodd"><path d="M 6100.13,536.706 L 6100.13,430.407 L 6100.56,426.314 L 6101.83,422.4 L 6103.89,418.836 L 6106.64,415.778 L 6109.97,413.359 L 6113.73,411.685 L 6117.76,410.83 L 6119.81,410.83 L 6119.81,410.722 L 6226.11,410.722 L 6226.11,410.83 L 6228.17,410.83 L 6232.2,411.685 L 6235.95,413.359 L 6239.28,415.778 L 6242.04,418.836 L 6244.1,422.4 L 6245.37,426.314 L 6245.8,430.407 L 6245.8,536.706 L 6245.37,540.799 L 6244.1,544.713 L 6242.04,548.277 L 6239.28,551.335 L 6235.95,553.754 L 6232.2,555.428 L 6228.17,556.283 L 6226.11,556.283 L 6226.11,556.391 L 6119.81,556.391 L 6119.81,556.283 L 6117.76,556.283 L 6113.73,555.428 L 6109.97,553.754 L 6106.64,551.335 L 6103.89,548.277 L 6101.83,544.713 L 6100.56,540.799 L 6100.13,536.706 z " style="fill-opacity:1.000000;fill:rgb(169,8,112);stroke:rgb(0,0,0);stroke-width:2"/></g>
<g fill-rule="evenodd"><path d="M 6201.57,1736.22 L 6203.04,1722.31 L 6207.36,1709 L 6214.36,1696.88 L 6223.72,1686.48 L 6235.04,1678.26 L 6247.82,1672.57 L 6261.51,1669.66 L 6275.5,1669.66 L 6289.19,1672.57 L 6301.97,1678.26 L 6313.29,1686.48 L 6322.65,1696.88 L 6329.65,1709 L 6333.97,1722.31 L 6335.43,1736.22 L 6333.97,1750.14 L 6329.65,1763.44 L 6322.65,1775.56 L 6313.29,1785.96 L 6301.97,1794.18 L 6289.19,1799.87 L 6275.5,1802.78 L 6261.51,1802.78 L 6247.82,1799.87 L 6235.04,1794.18 L 6223.72,1785.96 L 6214.36,1775.56 L 6207.36,1763.44 L 6203.04,1750.14 L 6201.57,1736.22 z " style="fill-opacity:1.000000;fill:rgb(212,178,138);stroke:rgb(0,0,0);stroke-width:2"/></g>
<g fill-rule="evenodd"><path d="M 6326.77,2393.49 L 6328.15,2380.4 L 6332.22,2367.87 L 6338.8,2356.47 L 6347.61,2346.68 L 6358.27,2338.94 L 6370.3,2333.58 L 6383.18,2330.84 L 6396.35,2330.84 L 6409.23,2333.58 L 6421.26,2338.94 L 6431.91,2346.68 L 6440.73,2356.47 L 6447.31,2367.87 L 6451.38,2380.4 L 6452.76,2393.49 L 6451.38,2406.59 L 6447.31,2419.11 L 6440.73,2430.52 L 6431.91,2440.3 L 6421.26,2448.04 L 6409.23,2453.4 L 6396.35,2456.14 L 6383.18,2456.14 L 6370.3,2453.4 L 6358.27,2448.04 L 6347.61,2440.3 L 6338.8,2430.52 L 6332.22,2419.11 L 6328.15,2406.59 L 6326.77,2393.49 z " style="fill-opacity:1.000000;fill:rgb(41,84,72);stroke:rgb(0,0,0);stroke-width:2"/></g>
<g fill-rule="evenodd"><path d="M 6326.77,2180.89 L 6326.77,2054.91 L 6452.76,2054.91 L 6452.76,2180.89 L 6326.77,2180.89 z " style="fill-opacity:1.000000;fill:rgb(154,10,188);stroke:rgb(0,0,0);stroke-width:2"/></g>
<g fill-rule="evenodd"><path d="M 6401.57,1803.15 L 6401.57,1669.29 L 6535.43,1669.29 L 6535.43,1803.15 L 6401.57,1803.15 z " style="fill-opacity:1.000000;fill:rgb(213,14,24);stroke:rgb(0,0,0);stroke-width:2"/></g>
<g fill-rule="evenodd"><path d="M 6430.84,483.556 L 6432.43,468.413 L 6437.13,453.932 L 6444.75,440.745 L 6454.94,429.43 L 6467.25,420.48 L 6481.16,414.287 L 6496.06,411.121 L 6511.28,411.121 L 6526.18,414.287 L 6540.09,420.48 L 6552.41,429.43 L 6562.6,440.745 L 6570.21,453.932 L 6574.91,468.413 L 6576.51,483.556 L 6574.91,498.7 L 6570.21,513.181 L 6562.6,526.368 L 6552.41,537.683 L 6540.09,546.633 L 6526.18,552.826 L 6511.28,555.992 L 6496.06,555.992 L 6481.16,552.826 L 6467.25,546.633 L 6454.94,537.683 L 6444.75,526.368 L 6437.13,513.181 L 6432.43,498.7 L 6430.84,483.556 z " style="fill-opacity:1.000000;fill:rgb(168,68,172);stroke:rgb(0,0,0);stroke-width:2"/></g>
<g fill-rule="evenodd"><path d="M 6657.48,2959.06 L 6662.64,2909.94 L 6677.9,2862.98 L 6702.59,2820.21 L 6735.64,2783.51 L 6775.59,2754.48 L 6820.7,2734.4 L 6869.01,2724.13 L 6918.39,2724.13 L 6966.7,2734.4 L 7011.81,2754.48 L 7051.76,2783.51 L 7084.81,2820.21 L 7109.5,2862.98 L 7124.76,2909.94 L 7129.92,2959.06 L 7124.76,3008.17 L 7109.5,3055.13 L 7084.81,3097.9 L 7051.76,3134.6 L 7011.81,3163.63 L 6966.7,3183.71 L 6918.39,3193.98 L 6869.01,3193.98 L 6820.7,3183.71 L 6775.59,3163.63 L 6735.64,3134.6 L 6702.59,3097.9 L 6677.9,3055.13 L 6662.64,3008.17 L 6657.48,2959.06 z " style="fill-opacity:1.000000;fill:rgb(91,243,142);stroke:rgb(0,0,0);stroke-width:2"/></g>
<g fill-rule="evenodd"><path d="M 6761.55,483.556 L 6763.14,468.413 L 6767.84,453.932 L 6775.46,440.745 L 6785.64,429.43 L 6797.96,420.48 L 6811.87,414.287 L 6826.77,411.121 L 6841.99,411.121 L 6856.89,414.287 L 6870.8,420.48 L 6883.12,429.43 L 6893.3,440.745 L 6900.92,453.932 L 6905.62,468.413 L 6907.21,483.556 L 6905.62,498.7 L 6900.92,513.181 L 6893.3,526.368 L 6883.12,537.683 L 6870.8,546.633 L 6856.89,552.826 L 6841.99,555.992 L 6826.77,555.992 L 6811.87,552.826 L 6797.96,546.633 L 6785.64,537.683 L 6775.46,526.368 L 6767.84,513.181 L 6763.14,498.7 L 6761.55,483.556 z " style="fill-opacity:1.000000;fill:rgb(76,215,45);stroke:rgb(0,0,0);stroke-width:2"/></g>
<g fill-rule="evenodd"><path d="M 7009.44,2237.51 L 7011.5,2217.86 L 7017.61,2199.08 L 7027.48,2181.97 L 7040.7,2167.29 L 7056.68,2155.68 L 7074.73,2147.64 L 7094.05,2143.54 L 7113.8,2143.54 L 7133.13,2147.64 L 7151.17,2155.68 L 7167.15,2167.29 L 7180.37,2181.97 L 7190.25,2199.08 L 7196.35,2217.86 L 7198.42,2237.51 L 7196.35,2257.15 L 7190.25,2275.94 L 7180.37,2293.05 L 7167.15,2307.73 L 7151.17,2319.34 L 7133.13,2327.37 L 7113.8,2331.48 L 7094.05,2331.48 L 7074.73,2327.37 L 7056.68,2319.34 L 7040.7,2307.73 L 7027.48,2293.05 L 7017.61,2275.94 L 7011.5,2257.15 L 7009.44,2237.51 z " style="fill-opacity:1.000000;fill:rgb(155,9,66);stroke:rgb(0,0,0);stroke-width:2"/></g>
<g fill-rule="evenodd"><path d="M 7009.44,1837.51 L 7011.5,1817.86 L 7017.61,1799.08 L 7027.48,1781.97 L 7040.7,1767.29 L 7056.68,1755.68 L 7074.73,1747.64 L 7094.05,1743.54 L 7113.8,1743.54 L 7133.13,1747.64 L 7151.17,1755.68 L 7167.15,1767.29 L 7180.37,1781.97 L 7190.25,1799.08 L 7196.35,1817.86 L 7198.42,1837.51 L 7196.35,1857.15 L 7190.25,1875.94 L 7180.37,1893.05 L 7167.15,1907.73 L 7151.17,1919.34 L 7133.13,1927.37 L 7113.8,1931.48 L 7094.05,1931.48 L 7074.73,1927.37 L 7056.68,1919.34 L 7040.7,1907.73 L 7027.48,1893.05 L 7017.61,1875.94 L 7011.5,1857.15 L 7009.44,1837.51 z " style="fill-opacity:1.000000;fill:rgb(229,6,196);stroke:rgb(0,0,0);stroke-width:2"/></g>
<g fill-rule="evenodd"><path d="M 7077.8,1381.89 L 7079.11,1369.42 L 7082.98,1357.49 L 7089.25,1346.62 L 7097.65,1337.3 L 7098.42,1336.74 L 7098.42,521.53 L 7097.65,520.967 L 7089.25,511.645 L 7082.98,500.782 L 7079.11,488.853 L 7077.8,476.378 L 7079.11,463.903 L 7082.98,451.974 L 7089.25,441.111 L 7097.65,431.789 L 7107.8,424.416 L 7119.25,419.315 L 7131.52,416.707 L 7144.07,416.707 L 7156.34,419.315 L 7167.8,424.416 L 7177.94,431.789 L 7186.34,441.111 L 7192.61,451.974 L 7196.48,463.903 L 7197.8,476.378 L 7196.48,488.853 L 7192.61,500.782 L 7186.34,511.645 L 7177.94,520.967 L 7177.16,521.533 L 7177.16,1336.73 L 7177.94,1337.3 L 7186.34,1346.62 L 7192.61,1357.49 L 7196.48,1369.42 L 7197.8,1381.89 L 7196.48,1394.36 L 7192.61,1406.29 L 7186.34,1417.16 L 7177.94,1426.48 L 7167.8,1433.85 L 7156.34,1438.95 L 7144.07,1441.56 L 7131.52,1441.56 L 7119.25,1438.95 L 7107.8,1433.85 L 7097.65,1426.48 L 7089.25,1417.16 L 7082.98,1406.29 L 7079.11,1394.36 L 7077.8,1381.89 z " style="fill-opacity:1.000000;fill:rgb(51,175,205);stroke:rgb(0,0,0);stroke-width:2"/></g>
<g fill-rule="evenodd"><path d="M 7543.31,836.22 L 7548.47,787.107 L 7563.73,740.141 L 7588.42,697.374 L 7621.47,660.674 L 7661.42,631.648 L 7706.53,611.561 L 7754.84,601.294 L 7804.22,601.294 L 7852.52,611.561 L 7897.64,631.648 L 7937.59,660.674 L 7970.63,697.374 L 7995.33,740.141 L 8010.59,787.107 L 8015.75,836.22 L 8010.59,885.333 L 7995.33,932.3 L 7970.63,975.067 L 7937.59,1011.77 L 7897.64,1040.79 L 7852.52,1060.88 L 7804.22,1071.15 L 7754.84,1071.15 L 7706.53,1060.88 L 7661.42,1040.79 L 7621.47,1011.77 L 7588.42,975.067 L 7563.73,932.3 L 7548.47,885.333 L 7543.31,836.22 z " style="fill-opacity:1.000000;fill:rgb(163,132,127);stroke:rgb(0,0,0);stroke-width:2"/></g>
<g fill-rule="evenodd"><path d="M 7688.21,1828.21 L 7688.9,1821.66 L 7690.94,1815.4 L 7694.23,1809.7 L 7698.64,1804.81 L 7703.96,1800.94 L 7709.98,1798.26 L 7716.42,1796.89 L 7723,1796.89 L 7729.44,1798.26 L 7735.46,1800.94 L 7740.79,1804.81 L 7745.19,1809.7 L 7748.48,1815.4 L 7750.52,1821.66 L 7751.21,1828.21 L 7750.52,1834.76 L 7748.48,1841.02 L 7745.19,1846.73 L 7740.79,1851.62 L 7735.46,1855.49 L 7729.44,1858.17 L 7723,1859.54 L 7716.42,1859.54 L 7709.98,1858.17 L 7703.96,1855.49 L 7698.64,1851.62 L 7694.23,1846.73 L 7690.94,1841.02 L 7688.9,1834.76 L 7688.21,1828.21 z " style="fill-opacity:1.000000;fill:rgb(45,173,212);stroke:rgb(0,0,0);stroke-width:2"/></g>
<g fill-rule="evenodd"><path d="M 7692.01,3351.42 L 7692.7,3344.87 L 7694.74,3338.61 L 7698.03,3332.91 L 7702.43,3328.02 L 7707.76,3324.15 L 7713.78,3321.47 L 7720.22,3320.1 L 7726.8,3320.1 L 7733.24,3321.47 L 7739.26,3324.15 L 7744.58,3328.02 L 7748.99,3332.91 L 7752.28,3338.61 L 7754.32,3344.87 L 7755,3351.42 L 7754.32,3357.97 L 7752.28,3364.23 L 7748.99,3369.93 L 7744.58,3374.83 L 7739.26,3378.7 L 7733.24,3381.38 L 7726.8,3382.75 L 7720.22,3382.75 L 7713.78,3381.38 L 7707.76,3378.7 L 7702.43,3374.83 L 7698.03,3369.93 L 7694.74,3364.23 L 7692.7,3357.97 L 7692.01,3351.42 z " style="fill-opacity:1.000000;fill:rgb(118,71,222);stroke:rgb(0,0,0);stroke-width:2"/></g>
<g fill-rule="evenodd"><path d="M 8398.11,238.761 L 8398.8,232.213 L 8400.84,225.95 L 8404.13,220.248 L 8408.53,215.355 L 8413.86,211.485 L 8419.88,208.807 L 8426.32,207.438 L 8432.9,207.438 L 8439.34,208.807 L 8445.36,211.485 L 8450.68,215.355 L 8455.09,220.248 L 8458.38,225.95 L 8460.42,232.213 L 8461.11,238.761 L 8460.42,245.31 L 8458.38,251.572 L 8455.09,257.274 L 8450.68,262.167 L 8445.36,266.037 L 8439.34,268.716 L 8432.9,270.085 L 8426.32,270.085 L 8419.88,268.716 L 8413.86,266.037 L 8408.53,262.167 L 8404.13,257.274 L 8400.84,251.572 L 8398.8,245.31 L 8398.11,238.761 z " style="fill-opacity:1.000000;fill:rgb(50,28,236);stroke:rgb(0,0,0);stroke-width:2"/></g>
<g fill-rule="evenodd"><path d="M 8400.22,1827.16 L 8400.91,1820.61 L 8402.95,1814.35 L 8406.24,1808.65 L 8410.64,1803.75 L 8415.97,1799.88 L 8421.99,1797.2 L 8428.43,1795.83 L 8435.01,1795.83 L 8441.45,1797.2 L 8447.47,1799.88 L 8452.79,1803.75 L 8457.2,1808.65 L 8460.49,1814.35 L 8462.53,1820.61 L 8463.21,1827.16 L 8462.53,1833.71 L 8460.49,1839.97 L 8457.2,1845.67 L 8452.79,1850.56 L 8447.47,1854.43 L 8441.45,1857.11 L 8435.01,1858.48 L 8428.43,1858.48 L 8421.99,1857.11 L 8415.97,1854.43 L 8410.64,1850.56 L 8406.24,1845.67 L 8402.95,1839.97 L 8400.91,1833.71 L 8400.22,1827.16 z " style="fill-opacity:1.000000;fill:rgb(74,196,48);stroke:rgb(0,0,0);stroke-width:2"/></g>
</svg>
