<?xml version="1.0" standalone="no"?>
<!DOCTYPE svg PUBLIC "-//W3C//DTD SVG 1.1//EN"
"http://www.w3.org/Graphics/SVG/1.1/DTD/svg11.dtd">
<svg width="416.126" height="172.46" viewBox="0 0 8669.29 3592.91" version="1.1"
xmlns="http://www.w3.org/2000/svg"
xmlns:xlink="http://www.w3.org/1999/xlink">
<g fill-rule="evenodd"><path d="M 3.50558e-05,133.409 L 6.54152,128.961 L 194.736,4.51475 L 201.762,-0.000169709 L 2388.34,0.000176717 L 3283.45,342.941 L 3430.83,399.813 L 4486.79,810.255 L 4558.57,837.972 L 5205.48,1086.09 L 5289.31,1118.66 L 5639.91,1256.66 L 5687.21,1275.09 L 5995.99,1394.14 L 6056.28,1417.82 L 6221.88,1484.06 L 6258.32,1498.44 L 6457.23,1575.86 L 6505.94,1595.26 L 6597.75,1632.68 L 6628.42,1644.98 L 6782.83,1705.89 L 6812.66,1717.88 L 6814.69,1718.71 L 6816.92,1719.63 L 6825.47,1723.17 L 6879.98,1745.84 L 6891.73,1750.69 L 6893.7,1751.5 L 6893.7,2828.54 L 6893.7,2957.08 L 6893.7,2959.05 L 1.81899e-12,2959.05 L 3.50558e-05,133.409 z " style="fill-opacity:0.200000;fill:rgb(103,198,105);"/></g>
<g fill-rule="evenodd"><path d="M 1.81899e-12,2959.05 L 6762.67,2959.05 L 6891.73,2959.05 L 6893.7,2959.05 L 6893.7,3592.91 L 1.81899e-12,3592.91 L 1.81899e-12,2959.05 z " style="fill-opacity:0.200000;fill:rgb(115,81,255);"/></g>
<g fill-rule="evenodd"><path d="M 6866.15,-0.00019016 L 7640.83,697.528 L 7640.98,697.67 L 7778.13,834.827 L 7779.52,836.218 L 7778.13,837.61 L 7778.13,837.611 L 7640.98,974.767 L 7640.83,974.91 L 6814.69,1718.71 L 6812.66,1717.88 L 6782.83,1705.89 L 6628.42,1644.98 L 6597.75,1632.68 L 6505.94,1595.26 L 6457.23,1575.86 L 6258.32,1498.44 L 6221.88,1484.06 L 6056.28,1417.82 L 5995.99,1394.14 L 5687.21,1275.09 L 5639.91,1256.66 L 5289.31,1118.66 L 5205.48,1086.09 L 4558.57,837.972 L 4486.79,810.255 L 3430.83,399.813 L 3283.45,342.941 L 2388.34,-0.000321793 L 6866.15,-0.00019016 z " style="fill-opacity:0.200000;fill:rgb(74,236,41);"/></g>
<g fill-rule="evenodd"><path d="M 8669.29,21.3115 L 7918.22,697.529 L 7918.07,697.671 L 7780.92,834.826 L 7780.92,834.827 L 7779.53,836.218 L 7779.52,836.218 L 7778.13,834.827 L 7640.98,697.67 L 7640.83,697.528 L 6866.15,-0.000161871 L 8669.29,0 L 8669.29,21.3115 z " style="fill-opacity:0.200000;fill:rgb(205,186,171);"/></g>
<g fill-rule="evenodd"><path d="M 8669.29,1651.13 L 8669.29,2511.33 L 8520.13,2445.01 L 8517.89,2444.01 L 8482.67,2428.33 L 8461.74,2419.07 L 8117.95,2268.07 L 8103.55,2261.7 L 8086.93,2254.3 L 8057.12,2241.22 L 7823.6,2140.2 L 7800.1,2129.89 L 7796.06,2128.09 L 7758.95,2111.94 L 7581.08,2036.36 L 7555.28,2025.19 L 7548.48,2022.19 L 7509.92,2005.66 L 7360.88,1943.54 L 7335.63,1932.8 L 7317.34,1924.88 L 7279.41,1908.92 L 7142.8,1853.09 L 7117.03,1842.35 L 7084.11,1828.37 L 7044.97,1812.22 L 6907.42,1757.05 L 6895.67,1752.3 L 6893.7,1751.5 L 6891.73,1750.69 L 6879.98,1745.84 L 6825.47,1723.17 L 6816.92,1719.63 L 6814.69,1718.71 L 7640.83,974.91 L 7640.98,974.767 L 7778.13,837.611 L 7778.13,837.61 L 7779.52,836.218 L 7779.53,836.218 L 7780.92,837.609 L 7918.07,974.767 L 7918.22,974.91 L 8669.29,1651.13 z " style="fill-opacity:0.200000;fill:rgb(242,251,227);"/></g>
<g fill-rule="evenodd"><path d="M 8669.29,2511.33 L 8669.29,2959.05 L 7024.73,2959.05 L 6895.67,2959.05 L 6893.7,2959.05 L 6893.7,2957.08 L 6893.7,2828.54 L 6893.7,1751.5 L 6895.67,1752.3 L 6907.42,1757.05 L 7044.97,1812.22 L 7084.11,1828.37 L 7117.03,1842.35 L 7142.8,1853.09 L 7279.41,1908.92 L 7317.34,1924.88 L 7335.63,1932.8 L 7360.88,1943.54 L 7509.92,2005.66 L 7548.48,2022.19 L 7555.28,2025.19 L 7581.08,2036.36 L 7758.95,2111.94 L 7796.06,2128.09 L 7800.1,2129.89 L 7823.6,2140.2 L 8057.12,2241.22 L 8086.93,2254.3 L 8103.55,2261.7 L 8117.95,2268.07 L 8461.74,2419.07 L 8482.67,2428.33 L 8517.89,2444.01 L 8520.13,2445.01 L 8669.29,2511.33 z " style="fill-opacity:0.200000;fill:rgb(70,124,194);"/></g>
<g fill-rule="evenodd"><path d="M 8669.29,2959.05 L 8669.29,3592.91 L 6893.7,3592.91 L 6893.7,3089.57 L 6893.7,2961.02 L 6893.7,2959.05 L 8669.29,2959.05 z " style="fill-opacity:0.200000;fill:rgb(84,248,27);"/></g>
<g fill-rule="evenodd"><path d="M 8669.29,21.3121 L 8669.29,1651.13 L 7918.22,974.91 L 7918.07,974.767 L 7780.92,837.609 L 7779.53,836.218 L 7780.92,834.827 L 7780.92,834.826 L 7918.07,697.671 L 7918.22,697.529 L 8669.29,21.3121 z " style="fill-opacity:0.200000;fill:rgb(232,231,141);"/></g>
<polyline points="6645.04,2959.05 6893.7,2959.05 6893.7,2957.08 6893.7,2828.54 6893.7,2710.62 6891.73,2710.43 6879.98,2710.43 6867.64,2711.08 6855.43,2713.01 6828.59,2718.71 6816.64,2721.91 6805.1,2726.35 6780.04,2737.51 6769.03,2743.12 6758.66,2749.85 6736.46,2765.98 6726.86,2773.75 6718.12,2782.5 6699.76,2802.88 6691.98,2812.49 6685.24,2822.86 6674.8,2840.94 6671.52,2846.62 6665.91,2857.64 6661.48,2869.18 6653,2895.27 6649.8,2907.21 6647.87,2919.42 6645.21,2944.74 6645.04,2959.05" style="stroke:rgb(103,198,105);stroke-width:236.220472;fill:none;stroke-opacity:0.5;stroke-linecap:round;stroke-linejoin:round;;fill:none"/>
<polyline points="6645.04,2959.05 6893.7,2959.05 6893.7,2957.08 6893.7,2828.54 6893.7,2710.62 6891.73,2710.43 6879.98,2710.43 6867.64,2711.08 6855.43,2713.01 6828.59,2718.71 6816.64,2721.91 6805.1,2726.35 6780.04,2737.51 6769.03,2743.12 6758.66,2749.85 6736.46,2765.98 6726.86,2773.75 6718.12,2782.5 6699.76,2802.88 6691.98,2812.49 6685.24,2822.86 6674.8,2840.94 6671.52,2846.62 6665.91,2857.64 6661.48,2869.18 6653,2895.27 6649.8,2907.21 6647.87,2919.42 6645.21,2944.74 6645.04,2959.05" style="stroke:rgb(0,0,0);stroke-width:1px;fill:none;stroke-opacity:1;stroke-linecap:round;stroke-linejoin:round;;fill:none"/>
<polyline points="6893.7,2959.05 6895.67,2959.05 7024.73,2959.05 7142.36,2959.05 7142.19,2944.74 7139.53,2919.42 7137.59,2907.21 7134.39,2895.27 7125.92,2869.18 7121.49,2857.64 7115.87,2846.62 7102.16,2822.86 7095.42,2812.49 7087.64,2802.88 7069.28,2782.5 7060.54,2773.76 7050.94,2765.98 7028.74,2749.85 7018.38,2743.12 7007.36,2737.51 6982.3,2726.35 6970.75,2721.91 6958.81,2718.71 6931.97,2713.01 6919.76,2711.08 6907.42,2710.43 6895.67,2710.43 6893.7,2710.6 6893.7,2959.05" style="stroke:rgb(115,81,255);stroke-width:236.220472;fill:none;stroke-opacity:0.5;stroke-linecap:round;stroke-linejoin:round;;fill:none"/>
<polyline points="6893.7,2959.05 6895.67,2959.05 7024.73,2959.05 7142.36,2959.05 7142.19,2944.74 7139.53,2919.42 7137.59,2907.21 7134.39,2895.27 7125.92,2869.18 7121.49,2857.64 7115.87,2846.62 7102.16,2822.86 7095.42,2812.49 7087.64,2802.88 7069.28,2782.5 7060.54,2773.76 7050.94,2765.98 7028.74,2749.85 7018.38,2743.12 7007.36,2737.51 6982.3,2726.35 6970.75,2721.91 6958.81,2718.71 6931.97,2713.01 6919.76,2711.08 6907.42,2710.43 6895.67,2710.43 6893.7,2710.6 6893.7,2959.05" style="stroke:rgb(0,0,0);stroke-width:1px;fill:none;stroke-opacity:1;stroke-linecap:round;stroke-linejoin:round;;fill:none"/>
<polyline points="6893.7,3207.51 6895.67,3207.68 6907.42,3207.68 6919.76,3207.03 6931.97,3205.1 6958.81,3199.39 6970.75,3196.19 6982.3,3191.76 7007.36,3180.6 7018.38,3174.99 7028.74,3168.26 7050.94,3152.13 7060.54,3144.35 7069.28,3135.61 7087.64,3115.22 7095.42,3105.62 7102.16,3095.25 7115.87,3071.49 7121.49,3060.47 7125.92,3048.93 7134.39,3022.84 7137.59,3010.9 7139.53,2998.69 7142.19,2973.37 7142.36,2959.05 6893.7,2959.05 6893.7,2961.02 6893.7,3089.57 6893.7,3207.51" style="stroke:rgb(74,236,41);stroke-width:236.220472;fill:none;stroke-opacity:0.5;stroke-linecap:round;stroke-linejoin:round;;fill:none"/>
<polyline points="6893.7,3207.51 6895.67,3207.68 6907.42,3207.68 6919.76,3207.03 6931.97,3205.1 6958.81,3199.39 6970.75,3196.19 6982.3,3191.76 7007.36,3180.6 7018.38,3174.99 7028.74,3168.26 7050.94,3152.13 7060.54,3144.35 7069.28,3135.61 7087.64,3115.22 7095.42,3105.62 7102.16,3095.25 7115.87,3071.49 7121.49,3060.47 7125.92,3048.93 7134.39,3022.84 7137.59,3010.9 7139.53,2998.69 7142.19,2973.37 7142.36,2959.05 6893.7,2959.05 6893.7,2961.02 6893.7,3089.57 6893.7,3207.51" style="stroke:rgb(0,0,0);stroke-width:1px;fill:none;stroke-opacity:1;stroke-linecap:round;stroke-linejoin:round;;fill:none"/>
<polyline points="6645.04,2959.05 6645.21,2973.37 6647.87,2998.69 6649.8,3010.9 6653,3022.84 6661.48,3048.93 6665.91,3060.47 6671.52,3071.49 6685.24,3095.25 6691.98,3105.62 6699.76,3115.22 6718.12,3135.61 6726.86,3144.35 6736.46,3152.13 6758.66,3168.26 6769.03,3174.99 6775.59,3178.33 6780.04,3180.6 6805.1,3191.76 6816.64,3196.19 6828.59,3199.39 6855.43,3205.1 6867.64,3207.03 6879.98,3207.68 6891.73,3207.68 6893.7,3207.49 6893.7,2959.05 6891.73,2959.05 6762.67,2959.05 6645.04,2959.05" style="stroke:rgb(205,186,171);stroke-width:236.220472;fill:none;stroke-opacity:0.5;stroke-linecap:round;stroke-linejoin:round;;fill:none"/>
<polyline points="6645.04,2959.05 6645.21,2973.37 6647.87,2998.69 6649.8,3010.9 6653,3022.84 6661.48,3048.93 6665.91,3060.47 6671.52,3071.49 6685.24,3095.25 6691.98,3105.62 6699.76,3115.22 6718.12,3135.61 6726.86,3144.35 6736.46,3152.13 6758.66,3168.26 6769.03,3174.99 6775.59,3178.33 6780.04,3180.6 6805.1,3191.76 6816.64,3196.19 6828.59,3199.39 6855.43,3205.1 6867.64,3207.03 6879.98,3207.68 6891.73,3207.68 6893.7,3207.49 6893.7,2959.05 6891.73,2959.05 6762.67,2959.05 6645.04,2959.05" style="stroke:rgb(0,0,0);stroke-width:1px;fill:none;stroke-opacity:1;stroke-linecap:round;stroke-linejoin:round;;fill:none"/>
<polyline points="7464.56,836.219 7465.21,848.565 7469.51,889.493 7471.45,901.705 7474.65,913.647 7487.37,952.785 7487.75,953.797 7491.8,964.325 7497.41,975.337 7517.98,1010.98 7524.72,1021.35 7532.49,1030.95 7551.81,1052.4 7553.26,1053.75 7640.83,974.909 7640.97,974.767 7778.13,837.609 7779.52,836.217 7778.13,834.825 7640.98,697.669 7640.83,697.527 7553.26,618.685 7551.81,620.031 7532.5,641.481 7524.72,651.089 7517.98,661.459 7497.41,697.099 7491.8,708.111 7487.37,719.651 7474.65,758.789 7471.45,770.731 7469.51,782.943 7465.21,823.871 7464.56,836.219" style="stroke:rgb(242,251,227);stroke-width:236.220472;fill:none;stroke-opacity:0.5;stroke-linecap:round;stroke-linejoin:round;;fill:none"/>
<polyline points="7464.56,836.219 7465.21,848.565 7469.51,889.493 7471.45,901.705 7474.65,913.647 7487.37,952.785 7487.75,953.797 7491.8,964.325 7497.41,975.337 7517.98,1010.98 7524.72,1021.35 7532.49,1030.95 7551.81,1052.4 7553.26,1053.75 7640.83,974.909 7640.97,974.767 7778.13,837.609 7779.52,836.217 7778.13,834.825 7640.98,697.669 7640.83,697.527 7553.26,618.685 7551.81,620.031 7532.5,641.481 7524.72,651.089 7517.98,661.459 7497.41,697.099 7491.8,708.111 7487.37,719.651 7474.65,758.789 7471.45,770.731 7469.51,782.943 7465.21,823.871 7464.56,836.219" style="stroke:rgb(0,0,0);stroke-width:1px;fill:none;stroke-opacity:1;stroke-linecap:round;stroke-linejoin:round;;fill:none"/>
<polyline points="7553.27,618.691 7640.83,697.527 7640.98,697.669 7778.13,834.825 7779.52,836.217 7780.92,834.825 7918.07,697.669 7918.22,697.527 8005.78,618.693 8004.61,617.115 7999.03,610.913 7990.28,602.163 7980.67,594.377 7947.38,570.187 7937.01,563.453 7925.99,557.841 7888.4,541.103 7876.85,536.673 7864.91,533.473 7824.66,524.917 7812.45,522.983 7800.1,522.335 7758.95,522.335 7746.6,522.983 7734.39,524.917 7694.14,533.473 7682.2,536.673 7670.66,541.103 7652.56,549.159 7633.06,557.841 7622.05,563.453 7611.68,570.187 7578.38,594.377 7568.77,602.159 7560.03,610.901 7554.45,617.103 7553.27,618.691" style="stroke:rgb(70,124,194);stroke-width:236.220472;fill:none;stroke-opacity:0.5;stroke-linecap:round;stroke-linejoin:round;;fill:none"/>
<polyline points="7553.27,618.691 7640.83,697.527 7640.98,697.669 7778.13,834.825 7779.52,836.217 7780.92,834.825 7918.07,697.669 7918.22,697.527 8005.78,618.693 8004.61,617.115 7999.03,610.913 7990.28,602.163 7980.67,594.377 7947.38,570.187 7937.01,563.453 7925.99,557.841 7888.4,541.103 7876.85,536.673 7864.91,533.473 7824.66,524.917 7812.45,522.983 7800.1,522.335 7758.95,522.335 7746.6,522.983 7734.39,524.917 7694.14,533.473 7682.2,536.673 7670.66,541.103 7652.56,549.159 7633.06,557.841 7622.05,563.453 7611.68,570.187 7578.38,594.377 7568.77,602.159 7560.03,610.901 7554.45,617.103 7553.27,618.691" style="stroke:rgb(0,0,0);stroke-width:1px;fill:none;stroke-opacity:1;stroke-linecap:round;stroke-linejoin:round;;fill:none"/>
<polyline points="7779.53,836.217 7780.92,837.607 7918.07,974.765 7918.22,974.909 8005.79,1053.75 8007.24,1052.41 8026.55,1030.96 8034.33,1021.35 8041.07,1010.98 8061.64,975.337 8067.26,964.325 8071.69,952.785 8084.4,913.647 8087.6,901.705 8089.54,889.493 8093.84,848.565 8094.49,836.219 8093.84,823.871 8089.54,782.943 8087.6,770.731 8084.4,758.789 8071.69,719.651 8071.3,718.637 8067.26,708.111 8061.64,697.099 8041.07,661.459 8034.33,651.087 8026.55,641.477 8007.24,620.027 8005.79,618.689 7918.22,697.527 7918.07,697.669 7780.92,834.825 7779.53,836.217" style="stroke:rgb(84,248,27);stroke-width:236.220472;fill:none;stroke-opacity:0.5;stroke-linecap:round;stroke-linejoin:round;;fill:none"/>
<polyline points="7779.53,836.217 7780.92,837.607 7918.07,974.765 7918.22,974.909 8005.79,1053.75 8007.24,1052.41 8026.55,1030.96 8034.33,1021.35 8041.07,1010.98 8061.64,975.337 8067.26,964.325 8071.69,952.785 8084.4,913.647 8087.6,901.705 8089.54,889.493 8093.84,848.565 8094.49,836.219 8093.84,823.871 8089.54,782.943 8087.6,770.731 8084.4,758.789 8071.69,719.651 8071.3,718.637 8067.26,708.111 8061.64,697.099 8041.07,661.459 8034.33,651.087 8026.55,641.477 8007.24,620.027 8005.79,618.689 7918.22,697.527 7918.07,697.669 7780.92,834.825 7779.53,836.217" style="stroke:rgb(0,0,0);stroke-width:1px;fill:none;stroke-opacity:1;stroke-linecap:round;stroke-linejoin:round;;fill:none"/>
<polyline points="7553.27,1053.74 7554.46,1055.35 7560.04,1061.55 7568.78,1070.28 7578.38,1078.06 7611.68,1102.25 7622.05,1108.98 7633.06,1114.6 7652.56,1123.28 7670.66,1131.33 7682.2,1135.76 7694.14,1138.96 7734.39,1147.52 7746.6,1149.45 7758.95,1150.1 7800.1,1150.1 7812.45,1149.45 7824.66,1147.52 7864.91,1138.96 7876.85,1135.76 7888.4,1131.33 7925.99,1114.6 7937.01,1108.98 7947.38,1102.25 7980.67,1078.06 7990.28,1070.28 7999.02,1061.54 8004.6,1055.33 8005.78,1053.74 7918.22,974.909 7918.07,974.765 7780.92,837.609 7779.52,836.217 7778.13,837.609 7640.97,974.767 7640.83,974.909 7553.27,1053.74" style="stroke:rgb(232,231,141);stroke-width:236.220472;fill:none;stroke-opacity:0.5;stroke-linecap:round;stroke-linejoin:round;;fill:none"/>
<polyline points="7553.27,1053.74 7554.46,1055.35 7560.04,1061.55 7568.78,1070.28 7578.38,1078.06 7611.68,1102.25 7622.05,1108.98 7633.06,1114.6 7652.56,1123.28 7670.66,1131.33 7682.2,1135.76 7694.14,1138.96 7734.39,1147.52 7746.6,1149.45 7758.95,1150.1 7800.1,1150.1 7812.45,1149.45 7824.66,1147.52 7864.91,1138.96 7876.85,1135.76 7888.4,1131.33 7925.99,1114.6 7937.01,1108.98 7947.38,1102.25 7980.67,1078.06 7990.28,1070.28 7999.02,1061.54 8004.6,1055.33 8005.78,1053.74 7918.22,974.909 7918.07,974.765 7780.92,837.609 7779.52,836.217 7778.13,837.609 7640.97,974.767 7640.83,974.909 7553.27,1053.74" style="stroke:rgb(0,0,0);stroke-width:1px;fill:none;stroke-opacity:1;stroke-linecap:round;stroke-linejoin:round;;fill:none"/>
<g fill-rule="evenodd"><path d="M 6762.67,2961.02 L 6891.73,2961.02 L 6891.73,3089.57 L 6879.98,3089.57 L 6853.15,3083.87 L 6828.08,3072.71 L 6805.89,3056.58 L 6787.53,3036.19 L 6773.81,3012.43 L 6765.33,2986.34 L 6762.67,2961.02 z " style="fill-opacity:1.000000;fill:rgb(103,198,105);stroke:rgb(0,0,0);stroke-width:2"/></g>
<g fill-rule="evenodd"><path d="M 6762.67,2957.08 L 6765.33,2931.77 L 6773.81,2905.68 L 6787.53,2881.92 L 6805.89,2861.53 L 6828.08,2845.4 L 6853.15,2834.24 L 6879.98,2828.54 L 6891.73,2828.54 L 6891.73,2957.08 L 6762.67,2957.08 z " style="fill-opacity:1.000000;fill:rgb(115,81,255);stroke:rgb(0,0,0);stroke-width:2"/></g>
<g fill-rule="evenodd"><path d="M 6895.67,3089.57 L 6895.67,2961.02 L 7024.73,2961.02 L 7022.07,2986.34 L 7013.59,3012.43 L 6999.87,3036.19 L 6981.51,3056.58 L 6959.32,3072.71 L 6934.25,3083.87 L 6907.42,3089.57 L 6895.67,3089.57 z " style="fill-opacity:1.000000;fill:rgb(74,236,41);stroke:rgb(0,0,0);stroke-width:2"/></g>
<g fill-rule="evenodd"><path d="M 6895.67,2828.54 L 6907.42,2828.54 L 6934.25,2834.24 L 6959.32,2845.4 L 6981.51,2861.53 L 6999.87,2881.92 L 7013.59,2905.68 L 7022.07,2931.77 L 7024.73,2957.08 L 6895.67,2957.08 L 6895.67,2828.54 z " style="fill-opacity:1.000000;fill:rgb(205,186,171);stroke:rgb(0,0,0);stroke-width:2"/></g>
<g fill-rule="evenodd"><path d="M 7582.68,836.219 L 7586.98,795.291 L 7599.7,756.153 L 7620.27,720.513 L 7639.59,699.063 L 7776.74,836.219 L 7639.58,973.376 L 7620.27,951.925 L 7599.7,916.285 L 7586.98,877.147 L 7582.68,836.219 z " style="fill-opacity:1.000000;fill:rgb(242,251,227);stroke:rgb(0,0,0);stroke-width:2"/></g>
<g fill-rule="evenodd"><path d="M 7642.22,976.306 L 7779.53,839.003 L 7916.83,976.306 L 7911.25,982.507 L 7877.95,1006.7 L 7840.36,1023.44 L 7800.1,1031.99 L 7758.95,1031.99 L 7718.7,1023.44 L 7681.1,1006.7 L 7647.81,982.507 L 7642.22,976.306 z " style="fill-opacity:1.000000;fill:rgb(70,124,194);stroke:rgb(0,0,0);stroke-width:2"/></g>
<g fill-rule="evenodd"><path d="M 7642.22,696.133 L 7647.81,689.931 L 7681.1,665.741 L 7718.7,649.003 L 7758.95,640.447 L 7800.1,640.447 L 7840.36,649.003 L 7877.95,665.741 L 7911.25,689.931 L 7916.83,696.134 L 7779.53,833.436 L 7642.22,696.133 z " style="fill-opacity:1.000000;fill:rgb(84,248,27);stroke:rgb(0,0,0);stroke-width:2"/></g>
<g fill-rule="evenodd"><path d="M 7782.31,836.219 L 7919.47,699.064 L 7938.78,720.513 L 7959.36,756.153 L 7972.08,795.291 L 7976.38,836.219 L 7972.08,877.147 L 7959.36,916.285 L 7938.78,951.925 L 7919.47,973.376 L 7782.31,836.219 z " style="fill-opacity:1.000000;fill:rgb(232,231,141);stroke:rgb(0,0,0);stroke-width:2"/></g>
</svg>
