<?xml version="1.0" standalone="no"?>
<!DOCTYPE svg PUBLIC "-//W3C//DTD SVG 1.1//EN"
"http://www.w3.org/Graphics/SVG/1.1/DTD/svg11.dtd">
<svg width="416.126" height="172.46" viewBox="0 0 8669.29 3592.91" version="1.1"
xmlns="http://www.w3.org/2000/svg"
xmlns:xlink="http://www.w3.org/1999/xlink">
<polyline points="6893.7,3097.16 6894.3,3097.32 6895.67,3097.44 6907.42,3097.44 6908.24,3097.4 6909.05,3097.27 6935.89,3091.57 6936.69,3091.35 6937.46,3091.06 6962.52,3079.9 6963.25,3079.52 6963.95,3079.08 6986.14,3062.95 6986.78,3062.43 6987.36,3061.85 7005.72,3041.46 7006.24,3040.82 7006.69,3040.13 7020.41,3016.37 7020.78,3015.63 7021.08,3014.86 7029.55,2988.77 7029.77,2987.98 7029.9,2987.16 7032.56,2961.85 7032.57,2960.38 7032.34,2959.05 7024.73,2959.05 6895.67,2959.05 6893.7,2959.05 6891.73,2959.05 6762.67,2959.05 6755.06,2959.05 6754.82,2957.72 6754.84,2956.26 6757.5,2930.95 6757.63,2930.13 6757.84,2929.34 6766.32,2903.24 6766.62,2902.47 6766.99,2901.74 6780.71,2877.98 6781.16,2877.29 6781.68,2876.65 6800.04,2856.26 6800.62,2855.68 6801.26,2855.16 6823.45,2839.03 6824.15,2838.58 6824.88,2838.21 6849.94,2827.05 6850.71,2826.75 6851.51,2826.54 6878.34,2820.84 6879.16,2820.71 6879.98,2820.66 6891.73,2820.66 6893.27,2820.82 6893.7,2820.95 6893.7,2828.54 6893.7,2957.08 6893.7,2959.05 6893.7,2961.02 6893.7,3089.57 6893.7,3097.16 6893.27,3097.29 6891.73,3097.44 6879.98,3097.44 6879.16,3097.4 6878.34,3097.27 6851.51,3091.57 6850.71,3091.35 6849.94,3091.06 6824.88,3079.9 6824.15,3079.52 6823.45,3079.08 6801.26,3062.95 6800.62,3062.43 6800.04,3061.85 6781.68,3041.46 6781.16,3040.82 6780.71,3040.13 6766.99,3016.37 6766.62,3015.63 6766.32,3014.86 6757.84,2988.77 6757.63,2987.98 6757.5,2987.16 6754.84,2961.85 6754.82,2960.38 6755.06,2959.05 6754.82,2957.72 6754.84,2956.26 6757.5,2930.95 6757.63,2930.13 6757.84,2929.34 6766.32,2903.24 6766.62,2902.47 6766.99,2901.74 6780.71,2877.98 6781.16,2877.29 6781.68,2876.65 6800.04,2856.26 6800.62,2855.68 6801.26,2855.16 6823.45,2839.03 6824.15,2838.58 6824.88,2838.21 6849.94,2827.05 6850.71,2826.75 6851.51,2826.54 6878.34,2820.84 6879.16,2820.71 6879.98,2820.66 6891.73,2820.66 6893.27,2820.82 6893.7,2820.95 6894.3,2820.78 6895.67,2820.66 6907.42,2820.66 6908.24,2820.71 6909.05,2820.84 6935.89,2826.54 6936.69,2826.75 6937.46,2827.05 6962.52,2838.21 6963.25,2838.58 6963.95,2839.03 6986.14,2855.16 6986.78,2855.68 6987.36,2856.26 7005.72,2876.65 7006.24,2877.29 7006.69,2877.98 7020.41,2901.74 7020.78,2902.47 7021.08,2903.24 7029.55,2929.34 7029.77,2930.13 7029.9,2930.95 7032.56,2956.26 7032.57,2957.72 7032.34,2959.05" style="stroke:rgb(103,198,105);stroke-width:15.748031;fill:none;stroke-opacity:0.5;stroke-linecap:round;stroke-linejoin:round;;fill:none"/>
<polyline points="6893.7,3097.16 6894.3,3097.32 6895.67,3097.44 6907.42,3097.44 6908.24,3097.4 6909.05,3097.27 6935.89,3091.57 6936.69,3091.35 6937.46,3091.06 6962.52,3079.9 6963.25,3079.52 6963.95,3079.08 6986.14,3062.95 6986.78,3062.43 6987.36,3061.85 7005.72,3041.46 7006.24,3040.82 7006.69,3040.13 7020.41,3016.37 7020.78,3015.63 7021.08,3014.86 7029.55,2988.77 7029.77,2987.98 7029.9,2987.16 7032.56,2961.85 7032.57,2960.38 7032.34,2959.05 7024.73,2959.05 6895.67,2959.05 6893.7,2959.05 6891.73,2959.05 6762.67,2959.05 6755.06,2959.05 6754.82,2957.72 6754.84,2956.26 6757.5,2930.95 6757.63,2930.13 6757.84,2929.34 6766.32,2903.24 6766.62,2902.47 6766.99,2901.74 6780.71,2877.98 6781.16,2877.29 6781.68,2876.65 6800.04,2856.26 6800.62,2855.68 6801.26,2855.16 6823.45,2839.03 6824.15,2838.58 6824.88,2838.21 6849.94,2827.05 6850.71,2826.75 6851.51,2826.54 6878.34,2820.84 6879.16,2820.71 6879.98,2820.66 6891.73,2820.66 6893.27,2820.82 6893.7,2820.95 6893.7,2828.54 6893.7,2957.08 6893.7,2959.05 6893.7,2961.02 6893.7,3089.57 6893.7,3097.16 6893.27,3097.29 6891.73,3097.44 6879.98,3097.44 6879.16,3097.4 6878.34,3097.27 6851.51,3091.57 6850.71,3091.35 6849.94,3091.06 6824.88,3079.9 6824.15,3079.52 6823.45,3079.08 6801.26,3062.95 6800.62,3062.43 6800.04,3061.85 6781.68,3041.46 6781.16,3040.82 6780.71,3040.13 6766.99,3016.37 6766.62,3015.63 6766.32,3014.86 6757.84,2988.77 6757.63,2987.98 6757.5,2987.16 6754.84,2961.85 6754.82,2960.38 6755.06,2959.05 6754.82,2957.72 6754.84,2956.26 6757.5,2930.95 6757.63,2930.13 6757.84,2929.34 6766.32,2903.24 6766.62,2902.47 6766.99,2901.74 6780.71,2877.98 6781.16,2877.29 6781.68,2876.65 6800.04,2856.26 6800.62,2855.68 6801.26,2855.16 6823.45,2839.03 6824.15,2838.58 6824.88,2838.21 6849.94,2827.05 6850.71,2826.75 6851.51,2826.54 6878.34,2820.84 6879.16,2820.71 6879.98,2820.66 6891.73,2820.66 6893.27,2820.82 6893.7,2820.95 6894.3,2820.78 6895.67,2820.66 6907.42,2820.66 6908.24,2820.71 6909.05,2820.84 6935.89,2826.54 6936.69,2826.75 6937.46,2827.05 6962.52,2838.21 6963.25,2838.58 6963.95,2839.03 6986.14,2855.16 6986.78,2855.68 6987.36,2856.26 7005.72,2876.65 7006.24,2877.29 7006.69,2877.98 7020.41,2901.74 7020.78,2902.47 7021.08,2903.24 7029.55,2929.34 7029.77,2930.13 7029.9,2930.95 7032.56,2956.26 7032.57,2957.72 7032.34,2959.05" style="stroke:rgb(0,0,0);stroke-width:1px;fill:none;stroke-opacity:1;stroke-linecap:round;stroke-linejoin:round;;fill:none"/>
<polyline points="7923.79,979.919 7918.22,974.909 7918.07,974.765 7780.92,837.607 7779.52,836.217 7778.13,834.825 7640.98,697.669 7640.83,697.527 7635.26,692.517 7634.77,692.829 7633.73,693.793 7614.42,715.243 7613.9,715.883 7613.45,716.575 7592.88,752.215 7592.5,752.949 7592.21,753.719 7579.49,792.857 7579.28,793.653 7579.15,794.467 7574.84,835.395 7574.8,836.219 7574.84,837.041 7579.15,877.969 7579.28,878.783 7579.49,879.579 7592.21,918.717 7592.5,919.487 7592.88,920.221 7613.45,955.861 7613.9,956.553 7614.42,957.193 7633.73,978.643 7634.77,979.607 7635.26,979.919 7635.48,980.375 7636.37,981.575 7641.96,987.775 7642.54,988.357 7643.18,988.877 7676.47,1013.07 7677.16,1013.52 7677.9,1013.89 7715.49,1030.63 7716.26,1030.92 7717.06,1031.14 7757.31,1039.69 7758.13,1039.82 7758.95,1039.87 7800.1,1039.87 7800.93,1039.82 7801.74,1039.69 7841.99,1031.14 7842.79,1030.92 7843.56,1030.63 7881.15,1013.89 7881.89,1013.52 7882.58,1013.07 7915.87,988.877 7916.51,988.357 7917.1,987.775 7922.68,981.573 7923.57,980.375 7923.79,979.919 7924.28,979.607 7925.32,978.643 7944.63,957.193 7945.15,956.553 7945.6,955.861 7966.18,920.221 7966.55,919.487 7966.85,918.717 7979.56,879.579 7979.78,878.783 7979.91,877.969 7984.21,837.041 7984.25,836.219 7984.21,835.395 7979.91,794.467 7979.78,793.653 7979.56,792.857 7966.85,753.719 7966.55,752.949 7966.18,752.215 7945.6,716.575 7945.15,715.883 7944.63,715.243 7925.32,693.793 7924.28,692.829 7923.79,692.517 7923.57,692.063 7922.68,690.865 7917.1,684.663 7916.51,684.079 7915.87,683.559 7882.58,659.369 7881.89,658.921 7881.15,658.547 7843.56,641.809 7842.79,641.513 7841.99,641.301 7801.74,632.745 7800.93,632.615 7800.1,632.571 7758.95,632.571 7758.13,632.615 7757.31,632.745 7717.06,641.301 7716.26,641.513 7715.49,641.809 7677.9,658.547 7677.16,658.921 7676.47,659.369 7643.18,683.559 7642.54,684.079 7641.96,684.661 7636.37,690.863 7635.48,692.061 7635.26,692.517 7634.77,692.829 7633.73,693.793 7614.42,715.243 7613.9,715.883 7613.45,716.575 7592.88,752.215 7592.5,752.949 7592.21,753.719 7579.49,792.857 7579.28,793.653 7579.15,794.467 7574.84,835.395 7574.8,836.219 7574.84,837.041 7579.15,877.969 7579.28,878.783 7579.49,879.579 7592.21,918.717 7592.5,919.487 7592.88,920.221 7613.45,955.861 7613.9,956.553 7614.42,957.193 7633.73,978.643 7634.77,979.607 7635.26,979.919 7640.83,974.909 7640.97,974.767 7778.13,837.609 7779.52,836.217 7780.92,834.825 7918.07,697.669 7918.22,697.527 7923.79,692.517" style="stroke:rgb(103,198,105);stroke-width:15.748031;fill:none;stroke-opacity:0.5;stroke-linecap:round;stroke-linejoin:round;;fill:none"/>
<polyline points="7923.79,979.919 7918.22,974.909 7918.07,974.765 7780.92,837.607 7779.52,836.217 7778.13,834.825 7640.98,697.669 7640.83,697.527 7635.26,692.517 7634.77,692.829 7633.73,693.793 7614.42,715.243 7613.9,715.883 7613.45,716.575 7592.88,752.215 7592.5,752.949 7592.21,753.719 7579.49,792.857 7579.28,793.653 7579.15,794.467 7574.84,835.395 7574.8,836.219 7574.84,837.041 7579.15,877.969 7579.28,878.783 7579.49,879.579 7592.21,918.717 7592.5,919.487 7592.88,920.221 7613.45,955.861 7613.9,956.553 7614.42,957.193 7633.73,978.643 7634.77,979.607 7635.26,979.919 7635.48,980.375 7636.37,981.575 7641.96,987.775 7642.54,988.357 7643.18,988.877 7676.47,1013.07 7677.16,1013.52 7677.9,1013.89 7715.49,1030.63 7716.26,1030.92 7717.06,1031.14 7757.31,1039.69 7758.13,1039.82 7758.95,1039.87 7800.1,1039.87 7800.93,1039.82 7801.74,1039.69 7841.99,1031.14 7842.79,1030.92 7843.56,1030.63 7881.15,1013.89 7881.89,1013.52 7882.58,1013.07 7915.87,988.877 7916.51,988.357 7917.1,987.775 7922.68,981.573 7923.57,980.375 7923.79,979.919 7924.28,979.607 7925.32,978.643 7944.63,957.193 7945.15,956.553 7945.6,955.861 7966.18,920.221 7966.55,919.487 7966.85,918.717 7979.56,879.579 7979.78,878.783 7979.91,877.969 7984.21,837.041 7984.25,836.219 7984.21,835.395 7979.91,794.467 7979.78,793.653 7979.56,792.857 7966.85,753.719 7966.55,752.949 7966.18,752.215 7945.6,716.575 7945.15,715.883 7944.63,715.243 7925.32,693.793 7924.28,692.829 7923.79,692.517 7923.57,692.063 7922.68,690.865 7917.1,684.663 7916.51,684.079 7915.87,683.559 7882.58,659.369 7881.89,658.921 7881.15,658.547 7843.56,641.809 7842.79,641.513 7841.99,641.301 7801.74,632.745 7800.93,632.615 7800.1,632.571 7758.95,632.571 7758.13,632.615 7757.31,632.745 7717.06,641.301 7716.26,641.513 7715.49,641.809 7677.9,658.547 7677.16,658.921 7676.47,659.369 7643.18,683.559 7642.54,684.079 7641.96,684.661 7636.37,690.863 7635.48,692.061 7635.26,692.517 7634.77,692.829 7633.73,693.793 7614.42,715.243 7613.9,715.883 7613.45,716.575 7592.88,752.215 7592.5,752.949 7592.21,753.719 7579.49,792.857 7579.28,793.653 7579.15,794.467 7574.84,835.395 7574.8,836.219 7574.84,837.041 7579.15,877.969 7579.28,878.783 7579.49,879.579 7592.21,918.717 7592.5,919.487 7592.88,920.221 7613.45,955.861 7613.9,956.553 7614.42,957.193 7633.73,978.643 7634.77,979.607 7635.26,979.919 7640.83,974.909 7640.97,974.767 7778.13,837.609 7779.52,836.217 7780.92,834.825 7918.07,697.669 7918.22,697.527 7923.79,692.517" style="stroke:rgb(0,0,0);stroke-width:1px;fill:none;stroke-opacity:1;stroke-linecap:round;stroke-linejoin:round;;fill:none"/>
</svg>
