M48
; DRILL file {KiCad 6.0.4-6f826c9f35~116~ubuntu20.04.1} date lun 28 mar 2022 20:59:00
; FORMAT={-:-/ absolute / inch / decimal}
; #@! TF.CreationDate,2022-03-28T20:59:00+02:00
; #@! TF.GenerationSoftware,Kicad,Pcbnew,6.0.4-6f826c9f35~116~ubuntu20.04.1
; #@! TF.FileFunction,MixedPlating,1,2
FMAT,2
INCH
; #@! TA.AperFunction,Plated,PTH,ViaDrill
T1C0.0299
; #@! TA.AperFunction,Plated,PTH,ComponentDrill
T2C0.0315
; #@! TA.AperFunction,Plated,PTH,ComponentDrill
T3C0.0335
; #@! TA.AperFunction,Plated,PTH,ComponentDrill
T4C0.0354
; #@! TA.AperFunction,Plated,PTH,ComponentDrill
T5C0.0394
; #@! TA.AperFunction,Plated,PTH,ComponentDrill
T6C0.0400
; #@! TA.AperFunction,Plated,PTH,ComponentDrill
T7C0.0472
; #@! TA.AperFunction,Plated,PTH,ViaDrill
T8C0.1614
; #@! TA.AperFunction,NonPlated,NPTH,ComponentDrill
T9C0.0866
%
G90
G05
T1
X3.8976Y-2.9921
X4.4882Y-2.9921
X4.5276Y-3.937
X4.7244Y-3.9961
X4.9409Y-3.9961
X5.0984Y-3.937
X5.315Y-3.189
X5.3215Y-3.4777
X5.5399Y-3.1777
X5.748Y-3.622
X5.9252Y-3.9961
X6.1218Y-3.8777
X6.1238Y-3.4953
X6.3386Y-3.9764
X6.9488Y-2.6378
X6.9488Y-3.0906
T2
X6.5748Y-3.4586
X6.5748Y-3.5964
T3
X6.4664Y-2.6414
X6.6318Y-2.6414
X6.7971Y-2.6414
T4
X4.9803Y-2.7756
X4.9803Y-2.8756
T5
X3.8425Y-3.1063
X3.8425Y-3.2063
X3.8425Y-3.3063
X3.8425Y-3.4063
X3.8425Y-3.5063
X3.8425Y-3.6063
X3.8425Y-3.7063
X3.8425Y-3.8063
X4.7425Y-3.1063
X4.7425Y-3.2063
X4.7425Y-3.3063
X4.7425Y-3.4063
X4.7425Y-3.5063
X4.7425Y-3.6063
X4.7425Y-3.7063
X4.7425Y-3.8063
X4.9835Y-3.1589
X4.9835Y-3.2589
X4.9835Y-3.3589
X4.9835Y-3.4589
X4.9835Y-3.5589
X4.9835Y-3.6589
X4.9835Y-3.7589
X4.9835Y-3.8589
X5.1969Y-3.7494
X5.1969Y-3.8494
X5.2165Y-3.1661
X5.2165Y-3.2661
X5.2165Y-3.3661
X5.2165Y-3.4661
X6.2402Y-3.2757
X6.2402Y-3.3757
X6.2402Y-3.4757
X6.2402Y-3.5757
X6.2402Y-3.6757
X6.2402Y-3.7757
X6.2402Y-3.8757
X6.5142Y-3.2677
X6.6142Y-3.2677
T6
X5.4147Y-2.7777
X5.4147Y-2.8777
X5.4147Y-2.9777
X5.4147Y-3.0777
X5.4147Y-3.1777
X5.4147Y-3.2777
X5.4147Y-3.3777
X5.4147Y-3.4777
X5.4147Y-3.5777
X5.4147Y-3.6777
X5.4147Y-3.7777
X5.4147Y-3.8777
X5.4647Y-2.6777
X5.5647Y-2.6777
X5.6647Y-2.6777
X5.7647Y-2.6777
X5.8647Y-2.6777
X5.8997Y-3.1227
X5.8997Y-3.2227
X5.8997Y-3.5327
X5.8997Y-3.6327
X5.9647Y-2.6777
X6.0147Y-2.7777
X6.0147Y-2.8777
X6.0147Y-2.9777
X6.0147Y-3.0777
X6.0147Y-3.1777
X6.0147Y-3.2777
X6.0147Y-3.3777
X6.0147Y-3.4777
X6.0147Y-3.5777
X6.0147Y-3.6777
X6.0147Y-3.7777
X6.0147Y-3.8777
T7
X4.1726Y-2.815
X4.4726Y-2.815
X6.9319Y-3.3184
X6.9319Y-3.5184
T8
X6.8268Y-3.8791
X7.2697Y-2.8177
T9
X6.4664Y-3.043
X6.6318Y-3.043
X6.7971Y-3.043
T0
M30
