%TF.GenerationSoftware,KiCad,Pcbnew,6.0.4-6f826c9f35~116~ubuntu20.04.1*%
%TF.CreationDate,2022-04-01T16:54:59+02:00*%
%TF.ProjectId,placaCANSAT_V3,706c6163-6143-4414-9e53-41545f56332e,rev?*%
%TF.SameCoordinates,Original*%
%TF.FileFunction,Legend,Top*%
%TF.FilePolarity,Positive*%
%FSLAX46Y46*%
G04 Gerber Fmt 4.6, Leading zero omitted, Abs format (unit mm)*
G04 Created by KiCad (PCBNEW 6.0.4-6f826c9f35~116~ubuntu20.04.1) date 2022-04-01 16:54:59*
%MOMM*%
%LPD*%
G01*
G04 APERTURE LIST*
%ADD10C,0.120000*%
%ADD11C,0.125000*%
%ADD12C,0.150000*%
%ADD13C,0.127000*%
G04 APERTURE END LIST*
D10*
G36*
X46100000Y-5500000D02*
G01*
X46100000Y-14000000D01*
X43600000Y-12000000D01*
X41600000Y-12000000D01*
X41600000Y-4000000D01*
X44600000Y-4000000D01*
X46100000Y-5500000D01*
G37*
X46100000Y-5500000D02*
X46100000Y-14000000D01*
X43600000Y-12000000D01*
X41600000Y-12000000D01*
X41600000Y-4000000D01*
X44600000Y-4000000D01*
X46100000Y-5500000D01*
G36*
X73100000Y-16000000D02*
G01*
X69600000Y-16000000D01*
X67100000Y-13000000D01*
X67100000Y-4000000D01*
X73100000Y-4000000D01*
X73100000Y-16000000D01*
G37*
X73100000Y-16000000D02*
X69600000Y-16000000D01*
X67100000Y-13000000D01*
X67100000Y-4000000D01*
X73100000Y-4000000D01*
X73100000Y-16000000D01*
D11*
X71480952Y-24726190D02*
X71480952Y-24226190D01*
X71766666Y-24726190D01*
X71766666Y-24226190D01*
X71980952Y-24702380D02*
X72052380Y-24726190D01*
X72171428Y-24726190D01*
X72219047Y-24702380D01*
X72242857Y-24678571D01*
X72266666Y-24630952D01*
X72266666Y-24583333D01*
X72242857Y-24535714D01*
X72219047Y-24511904D01*
X72171428Y-24488095D01*
X72076190Y-24464285D01*
X72028571Y-24440476D01*
X72004761Y-24416666D01*
X71980952Y-24369047D01*
X71980952Y-24321428D01*
X72004761Y-24273809D01*
X72028571Y-24250000D01*
X72076190Y-24226190D01*
X72195238Y-24226190D01*
X72266666Y-24250000D01*
X72457142Y-24702380D02*
X72528571Y-24726190D01*
X72647619Y-24726190D01*
X72695238Y-24702380D01*
X72719047Y-24678571D01*
X72742857Y-24630952D01*
X72742857Y-24583333D01*
X72719047Y-24535714D01*
X72695238Y-24511904D01*
X72647619Y-24488095D01*
X72552380Y-24464285D01*
X72504761Y-24440476D01*
X72480952Y-24416666D01*
X72457142Y-24369047D01*
X72457142Y-24321428D01*
X72480952Y-24273809D01*
X72504761Y-24250000D01*
X72552380Y-24226190D01*
X72671428Y-24226190D01*
X72742857Y-24250000D01*
X71314285Y-32226190D02*
X71314285Y-31726190D01*
X71480952Y-32083333D01*
X71647619Y-31726190D01*
X71647619Y-32226190D01*
X71980952Y-31726190D02*
X72076190Y-31726190D01*
X72123809Y-31750000D01*
X72171428Y-31797619D01*
X72195238Y-31892857D01*
X72195238Y-32059523D01*
X72171428Y-32154761D01*
X72123809Y-32202380D01*
X72076190Y-32226190D01*
X71980952Y-32226190D01*
X71933333Y-32202380D01*
X71885714Y-32154761D01*
X71861904Y-32059523D01*
X71861904Y-31892857D01*
X71885714Y-31797619D01*
X71933333Y-31750000D01*
X71980952Y-31726190D01*
X72385714Y-32202380D02*
X72457142Y-32226190D01*
X72576190Y-32226190D01*
X72623809Y-32202380D01*
X72647619Y-32178571D01*
X72671428Y-32130952D01*
X72671428Y-32083333D01*
X72647619Y-32035714D01*
X72623809Y-32011904D01*
X72576190Y-31988095D01*
X72480952Y-31964285D01*
X72433333Y-31940476D01*
X72409523Y-31916666D01*
X72385714Y-31869047D01*
X72385714Y-31821428D01*
X72409523Y-31773809D01*
X72433333Y-31750000D01*
X72480952Y-31726190D01*
X72600000Y-31726190D01*
X72671428Y-31750000D01*
X72885714Y-32226190D02*
X72885714Y-31726190D01*
X50123809Y-21750000D02*
X50076190Y-21726190D01*
X50004761Y-21726190D01*
X49933333Y-21750000D01*
X49885714Y-21797619D01*
X49861904Y-21845238D01*
X49838095Y-21940476D01*
X49838095Y-22011904D01*
X49861904Y-22107142D01*
X49885714Y-22154761D01*
X49933333Y-22202380D01*
X50004761Y-22226190D01*
X50052380Y-22226190D01*
X50123809Y-22202380D01*
X50147619Y-22178571D01*
X50147619Y-22011904D01*
X50052380Y-22011904D01*
X50361904Y-22226190D02*
X50361904Y-21726190D01*
X50552380Y-21726190D01*
X50600000Y-21750000D01*
X50623809Y-21773809D01*
X50647619Y-21821428D01*
X50647619Y-21892857D01*
X50623809Y-21940476D01*
X50600000Y-21964285D01*
X50552380Y-21988095D01*
X50361904Y-21988095D01*
X50838095Y-22202380D02*
X50909523Y-22226190D01*
X51028571Y-22226190D01*
X51076190Y-22202380D01*
X51100000Y-22178571D01*
X51123809Y-22130952D01*
X51123809Y-22083333D01*
X51100000Y-22035714D01*
X51076190Y-22011904D01*
X51028571Y-21988095D01*
X50933333Y-21964285D01*
X50885714Y-21940476D01*
X50861904Y-21916666D01*
X50838095Y-21869047D01*
X50838095Y-21821428D01*
X50861904Y-21773809D01*
X50885714Y-21750000D01*
X50933333Y-21726190D01*
X51052380Y-21726190D01*
X51123809Y-21750000D01*
X51219047Y-22273809D02*
X51600000Y-22273809D01*
X51647619Y-21726190D02*
X51933333Y-21726190D01*
X51790476Y-22226190D02*
X51790476Y-21726190D01*
X52052380Y-21726190D02*
X52385714Y-22226190D01*
X52385714Y-21726190D02*
X52052380Y-22226190D01*
X41969047Y-36202380D02*
X42040476Y-36226190D01*
X42159523Y-36226190D01*
X42207142Y-36202380D01*
X42230952Y-36178571D01*
X42254761Y-36130952D01*
X42254761Y-36083333D01*
X42230952Y-36035714D01*
X42207142Y-36011904D01*
X42159523Y-35988095D01*
X42064285Y-35964285D01*
X42016666Y-35940476D01*
X41992857Y-35916666D01*
X41969047Y-35869047D01*
X41969047Y-35821428D01*
X41992857Y-35773809D01*
X42016666Y-35750000D01*
X42064285Y-35726190D01*
X42183333Y-35726190D01*
X42254761Y-35750000D01*
X42469047Y-36226190D02*
X42469047Y-35726190D01*
X42588095Y-35726190D01*
X42659523Y-35750000D01*
X42707142Y-35797619D01*
X42730952Y-35845238D01*
X42754761Y-35940476D01*
X42754761Y-36011904D01*
X42730952Y-36107142D01*
X42707142Y-36154761D01*
X42659523Y-36202380D01*
X42588095Y-36226190D01*
X42469047Y-36226190D01*
X42945238Y-36083333D02*
X43183333Y-36083333D01*
X42897619Y-36226190D02*
X43064285Y-35726190D01*
X43230952Y-36226190D01*
X43278571Y-36273809D02*
X43659523Y-36273809D01*
X43754761Y-36083333D02*
X43992857Y-36083333D01*
X43707142Y-36226190D02*
X43873809Y-35726190D01*
X44040476Y-36226190D01*
X44492857Y-36178571D02*
X44469047Y-36202380D01*
X44397619Y-36226190D01*
X44350000Y-36226190D01*
X44278571Y-36202380D01*
X44230952Y-36154761D01*
X44207142Y-36107142D01*
X44183333Y-36011904D01*
X44183333Y-35940476D01*
X44207142Y-35845238D01*
X44230952Y-35797619D01*
X44278571Y-35750000D01*
X44350000Y-35726190D01*
X44397619Y-35726190D01*
X44469047Y-35750000D01*
X44492857Y-35773809D01*
X44707142Y-35964285D02*
X44873809Y-35964285D01*
X44945238Y-36226190D02*
X44707142Y-36226190D01*
X44707142Y-35726190D01*
X44945238Y-35726190D01*
X45040476Y-36273809D02*
X45421428Y-36273809D01*
X45516666Y-36083333D02*
X45754761Y-36083333D01*
X45469047Y-36226190D02*
X45635714Y-35726190D01*
X45802380Y-36226190D01*
X46183333Y-35892857D02*
X46183333Y-36226190D01*
X46064285Y-35702380D02*
X45945238Y-36059523D01*
X46254761Y-36059523D01*
D12*
X50552380Y-27357142D02*
X50504761Y-27404761D01*
X50361904Y-27452380D01*
X50266666Y-27452380D01*
X50123809Y-27404761D01*
X50028571Y-27309523D01*
X49980952Y-27214285D01*
X49933333Y-27023809D01*
X49933333Y-26880952D01*
X49980952Y-26690476D01*
X50028571Y-26595238D01*
X50123809Y-26500000D01*
X50266666Y-26452380D01*
X50361904Y-26452380D01*
X50504761Y-26500000D01*
X50552380Y-26547619D01*
X50933333Y-27166666D02*
X51409523Y-27166666D01*
X50838095Y-27452380D02*
X51171428Y-26452380D01*
X51504761Y-27452380D01*
X51838095Y-27452380D02*
X51838095Y-26452380D01*
X52171428Y-27166666D01*
X52504761Y-26452380D01*
X52504761Y-27452380D01*
X52933333Y-27166666D02*
X53409523Y-27166666D01*
X52838095Y-27452380D02*
X53171428Y-26452380D01*
X53504761Y-27452380D01*
X54409523Y-27452380D02*
X54076190Y-26976190D01*
X53838095Y-27452380D02*
X53838095Y-26452380D01*
X54219047Y-26452380D01*
X54314285Y-26500000D01*
X54361904Y-26547619D01*
X54409523Y-26642857D01*
X54409523Y-26785714D01*
X54361904Y-26880952D01*
X54314285Y-26928571D01*
X54219047Y-26976190D01*
X53838095Y-26976190D01*
X54790476Y-27166666D02*
X55266666Y-27166666D01*
X54695238Y-27452380D02*
X55028571Y-26452380D01*
X55361904Y-27452380D01*
D11*
X57350000Y-21823690D02*
X57350000Y-21323690D01*
X57469047Y-21323690D01*
X57540476Y-21347500D01*
X57588095Y-21395119D01*
X57611904Y-21442738D01*
X57635714Y-21537976D01*
X57635714Y-21609404D01*
X57611904Y-21704642D01*
X57588095Y-21752261D01*
X57540476Y-21799880D01*
X57469047Y-21823690D01*
X57350000Y-21823690D01*
X57850000Y-21823690D02*
X57850000Y-21323690D01*
X58183333Y-21323690D02*
X58278571Y-21323690D01*
X58326190Y-21347500D01*
X58373809Y-21395119D01*
X58397619Y-21490357D01*
X58397619Y-21657023D01*
X58373809Y-21752261D01*
X58326190Y-21799880D01*
X58278571Y-21823690D01*
X58183333Y-21823690D01*
X58135714Y-21799880D01*
X58088095Y-21752261D01*
X58064285Y-21657023D01*
X58064285Y-21490357D01*
X58088095Y-21395119D01*
X58135714Y-21347500D01*
X58183333Y-21323690D01*
X58707142Y-21323690D02*
X58754761Y-21323690D01*
X58802380Y-21347500D01*
X58826190Y-21371309D01*
X58850000Y-21418928D01*
X58873809Y-21514166D01*
X58873809Y-21633214D01*
X58850000Y-21728452D01*
X58826190Y-21776071D01*
X58802380Y-21799880D01*
X58754761Y-21823690D01*
X58707142Y-21823690D01*
X58659523Y-21799880D01*
X58635714Y-21776071D01*
X58611904Y-21728452D01*
X58588095Y-21633214D01*
X58588095Y-21514166D01*
X58611904Y-21418928D01*
X58635714Y-21371309D01*
X58659523Y-21347500D01*
X58707142Y-21323690D01*
X56016666Y-22128690D02*
X56302380Y-22128690D01*
X56159523Y-22628690D02*
X56159523Y-22128690D01*
X56469047Y-22366785D02*
X56635714Y-22366785D01*
X56707142Y-22628690D02*
X56469047Y-22628690D01*
X56469047Y-22128690D01*
X56707142Y-22128690D01*
X57159523Y-22628690D02*
X56921428Y-22628690D01*
X56921428Y-22128690D01*
X57326190Y-22366785D02*
X57492857Y-22366785D01*
X57564285Y-22628690D02*
X57326190Y-22628690D01*
X57326190Y-22128690D01*
X57564285Y-22128690D01*
X57778571Y-22628690D02*
X57778571Y-22128690D01*
X57945238Y-22485833D01*
X58111904Y-22128690D01*
X58111904Y-22628690D01*
X58350000Y-22366785D02*
X58516666Y-22366785D01*
X58588095Y-22628690D02*
X58350000Y-22628690D01*
X58350000Y-22128690D01*
X58588095Y-22128690D01*
X58730952Y-22128690D02*
X59016666Y-22128690D01*
X58873809Y-22628690D02*
X58873809Y-22128690D01*
X59469047Y-22628690D02*
X59302380Y-22390595D01*
X59183333Y-22628690D02*
X59183333Y-22128690D01*
X59373809Y-22128690D01*
X59421428Y-22152500D01*
X59445238Y-22176309D01*
X59469047Y-22223928D01*
X59469047Y-22295357D01*
X59445238Y-22342976D01*
X59421428Y-22366785D01*
X59373809Y-22390595D01*
X59183333Y-22390595D01*
X59683333Y-22628690D02*
X59683333Y-22128690D01*
X59897619Y-22485833D02*
X60135714Y-22485833D01*
X59850000Y-22628690D02*
X60016666Y-22128690D01*
X60183333Y-22628690D01*
D12*
X50957142Y-24952380D02*
X50480952Y-24952380D01*
X50480952Y-23952380D01*
X51290476Y-24428571D02*
X51623809Y-24428571D01*
X51766666Y-24952380D02*
X51290476Y-24952380D01*
X51290476Y-23952380D01*
X51766666Y-23952380D01*
X52195238Y-24952380D02*
X52195238Y-23952380D01*
X52433333Y-23952380D01*
X52576190Y-24000000D01*
X52671428Y-24095238D01*
X52719047Y-24190476D01*
X52766666Y-24380952D01*
X52766666Y-24523809D01*
X52719047Y-24714285D01*
X52671428Y-24809523D01*
X52576190Y-24904761D01*
X52433333Y-24952380D01*
X52195238Y-24952380D01*
D11*
X40980952Y-29202380D02*
X41052380Y-29226190D01*
X41171428Y-29226190D01*
X41219047Y-29202380D01*
X41242857Y-29178571D01*
X41266666Y-29130952D01*
X41266666Y-29083333D01*
X41242857Y-29035714D01*
X41219047Y-29011904D01*
X41171428Y-28988095D01*
X41076190Y-28964285D01*
X41028571Y-28940476D01*
X41004761Y-28916666D01*
X40980952Y-28869047D01*
X40980952Y-28821428D01*
X41004761Y-28773809D01*
X41028571Y-28750000D01*
X41076190Y-28726190D01*
X41195238Y-28726190D01*
X41266666Y-28750000D01*
X41766666Y-29178571D02*
X41742857Y-29202380D01*
X41671428Y-29226190D01*
X41623809Y-29226190D01*
X41552380Y-29202380D01*
X41504761Y-29154761D01*
X41480952Y-29107142D01*
X41457142Y-29011904D01*
X41457142Y-28940476D01*
X41480952Y-28845238D01*
X41504761Y-28797619D01*
X41552380Y-28750000D01*
X41623809Y-28726190D01*
X41671428Y-28726190D01*
X41742857Y-28750000D01*
X41766666Y-28773809D01*
X42219047Y-29226190D02*
X41980952Y-29226190D01*
X41980952Y-28726190D01*
X42266666Y-29273809D02*
X42647619Y-29273809D01*
X42742857Y-29083333D02*
X42980952Y-29083333D01*
X42695238Y-29226190D02*
X42861904Y-28726190D01*
X43028571Y-29226190D01*
X43480952Y-29178571D02*
X43457142Y-29202380D01*
X43385714Y-29226190D01*
X43338095Y-29226190D01*
X43266666Y-29202380D01*
X43219047Y-29154761D01*
X43195238Y-29107142D01*
X43171428Y-29011904D01*
X43171428Y-28940476D01*
X43195238Y-28845238D01*
X43219047Y-28797619D01*
X43266666Y-28750000D01*
X43338095Y-28726190D01*
X43385714Y-28726190D01*
X43457142Y-28750000D01*
X43480952Y-28773809D01*
X43695238Y-28964285D02*
X43861904Y-28964285D01*
X43933333Y-29226190D02*
X43695238Y-29226190D01*
X43695238Y-28726190D01*
X43933333Y-28726190D01*
X44028571Y-29273809D02*
X44409523Y-29273809D01*
X44504761Y-29083333D02*
X44742857Y-29083333D01*
X44457142Y-29226190D02*
X44623809Y-28726190D01*
X44790476Y-29226190D01*
X45195238Y-28726190D02*
X44957142Y-28726190D01*
X44933333Y-28964285D01*
X44957142Y-28940476D01*
X45004761Y-28916666D01*
X45123809Y-28916666D01*
X45171428Y-28940476D01*
X45195238Y-28964285D01*
X45219047Y-29011904D01*
X45219047Y-29130952D01*
X45195238Y-29178571D01*
X45171428Y-29202380D01*
X45123809Y-29226190D01*
X45004761Y-29226190D01*
X44957142Y-29202380D01*
X44933333Y-29178571D01*
X51350000Y-15823690D02*
X51350000Y-15323690D01*
X51469047Y-15323690D01*
X51540476Y-15347500D01*
X51588095Y-15395119D01*
X51611904Y-15442738D01*
X51635714Y-15537976D01*
X51635714Y-15609404D01*
X51611904Y-15704642D01*
X51588095Y-15752261D01*
X51540476Y-15799880D01*
X51469047Y-15823690D01*
X51350000Y-15823690D01*
X51850000Y-15823690D02*
X51850000Y-15323690D01*
X52183333Y-15323690D02*
X52278571Y-15323690D01*
X52326190Y-15347500D01*
X52373809Y-15395119D01*
X52397619Y-15490357D01*
X52397619Y-15657023D01*
X52373809Y-15752261D01*
X52326190Y-15799880D01*
X52278571Y-15823690D01*
X52183333Y-15823690D01*
X52135714Y-15799880D01*
X52088095Y-15752261D01*
X52064285Y-15657023D01*
X52064285Y-15490357D01*
X52088095Y-15395119D01*
X52135714Y-15347500D01*
X52183333Y-15323690D01*
X52707142Y-15323690D02*
X52754761Y-15323690D01*
X52802380Y-15347500D01*
X52826190Y-15371309D01*
X52850000Y-15418928D01*
X52873809Y-15514166D01*
X52873809Y-15633214D01*
X52850000Y-15728452D01*
X52826190Y-15776071D01*
X52802380Y-15799880D01*
X52754761Y-15823690D01*
X52707142Y-15823690D01*
X52659523Y-15799880D01*
X52635714Y-15776071D01*
X52611904Y-15728452D01*
X52588095Y-15633214D01*
X52588095Y-15514166D01*
X52611904Y-15418928D01*
X52635714Y-15371309D01*
X52659523Y-15347500D01*
X52707142Y-15323690D01*
X50016666Y-16128690D02*
X50302380Y-16128690D01*
X50159523Y-16628690D02*
X50159523Y-16128690D01*
X50469047Y-16366785D02*
X50635714Y-16366785D01*
X50707142Y-16628690D02*
X50469047Y-16628690D01*
X50469047Y-16128690D01*
X50707142Y-16128690D01*
X51159523Y-16628690D02*
X50921428Y-16628690D01*
X50921428Y-16128690D01*
X51326190Y-16366785D02*
X51492857Y-16366785D01*
X51564285Y-16628690D02*
X51326190Y-16628690D01*
X51326190Y-16128690D01*
X51564285Y-16128690D01*
X51778571Y-16628690D02*
X51778571Y-16128690D01*
X51945238Y-16485833D01*
X52111904Y-16128690D01*
X52111904Y-16628690D01*
X52350000Y-16366785D02*
X52516666Y-16366785D01*
X52588095Y-16628690D02*
X52350000Y-16628690D01*
X52350000Y-16128690D01*
X52588095Y-16128690D01*
X52730952Y-16128690D02*
X53016666Y-16128690D01*
X52873809Y-16628690D02*
X52873809Y-16128690D01*
X53469047Y-16628690D02*
X53302380Y-16390595D01*
X53183333Y-16628690D02*
X53183333Y-16128690D01*
X53373809Y-16128690D01*
X53421428Y-16152500D01*
X53445238Y-16176309D01*
X53469047Y-16223928D01*
X53469047Y-16295357D01*
X53445238Y-16342976D01*
X53421428Y-16366785D01*
X53373809Y-16390595D01*
X53183333Y-16390595D01*
X53683333Y-16628690D02*
X53683333Y-16128690D01*
X53897619Y-16485833D02*
X54135714Y-16485833D01*
X53850000Y-16628690D02*
X54016666Y-16128690D01*
X54183333Y-16628690D01*
X71314285Y-29726190D02*
X71314285Y-29226190D01*
X71480952Y-29583333D01*
X71647619Y-29226190D01*
X71647619Y-29726190D01*
X71885714Y-29726190D02*
X71885714Y-29226190D01*
X72100000Y-29702380D02*
X72171428Y-29726190D01*
X72290476Y-29726190D01*
X72338095Y-29702380D01*
X72361904Y-29678571D01*
X72385714Y-29630952D01*
X72385714Y-29583333D01*
X72361904Y-29535714D01*
X72338095Y-29511904D01*
X72290476Y-29488095D01*
X72195238Y-29464285D01*
X72147619Y-29440476D01*
X72123809Y-29416666D01*
X72100000Y-29369047D01*
X72100000Y-29321428D01*
X72123809Y-29273809D01*
X72147619Y-29250000D01*
X72195238Y-29226190D01*
X72314285Y-29226190D01*
X72385714Y-29250000D01*
X72695238Y-29226190D02*
X72790476Y-29226190D01*
X72838095Y-29250000D01*
X72885714Y-29297619D01*
X72909523Y-29392857D01*
X72909523Y-29559523D01*
X72885714Y-29654761D01*
X72838095Y-29702380D01*
X72790476Y-29726190D01*
X72695238Y-29726190D01*
X72647619Y-29702380D01*
X72600000Y-29654761D01*
X72576190Y-29559523D01*
X72576190Y-29392857D01*
X72600000Y-29297619D01*
X72647619Y-29250000D01*
X72695238Y-29226190D01*
X11671428Y-18822670D02*
X11623809Y-18870289D01*
X11480952Y-18917908D01*
X11385714Y-18917908D01*
X11242857Y-18870289D01*
X11147619Y-18775051D01*
X11100000Y-18679813D01*
X11052380Y-18489337D01*
X11052380Y-18346480D01*
X11100000Y-18156004D01*
X11147619Y-18060766D01*
X11242857Y-17965528D01*
X11385714Y-17917908D01*
X11480952Y-17917908D01*
X11623809Y-17965528D01*
X11671428Y-18013147D01*
X12052380Y-18632194D02*
X12528571Y-18632194D01*
X11957142Y-18917908D02*
X12290476Y-17917908D01*
X12623809Y-18917908D01*
X12957142Y-18917908D02*
X12957142Y-17917908D01*
X13290476Y-18632194D01*
X13623809Y-17917908D01*
X13623809Y-18917908D01*
X14052380Y-18632194D02*
X14528571Y-18632194D01*
X13957142Y-18917908D02*
X14290476Y-17917908D01*
X14623809Y-18917908D01*
X15528571Y-18917908D02*
X15195238Y-18441718D01*
X14957142Y-18917908D02*
X14957142Y-17917908D01*
X15338095Y-17917908D01*
X15433333Y-17965528D01*
X15480952Y-18013147D01*
X15528571Y-18108385D01*
X15528571Y-18251242D01*
X15480952Y-18346480D01*
X15433333Y-18394099D01*
X15338095Y-18441718D01*
X14957142Y-18441718D01*
X15909523Y-18632194D02*
X16385714Y-18632194D01*
X15814285Y-18917908D02*
X16147619Y-17917908D01*
X16480952Y-18917908D01*
X16576190Y-19013147D02*
X17338095Y-19013147D01*
X17528571Y-18870289D02*
X17671428Y-18917908D01*
X17909523Y-18917908D01*
X18004761Y-18870289D01*
X18052380Y-18822670D01*
X18100000Y-18727432D01*
X18100000Y-18632194D01*
X18052380Y-18536956D01*
X18004761Y-18489337D01*
X17909523Y-18441718D01*
X17719047Y-18394099D01*
X17623809Y-18346480D01*
X17576190Y-18298861D01*
X17528571Y-18203623D01*
X17528571Y-18108385D01*
X17576190Y-18013147D01*
X17623809Y-17965528D01*
X17719047Y-17917908D01*
X17957142Y-17917908D01*
X18100000Y-17965528D01*
X18528571Y-18394099D02*
X18861904Y-18394099D01*
X19004761Y-18917908D02*
X18528571Y-18917908D01*
X18528571Y-17917908D01*
X19004761Y-17917908D01*
X20004761Y-18917908D02*
X19671428Y-18441718D01*
X19433333Y-18917908D02*
X19433333Y-17917908D01*
X19814285Y-17917908D01*
X19909523Y-17965528D01*
X19957142Y-18013147D01*
X20004761Y-18108385D01*
X20004761Y-18251242D01*
X19957142Y-18346480D01*
X19909523Y-18394099D01*
X19814285Y-18441718D01*
X19433333Y-18441718D01*
X20433333Y-18917908D02*
X20433333Y-17917908D01*
X20861904Y-18632194D02*
X21338095Y-18632194D01*
X20766666Y-18917908D02*
X21100000Y-17917908D01*
X21433333Y-18917908D01*
X22242857Y-18917908D02*
X21766666Y-18917908D01*
X21766666Y-17917908D01*
X50064285Y-19250000D02*
X50016666Y-19226190D01*
X49945238Y-19226190D01*
X49873809Y-19250000D01*
X49826190Y-19297619D01*
X49802380Y-19345238D01*
X49778571Y-19440476D01*
X49778571Y-19511904D01*
X49802380Y-19607142D01*
X49826190Y-19654761D01*
X49873809Y-19702380D01*
X49945238Y-19726190D01*
X49992857Y-19726190D01*
X50064285Y-19702380D01*
X50088095Y-19678571D01*
X50088095Y-19511904D01*
X49992857Y-19511904D01*
X50302380Y-19726190D02*
X50302380Y-19226190D01*
X50492857Y-19226190D01*
X50540476Y-19250000D01*
X50564285Y-19273809D01*
X50588095Y-19321428D01*
X50588095Y-19392857D01*
X50564285Y-19440476D01*
X50540476Y-19464285D01*
X50492857Y-19488095D01*
X50302380Y-19488095D01*
X50778571Y-19702380D02*
X50850000Y-19726190D01*
X50969047Y-19726190D01*
X51016666Y-19702380D01*
X51040476Y-19678571D01*
X51064285Y-19630952D01*
X51064285Y-19583333D01*
X51040476Y-19535714D01*
X51016666Y-19511904D01*
X50969047Y-19488095D01*
X50873809Y-19464285D01*
X50826190Y-19440476D01*
X50802380Y-19416666D01*
X50778571Y-19369047D01*
X50778571Y-19321428D01*
X50802380Y-19273809D01*
X50826190Y-19250000D01*
X50873809Y-19226190D01*
X50992857Y-19226190D01*
X51064285Y-19250000D01*
X51159523Y-19773809D02*
X51540476Y-19773809D01*
X51945238Y-19726190D02*
X51778571Y-19488095D01*
X51659523Y-19726190D02*
X51659523Y-19226190D01*
X51850000Y-19226190D01*
X51897619Y-19250000D01*
X51921428Y-19273809D01*
X51945238Y-19321428D01*
X51945238Y-19392857D01*
X51921428Y-19440476D01*
X51897619Y-19464285D01*
X51850000Y-19488095D01*
X51659523Y-19488095D01*
X52111904Y-19226190D02*
X52445238Y-19726190D01*
X52445238Y-19226190D02*
X52111904Y-19726190D01*
X71457142Y-27202380D02*
X71528571Y-27226190D01*
X71647619Y-27226190D01*
X71695238Y-27202380D01*
X71719047Y-27178571D01*
X71742857Y-27130952D01*
X71742857Y-27083333D01*
X71719047Y-27035714D01*
X71695238Y-27011904D01*
X71647619Y-26988095D01*
X71552380Y-26964285D01*
X71504761Y-26940476D01*
X71480952Y-26916666D01*
X71457142Y-26869047D01*
X71457142Y-26821428D01*
X71480952Y-26773809D01*
X71504761Y-26750000D01*
X71552380Y-26726190D01*
X71671428Y-26726190D01*
X71742857Y-26750000D01*
X72242857Y-27178571D02*
X72219047Y-27202380D01*
X72147619Y-27226190D01*
X72100000Y-27226190D01*
X72028571Y-27202380D01*
X71980952Y-27154761D01*
X71957142Y-27107142D01*
X71933333Y-27011904D01*
X71933333Y-26940476D01*
X71957142Y-26845238D01*
X71980952Y-26797619D01*
X72028571Y-26750000D01*
X72100000Y-26726190D01*
X72147619Y-26726190D01*
X72219047Y-26750000D01*
X72242857Y-26773809D01*
X72457142Y-27226190D02*
X72457142Y-26726190D01*
X72742857Y-27226190D02*
X72528571Y-26940476D01*
X72742857Y-26726190D02*
X72457142Y-27011904D01*
D12*
%TO.C,D1*%
X38861904Y-11952380D02*
X38861904Y-10952380D01*
X39100000Y-10952380D01*
X39242857Y-11000000D01*
X39338095Y-11095238D01*
X39385714Y-11190476D01*
X39433333Y-11380952D01*
X39433333Y-11523809D01*
X39385714Y-11714285D01*
X39338095Y-11809523D01*
X39242857Y-11904761D01*
X39100000Y-11952380D01*
X38861904Y-11952380D01*
X40385714Y-11952380D02*
X39814285Y-11952380D01*
X40100000Y-11952380D02*
X40100000Y-10952380D01*
X40004761Y-11095238D01*
X39909523Y-11190476D01*
X39814285Y-11238095D01*
%TO.C,JP1*%
X81366654Y-17372321D02*
X81366654Y-18086607D01*
X81319035Y-18229464D01*
X81223797Y-18324702D01*
X81080940Y-18372321D01*
X80985702Y-18372321D01*
X81842845Y-18372321D02*
X81842845Y-17372321D01*
X82223797Y-17372321D01*
X82319035Y-17419941D01*
X82366654Y-17467560D01*
X82414273Y-17562798D01*
X82414273Y-17705655D01*
X82366654Y-17800893D01*
X82319035Y-17848512D01*
X82223797Y-17896131D01*
X81842845Y-17896131D01*
X83366654Y-18372321D02*
X82795226Y-18372321D01*
X83080940Y-18372321D02*
X83080940Y-17372321D01*
X82985702Y-17515179D01*
X82890464Y-17610417D01*
X82795226Y-17658036D01*
%TO.C,U2*%
X15838095Y-32952380D02*
X15838095Y-33761904D01*
X15885714Y-33857142D01*
X15933333Y-33904761D01*
X16028571Y-33952380D01*
X16219047Y-33952380D01*
X16314285Y-33904761D01*
X16361904Y-33857142D01*
X16409523Y-33761904D01*
X16409523Y-32952380D01*
X16838095Y-33047619D02*
X16885714Y-33000000D01*
X16980952Y-32952380D01*
X17219047Y-32952380D01*
X17314285Y-33000000D01*
X17361904Y-33047619D01*
X17409523Y-33142857D01*
X17409523Y-33238095D01*
X17361904Y-33380952D01*
X16790476Y-33952380D01*
X17409523Y-33952380D01*
X16087577Y-1327692D02*
X16420910Y-1327692D01*
X16563767Y-1851501D02*
X16087577Y-1851501D01*
X16087577Y-851501D01*
X16563767Y-851501D01*
X16944720Y-1803882D02*
X17087577Y-1851501D01*
X17325672Y-1851501D01*
X17420910Y-1803882D01*
X17468529Y-1756263D01*
X17516148Y-1661025D01*
X17516148Y-1565787D01*
X17468529Y-1470549D01*
X17420910Y-1422930D01*
X17325672Y-1375311D01*
X17135196Y-1327692D01*
X17039958Y-1280073D01*
X16992339Y-1232454D01*
X16944720Y-1137216D01*
X16944720Y-1041978D01*
X16992339Y-946740D01*
X17039958Y-899121D01*
X17135196Y-851501D01*
X17373291Y-851501D01*
X17516148Y-899121D01*
X17944720Y-1851501D02*
X17944720Y-851501D01*
X18325672Y-851501D01*
X18420910Y-899121D01*
X18468529Y-946740D01*
X18516148Y-1041978D01*
X18516148Y-1184835D01*
X18468529Y-1280073D01*
X18420910Y-1327692D01*
X18325672Y-1375311D01*
X17944720Y-1375311D01*
X18849482Y-851501D02*
X19468529Y-851501D01*
X19135196Y-1232454D01*
X19278053Y-1232454D01*
X19373291Y-1280073D01*
X19420910Y-1327692D01*
X19468529Y-1422930D01*
X19468529Y-1661025D01*
X19420910Y-1756263D01*
X19373291Y-1803882D01*
X19278053Y-1851501D01*
X18992339Y-1851501D01*
X18897101Y-1803882D01*
X18849482Y-1756263D01*
X19849482Y-946740D02*
X19897101Y-899121D01*
X19992339Y-851501D01*
X20230434Y-851501D01*
X20325672Y-899121D01*
X20373291Y-946740D01*
X20420910Y-1041978D01*
X20420910Y-1137216D01*
X20373291Y-1280073D01*
X19801862Y-1851501D01*
X20420910Y-1851501D01*
X20849482Y-1470549D02*
X21611386Y-1470549D01*
X22659005Y-1756263D02*
X22611386Y-1803882D01*
X22468529Y-1851501D01*
X22373291Y-1851501D01*
X22230434Y-1803882D01*
X22135196Y-1708644D01*
X22087577Y-1613406D01*
X22039958Y-1422930D01*
X22039958Y-1280073D01*
X22087577Y-1089597D01*
X22135196Y-994359D01*
X22230434Y-899121D01*
X22373291Y-851501D01*
X22468529Y-851501D01*
X22611386Y-899121D01*
X22659005Y-946740D01*
X23039958Y-1565787D02*
X23516148Y-1565787D01*
X22944720Y-1851501D02*
X23278053Y-851501D01*
X23611386Y-1851501D01*
X23944720Y-1851501D02*
X23944720Y-851501D01*
X24278053Y-1565787D01*
X24611386Y-851501D01*
X24611386Y-1851501D01*
%TO.C,R1*%
X20728333Y-4582380D02*
X20395000Y-4106190D01*
X20156904Y-4582380D02*
X20156904Y-3582380D01*
X20537857Y-3582380D01*
X20633095Y-3630000D01*
X20680714Y-3677619D01*
X20728333Y-3772857D01*
X20728333Y-3915714D01*
X20680714Y-4010952D01*
X20633095Y-4058571D01*
X20537857Y-4106190D01*
X20156904Y-4106190D01*
X21680714Y-4582380D02*
X21109285Y-4582380D01*
X21395000Y-4582380D02*
X21395000Y-3582380D01*
X21299761Y-3725238D01*
X21204523Y-3820476D01*
X21109285Y-3868095D01*
%TO.C,J4*%
X45266666Y-33892380D02*
X45266666Y-34606666D01*
X45219047Y-34749523D01*
X45123809Y-34844761D01*
X44980952Y-34892380D01*
X44885714Y-34892380D01*
X46171428Y-34225714D02*
X46171428Y-34892380D01*
X45933333Y-33844761D02*
X45695238Y-34559047D01*
X46314285Y-34559047D01*
%TO.C,C1*%
X80433333Y-24857142D02*
X80385714Y-24904761D01*
X80242857Y-24952380D01*
X80147619Y-24952380D01*
X80004761Y-24904761D01*
X79909523Y-24809523D01*
X79861904Y-24714285D01*
X79814285Y-24523809D01*
X79814285Y-24380952D01*
X79861904Y-24190476D01*
X79909523Y-24095238D01*
X80004761Y-24000000D01*
X80147619Y-23952380D01*
X80242857Y-23952380D01*
X80385714Y-24000000D01*
X80433333Y-24047619D01*
X81385714Y-24952380D02*
X80814285Y-24952380D01*
X81100000Y-24952380D02*
X81100000Y-23952380D01*
X81004761Y-24095238D01*
X80909523Y-24190476D01*
X80814285Y-24238095D01*
%TO.C,SW1*%
X87266666Y-23404761D02*
X87409523Y-23452380D01*
X87647619Y-23452380D01*
X87742857Y-23404761D01*
X87790476Y-23357142D01*
X87838095Y-23261904D01*
X87838095Y-23166666D01*
X87790476Y-23071428D01*
X87742857Y-23023809D01*
X87647619Y-22976190D01*
X87457142Y-22928571D01*
X87361904Y-22880952D01*
X87314285Y-22833333D01*
X87266666Y-22738095D01*
X87266666Y-22642857D01*
X87314285Y-22547619D01*
X87361904Y-22500000D01*
X87457142Y-22452380D01*
X87695238Y-22452380D01*
X87838095Y-22500000D01*
X88171428Y-22452380D02*
X88409523Y-23452380D01*
X88600000Y-22738095D01*
X88790476Y-23452380D01*
X89028571Y-22452380D01*
X89933333Y-23452380D02*
X89361904Y-23452380D01*
X89647619Y-23452380D02*
X89647619Y-22452380D01*
X89552380Y-22595238D01*
X89457142Y-22690476D01*
X89361904Y-22738095D01*
%TO.C,BAT1*%
X98880104Y-11279253D02*
X99022961Y-11326872D01*
X99070580Y-11374491D01*
X99118199Y-11469729D01*
X99118199Y-11612586D01*
X99070580Y-11707824D01*
X99022961Y-11755443D01*
X98927723Y-11803062D01*
X98546770Y-11803062D01*
X98546770Y-10803062D01*
X98880104Y-10803062D01*
X98975342Y-10850682D01*
X99022961Y-10898301D01*
X99070580Y-10993539D01*
X99070580Y-11088777D01*
X99022961Y-11184015D01*
X98975342Y-11231634D01*
X98880104Y-11279253D01*
X98546770Y-11279253D01*
X99499151Y-11517348D02*
X99975342Y-11517348D01*
X99403913Y-11803062D02*
X99737247Y-10803062D01*
X100070580Y-11803062D01*
X100261056Y-10803062D02*
X100832485Y-10803062D01*
X100546770Y-11803062D02*
X100546770Y-10803062D01*
X101689628Y-11803062D02*
X101118199Y-11803062D01*
X101403913Y-11803062D02*
X101403913Y-10803062D01*
X101308675Y-10945920D01*
X101213437Y-11041158D01*
X101118199Y-11088777D01*
%TO.C,J2*%
X69266666Y-36224856D02*
X69266666Y-36939142D01*
X69219047Y-37081999D01*
X69123809Y-37177237D01*
X68980952Y-37224856D01*
X68885714Y-37224856D01*
X69695238Y-36320095D02*
X69742857Y-36272476D01*
X69838095Y-36224856D01*
X70076190Y-36224856D01*
X70171428Y-36272476D01*
X70219047Y-36320095D01*
X70266666Y-36415333D01*
X70266666Y-36510571D01*
X70219047Y-36653428D01*
X69647619Y-37224856D01*
X70266666Y-37224856D01*
%TO.C,ACELEROMETRO*%
X35566688Y-34820150D02*
X35566688Y-34343959D01*
X35852402Y-34915388D02*
X34852402Y-34582054D01*
X35852402Y-34248721D01*
X35757164Y-33343959D02*
X35804783Y-33391578D01*
X35852402Y-33534435D01*
X35852402Y-33629673D01*
X35804783Y-33772530D01*
X35709545Y-33867769D01*
X35614307Y-33915388D01*
X35423831Y-33963007D01*
X35280974Y-33963007D01*
X35090498Y-33915388D01*
X34995260Y-33867769D01*
X34900022Y-33772530D01*
X34852402Y-33629673D01*
X34852402Y-33534435D01*
X34900022Y-33391578D01*
X34947641Y-33343959D01*
X35328593Y-32915388D02*
X35328593Y-32582054D01*
X35852402Y-32439197D02*
X35852402Y-32915388D01*
X34852402Y-32915388D01*
X34852402Y-32439197D01*
X35852402Y-31534435D02*
X35852402Y-32010626D01*
X34852402Y-32010626D01*
X35328593Y-31201102D02*
X35328593Y-30867769D01*
X35852402Y-30724911D02*
X35852402Y-31201102D01*
X34852402Y-31201102D01*
X34852402Y-30724911D01*
X35852402Y-29724911D02*
X35376212Y-30058245D01*
X35852402Y-30296340D02*
X34852402Y-30296340D01*
X34852402Y-29915388D01*
X34900022Y-29820150D01*
X34947641Y-29772530D01*
X35042879Y-29724911D01*
X35185736Y-29724911D01*
X35280974Y-29772530D01*
X35328593Y-29820150D01*
X35376212Y-29915388D01*
X35376212Y-30296340D01*
X34852402Y-29105864D02*
X34852402Y-28915388D01*
X34900022Y-28820150D01*
X34995260Y-28724911D01*
X35185736Y-28677292D01*
X35519069Y-28677292D01*
X35709545Y-28724911D01*
X35804783Y-28820150D01*
X35852402Y-28915388D01*
X35852402Y-29105864D01*
X35804783Y-29201102D01*
X35709545Y-29296340D01*
X35519069Y-29343959D01*
X35185736Y-29343959D01*
X34995260Y-29296340D01*
X34900022Y-29201102D01*
X34852402Y-29105864D01*
X35852402Y-28248721D02*
X34852402Y-28248721D01*
X35566688Y-27915388D01*
X34852402Y-27582054D01*
X35852402Y-27582054D01*
X35328593Y-27105864D02*
X35328593Y-26772530D01*
X35852402Y-26629673D02*
X35852402Y-27105864D01*
X34852402Y-27105864D01*
X34852402Y-26629673D01*
X34852402Y-26343959D02*
X34852402Y-25772530D01*
X35852402Y-26058245D02*
X34852402Y-26058245D01*
X35852402Y-24867769D02*
X35376212Y-25201102D01*
X35852402Y-25439197D02*
X34852402Y-25439197D01*
X34852402Y-25058245D01*
X34900022Y-24963007D01*
X34947641Y-24915388D01*
X35042879Y-24867769D01*
X35185736Y-24867769D01*
X35280974Y-24915388D01*
X35328593Y-24963007D01*
X35376212Y-25058245D01*
X35376212Y-25439197D01*
X34852402Y-24248721D02*
X34852402Y-24058245D01*
X34900022Y-23963007D01*
X34995260Y-23867769D01*
X35185736Y-23820150D01*
X35519069Y-23820150D01*
X35709545Y-23867769D01*
X35804783Y-23963007D01*
X35852402Y-24058245D01*
X35852402Y-24248721D01*
X35804783Y-24343959D01*
X35709545Y-24439197D01*
X35519069Y-24486816D01*
X35185736Y-24486816D01*
X34995260Y-24439197D01*
X34900022Y-24343959D01*
X34852402Y-24248721D01*
%TO.C,GPS*%
X42885714Y-25870000D02*
X42790476Y-25822380D01*
X42647619Y-25822380D01*
X42504761Y-25870000D01*
X42409523Y-25965238D01*
X42361904Y-26060476D01*
X42314285Y-26250952D01*
X42314285Y-26393809D01*
X42361904Y-26584285D01*
X42409523Y-26679523D01*
X42504761Y-26774761D01*
X42647619Y-26822380D01*
X42742857Y-26822380D01*
X42885714Y-26774761D01*
X42933333Y-26727142D01*
X42933333Y-26393809D01*
X42742857Y-26393809D01*
X43361904Y-26822380D02*
X43361904Y-25822380D01*
X43742857Y-25822380D01*
X43838095Y-25870000D01*
X43885714Y-25917619D01*
X43933333Y-26012857D01*
X43933333Y-26155714D01*
X43885714Y-26250952D01*
X43838095Y-26298571D01*
X43742857Y-26346190D01*
X43361904Y-26346190D01*
X44314285Y-26774761D02*
X44457142Y-26822380D01*
X44695238Y-26822380D01*
X44790476Y-26774761D01*
X44838095Y-26727142D01*
X44885714Y-26631904D01*
X44885714Y-26536666D01*
X44838095Y-26441428D01*
X44790476Y-26393809D01*
X44695238Y-26346190D01*
X44504761Y-26298571D01*
X44409523Y-26250952D01*
X44361904Y-26203333D01*
X44314285Y-26108095D01*
X44314285Y-26012857D01*
X44361904Y-25917619D01*
X44409523Y-25870000D01*
X44504761Y-25822380D01*
X44742857Y-25822380D01*
X44885714Y-25870000D01*
%TO.C,Arduino pro Mini*%
X50528571Y-1786263D02*
X51004761Y-1786263D01*
X50433333Y-2071977D02*
X50766666Y-1071977D01*
X51100000Y-2071977D01*
X51433333Y-2071977D02*
X51433333Y-1405311D01*
X51433333Y-1595787D02*
X51480952Y-1500549D01*
X51528571Y-1452930D01*
X51623809Y-1405311D01*
X51719047Y-1405311D01*
X52480952Y-2071977D02*
X52480952Y-1071977D01*
X52480952Y-2024358D02*
X52385714Y-2071977D01*
X52195238Y-2071977D01*
X52100000Y-2024358D01*
X52052380Y-1976739D01*
X52004761Y-1881501D01*
X52004761Y-1595787D01*
X52052380Y-1500549D01*
X52100000Y-1452930D01*
X52195238Y-1405311D01*
X52385714Y-1405311D01*
X52480952Y-1452930D01*
X53385714Y-1405311D02*
X53385714Y-2071977D01*
X52957142Y-1405311D02*
X52957142Y-1929120D01*
X53004761Y-2024358D01*
X53100000Y-2071977D01*
X53242857Y-2071977D01*
X53338095Y-2024358D01*
X53385714Y-1976739D01*
X53861904Y-2071977D02*
X53861904Y-1405311D01*
X53861904Y-1071977D02*
X53814285Y-1119597D01*
X53861904Y-1167216D01*
X53909523Y-1119597D01*
X53861904Y-1071977D01*
X53861904Y-1167216D01*
X54338095Y-1405311D02*
X54338095Y-2071977D01*
X54338095Y-1500549D02*
X54385714Y-1452930D01*
X54480952Y-1405311D01*
X54623809Y-1405311D01*
X54719047Y-1452930D01*
X54766666Y-1548168D01*
X54766666Y-2071977D01*
X55385714Y-2071977D02*
X55290476Y-2024358D01*
X55242857Y-1976739D01*
X55195238Y-1881501D01*
X55195238Y-1595787D01*
X55242857Y-1500549D01*
X55290476Y-1452930D01*
X55385714Y-1405311D01*
X55528571Y-1405311D01*
X55623809Y-1452930D01*
X55671428Y-1500549D01*
X55719047Y-1595787D01*
X55719047Y-1881501D01*
X55671428Y-1976739D01*
X55623809Y-2024358D01*
X55528571Y-2071977D01*
X55385714Y-2071977D01*
X56909523Y-1405311D02*
X56909523Y-2405311D01*
X56909523Y-1452930D02*
X57004761Y-1405311D01*
X57195238Y-1405311D01*
X57290476Y-1452930D01*
X57338095Y-1500549D01*
X57385714Y-1595787D01*
X57385714Y-1881501D01*
X57338095Y-1976739D01*
X57290476Y-2024358D01*
X57195238Y-2071977D01*
X57004761Y-2071977D01*
X56909523Y-2024358D01*
X57814285Y-2071977D02*
X57814285Y-1405311D01*
X57814285Y-1595787D02*
X57861904Y-1500549D01*
X57909523Y-1452930D01*
X58004761Y-1405311D01*
X58100000Y-1405311D01*
X58576190Y-2071977D02*
X58480952Y-2024358D01*
X58433333Y-1976739D01*
X58385714Y-1881501D01*
X58385714Y-1595787D01*
X58433333Y-1500549D01*
X58480952Y-1452930D01*
X58576190Y-1405311D01*
X58719047Y-1405311D01*
X58814285Y-1452930D01*
X58861904Y-1500549D01*
X58909523Y-1595787D01*
X58909523Y-1881501D01*
X58861904Y-1976739D01*
X58814285Y-2024358D01*
X58719047Y-2071977D01*
X58576190Y-2071977D01*
X60100000Y-2071977D02*
X60100000Y-1071977D01*
X60433333Y-1786263D01*
X60766666Y-1071977D01*
X60766666Y-2071977D01*
X61242857Y-2071977D02*
X61242857Y-1405311D01*
X61242857Y-1071977D02*
X61195238Y-1119597D01*
X61242857Y-1167216D01*
X61290476Y-1119597D01*
X61242857Y-1071977D01*
X61242857Y-1167216D01*
X61719047Y-1405311D02*
X61719047Y-2071977D01*
X61719047Y-1500549D02*
X61766666Y-1452930D01*
X61861904Y-1405311D01*
X62004761Y-1405311D01*
X62100000Y-1452930D01*
X62147619Y-1548168D01*
X62147619Y-2071977D01*
X62623809Y-2071977D02*
X62623809Y-1405311D01*
X62623809Y-1071977D02*
X62576190Y-1119597D01*
X62623809Y-1167216D01*
X62671428Y-1119597D01*
X62623809Y-1071977D01*
X62623809Y-1167216D01*
%TO.C,Carg1*%
X82292705Y-1329743D02*
X82245086Y-1377362D01*
X82102229Y-1424981D01*
X82006991Y-1424981D01*
X81864134Y-1377362D01*
X81768896Y-1282124D01*
X81721277Y-1186886D01*
X81673658Y-996410D01*
X81673658Y-853553D01*
X81721277Y-663077D01*
X81768896Y-567839D01*
X81864134Y-472601D01*
X82006991Y-424981D01*
X82102229Y-424981D01*
X82245086Y-472601D01*
X82292705Y-520220D01*
X83149848Y-1424981D02*
X83149848Y-901172D01*
X83102229Y-805934D01*
X83006991Y-758315D01*
X82816515Y-758315D01*
X82721277Y-805934D01*
X83149848Y-1377362D02*
X83054610Y-1424981D01*
X82816515Y-1424981D01*
X82721277Y-1377362D01*
X82673658Y-1282124D01*
X82673658Y-1186886D01*
X82721277Y-1091648D01*
X82816515Y-1044029D01*
X83054610Y-1044029D01*
X83149848Y-996410D01*
X83626038Y-1424981D02*
X83626038Y-758315D01*
X83626038Y-948791D02*
X83673658Y-853553D01*
X83721277Y-805934D01*
X83816515Y-758315D01*
X83911753Y-758315D01*
X84673658Y-758315D02*
X84673658Y-1567839D01*
X84626038Y-1663077D01*
X84578419Y-1710696D01*
X84483181Y-1758315D01*
X84340324Y-1758315D01*
X84245086Y-1710696D01*
X84673658Y-1377362D02*
X84578419Y-1424981D01*
X84387943Y-1424981D01*
X84292705Y-1377362D01*
X84245086Y-1329743D01*
X84197467Y-1234505D01*
X84197467Y-948791D01*
X84245086Y-853553D01*
X84292705Y-805934D01*
X84387943Y-758315D01*
X84578419Y-758315D01*
X84673658Y-805934D01*
X85673658Y-1424981D02*
X85102229Y-1424981D01*
X85387943Y-1424981D02*
X85387943Y-424981D01*
X85292705Y-567839D01*
X85197467Y-663077D01*
X85102229Y-710696D01*
D10*
%TO.C,D1*%
X39145000Y-5210000D02*
X36055000Y-5210000D01*
X37599538Y-10760000D02*
G75*
G03*
X39144830Y-5210000I462J2990000D01*
G01*
X36055170Y-5210000D02*
G75*
G03*
X37600462Y-10760000I1544830J-2560000D01*
G01*
X40100000Y-7770000D02*
G75*
G03*
X40100000Y-7770000I-2500000J0D01*
G01*
%TO.C,JP1*%
X77830000Y-20330000D02*
X75230000Y-20330000D01*
X79100000Y-17670000D02*
X80430000Y-17670000D01*
X77830000Y-17670000D02*
X77830000Y-20330000D01*
X80430000Y-17670000D02*
X80430000Y-19000000D01*
X77830000Y-17670000D02*
X75230000Y-17670000D01*
X75230000Y-17670000D02*
X75230000Y-20330000D01*
D13*
%TO.C,U2*%
X33290175Y-37950979D02*
X6970175Y-37950979D01*
X6970175Y-37950979D02*
X6970175Y2049021D01*
X33290175Y2049021D02*
X33290175Y-37950979D01*
X6970175Y2049021D02*
X33290175Y2049021D01*
D10*
%TO.C,R1*%
X19455000Y-7500000D02*
X23205000Y-7500000D01*
X19455000Y-7500000D02*
G75*
G03*
X19455000Y-7500000I-2370000J0D01*
G01*
%TO.C,J4*%
X44430000Y-29905000D02*
X41770000Y-29905000D01*
X44430000Y-35105000D02*
X43100000Y-35105000D01*
X44430000Y-33775000D02*
X44430000Y-35105000D01*
X44430000Y-32505000D02*
X44430000Y-29905000D01*
X41770000Y-32505000D02*
X41770000Y-29905000D01*
X44430000Y-32505000D02*
X41770000Y-32505000D01*
%TO.C,C1*%
X80328000Y-29038349D02*
X75872000Y-29038349D01*
X77060000Y-27558349D02*
X74516000Y-27558349D01*
X80064000Y-29198349D02*
X76136000Y-29198349D01*
X81569000Y-27758349D02*
X79140000Y-27758349D01*
X82177000Y-25757349D02*
X74023000Y-25757349D01*
X78868000Y-29638349D02*
X77332000Y-29638349D01*
X77060000Y-26398349D02*
X74098000Y-26398349D01*
X77060000Y-27278349D02*
X74378000Y-27278349D01*
X81804000Y-27318349D02*
X79140000Y-27318349D01*
X81224000Y-28238349D02*
X79140000Y-28238349D01*
X81409000Y-27998349D02*
X79140000Y-27998349D01*
X77060000Y-27958349D02*
X74762000Y-27958349D01*
X82137000Y-26197349D02*
X74063000Y-26197349D01*
X81492000Y-27878349D02*
X79140000Y-27878349D01*
X81617000Y-27678349D02*
X79140000Y-27678349D01*
X82180000Y-25637349D02*
X74020000Y-25637349D01*
X81007000Y-28478349D02*
X75193000Y-28478349D01*
X81684000Y-27558349D02*
X79140000Y-27558349D01*
X78633000Y-29678349D02*
X77567000Y-29678349D01*
X80134000Y-29158349D02*
X76066000Y-29158349D01*
X82176000Y-25797349D02*
X74024000Y-25797349D01*
X81822000Y-27278349D02*
X79140000Y-27278349D01*
X77060000Y-26598349D02*
X74143000Y-26598349D01*
X80605000Y-28838349D02*
X75595000Y-28838349D01*
X81256000Y-28198349D02*
X79140000Y-28198349D01*
X82002000Y-26798349D02*
X79140000Y-26798349D01*
X77060000Y-27598349D02*
X74538000Y-27598349D01*
X80415000Y-21187651D02*
X80415000Y-21987651D01*
X81905000Y-27078349D02*
X79140000Y-27078349D01*
X79048000Y-29598349D02*
X77152000Y-29598349D01*
X80751000Y-28718349D02*
X75449000Y-28718349D01*
X80797000Y-28678349D02*
X75403000Y-28678349D01*
X81766000Y-27398349D02*
X79140000Y-27398349D01*
X77060000Y-26318349D02*
X74083000Y-26318349D01*
X79745000Y-29358349D02*
X76455000Y-29358349D01*
X82102000Y-26398349D02*
X79140000Y-26398349D01*
X82148000Y-26117349D02*
X74052000Y-26117349D01*
X77060000Y-27118349D02*
X74310000Y-27118349D01*
X82161000Y-25997349D02*
X74039000Y-25997349D01*
X79198000Y-29558349D02*
X77002000Y-29558349D01*
X77060000Y-27398349D02*
X74434000Y-27398349D01*
X81921000Y-27038349D02*
X79140000Y-27038349D01*
X77060000Y-28198349D02*
X74944000Y-28198349D01*
X81045000Y-28438349D02*
X75155000Y-28438349D01*
X82076000Y-26518349D02*
X79140000Y-26518349D01*
X82168000Y-25917349D02*
X74032000Y-25917349D01*
X82036000Y-26678349D02*
X79140000Y-26678349D01*
X82157000Y-26037349D02*
X74043000Y-26037349D01*
X77060000Y-26478349D02*
X74115000Y-26478349D01*
X77060000Y-27798349D02*
X74656000Y-27798349D01*
X82067000Y-26558349D02*
X79140000Y-26558349D01*
X77060000Y-28038349D02*
X74820000Y-28038349D01*
X79831000Y-29318349D02*
X76369000Y-29318349D01*
X77060000Y-28118349D02*
X74880000Y-28118349D01*
X80445000Y-28958349D02*
X75755000Y-28958349D01*
X77060000Y-28158349D02*
X74911000Y-28158349D01*
X77060000Y-26718349D02*
X74175000Y-26718349D01*
X81518000Y-27838349D02*
X79140000Y-27838349D01*
X80815000Y-21587651D02*
X80015000Y-21587651D01*
X82117000Y-26318349D02*
X79140000Y-26318349D01*
X77060000Y-26758349D02*
X74186000Y-26758349D01*
X81640000Y-27638349D02*
X79140000Y-27638349D01*
X81350000Y-28078349D02*
X79140000Y-28078349D01*
X82180000Y-25677349D02*
X74020000Y-25677349D01*
X77060000Y-27878349D02*
X74708000Y-27878349D01*
X82174000Y-25837349D02*
X74026000Y-25837349D01*
X81706000Y-27518349D02*
X79140000Y-27518349D01*
X81155000Y-28318349D02*
X79140000Y-28318349D01*
X80926000Y-28558349D02*
X75274000Y-28558349D01*
X77060000Y-26798349D02*
X74198000Y-26798349D01*
X81465000Y-27918349D02*
X79140000Y-27918349D01*
X77060000Y-26438349D02*
X74106000Y-26438349D01*
X82130000Y-26237349D02*
X74070000Y-26237349D01*
X77060000Y-26358349D02*
X74090000Y-26358349D01*
X80656000Y-28798349D02*
X75544000Y-28798349D01*
X81786000Y-27358349D02*
X79140000Y-27358349D01*
X80202000Y-29118349D02*
X75998000Y-29118349D01*
X82142000Y-26157349D02*
X74058000Y-26157349D01*
X77060000Y-27238349D02*
X74360000Y-27238349D01*
X77060000Y-26838349D02*
X74211000Y-26838349D01*
X81989000Y-26838349D02*
X79140000Y-26838349D01*
X77060000Y-28278349D02*
X75010000Y-28278349D01*
X77060000Y-27758349D02*
X74631000Y-27758349D01*
X77060000Y-26958349D02*
X74250000Y-26958349D01*
X81119000Y-28358349D02*
X79140000Y-28358349D01*
X77060000Y-26558349D02*
X74133000Y-26558349D01*
X77060000Y-27998349D02*
X74791000Y-27998349D01*
X77060000Y-28238349D02*
X74976000Y-28238349D01*
X77060000Y-28078349D02*
X74850000Y-28078349D01*
X81935000Y-26998349D02*
X79140000Y-26998349D01*
X77060000Y-27518349D02*
X74494000Y-27518349D01*
X81977000Y-26878349D02*
X79140000Y-26878349D01*
X81747000Y-27438349D02*
X79140000Y-27438349D01*
X77060000Y-27918349D02*
X74735000Y-27918349D01*
X82152000Y-26077349D02*
X74048000Y-26077349D01*
X81593000Y-27718349D02*
X79140000Y-27718349D01*
X79329000Y-29518349D02*
X76871000Y-29518349D01*
X79652000Y-29398349D02*
X76548000Y-29398349D01*
X77060000Y-27358349D02*
X74414000Y-27358349D01*
X82085000Y-26478349D02*
X79140000Y-26478349D01*
X77060000Y-27158349D02*
X74326000Y-27158349D01*
X81190000Y-28278349D02*
X79140000Y-28278349D01*
X81662000Y-27598349D02*
X79140000Y-27598349D01*
X79913000Y-29278349D02*
X76287000Y-29278349D01*
X81890000Y-27118349D02*
X79140000Y-27118349D01*
X82094000Y-26438349D02*
X79140000Y-26438349D01*
X79553000Y-29438349D02*
X76647000Y-29438349D01*
X80266000Y-29078349D02*
X75934000Y-29078349D01*
X77060000Y-27718349D02*
X74607000Y-27718349D01*
X77060000Y-27318349D02*
X74396000Y-27318349D01*
X81727000Y-27478349D02*
X79140000Y-27478349D01*
X77060000Y-28318349D02*
X75045000Y-28318349D01*
X82124000Y-26277349D02*
X74076000Y-26277349D01*
X77060000Y-28358349D02*
X75081000Y-28358349D01*
X80554000Y-28878349D02*
X75646000Y-28878349D01*
X82165000Y-25957349D02*
X74035000Y-25957349D01*
X80841000Y-28638349D02*
X75359000Y-28638349D01*
X81950000Y-26958349D02*
X79140000Y-26958349D01*
X82179000Y-25717349D02*
X74021000Y-25717349D01*
X82014000Y-26758349D02*
X79140000Y-26758349D01*
X81320000Y-28118349D02*
X79140000Y-28118349D01*
X82047000Y-26638349D02*
X79140000Y-26638349D01*
X77060000Y-26918349D02*
X74237000Y-26918349D01*
X80704000Y-28758349D02*
X75496000Y-28758349D01*
X80884000Y-28598349D02*
X75316000Y-28598349D01*
X82057000Y-26598349D02*
X79140000Y-26598349D01*
X80967000Y-28518349D02*
X75233000Y-28518349D01*
X77060000Y-27478349D02*
X74473000Y-27478349D01*
X81874000Y-27158349D02*
X79140000Y-27158349D01*
X82025000Y-26718349D02*
X79140000Y-26718349D01*
X77060000Y-26678349D02*
X74164000Y-26678349D01*
X79990000Y-29238349D02*
X76210000Y-29238349D01*
X81380000Y-28038349D02*
X79140000Y-28038349D01*
X81438000Y-27958349D02*
X79140000Y-27958349D01*
X77060000Y-27838349D02*
X74682000Y-27838349D01*
X77060000Y-26518349D02*
X74124000Y-26518349D01*
X82180000Y-25597349D02*
X74020000Y-25597349D01*
X81840000Y-27238349D02*
X79140000Y-27238349D01*
X81544000Y-27798349D02*
X79140000Y-27798349D01*
X77060000Y-27438349D02*
X74453000Y-27438349D01*
X77060000Y-26638349D02*
X74153000Y-26638349D01*
X80500000Y-28918349D02*
X75700000Y-28918349D01*
X77060000Y-27078349D02*
X74295000Y-27078349D01*
X77060000Y-26998349D02*
X74265000Y-26998349D01*
X82110000Y-26358349D02*
X79140000Y-26358349D01*
X81083000Y-28398349D02*
X75117000Y-28398349D01*
X77060000Y-27198349D02*
X74343000Y-27198349D01*
X80387000Y-28998349D02*
X75813000Y-28998349D01*
X77060000Y-26878349D02*
X74223000Y-26878349D01*
X82171000Y-25877349D02*
X74029000Y-25877349D01*
X81963000Y-26918349D02*
X79140000Y-26918349D01*
X77060000Y-27678349D02*
X74583000Y-27678349D01*
X79446000Y-29478349D02*
X76754000Y-29478349D01*
X81857000Y-27198349D02*
X79140000Y-27198349D01*
X77060000Y-27638349D02*
X74560000Y-27638349D01*
X77060000Y-27038349D02*
X74279000Y-27038349D01*
X81289000Y-28158349D02*
X79140000Y-28158349D01*
X82220000Y-25597349D02*
G75*
G03*
X82220000Y-25597349I-4120000J0D01*
G01*
%TO.C,SW1*%
X90489878Y-22046348D02*
X83849878Y-22046348D01*
X90489878Y-28686348D02*
X90489878Y-22046348D01*
X83849878Y-22046348D02*
X83849878Y-28686348D01*
X83849878Y-28686348D02*
X90489878Y-28686348D01*
X87169878Y-22046348D02*
X87169878Y-21786348D01*
%TO.C,BAT1*%
X99430000Y-12900000D02*
X99430000Y-16010000D01*
X96770000Y-13470000D02*
X95250000Y-13470000D01*
X96770000Y-12900000D02*
X96770000Y-13470000D01*
X99430000Y-17530000D02*
X99430000Y-18100000D01*
X96770000Y-14990000D02*
X96770000Y-18100000D01*
X96770000Y-12900000D02*
X99430000Y-12900000D01*
X96770000Y-18100000D02*
X99430000Y-18100000D01*
%TO.C,J2*%
X70930000Y-35772476D02*
X69600000Y-35772476D01*
X70930000Y-33172476D02*
X68270000Y-33172476D01*
X68270000Y-33172476D02*
X68270000Y-17872476D01*
X70930000Y-33172476D02*
X70930000Y-17872476D01*
X70930000Y-17872476D02*
X68270000Y-17872476D01*
X70930000Y-34442476D02*
X70930000Y-35772476D01*
%TO.C,ACELEROMETRO*%
X39010833Y-17504890D02*
X39010833Y-35344890D01*
X36350833Y-14904890D02*
X37680833Y-14904890D01*
X36350833Y-17504890D02*
X39010833Y-17504890D01*
X36350833Y-17504890D02*
X36350833Y-35344890D01*
X36350833Y-35344890D02*
X39010833Y-35344890D01*
X36350833Y-16234890D02*
X36350833Y-14904890D01*
%TO.C,GPS*%
X44930000Y-15090000D02*
X42270000Y-15090000D01*
X44930000Y-22770000D02*
X44930000Y-15090000D01*
X44930000Y-25370000D02*
X43600000Y-25370000D01*
X42270000Y-22770000D02*
X42270000Y-15090000D01*
X44930000Y-24040000D02*
X44930000Y-25370000D01*
X44930000Y-22770000D02*
X42270000Y-22770000D01*
D13*
%TO.C,Arduino pro Mini*%
X47364119Y-2744597D02*
X47364119Y-35764597D01*
X65144119Y-2744597D02*
X47364119Y-2744597D01*
X65144119Y-35764597D02*
X65144119Y-2744597D01*
X47364119Y-35764597D02*
X65144119Y-35764597D01*
D10*
%TO.C,Carg1*%
X76306624Y-4276166D02*
X76306624Y-12331166D01*
X74386624Y-4276166D02*
X74386624Y-12331166D01*
X84706624Y-4276166D02*
X84706624Y-12331166D01*
X80506624Y-4276166D02*
X80506624Y-12331166D01*
X82786624Y-4276166D02*
X82786624Y-12331166D01*
X78586624Y-4276166D02*
X78586624Y-12331166D01*
%TD*%
M02*
