%TF.GenerationSoftware,KiCad,Pcbnew,6.0.4-6f826c9f35~116~ubuntu20.04.1*%
%TF.CreationDate,2022-04-02T12:26:26+02:00*%
%TF.ProjectId,placaCANSAT_V3_GIRADA,706c6163-6143-4414-9e53-41545f56335f,rev?*%
%TF.SameCoordinates,Original*%
%TF.FileFunction,Legend,Top*%
%TF.FilePolarity,Positive*%
%FSLAX46Y46*%
G04 Gerber Fmt 4.6, Leading zero omitted, Abs format (unit mm)*
G04 Created by KiCad (PCBNEW 6.0.4-6f826c9f35~116~ubuntu20.04.1) date 2022-04-02 12:26:26*
%MOMM*%
%LPD*%
G01*
G04 APERTURE LIST*
%ADD10C,0.120000*%
%ADD11C,0.125000*%
%ADD12C,0.150000*%
%ADD13C,0.127000*%
G04 APERTURE END LIST*
D10*
G36*
X35497312Y-44568536D02*
G01*
X33997312Y-46068536D01*
X25497312Y-46068536D01*
X27497312Y-43568536D01*
X27497312Y-41568536D01*
X35497312Y-41568536D01*
X35497312Y-44568536D01*
G37*
X35497312Y-44568536D02*
X33997312Y-46068536D01*
X25497312Y-46068536D01*
X27497312Y-43568536D01*
X27497312Y-41568536D01*
X35497312Y-41568536D01*
X35497312Y-44568536D01*
G36*
X35497312Y-73068536D02*
G01*
X23497312Y-73068536D01*
X23497312Y-69568536D01*
X26497312Y-67068536D01*
X35497312Y-67068536D01*
X35497312Y-73068536D01*
G37*
X35497312Y-73068536D02*
X23497312Y-73068536D01*
X23497312Y-69568536D01*
X26497312Y-67068536D01*
X35497312Y-67068536D01*
X35497312Y-73068536D01*
D11*
X14771121Y-71449488D02*
X15271121Y-71449488D01*
X14771121Y-71735202D01*
X15271121Y-71735202D01*
X14794931Y-71949488D02*
X14771121Y-72020916D01*
X14771121Y-72139964D01*
X14794931Y-72187583D01*
X14818740Y-72211393D01*
X14866359Y-72235202D01*
X14913978Y-72235202D01*
X14961597Y-72211393D01*
X14985407Y-72187583D01*
X15009216Y-72139964D01*
X15033026Y-72044726D01*
X15056835Y-71997107D01*
X15080645Y-71973297D01*
X15128264Y-71949488D01*
X15175883Y-71949488D01*
X15223502Y-71973297D01*
X15247312Y-71997107D01*
X15271121Y-72044726D01*
X15271121Y-72163774D01*
X15247312Y-72235202D01*
X14794931Y-72425678D02*
X14771121Y-72497107D01*
X14771121Y-72616155D01*
X14794931Y-72663774D01*
X14818740Y-72687583D01*
X14866359Y-72711393D01*
X14913978Y-72711393D01*
X14961597Y-72687583D01*
X14985407Y-72663774D01*
X15009216Y-72616155D01*
X15033026Y-72520916D01*
X15056835Y-72473297D01*
X15080645Y-72449488D01*
X15128264Y-72425678D01*
X15175883Y-72425678D01*
X15223502Y-72449488D01*
X15247312Y-72473297D01*
X15271121Y-72520916D01*
X15271121Y-72639964D01*
X15247312Y-72711393D01*
X7271121Y-71282821D02*
X7771121Y-71282821D01*
X7413978Y-71449488D01*
X7771121Y-71616155D01*
X7271121Y-71616155D01*
X7771121Y-71949488D02*
X7771121Y-72044726D01*
X7747312Y-72092345D01*
X7699692Y-72139964D01*
X7604454Y-72163774D01*
X7437788Y-72163774D01*
X7342550Y-72139964D01*
X7294931Y-72092345D01*
X7271121Y-72044726D01*
X7271121Y-71949488D01*
X7294931Y-71901869D01*
X7342550Y-71854250D01*
X7437788Y-71830440D01*
X7604454Y-71830440D01*
X7699692Y-71854250D01*
X7747312Y-71901869D01*
X7771121Y-71949488D01*
X7294931Y-72354250D02*
X7271121Y-72425678D01*
X7271121Y-72544726D01*
X7294931Y-72592345D01*
X7318740Y-72616155D01*
X7366359Y-72639964D01*
X7413978Y-72639964D01*
X7461597Y-72616155D01*
X7485407Y-72592345D01*
X7509216Y-72544726D01*
X7533026Y-72449488D01*
X7556835Y-72401869D01*
X7580645Y-72378059D01*
X7628264Y-72354250D01*
X7675883Y-72354250D01*
X7723502Y-72378059D01*
X7747312Y-72401869D01*
X7771121Y-72449488D01*
X7771121Y-72568536D01*
X7747312Y-72639964D01*
X7271121Y-72854250D02*
X7771121Y-72854250D01*
X17747312Y-50092345D02*
X17771121Y-50044726D01*
X17771121Y-49973297D01*
X17747312Y-49901869D01*
X17699692Y-49854250D01*
X17652073Y-49830440D01*
X17556835Y-49806631D01*
X17485407Y-49806631D01*
X17390169Y-49830440D01*
X17342550Y-49854250D01*
X17294931Y-49901869D01*
X17271121Y-49973297D01*
X17271121Y-50020916D01*
X17294931Y-50092345D01*
X17318740Y-50116155D01*
X17485407Y-50116155D01*
X17485407Y-50020916D01*
X17271121Y-50330440D02*
X17771121Y-50330440D01*
X17771121Y-50520916D01*
X17747312Y-50568536D01*
X17723502Y-50592345D01*
X17675883Y-50616155D01*
X17604454Y-50616155D01*
X17556835Y-50592345D01*
X17533026Y-50568536D01*
X17509216Y-50520916D01*
X17509216Y-50330440D01*
X17294931Y-50806631D02*
X17271121Y-50878059D01*
X17271121Y-50997107D01*
X17294931Y-51044726D01*
X17318740Y-51068536D01*
X17366359Y-51092345D01*
X17413978Y-51092345D01*
X17461597Y-51068536D01*
X17485407Y-51044726D01*
X17509216Y-50997107D01*
X17533026Y-50901869D01*
X17556835Y-50854250D01*
X17580645Y-50830440D01*
X17628264Y-50806631D01*
X17675883Y-50806631D01*
X17723502Y-50830440D01*
X17747312Y-50854250D01*
X17771121Y-50901869D01*
X17771121Y-51020916D01*
X17747312Y-51092345D01*
X17223502Y-51187583D02*
X17223502Y-51568536D01*
X17771121Y-51616155D02*
X17771121Y-51901869D01*
X17271121Y-51759012D02*
X17771121Y-51759012D01*
X17771121Y-52020916D02*
X17271121Y-52354250D01*
X17771121Y-52354250D02*
X17271121Y-52020916D01*
X3294931Y-41937583D02*
X3271121Y-42009012D01*
X3271121Y-42128059D01*
X3294931Y-42175678D01*
X3318740Y-42199488D01*
X3366359Y-42223297D01*
X3413978Y-42223297D01*
X3461597Y-42199488D01*
X3485407Y-42175678D01*
X3509216Y-42128059D01*
X3533026Y-42032821D01*
X3556835Y-41985202D01*
X3580645Y-41961393D01*
X3628264Y-41937583D01*
X3675883Y-41937583D01*
X3723502Y-41961393D01*
X3747312Y-41985202D01*
X3771121Y-42032821D01*
X3771121Y-42151869D01*
X3747312Y-42223297D01*
X3271121Y-42437583D02*
X3771121Y-42437583D01*
X3771121Y-42556631D01*
X3747312Y-42628059D01*
X3699692Y-42675678D01*
X3652073Y-42699488D01*
X3556835Y-42723297D01*
X3485407Y-42723297D01*
X3390169Y-42699488D01*
X3342550Y-42675678D01*
X3294931Y-42628059D01*
X3271121Y-42556631D01*
X3271121Y-42437583D01*
X3413978Y-42913774D02*
X3413978Y-43151869D01*
X3271121Y-42866155D02*
X3771121Y-43032821D01*
X3271121Y-43199488D01*
X3223502Y-43247107D02*
X3223502Y-43628059D01*
X3413978Y-43723297D02*
X3413978Y-43961393D01*
X3271121Y-43675678D02*
X3771121Y-43842345D01*
X3271121Y-44009012D01*
X3318740Y-44461393D02*
X3294931Y-44437583D01*
X3271121Y-44366155D01*
X3271121Y-44318536D01*
X3294931Y-44247107D01*
X3342550Y-44199488D01*
X3390169Y-44175678D01*
X3485407Y-44151869D01*
X3556835Y-44151869D01*
X3652073Y-44175678D01*
X3699692Y-44199488D01*
X3747312Y-44247107D01*
X3771121Y-44318536D01*
X3771121Y-44366155D01*
X3747312Y-44437583D01*
X3723502Y-44461393D01*
X3533026Y-44675678D02*
X3533026Y-44842345D01*
X3271121Y-44913774D02*
X3271121Y-44675678D01*
X3771121Y-44675678D01*
X3771121Y-44913774D01*
X3223502Y-45009012D02*
X3223502Y-45389964D01*
X3413978Y-45485202D02*
X3413978Y-45723297D01*
X3271121Y-45437583D02*
X3771121Y-45604250D01*
X3271121Y-45770916D01*
X3604454Y-46151869D02*
X3271121Y-46151869D01*
X3794931Y-46032821D02*
X3437788Y-45913774D01*
X3437788Y-46223297D01*
D12*
X12140169Y-50520916D02*
X12092550Y-50473297D01*
X12044931Y-50330440D01*
X12044931Y-50235202D01*
X12092550Y-50092345D01*
X12187788Y-49997107D01*
X12283026Y-49949488D01*
X12473502Y-49901869D01*
X12616359Y-49901869D01*
X12806835Y-49949488D01*
X12902073Y-49997107D01*
X12997312Y-50092345D01*
X13044931Y-50235202D01*
X13044931Y-50330440D01*
X12997312Y-50473297D01*
X12949692Y-50520916D01*
X12330645Y-50901869D02*
X12330645Y-51378059D01*
X12044931Y-50806631D02*
X13044931Y-51139964D01*
X12044931Y-51473297D01*
X12044931Y-51806631D02*
X13044931Y-51806631D01*
X12330645Y-52139964D01*
X13044931Y-52473297D01*
X12044931Y-52473297D01*
X12330645Y-52901869D02*
X12330645Y-53378059D01*
X12044931Y-52806631D02*
X13044931Y-53139964D01*
X12044931Y-53473297D01*
X12044931Y-54378059D02*
X12521121Y-54044726D01*
X12044931Y-53806631D02*
X13044931Y-53806631D01*
X13044931Y-54187583D01*
X12997312Y-54282821D01*
X12949692Y-54330440D01*
X12854454Y-54378059D01*
X12711597Y-54378059D01*
X12616359Y-54330440D01*
X12568740Y-54282821D01*
X12521121Y-54187583D01*
X12521121Y-53806631D01*
X12330645Y-54759012D02*
X12330645Y-55235202D01*
X12044931Y-54663774D02*
X13044931Y-54997107D01*
X12044931Y-55330440D01*
D11*
X17673621Y-57318536D02*
X18173621Y-57318536D01*
X18173621Y-57437583D01*
X18149812Y-57509012D01*
X18102192Y-57556631D01*
X18054573Y-57580440D01*
X17959335Y-57604250D01*
X17887907Y-57604250D01*
X17792669Y-57580440D01*
X17745050Y-57556631D01*
X17697431Y-57509012D01*
X17673621Y-57437583D01*
X17673621Y-57318536D01*
X17673621Y-57818536D02*
X18173621Y-57818536D01*
X18173621Y-58151869D02*
X18173621Y-58247107D01*
X18149812Y-58294726D01*
X18102192Y-58342345D01*
X18006954Y-58366155D01*
X17840288Y-58366155D01*
X17745050Y-58342345D01*
X17697431Y-58294726D01*
X17673621Y-58247107D01*
X17673621Y-58151869D01*
X17697431Y-58104250D01*
X17745050Y-58056631D01*
X17840288Y-58032821D01*
X18006954Y-58032821D01*
X18102192Y-58056631D01*
X18149812Y-58104250D01*
X18173621Y-58151869D01*
X18173621Y-58675678D02*
X18173621Y-58723297D01*
X18149812Y-58770916D01*
X18126002Y-58794726D01*
X18078383Y-58818536D01*
X17983145Y-58842345D01*
X17864097Y-58842345D01*
X17768859Y-58818536D01*
X17721240Y-58794726D01*
X17697431Y-58770916D01*
X17673621Y-58723297D01*
X17673621Y-58675678D01*
X17697431Y-58628059D01*
X17721240Y-58604250D01*
X17768859Y-58580440D01*
X17864097Y-58556631D01*
X17983145Y-58556631D01*
X18078383Y-58580440D01*
X18126002Y-58604250D01*
X18149812Y-58628059D01*
X18173621Y-58675678D01*
X17368621Y-55985202D02*
X17368621Y-56270916D01*
X16868621Y-56128059D02*
X17368621Y-56128059D01*
X17130526Y-56437583D02*
X17130526Y-56604250D01*
X16868621Y-56675678D02*
X16868621Y-56437583D01*
X17368621Y-56437583D01*
X17368621Y-56675678D01*
X16868621Y-57128059D02*
X16868621Y-56889964D01*
X17368621Y-56889964D01*
X17130526Y-57294726D02*
X17130526Y-57461393D01*
X16868621Y-57532821D02*
X16868621Y-57294726D01*
X17368621Y-57294726D01*
X17368621Y-57532821D01*
X16868621Y-57747107D02*
X17368621Y-57747107D01*
X17011478Y-57913774D01*
X17368621Y-58080440D01*
X16868621Y-58080440D01*
X17130526Y-58318536D02*
X17130526Y-58485202D01*
X16868621Y-58556631D02*
X16868621Y-58318536D01*
X17368621Y-58318536D01*
X17368621Y-58556631D01*
X17368621Y-58699488D02*
X17368621Y-58985202D01*
X16868621Y-58842345D02*
X17368621Y-58842345D01*
X16868621Y-59437583D02*
X17106716Y-59270916D01*
X16868621Y-59151869D02*
X17368621Y-59151869D01*
X17368621Y-59342345D01*
X17344812Y-59389964D01*
X17321002Y-59413774D01*
X17273383Y-59437583D01*
X17201954Y-59437583D01*
X17154335Y-59413774D01*
X17130526Y-59389964D01*
X17106716Y-59342345D01*
X17106716Y-59151869D01*
X16868621Y-59651869D02*
X17368621Y-59651869D01*
X17011478Y-59866155D02*
X17011478Y-60104250D01*
X16868621Y-59818536D02*
X17368621Y-59985202D01*
X16868621Y-60151869D01*
D12*
X14544931Y-50925678D02*
X14544931Y-50449488D01*
X15544931Y-50449488D01*
X15068740Y-51259012D02*
X15068740Y-51592345D01*
X14544931Y-51735202D02*
X14544931Y-51259012D01*
X15544931Y-51259012D01*
X15544931Y-51735202D01*
X14544931Y-52163774D02*
X15544931Y-52163774D01*
X15544931Y-52401869D01*
X15497312Y-52544726D01*
X15402073Y-52639964D01*
X15306835Y-52687583D01*
X15116359Y-52735202D01*
X14973502Y-52735202D01*
X14783026Y-52687583D01*
X14687788Y-52639964D01*
X14592550Y-52544726D01*
X14544931Y-52401869D01*
X14544931Y-52163774D01*
D11*
X10294931Y-40949488D02*
X10271121Y-41020916D01*
X10271121Y-41139964D01*
X10294931Y-41187583D01*
X10318740Y-41211393D01*
X10366359Y-41235202D01*
X10413978Y-41235202D01*
X10461597Y-41211393D01*
X10485407Y-41187583D01*
X10509216Y-41139964D01*
X10533026Y-41044726D01*
X10556835Y-40997107D01*
X10580645Y-40973297D01*
X10628264Y-40949488D01*
X10675883Y-40949488D01*
X10723502Y-40973297D01*
X10747312Y-40997107D01*
X10771121Y-41044726D01*
X10771121Y-41163774D01*
X10747312Y-41235202D01*
X10318740Y-41735202D02*
X10294931Y-41711393D01*
X10271121Y-41639964D01*
X10271121Y-41592345D01*
X10294931Y-41520916D01*
X10342550Y-41473297D01*
X10390169Y-41449488D01*
X10485407Y-41425678D01*
X10556835Y-41425678D01*
X10652073Y-41449488D01*
X10699692Y-41473297D01*
X10747312Y-41520916D01*
X10771121Y-41592345D01*
X10771121Y-41639964D01*
X10747312Y-41711393D01*
X10723502Y-41735202D01*
X10271121Y-42187583D02*
X10271121Y-41949488D01*
X10771121Y-41949488D01*
X10223502Y-42235202D02*
X10223502Y-42616155D01*
X10413978Y-42711393D02*
X10413978Y-42949488D01*
X10271121Y-42663774D02*
X10771121Y-42830440D01*
X10271121Y-42997107D01*
X10318740Y-43449488D02*
X10294931Y-43425678D01*
X10271121Y-43354250D01*
X10271121Y-43306631D01*
X10294931Y-43235202D01*
X10342550Y-43187583D01*
X10390169Y-43163774D01*
X10485407Y-43139964D01*
X10556835Y-43139964D01*
X10652073Y-43163774D01*
X10699692Y-43187583D01*
X10747312Y-43235202D01*
X10771121Y-43306631D01*
X10771121Y-43354250D01*
X10747312Y-43425678D01*
X10723502Y-43449488D01*
X10533026Y-43663774D02*
X10533026Y-43830440D01*
X10271121Y-43901869D02*
X10271121Y-43663774D01*
X10771121Y-43663774D01*
X10771121Y-43901869D01*
X10223502Y-43997107D02*
X10223502Y-44378059D01*
X10413978Y-44473297D02*
X10413978Y-44711393D01*
X10271121Y-44425678D02*
X10771121Y-44592345D01*
X10271121Y-44759012D01*
X10771121Y-45163774D02*
X10771121Y-44925678D01*
X10533026Y-44901869D01*
X10556835Y-44925678D01*
X10580645Y-44973297D01*
X10580645Y-45092345D01*
X10556835Y-45139964D01*
X10533026Y-45163774D01*
X10485407Y-45187583D01*
X10366359Y-45187583D01*
X10318740Y-45163774D01*
X10294931Y-45139964D01*
X10271121Y-45092345D01*
X10271121Y-44973297D01*
X10294931Y-44925678D01*
X10318740Y-44901869D01*
X23673621Y-51318536D02*
X24173621Y-51318536D01*
X24173621Y-51437583D01*
X24149812Y-51509012D01*
X24102192Y-51556631D01*
X24054573Y-51580440D01*
X23959335Y-51604250D01*
X23887907Y-51604250D01*
X23792669Y-51580440D01*
X23745050Y-51556631D01*
X23697431Y-51509012D01*
X23673621Y-51437583D01*
X23673621Y-51318536D01*
X23673621Y-51818536D02*
X24173621Y-51818536D01*
X24173621Y-52151869D02*
X24173621Y-52247107D01*
X24149812Y-52294726D01*
X24102192Y-52342345D01*
X24006954Y-52366155D01*
X23840288Y-52366155D01*
X23745050Y-52342345D01*
X23697431Y-52294726D01*
X23673621Y-52247107D01*
X23673621Y-52151869D01*
X23697431Y-52104250D01*
X23745050Y-52056631D01*
X23840288Y-52032821D01*
X24006954Y-52032821D01*
X24102192Y-52056631D01*
X24149812Y-52104250D01*
X24173621Y-52151869D01*
X24173621Y-52675678D02*
X24173621Y-52723297D01*
X24149812Y-52770916D01*
X24126002Y-52794726D01*
X24078383Y-52818536D01*
X23983145Y-52842345D01*
X23864097Y-52842345D01*
X23768859Y-52818536D01*
X23721240Y-52794726D01*
X23697431Y-52770916D01*
X23673621Y-52723297D01*
X23673621Y-52675678D01*
X23697431Y-52628059D01*
X23721240Y-52604250D01*
X23768859Y-52580440D01*
X23864097Y-52556631D01*
X23983145Y-52556631D01*
X24078383Y-52580440D01*
X24126002Y-52604250D01*
X24149812Y-52628059D01*
X24173621Y-52675678D01*
X23368621Y-49985202D02*
X23368621Y-50270916D01*
X22868621Y-50128059D02*
X23368621Y-50128059D01*
X23130526Y-50437583D02*
X23130526Y-50604250D01*
X22868621Y-50675678D02*
X22868621Y-50437583D01*
X23368621Y-50437583D01*
X23368621Y-50675678D01*
X22868621Y-51128059D02*
X22868621Y-50889964D01*
X23368621Y-50889964D01*
X23130526Y-51294726D02*
X23130526Y-51461393D01*
X22868621Y-51532821D02*
X22868621Y-51294726D01*
X23368621Y-51294726D01*
X23368621Y-51532821D01*
X22868621Y-51747107D02*
X23368621Y-51747107D01*
X23011478Y-51913774D01*
X23368621Y-52080440D01*
X22868621Y-52080440D01*
X23130526Y-52318536D02*
X23130526Y-52485202D01*
X22868621Y-52556631D02*
X22868621Y-52318536D01*
X23368621Y-52318536D01*
X23368621Y-52556631D01*
X23368621Y-52699488D02*
X23368621Y-52985202D01*
X22868621Y-52842345D02*
X23368621Y-52842345D01*
X22868621Y-53437583D02*
X23106716Y-53270916D01*
X22868621Y-53151869D02*
X23368621Y-53151869D01*
X23368621Y-53342345D01*
X23344812Y-53389964D01*
X23321002Y-53413774D01*
X23273383Y-53437583D01*
X23201954Y-53437583D01*
X23154335Y-53413774D01*
X23130526Y-53389964D01*
X23106716Y-53342345D01*
X23106716Y-53151869D01*
X22868621Y-53651869D02*
X23368621Y-53651869D01*
X23011478Y-53866155D02*
X23011478Y-54104250D01*
X22868621Y-53818536D02*
X23368621Y-53985202D01*
X22868621Y-54151869D01*
X9771121Y-71282821D02*
X10271121Y-71282821D01*
X9913978Y-71449488D01*
X10271121Y-71616155D01*
X9771121Y-71616155D01*
X9771121Y-71854250D02*
X10271121Y-71854250D01*
X9794931Y-72068536D02*
X9771121Y-72139964D01*
X9771121Y-72259012D01*
X9794931Y-72306631D01*
X9818740Y-72330440D01*
X9866359Y-72354250D01*
X9913978Y-72354250D01*
X9961597Y-72330440D01*
X9985407Y-72306631D01*
X10009216Y-72259012D01*
X10033026Y-72163774D01*
X10056835Y-72116155D01*
X10080645Y-72092345D01*
X10128264Y-72068536D01*
X10175883Y-72068536D01*
X10223502Y-72092345D01*
X10247312Y-72116155D01*
X10271121Y-72163774D01*
X10271121Y-72282821D01*
X10247312Y-72354250D01*
X10271121Y-72663774D02*
X10271121Y-72759012D01*
X10247312Y-72806631D01*
X10199692Y-72854250D01*
X10104454Y-72878059D01*
X9937788Y-72878059D01*
X9842550Y-72854250D01*
X9794931Y-72806631D01*
X9771121Y-72759012D01*
X9771121Y-72663774D01*
X9794931Y-72616155D01*
X9842550Y-72568536D01*
X9937788Y-72544726D01*
X10104454Y-72544726D01*
X10199692Y-72568536D01*
X10247312Y-72616155D01*
X10271121Y-72663774D01*
X20674641Y-11639964D02*
X20627022Y-11592345D01*
X20579403Y-11449488D01*
X20579403Y-11354250D01*
X20627022Y-11211393D01*
X20722260Y-11116155D01*
X20817498Y-11068536D01*
X21007974Y-11020916D01*
X21150831Y-11020916D01*
X21341307Y-11068536D01*
X21436545Y-11116155D01*
X21531784Y-11211393D01*
X21579403Y-11354250D01*
X21579403Y-11449488D01*
X21531784Y-11592345D01*
X21484164Y-11639964D01*
X20865117Y-12020916D02*
X20865117Y-12497107D01*
X20579403Y-11925678D02*
X21579403Y-12259012D01*
X20579403Y-12592345D01*
X20579403Y-12925678D02*
X21579403Y-12925678D01*
X20865117Y-13259012D01*
X21579403Y-13592345D01*
X20579403Y-13592345D01*
X20865117Y-14020916D02*
X20865117Y-14497107D01*
X20579403Y-13925678D02*
X21579403Y-14259012D01*
X20579403Y-14592345D01*
X20579403Y-15497107D02*
X21055593Y-15163774D01*
X20579403Y-14925678D02*
X21579403Y-14925678D01*
X21579403Y-15306631D01*
X21531784Y-15401869D01*
X21484164Y-15449488D01*
X21388926Y-15497107D01*
X21246069Y-15497107D01*
X21150831Y-15449488D01*
X21103212Y-15401869D01*
X21055593Y-15306631D01*
X21055593Y-14925678D01*
X20865117Y-15878059D02*
X20865117Y-16354250D01*
X20579403Y-15782821D02*
X21579403Y-16116155D01*
X20579403Y-16449488D01*
X20484164Y-16544726D02*
X20484164Y-17306631D01*
X20627022Y-17497107D02*
X20579403Y-17639964D01*
X20579403Y-17878059D01*
X20627022Y-17973297D01*
X20674641Y-18020916D01*
X20769879Y-18068536D01*
X20865117Y-18068536D01*
X20960355Y-18020916D01*
X21007974Y-17973297D01*
X21055593Y-17878059D01*
X21103212Y-17687583D01*
X21150831Y-17592345D01*
X21198450Y-17544726D01*
X21293688Y-17497107D01*
X21388926Y-17497107D01*
X21484164Y-17544726D01*
X21531784Y-17592345D01*
X21579403Y-17687583D01*
X21579403Y-17925678D01*
X21531784Y-18068536D01*
X21103212Y-18497107D02*
X21103212Y-18830440D01*
X20579403Y-18973297D02*
X20579403Y-18497107D01*
X21579403Y-18497107D01*
X21579403Y-18973297D01*
X20579403Y-19973297D02*
X21055593Y-19639964D01*
X20579403Y-19401869D02*
X21579403Y-19401869D01*
X21579403Y-19782821D01*
X21531784Y-19878059D01*
X21484164Y-19925678D01*
X21388926Y-19973297D01*
X21246069Y-19973297D01*
X21150831Y-19925678D01*
X21103212Y-19878059D01*
X21055593Y-19782821D01*
X21055593Y-19401869D01*
X20579403Y-20401869D02*
X21579403Y-20401869D01*
X20865117Y-20830440D02*
X20865117Y-21306631D01*
X20579403Y-20735202D02*
X21579403Y-21068536D01*
X20579403Y-21401869D01*
X20579403Y-22211393D02*
X20579403Y-21735202D01*
X21579403Y-21735202D01*
X20247312Y-50032821D02*
X20271121Y-49985202D01*
X20271121Y-49913774D01*
X20247312Y-49842345D01*
X20199692Y-49794726D01*
X20152073Y-49770916D01*
X20056835Y-49747107D01*
X19985407Y-49747107D01*
X19890169Y-49770916D01*
X19842550Y-49794726D01*
X19794931Y-49842345D01*
X19771121Y-49913774D01*
X19771121Y-49961393D01*
X19794931Y-50032821D01*
X19818740Y-50056631D01*
X19985407Y-50056631D01*
X19985407Y-49961393D01*
X19771121Y-50270916D02*
X20271121Y-50270916D01*
X20271121Y-50461393D01*
X20247312Y-50509012D01*
X20223502Y-50532821D01*
X20175883Y-50556631D01*
X20104454Y-50556631D01*
X20056835Y-50532821D01*
X20033026Y-50509012D01*
X20009216Y-50461393D01*
X20009216Y-50270916D01*
X19794931Y-50747107D02*
X19771121Y-50818536D01*
X19771121Y-50937583D01*
X19794931Y-50985202D01*
X19818740Y-51009012D01*
X19866359Y-51032821D01*
X19913978Y-51032821D01*
X19961597Y-51009012D01*
X19985407Y-50985202D01*
X20009216Y-50937583D01*
X20033026Y-50842345D01*
X20056835Y-50794726D01*
X20080645Y-50770916D01*
X20128264Y-50747107D01*
X20175883Y-50747107D01*
X20223502Y-50770916D01*
X20247312Y-50794726D01*
X20271121Y-50842345D01*
X20271121Y-50961393D01*
X20247312Y-51032821D01*
X19723502Y-51128059D02*
X19723502Y-51509012D01*
X19771121Y-51913774D02*
X20009216Y-51747107D01*
X19771121Y-51628059D02*
X20271121Y-51628059D01*
X20271121Y-51818536D01*
X20247312Y-51866155D01*
X20223502Y-51889964D01*
X20175883Y-51913774D01*
X20104454Y-51913774D01*
X20056835Y-51889964D01*
X20033026Y-51866155D01*
X20009216Y-51818536D01*
X20009216Y-51628059D01*
X20271121Y-52080440D02*
X19771121Y-52413774D01*
X20271121Y-52413774D02*
X19771121Y-52080440D01*
X12294931Y-71425678D02*
X12271121Y-71497107D01*
X12271121Y-71616155D01*
X12294931Y-71663774D01*
X12318740Y-71687583D01*
X12366359Y-71711393D01*
X12413978Y-71711393D01*
X12461597Y-71687583D01*
X12485407Y-71663774D01*
X12509216Y-71616155D01*
X12533026Y-71520916D01*
X12556835Y-71473297D01*
X12580645Y-71449488D01*
X12628264Y-71425678D01*
X12675883Y-71425678D01*
X12723502Y-71449488D01*
X12747312Y-71473297D01*
X12771121Y-71520916D01*
X12771121Y-71639964D01*
X12747312Y-71711393D01*
X12318740Y-72211393D02*
X12294931Y-72187583D01*
X12271121Y-72116155D01*
X12271121Y-72068536D01*
X12294931Y-71997107D01*
X12342550Y-71949488D01*
X12390169Y-71925678D01*
X12485407Y-71901869D01*
X12556835Y-71901869D01*
X12652073Y-71925678D01*
X12699692Y-71949488D01*
X12747312Y-71997107D01*
X12771121Y-72068536D01*
X12771121Y-72116155D01*
X12747312Y-72187583D01*
X12723502Y-72211393D01*
X12271121Y-72425678D02*
X12771121Y-72425678D01*
X12271121Y-72711393D02*
X12556835Y-72497107D01*
X12771121Y-72711393D02*
X12485407Y-72425678D01*
D12*
%TO.C,D1*%
X28449692Y-40306631D02*
X27449692Y-40306631D01*
X27449692Y-40068536D01*
X27497312Y-39925678D01*
X27592550Y-39830440D01*
X27687788Y-39782821D01*
X27878264Y-39735202D01*
X28021121Y-39735202D01*
X28211597Y-39782821D01*
X28306835Y-39830440D01*
X28402073Y-39925678D01*
X28449692Y-40068536D01*
X28449692Y-40306631D01*
X28449692Y-38782821D02*
X28449692Y-39354250D01*
X28449692Y-39068536D02*
X27449692Y-39068536D01*
X27592550Y-39163774D01*
X27687788Y-39259012D01*
X27735407Y-39354250D01*
%TO.C,JP1*%
X21029751Y-83001857D02*
X21744037Y-83001857D01*
X21886894Y-83049476D01*
X21982132Y-83144714D01*
X22029751Y-83287571D01*
X22029751Y-83382809D01*
X22029751Y-82525666D02*
X21029751Y-82525666D01*
X21029751Y-82144714D01*
X21077371Y-82049476D01*
X21124990Y-82001857D01*
X21220228Y-81954238D01*
X21363085Y-81954238D01*
X21458323Y-82001857D01*
X21505942Y-82049476D01*
X21553561Y-82144714D01*
X21553561Y-82525666D01*
X22029751Y-81001857D02*
X22029751Y-81573285D01*
X22029751Y-81287571D02*
X21029751Y-81287571D01*
X21172609Y-81382809D01*
X21267847Y-81478047D01*
X21315466Y-81573285D01*
%TO.C,U2*%
X5449692Y-17330440D02*
X6259216Y-17330440D01*
X6354454Y-17282821D01*
X6402073Y-17235202D01*
X6449692Y-17139964D01*
X6449692Y-16949488D01*
X6402073Y-16854250D01*
X6354454Y-16806631D01*
X6259216Y-16759012D01*
X5449692Y-16759012D01*
X5544931Y-16330440D02*
X5497312Y-16282821D01*
X5449692Y-16187583D01*
X5449692Y-15949488D01*
X5497312Y-15854250D01*
X5544931Y-15806631D01*
X5640169Y-15759012D01*
X5735407Y-15759012D01*
X5878264Y-15806631D01*
X6449692Y-16378059D01*
X6449692Y-15759012D01*
X38026762Y-24579922D02*
X38026762Y-24246589D01*
X38550571Y-24103732D02*
X38550571Y-24579922D01*
X37550571Y-24579922D01*
X37550571Y-24103732D01*
X38502952Y-23722779D02*
X38550571Y-23579922D01*
X38550571Y-23341827D01*
X38502952Y-23246589D01*
X38455333Y-23198970D01*
X38360095Y-23151351D01*
X38264857Y-23151351D01*
X38169619Y-23198970D01*
X38122000Y-23246589D01*
X38074381Y-23341827D01*
X38026762Y-23532303D01*
X37979143Y-23627541D01*
X37931524Y-23675160D01*
X37836286Y-23722779D01*
X37741048Y-23722779D01*
X37645810Y-23675160D01*
X37598191Y-23627541D01*
X37550571Y-23532303D01*
X37550571Y-23294208D01*
X37598191Y-23151351D01*
X38550571Y-22722779D02*
X37550571Y-22722779D01*
X37550571Y-22341827D01*
X37598191Y-22246589D01*
X37645810Y-22198970D01*
X37741048Y-22151351D01*
X37883905Y-22151351D01*
X37979143Y-22198970D01*
X38026762Y-22246589D01*
X38074381Y-22341827D01*
X38074381Y-22722779D01*
X37550571Y-21818018D02*
X37550571Y-21198970D01*
X37931524Y-21532303D01*
X37931524Y-21389446D01*
X37979143Y-21294208D01*
X38026762Y-21246589D01*
X38122000Y-21198970D01*
X38360095Y-21198970D01*
X38455333Y-21246589D01*
X38502952Y-21294208D01*
X38550571Y-21389446D01*
X38550571Y-21675160D01*
X38502952Y-21770398D01*
X38455333Y-21818018D01*
X37645810Y-20818018D02*
X37598191Y-20770398D01*
X37550571Y-20675160D01*
X37550571Y-20437065D01*
X37598191Y-20341827D01*
X37645810Y-20294208D01*
X37741048Y-20246589D01*
X37836286Y-20246589D01*
X37979143Y-20294208D01*
X38550571Y-20865637D01*
X38550571Y-20246589D01*
X38169619Y-19818018D02*
X38169619Y-19056113D01*
X38455333Y-18008494D02*
X38502952Y-18056113D01*
X38550571Y-18198970D01*
X38550571Y-18294208D01*
X38502952Y-18437065D01*
X38407714Y-18532303D01*
X38312476Y-18579922D01*
X38122000Y-18627541D01*
X37979143Y-18627541D01*
X37788667Y-18579922D01*
X37693429Y-18532303D01*
X37598191Y-18437065D01*
X37550571Y-18294208D01*
X37550571Y-18198970D01*
X37598191Y-18056113D01*
X37645810Y-18008494D01*
X38264857Y-17627541D02*
X38264857Y-17151351D01*
X38550571Y-17722779D02*
X37550571Y-17389446D01*
X38550571Y-17056113D01*
X38550571Y-16722779D02*
X37550571Y-16722779D01*
X38264857Y-16389446D01*
X37550571Y-16056113D01*
X38550571Y-16056113D01*
%TO.C,R1*%
X35819692Y-21030202D02*
X35343502Y-21363536D01*
X35819692Y-21601631D02*
X34819692Y-21601631D01*
X34819692Y-21220678D01*
X34867312Y-21125440D01*
X34914931Y-21077821D01*
X35010169Y-21030202D01*
X35153026Y-21030202D01*
X35248264Y-21077821D01*
X35295883Y-21125440D01*
X35343502Y-21220678D01*
X35343502Y-21601631D01*
X35819692Y-20077821D02*
X35819692Y-20649250D01*
X35819692Y-20363536D02*
X34819692Y-20363536D01*
X34962550Y-20458774D01*
X35057788Y-20554012D01*
X35105407Y-20649250D01*
%TO.C,J4*%
X4509692Y-45901869D02*
X5223978Y-45901869D01*
X5366835Y-45949488D01*
X5462073Y-46044726D01*
X5509692Y-46187583D01*
X5509692Y-46282821D01*
X4843026Y-44997107D02*
X5509692Y-44997107D01*
X4462073Y-45235202D02*
X5176359Y-45473297D01*
X5176359Y-44854250D01*
%TO.C,C1*%
X15354454Y-80735202D02*
X15402073Y-80782821D01*
X15449692Y-80925678D01*
X15449692Y-81020916D01*
X15402073Y-81163774D01*
X15306835Y-81259012D01*
X15211597Y-81306631D01*
X15021121Y-81354250D01*
X14878264Y-81354250D01*
X14687788Y-81306631D01*
X14592550Y-81259012D01*
X14497312Y-81163774D01*
X14449692Y-81020916D01*
X14449692Y-80925678D01*
X14497312Y-80782821D01*
X14544931Y-80735202D01*
X15449692Y-79782821D02*
X15449692Y-80354250D01*
X15449692Y-80068536D02*
X14449692Y-80068536D01*
X14592550Y-80163774D01*
X14687788Y-80259012D01*
X14735407Y-80354250D01*
%TO.C,SW1*%
X16902073Y-89901869D02*
X16949692Y-89759012D01*
X16949692Y-89520916D01*
X16902073Y-89425678D01*
X16854454Y-89378059D01*
X16759216Y-89330440D01*
X16663978Y-89330440D01*
X16568740Y-89378059D01*
X16521121Y-89425678D01*
X16473502Y-89520916D01*
X16425883Y-89711393D01*
X16378264Y-89806631D01*
X16330645Y-89854250D01*
X16235407Y-89901869D01*
X16140169Y-89901869D01*
X16044931Y-89854250D01*
X15997312Y-89806631D01*
X15949692Y-89711393D01*
X15949692Y-89473297D01*
X15997312Y-89330440D01*
X15949692Y-88997107D02*
X16949692Y-88759012D01*
X16235407Y-88568536D01*
X16949692Y-88378059D01*
X15949692Y-88139964D01*
X16949692Y-87235202D02*
X16949692Y-87806631D01*
X16949692Y-87520916D02*
X15949692Y-87520916D01*
X16092550Y-87616155D01*
X16187788Y-87711393D01*
X16235407Y-87806631D01*
%TO.C,BAT1*%
X28075201Y-101277211D02*
X28122820Y-101134354D01*
X28170439Y-101086735D01*
X28265677Y-101039116D01*
X28408534Y-101039116D01*
X28503772Y-101086735D01*
X28551391Y-101134354D01*
X28599010Y-101229592D01*
X28599010Y-101610545D01*
X27599010Y-101610545D01*
X27599010Y-101277211D01*
X27646630Y-101181973D01*
X27694249Y-101134354D01*
X27789487Y-101086735D01*
X27884725Y-101086735D01*
X27979963Y-101134354D01*
X28027582Y-101181973D01*
X28075201Y-101277211D01*
X28075201Y-101610545D01*
X28313296Y-100658164D02*
X28313296Y-100181973D01*
X28599010Y-100753402D02*
X27599010Y-100420068D01*
X28599010Y-100086735D01*
X27599010Y-99896259D02*
X27599010Y-99324830D01*
X28599010Y-99610545D02*
X27599010Y-99610545D01*
X28599010Y-98467687D02*
X28599010Y-99039116D01*
X28599010Y-98753402D02*
X27599010Y-98753402D01*
X27741868Y-98848640D01*
X27837106Y-98943878D01*
X27884725Y-99039116D01*
%TO.C,J2*%
X2177216Y-69901869D02*
X2891502Y-69901869D01*
X3034359Y-69949488D01*
X3129597Y-70044726D01*
X3177216Y-70187583D01*
X3177216Y-70282821D01*
X2272455Y-69473297D02*
X2224836Y-69425678D01*
X2177216Y-69330440D01*
X2177216Y-69092345D01*
X2224836Y-68997107D01*
X2272455Y-68949488D01*
X2367693Y-68901869D01*
X2462931Y-68901869D01*
X2605788Y-68949488D01*
X3177216Y-69520916D01*
X3177216Y-68901869D01*
%TO.C,ACELEROMETRO*%
X4677162Y-35535224D02*
X5153352Y-35535224D01*
X4581923Y-35820938D02*
X4915257Y-34820938D01*
X5248590Y-35820938D01*
X6153352Y-35725700D02*
X6105733Y-35773319D01*
X5962876Y-35820938D01*
X5867638Y-35820938D01*
X5724781Y-35773319D01*
X5629542Y-35678081D01*
X5581923Y-35582843D01*
X5534304Y-35392367D01*
X5534304Y-35249510D01*
X5581923Y-35059034D01*
X5629542Y-34963796D01*
X5724781Y-34868558D01*
X5867638Y-34820938D01*
X5962876Y-34820938D01*
X6105733Y-34868558D01*
X6153352Y-34916177D01*
X6581923Y-35297129D02*
X6915257Y-35297129D01*
X7058114Y-35820938D02*
X6581923Y-35820938D01*
X6581923Y-34820938D01*
X7058114Y-34820938D01*
X7962876Y-35820938D02*
X7486685Y-35820938D01*
X7486685Y-34820938D01*
X8296209Y-35297129D02*
X8629542Y-35297129D01*
X8772400Y-35820938D02*
X8296209Y-35820938D01*
X8296209Y-34820938D01*
X8772400Y-34820938D01*
X9772400Y-35820938D02*
X9439066Y-35344748D01*
X9200971Y-35820938D02*
X9200971Y-34820938D01*
X9581923Y-34820938D01*
X9677162Y-34868558D01*
X9724781Y-34916177D01*
X9772400Y-35011415D01*
X9772400Y-35154272D01*
X9724781Y-35249510D01*
X9677162Y-35297129D01*
X9581923Y-35344748D01*
X9200971Y-35344748D01*
X10391447Y-34820938D02*
X10581923Y-34820938D01*
X10677162Y-34868558D01*
X10772400Y-34963796D01*
X10820019Y-35154272D01*
X10820019Y-35487605D01*
X10772400Y-35678081D01*
X10677162Y-35773319D01*
X10581923Y-35820938D01*
X10391447Y-35820938D01*
X10296209Y-35773319D01*
X10200971Y-35678081D01*
X10153352Y-35487605D01*
X10153352Y-35154272D01*
X10200971Y-34963796D01*
X10296209Y-34868558D01*
X10391447Y-34820938D01*
X11248590Y-35820938D02*
X11248590Y-34820938D01*
X11581923Y-35535224D01*
X11915257Y-34820938D01*
X11915257Y-35820938D01*
X12391447Y-35297129D02*
X12724781Y-35297129D01*
X12867638Y-35820938D02*
X12391447Y-35820938D01*
X12391447Y-34820938D01*
X12867638Y-34820938D01*
X13153352Y-34820938D02*
X13724781Y-34820938D01*
X13439066Y-35820938D02*
X13439066Y-34820938D01*
X14629542Y-35820938D02*
X14296209Y-35344748D01*
X14058114Y-35820938D02*
X14058114Y-34820938D01*
X14439066Y-34820938D01*
X14534304Y-34868558D01*
X14581923Y-34916177D01*
X14629542Y-35011415D01*
X14629542Y-35154272D01*
X14581923Y-35249510D01*
X14534304Y-35297129D01*
X14439066Y-35344748D01*
X14058114Y-35344748D01*
X15248590Y-34820938D02*
X15439066Y-34820938D01*
X15534304Y-34868558D01*
X15629542Y-34963796D01*
X15677162Y-35154272D01*
X15677162Y-35487605D01*
X15629542Y-35678081D01*
X15534304Y-35773319D01*
X15439066Y-35820938D01*
X15248590Y-35820938D01*
X15153352Y-35773319D01*
X15058114Y-35678081D01*
X15010495Y-35487605D01*
X15010495Y-35154272D01*
X15058114Y-34963796D01*
X15153352Y-34868558D01*
X15248590Y-34820938D01*
%TO.C,GPS*%
X12627312Y-44282821D02*
X12579692Y-44378059D01*
X12579692Y-44520916D01*
X12627312Y-44663774D01*
X12722550Y-44759012D01*
X12817788Y-44806631D01*
X13008264Y-44854250D01*
X13151121Y-44854250D01*
X13341597Y-44806631D01*
X13436835Y-44759012D01*
X13532073Y-44663774D01*
X13579692Y-44520916D01*
X13579692Y-44425678D01*
X13532073Y-44282821D01*
X13484454Y-44235202D01*
X13151121Y-44235202D01*
X13151121Y-44425678D01*
X13579692Y-43806631D02*
X12579692Y-43806631D01*
X12579692Y-43425678D01*
X12627312Y-43330440D01*
X12674931Y-43282821D01*
X12770169Y-43235202D01*
X12913026Y-43235202D01*
X13008264Y-43282821D01*
X13055883Y-43330440D01*
X13103502Y-43425678D01*
X13103502Y-43806631D01*
X13532073Y-42854250D02*
X13579692Y-42711393D01*
X13579692Y-42473297D01*
X13532073Y-42378059D01*
X13484454Y-42330440D01*
X13389216Y-42282821D01*
X13293978Y-42282821D01*
X13198740Y-42330440D01*
X13151121Y-42378059D01*
X13103502Y-42473297D01*
X13055883Y-42663774D01*
X13008264Y-42759012D01*
X12960645Y-42806631D01*
X12865407Y-42854250D01*
X12770169Y-42854250D01*
X12674931Y-42806631D01*
X12627312Y-42759012D01*
X12579692Y-42663774D01*
X12579692Y-42425678D01*
X12627312Y-42282821D01*
%TO.C,Arduino pro Mini*%
X38044381Y-62639964D02*
X38044381Y-62163774D01*
X38330095Y-62735202D02*
X37330095Y-62401869D01*
X38330095Y-62068536D01*
X38330095Y-61735202D02*
X37663429Y-61735202D01*
X37853905Y-61735202D02*
X37758667Y-61687583D01*
X37711048Y-61639964D01*
X37663429Y-61544726D01*
X37663429Y-61449488D01*
X38330095Y-60687583D02*
X37330095Y-60687583D01*
X38282476Y-60687583D02*
X38330095Y-60782821D01*
X38330095Y-60973297D01*
X38282476Y-61068536D01*
X38234857Y-61116155D01*
X38139619Y-61163774D01*
X37853905Y-61163774D01*
X37758667Y-61116155D01*
X37711048Y-61068536D01*
X37663429Y-60973297D01*
X37663429Y-60782821D01*
X37711048Y-60687583D01*
X37663429Y-59782821D02*
X38330095Y-59782821D01*
X37663429Y-60211393D02*
X38187238Y-60211393D01*
X38282476Y-60163774D01*
X38330095Y-60068536D01*
X38330095Y-59925678D01*
X38282476Y-59830440D01*
X38234857Y-59782821D01*
X38330095Y-59306631D02*
X37663429Y-59306631D01*
X37330095Y-59306631D02*
X37377715Y-59354250D01*
X37425334Y-59306631D01*
X37377715Y-59259012D01*
X37330095Y-59306631D01*
X37425334Y-59306631D01*
X37663429Y-58830440D02*
X38330095Y-58830440D01*
X37758667Y-58830440D02*
X37711048Y-58782821D01*
X37663429Y-58687583D01*
X37663429Y-58544726D01*
X37711048Y-58449488D01*
X37806286Y-58401869D01*
X38330095Y-58401869D01*
X38330095Y-57782821D02*
X38282476Y-57878059D01*
X38234857Y-57925678D01*
X38139619Y-57973297D01*
X37853905Y-57973297D01*
X37758667Y-57925678D01*
X37711048Y-57878059D01*
X37663429Y-57782821D01*
X37663429Y-57639964D01*
X37711048Y-57544726D01*
X37758667Y-57497107D01*
X37853905Y-57449488D01*
X38139619Y-57449488D01*
X38234857Y-57497107D01*
X38282476Y-57544726D01*
X38330095Y-57639964D01*
X38330095Y-57782821D01*
X37663429Y-56259012D02*
X38663429Y-56259012D01*
X37711048Y-56259012D02*
X37663429Y-56163774D01*
X37663429Y-55973297D01*
X37711048Y-55878059D01*
X37758667Y-55830440D01*
X37853905Y-55782821D01*
X38139619Y-55782821D01*
X38234857Y-55830440D01*
X38282476Y-55878059D01*
X38330095Y-55973297D01*
X38330095Y-56163774D01*
X38282476Y-56259012D01*
X38330095Y-55354250D02*
X37663429Y-55354250D01*
X37853905Y-55354250D02*
X37758667Y-55306631D01*
X37711048Y-55259012D01*
X37663429Y-55163774D01*
X37663429Y-55068536D01*
X38330095Y-54592345D02*
X38282476Y-54687583D01*
X38234857Y-54735202D01*
X38139619Y-54782821D01*
X37853905Y-54782821D01*
X37758667Y-54735202D01*
X37711048Y-54687583D01*
X37663429Y-54592345D01*
X37663429Y-54449488D01*
X37711048Y-54354250D01*
X37758667Y-54306631D01*
X37853905Y-54259012D01*
X38139619Y-54259012D01*
X38234857Y-54306631D01*
X38282476Y-54354250D01*
X38330095Y-54449488D01*
X38330095Y-54592345D01*
X38330095Y-53068536D02*
X37330095Y-53068536D01*
X38044381Y-52735202D01*
X37330095Y-52401869D01*
X38330095Y-52401869D01*
X38330095Y-51925678D02*
X37663429Y-51925678D01*
X37330095Y-51925678D02*
X37377715Y-51973297D01*
X37425334Y-51925678D01*
X37377715Y-51878059D01*
X37330095Y-51925678D01*
X37425334Y-51925678D01*
X37663429Y-51449488D02*
X38330095Y-51449488D01*
X37758667Y-51449488D02*
X37711048Y-51401869D01*
X37663429Y-51306631D01*
X37663429Y-51163774D01*
X37711048Y-51068536D01*
X37806286Y-51020916D01*
X38330095Y-51020916D01*
X38330095Y-50544726D02*
X37663429Y-50544726D01*
X37330095Y-50544726D02*
X37377715Y-50592345D01*
X37425334Y-50544726D01*
X37377715Y-50497107D01*
X37330095Y-50544726D01*
X37425334Y-50544726D01*
%TO.C,Carg1*%
X38881853Y-85023146D02*
X38929472Y-85070765D01*
X38977091Y-85213622D01*
X38977091Y-85308860D01*
X38929472Y-85451717D01*
X38834234Y-85546955D01*
X38738996Y-85594574D01*
X38548520Y-85642194D01*
X38405663Y-85642194D01*
X38215187Y-85594574D01*
X38119949Y-85546955D01*
X38024711Y-85451717D01*
X37977091Y-85308860D01*
X37977091Y-85213622D01*
X38024711Y-85070765D01*
X38072330Y-85023146D01*
X38977091Y-84166003D02*
X38453282Y-84166003D01*
X38358044Y-84213622D01*
X38310425Y-84308860D01*
X38310425Y-84499336D01*
X38358044Y-84594574D01*
X38929472Y-84166003D02*
X38977091Y-84261241D01*
X38977091Y-84499336D01*
X38929472Y-84594574D01*
X38834234Y-84642194D01*
X38738996Y-84642194D01*
X38643758Y-84594574D01*
X38596139Y-84499336D01*
X38596139Y-84261241D01*
X38548520Y-84166003D01*
X38977091Y-83689813D02*
X38310425Y-83689813D01*
X38500901Y-83689813D02*
X38405663Y-83642194D01*
X38358044Y-83594574D01*
X38310425Y-83499336D01*
X38310425Y-83404098D01*
X38310425Y-82642194D02*
X39119949Y-82642194D01*
X39215187Y-82689813D01*
X39262806Y-82737432D01*
X39310425Y-82832670D01*
X39310425Y-82975527D01*
X39262806Y-83070765D01*
X38929472Y-82642194D02*
X38977091Y-82737432D01*
X38977091Y-82927908D01*
X38929472Y-83023146D01*
X38881853Y-83070765D01*
X38786615Y-83118384D01*
X38500901Y-83118384D01*
X38405663Y-83070765D01*
X38358044Y-83023146D01*
X38310425Y-82927908D01*
X38310425Y-82737432D01*
X38358044Y-82642194D01*
X38977091Y-81642194D02*
X38977091Y-82213622D01*
X38977091Y-81927908D02*
X37977091Y-81927908D01*
X38119949Y-82023146D01*
X38215187Y-82118384D01*
X38262806Y-82213622D01*
D10*
%TO.C,D1*%
X34287312Y-39113536D02*
X34287312Y-36023536D01*
X28737312Y-37568074D02*
G75*
G03*
X34287312Y-39113366I2990000J-462D01*
G01*
X34287312Y-36023706D02*
G75*
G03*
X28737312Y-37568998I-2560000J-1544830D01*
G01*
X34227312Y-37568536D02*
G75*
G03*
X34227312Y-37568536I-2500000J0D01*
G01*
%TO.C,JP1*%
X19167312Y-77798536D02*
X19167312Y-75198536D01*
X21827312Y-79068536D02*
X21827312Y-80398536D01*
X21827312Y-77798536D02*
X19167312Y-77798536D01*
X21827312Y-80398536D02*
X20497312Y-80398536D01*
X21827312Y-77798536D02*
X21827312Y-75198536D01*
X21827312Y-75198536D02*
X19167312Y-75198536D01*
D13*
%TO.C,U2*%
X1546333Y-33258711D02*
X1546333Y-6938711D01*
X1546333Y-6938711D02*
X41546333Y-6938711D01*
X41546333Y-33258711D02*
X1546333Y-33258711D01*
X41546333Y-6938711D02*
X41546333Y-33258711D01*
D10*
%TO.C,R1*%
X31997312Y-19423536D02*
X31997312Y-23173536D01*
X34367312Y-17053536D02*
G75*
G03*
X34367312Y-17053536I-2370000J0D01*
G01*
%TO.C,J4*%
X9592312Y-44398536D02*
X9592312Y-41738536D01*
X4392312Y-44398536D02*
X4392312Y-43068536D01*
X5722312Y-44398536D02*
X4392312Y-44398536D01*
X6992312Y-44398536D02*
X9592312Y-44398536D01*
X6992312Y-41738536D02*
X9592312Y-41738536D01*
X6992312Y-44398536D02*
X6992312Y-41738536D01*
%TO.C,C1*%
X10458963Y-80296536D02*
X10458963Y-75840536D01*
X11938963Y-77028536D02*
X11938963Y-74484536D01*
X10298963Y-80032536D02*
X10298963Y-76104536D01*
X11738963Y-81537536D02*
X11738963Y-79108536D01*
X13739963Y-82145536D02*
X13739963Y-73991536D01*
X9858963Y-78836536D02*
X9858963Y-77300536D01*
X13098963Y-77028536D02*
X13098963Y-74066536D01*
X12218963Y-77028536D02*
X12218963Y-74346536D01*
X12178963Y-81772536D02*
X12178963Y-79108536D01*
X11258963Y-81192536D02*
X11258963Y-79108536D01*
X11498963Y-81377536D02*
X11498963Y-79108536D01*
X11538963Y-77028536D02*
X11538963Y-74730536D01*
X13299963Y-82105536D02*
X13299963Y-74031536D01*
X11618963Y-81460536D02*
X11618963Y-79108536D01*
X11818963Y-81585536D02*
X11818963Y-79108536D01*
X13859963Y-82148536D02*
X13859963Y-73988536D01*
X11018963Y-80975536D02*
X11018963Y-75161536D01*
X11938963Y-81652536D02*
X11938963Y-79108536D01*
X9818963Y-78601536D02*
X9818963Y-77535536D01*
X10338963Y-80102536D02*
X10338963Y-76034536D01*
X13699963Y-82144536D02*
X13699963Y-73992536D01*
X12218963Y-81790536D02*
X12218963Y-79108536D01*
X12898963Y-77028536D02*
X12898963Y-74111536D01*
X10658963Y-80573536D02*
X10658963Y-75563536D01*
X11298963Y-81224536D02*
X11298963Y-79108536D01*
X12698963Y-81970536D02*
X12698963Y-79108536D01*
X11898963Y-77028536D02*
X11898963Y-74506536D01*
X18309661Y-80383536D02*
X17509661Y-80383536D01*
X12418963Y-81873536D02*
X12418963Y-79108536D01*
X9898963Y-79016536D02*
X9898963Y-77120536D01*
X10778963Y-80719536D02*
X10778963Y-75417536D01*
X10818963Y-80765536D02*
X10818963Y-75371536D01*
X12098963Y-81734536D02*
X12098963Y-79108536D01*
X13178963Y-77028536D02*
X13178963Y-74051536D01*
X10138963Y-79713536D02*
X10138963Y-76423536D01*
X13098963Y-82070536D02*
X13098963Y-79108536D01*
X13379963Y-82116536D02*
X13379963Y-74020536D01*
X12378963Y-77028536D02*
X12378963Y-74278536D01*
X13499963Y-82129536D02*
X13499963Y-74007536D01*
X9938963Y-79166536D02*
X9938963Y-76970536D01*
X12098963Y-77028536D02*
X12098963Y-74402536D01*
X12458963Y-81889536D02*
X12458963Y-79108536D01*
X11298963Y-77028536D02*
X11298963Y-74912536D01*
X11058963Y-81013536D02*
X11058963Y-75123536D01*
X12978963Y-82044536D02*
X12978963Y-79108536D01*
X13579963Y-82136536D02*
X13579963Y-74000536D01*
X12818963Y-82004536D02*
X12818963Y-79108536D01*
X13459963Y-82125536D02*
X13459963Y-74011536D01*
X13018963Y-77028536D02*
X13018963Y-74083536D01*
X11698963Y-77028536D02*
X11698963Y-74624536D01*
X12938963Y-82035536D02*
X12938963Y-79108536D01*
X11458963Y-77028536D02*
X11458963Y-74788536D01*
X10178963Y-79799536D02*
X10178963Y-76337536D01*
X11378963Y-77028536D02*
X11378963Y-74848536D01*
X10538963Y-80413536D02*
X10538963Y-75723536D01*
X11338963Y-77028536D02*
X11338963Y-74879536D01*
X12778963Y-77028536D02*
X12778963Y-74143536D01*
X11658963Y-81486536D02*
X11658963Y-79108536D01*
X17909661Y-80783536D02*
X17909661Y-79983536D01*
X13178963Y-82085536D02*
X13178963Y-79108536D01*
X12738963Y-77028536D02*
X12738963Y-74154536D01*
X11858963Y-81608536D02*
X11858963Y-79108536D01*
X11418963Y-81318536D02*
X11418963Y-79108536D01*
X13819963Y-82148536D02*
X13819963Y-73988536D01*
X11618963Y-77028536D02*
X11618963Y-74676536D01*
X13659963Y-82142536D02*
X13659963Y-73994536D01*
X11978963Y-81674536D02*
X11978963Y-79108536D01*
X11178963Y-81123536D02*
X11178963Y-79108536D01*
X10938963Y-80894536D02*
X10938963Y-75242536D01*
X12698963Y-77028536D02*
X12698963Y-74166536D01*
X11578963Y-81433536D02*
X11578963Y-79108536D01*
X13058963Y-77028536D02*
X13058963Y-74074536D01*
X13259963Y-82098536D02*
X13259963Y-74038536D01*
X13138963Y-77028536D02*
X13138963Y-74058536D01*
X10698963Y-80624536D02*
X10698963Y-75512536D01*
X12138963Y-81754536D02*
X12138963Y-79108536D01*
X10378963Y-80170536D02*
X10378963Y-75966536D01*
X13339963Y-82110536D02*
X13339963Y-74026536D01*
X12258963Y-77028536D02*
X12258963Y-74328536D01*
X12658963Y-77028536D02*
X12658963Y-74179536D01*
X12658963Y-81957536D02*
X12658963Y-79108536D01*
X11218963Y-77028536D02*
X11218963Y-74978536D01*
X11738963Y-77028536D02*
X11738963Y-74599536D01*
X12538963Y-77028536D02*
X12538963Y-74218536D01*
X11138963Y-81087536D02*
X11138963Y-79108536D01*
X12938963Y-77028536D02*
X12938963Y-74101536D01*
X11498963Y-77028536D02*
X11498963Y-74759536D01*
X11258963Y-77028536D02*
X11258963Y-74944536D01*
X11418963Y-77028536D02*
X11418963Y-74818536D01*
X12498963Y-81903536D02*
X12498963Y-79108536D01*
X11978963Y-77028536D02*
X11978963Y-74462536D01*
X12618963Y-81945536D02*
X12618963Y-79108536D01*
X12058963Y-81715536D02*
X12058963Y-79108536D01*
X11578963Y-77028536D02*
X11578963Y-74703536D01*
X13419963Y-82120536D02*
X13419963Y-74016536D01*
X11778963Y-81561536D02*
X11778963Y-79108536D01*
X9978963Y-79297536D02*
X9978963Y-76839536D01*
X10098963Y-79620536D02*
X10098963Y-76516536D01*
X12138963Y-77028536D02*
X12138963Y-74382536D01*
X13018963Y-82053536D02*
X13018963Y-79108536D01*
X12338963Y-77028536D02*
X12338963Y-74294536D01*
X11218963Y-81158536D02*
X11218963Y-79108536D01*
X11898963Y-81630536D02*
X11898963Y-79108536D01*
X10218963Y-79881536D02*
X10218963Y-76255536D01*
X12378963Y-81858536D02*
X12378963Y-79108536D01*
X13058963Y-82062536D02*
X13058963Y-79108536D01*
X10058963Y-79521536D02*
X10058963Y-76615536D01*
X10418963Y-80234536D02*
X10418963Y-75902536D01*
X11778963Y-77028536D02*
X11778963Y-74575536D01*
X12178963Y-77028536D02*
X12178963Y-74364536D01*
X12018963Y-81695536D02*
X12018963Y-79108536D01*
X11178963Y-77028536D02*
X11178963Y-75013536D01*
X13219963Y-82092536D02*
X13219963Y-74044536D01*
X11138963Y-77028536D02*
X11138963Y-75049536D01*
X10618963Y-80522536D02*
X10618963Y-75614536D01*
X13539963Y-82133536D02*
X13539963Y-74003536D01*
X10858963Y-80809536D02*
X10858963Y-75327536D01*
X12538963Y-81918536D02*
X12538963Y-79108536D01*
X13779963Y-82147536D02*
X13779963Y-73989536D01*
X12738963Y-81982536D02*
X12738963Y-79108536D01*
X11378963Y-81288536D02*
X11378963Y-79108536D01*
X12858963Y-82015536D02*
X12858963Y-79108536D01*
X12578963Y-77028536D02*
X12578963Y-74205536D01*
X10738963Y-80672536D02*
X10738963Y-75464536D01*
X10898963Y-80852536D02*
X10898963Y-75284536D01*
X12898963Y-82025536D02*
X12898963Y-79108536D01*
X10978963Y-80935536D02*
X10978963Y-75201536D01*
X12018963Y-77028536D02*
X12018963Y-74441536D01*
X12338963Y-81842536D02*
X12338963Y-79108536D01*
X12778963Y-81993536D02*
X12778963Y-79108536D01*
X12818963Y-77028536D02*
X12818963Y-74132536D01*
X10258963Y-79958536D02*
X10258963Y-76178536D01*
X11458963Y-81348536D02*
X11458963Y-79108536D01*
X11538963Y-81406536D02*
X11538963Y-79108536D01*
X11658963Y-77028536D02*
X11658963Y-74650536D01*
X12978963Y-77028536D02*
X12978963Y-74092536D01*
X13899963Y-82148536D02*
X13899963Y-73988536D01*
X12258963Y-81808536D02*
X12258963Y-79108536D01*
X11698963Y-81512536D02*
X11698963Y-79108536D01*
X12058963Y-77028536D02*
X12058963Y-74421536D01*
X12858963Y-77028536D02*
X12858963Y-74121536D01*
X10578963Y-80468536D02*
X10578963Y-75668536D01*
X12418963Y-77028536D02*
X12418963Y-74263536D01*
X12498963Y-77028536D02*
X12498963Y-74233536D01*
X13138963Y-82078536D02*
X13138963Y-79108536D01*
X11098963Y-81051536D02*
X11098963Y-75085536D01*
X12298963Y-77028536D02*
X12298963Y-74311536D01*
X10498963Y-80355536D02*
X10498963Y-75781536D01*
X12618963Y-77028536D02*
X12618963Y-74191536D01*
X13619963Y-82139536D02*
X13619963Y-73997536D01*
X12578963Y-81931536D02*
X12578963Y-79108536D01*
X11818963Y-77028536D02*
X11818963Y-74551536D01*
X10018963Y-79414536D02*
X10018963Y-76722536D01*
X12298963Y-81825536D02*
X12298963Y-79108536D01*
X11858963Y-77028536D02*
X11858963Y-74528536D01*
X12458963Y-77028536D02*
X12458963Y-74247536D01*
X11338963Y-81257536D02*
X11338963Y-79108536D01*
X18019963Y-78068536D02*
G75*
G03*
X18019963Y-78068536I-4120000J0D01*
G01*
%TO.C,SW1*%
X17450964Y-90458414D02*
X17450964Y-83818414D01*
X10810964Y-90458414D02*
X17450964Y-90458414D01*
X17450964Y-83818414D02*
X10810964Y-83818414D01*
X10810964Y-83818414D02*
X10810964Y-90458414D01*
X17450964Y-87138414D02*
X17710964Y-87138414D01*
%TO.C,BAT1*%
X26597312Y-99398536D02*
X23487312Y-99398536D01*
X26027312Y-96738536D02*
X26027312Y-95218536D01*
X26597312Y-96738536D02*
X26027312Y-96738536D01*
X21967312Y-99398536D02*
X21397312Y-99398536D01*
X24507312Y-96738536D02*
X21397312Y-96738536D01*
X26597312Y-96738536D02*
X26597312Y-99398536D01*
X21397312Y-96738536D02*
X21397312Y-99398536D01*
%TO.C,J2*%
X3724836Y-70898536D02*
X3724836Y-69568536D01*
X6324836Y-70898536D02*
X6324836Y-68238536D01*
X6324836Y-68238536D02*
X21624836Y-68238536D01*
X6324836Y-70898536D02*
X21624836Y-70898536D01*
X21624836Y-70898536D02*
X21624836Y-68238536D01*
X5054836Y-70898536D02*
X3724836Y-70898536D01*
%TO.C,ACELEROMETRO*%
X21992422Y-38979369D02*
X4152422Y-38979369D01*
X24592422Y-36319369D02*
X24592422Y-37649369D01*
X21992422Y-36319369D02*
X21992422Y-38979369D01*
X21992422Y-36319369D02*
X4152422Y-36319369D01*
X4152422Y-36319369D02*
X4152422Y-38979369D01*
X23262422Y-36319369D02*
X24592422Y-36319369D01*
%TO.C,GPS*%
X24407312Y-44898536D02*
X24407312Y-42238536D01*
X16727312Y-44898536D02*
X24407312Y-44898536D01*
X14127312Y-44898536D02*
X14127312Y-43568536D01*
X16727312Y-42238536D02*
X24407312Y-42238536D01*
X15457312Y-44898536D02*
X14127312Y-44898536D01*
X16727312Y-44898536D02*
X16727312Y-42238536D01*
D13*
%TO.C,Arduino pro Mini*%
X36752715Y-47332655D02*
X3732715Y-47332655D01*
X36752715Y-65112655D02*
X36752715Y-47332655D01*
X3732715Y-65112655D02*
X36752715Y-65112655D01*
X3732715Y-47332655D02*
X3732715Y-65112655D01*
D10*
%TO.C,Carg1*%
X35221146Y-76275160D02*
X27166146Y-76275160D01*
X35221146Y-74355160D02*
X27166146Y-74355160D01*
X35221146Y-84675160D02*
X27166146Y-84675160D01*
X35221146Y-80475160D02*
X27166146Y-80475160D01*
X35221146Y-82755160D02*
X27166146Y-82755160D01*
X35221146Y-78555160D02*
X27166146Y-78555160D01*
%TD*%
M02*
