%TF.GenerationSoftware,KiCad,Pcbnew,6.0.4-6f826c9f35~116~ubuntu20.04.1*%
%TF.CreationDate,2022-04-01T16:54:59+02:00*%
%TF.ProjectId,placaCANSAT_V3,706c6163-6143-4414-9e53-41545f56332e,rev?*%
%TF.SameCoordinates,Original*%
%TF.FileFunction,Copper,L2,Bot*%
%TF.FilePolarity,Positive*%
%FSLAX46Y46*%
G04 Gerber Fmt 4.6, Leading zero omitted, Abs format (unit mm)*
G04 Created by KiCad (PCBNEW 6.0.4-6f826c9f35~116~ubuntu20.04.1) date 2022-04-01 16:54:59*
%MOMM*%
%LPD*%
G01*
G04 APERTURE LIST*
G04 Aperture macros list*
%AMRoundRect*
0 Rectangle with rounded corners*
0 $1 Rounding radius*
0 $2 $3 $4 $5 $6 $7 $8 $9 X,Y pos of 4 corners*
0 Add a 4 corners polygon primitive as box body*
4,1,4,$2,$3,$4,$5,$6,$7,$8,$9,$2,$3,0*
0 Add four circle primitives for the rounded corners*
1,1,$1+$1,$2,$3*
1,1,$1+$1,$4,$5*
1,1,$1+$1,$6,$7*
1,1,$1+$1,$8,$9*
0 Add four rect primitives between the rounded corners*
20,1,$1+$1,$2,$3,$4,$5,0*
20,1,$1+$1,$4,$5,$6,$7,0*
20,1,$1+$1,$6,$7,$8,$9,0*
20,1,$1+$1,$8,$9,$2,$3,0*%
G04 Aperture macros list end*
%ADD10C,0.250000*%
%TA.AperFunction,NonConductor*%
%ADD11C,0.250000*%
%TD*%
%TA.AperFunction,ComponentPad*%
%ADD12R,1.800000X1.800000*%
%TD*%
%TA.AperFunction,ComponentPad*%
%ADD13C,1.800000*%
%TD*%
%TA.AperFunction,ComponentPad*%
%ADD14R,1.700000X1.700000*%
%TD*%
%TA.AperFunction,ComponentPad*%
%ADD15O,1.700000X1.700000*%
%TD*%
%TA.AperFunction,ComponentPad*%
%ADD16O,2.844800X1.422400*%
%TD*%
%TA.AperFunction,ComponentPad*%
%ADD17C,2.400000*%
%TD*%
%TA.AperFunction,ComponentPad*%
%ADD18O,2.400000X2.400000*%
%TD*%
%TA.AperFunction,ComponentPad*%
%ADD19R,1.600000X1.600000*%
%TD*%
%TA.AperFunction,ComponentPad*%
%ADD20C,1.600000*%
%TD*%
%TA.AperFunction,SMDPad,CuDef*%
%ADD21R,2.510000X1.000000*%
%TD*%
%TA.AperFunction,ComponentPad*%
%ADD22C,1.879600*%
%TD*%
%TA.AperFunction,ComponentPad*%
%ADD23RoundRect,0.250000X-0.675000X-0.675000X0.675000X-0.675000X0.675000X0.675000X-0.675000X0.675000X0*%
%TD*%
%TA.AperFunction,ComponentPad*%
%ADD24C,1.850000*%
%TD*%
%TA.AperFunction,ViaPad*%
%ADD25C,0.800000*%
%TD*%
%TA.AperFunction,ViaPad*%
%ADD26C,6.000000*%
%TD*%
%TA.AperFunction,ViaPad*%
%ADD27C,1.524000*%
%TD*%
%TA.AperFunction,Conductor*%
%ADD28C,1.000000*%
%TD*%
%TA.AperFunction,Conductor*%
%ADD29C,1.200000*%
%TD*%
G04 APERTURE END LIST*
D10*
D11*
X25797121Y-27413016D02*
X25797121Y-26841588D01*
X26139978Y-27527302D02*
X24939978Y-27127302D01*
X26139978Y-26727302D01*
X25339978Y-25813016D02*
X26139978Y-25813016D01*
X24882835Y-26098731D02*
X25739978Y-26384445D01*
X25739978Y-25641588D01*
X26139978Y-25184445D02*
X24939978Y-25184445D01*
X25682835Y-23698731D02*
X25682835Y-22784445D01*
X26082835Y-21355873D02*
X26139978Y-21184445D01*
X26139978Y-20898731D01*
X26082835Y-20784445D01*
X26025692Y-20727302D01*
X25911406Y-20670159D01*
X25797121Y-20670159D01*
X25682835Y-20727302D01*
X25625692Y-20784445D01*
X25568549Y-20898731D01*
X25511406Y-21127302D01*
X25454263Y-21241588D01*
X25397121Y-21298731D01*
X25282835Y-21355873D01*
X25168549Y-21355873D01*
X25054263Y-21298731D01*
X24997121Y-21241588D01*
X24939978Y-21127302D01*
X24939978Y-20841588D01*
X24997121Y-20670159D01*
X26082835Y-19698731D02*
X26139978Y-19813016D01*
X26139978Y-20041588D01*
X26082835Y-20155873D01*
X25968549Y-20213016D01*
X25511406Y-20213016D01*
X25397121Y-20155873D01*
X25339978Y-20041588D01*
X25339978Y-19813016D01*
X25397121Y-19698731D01*
X25511406Y-19641588D01*
X25625692Y-19641588D01*
X25739978Y-20213016D01*
X26139978Y-19127302D02*
X25339978Y-19127302D01*
X25568549Y-19127302D02*
X25454263Y-19070159D01*
X25397121Y-19013016D01*
X25339978Y-18898731D01*
X25339978Y-18784445D01*
X26139978Y-18384445D02*
X25339978Y-18384445D01*
X24939978Y-18384445D02*
X24997121Y-18441588D01*
X25054263Y-18384445D01*
X24997121Y-18327302D01*
X24939978Y-18384445D01*
X25054263Y-18384445D01*
X25339978Y-17984445D02*
X25339978Y-17527302D01*
X24939978Y-17813016D02*
X25968549Y-17813016D01*
X26082835Y-17755873D01*
X26139978Y-17641588D01*
X26139978Y-17527302D01*
X26139978Y-17127302D02*
X25339978Y-17127302D01*
X24939978Y-17127302D02*
X24997121Y-17184445D01*
X25054263Y-17127302D01*
X24997121Y-17070159D01*
X24939978Y-17127302D01*
X25054263Y-17127302D01*
X25339978Y-16041588D02*
X26139978Y-16041588D01*
X25339978Y-16555873D02*
X25968549Y-16555873D01*
X26082835Y-16498731D01*
X26139978Y-16384445D01*
X26139978Y-16213016D01*
X26082835Y-16098731D01*
X26025692Y-16041588D01*
X26139978Y-15470159D02*
X25339978Y-15470159D01*
X25454263Y-15470159D02*
X25397121Y-15413016D01*
X25339978Y-15298731D01*
X25339978Y-15127302D01*
X25397121Y-15013016D01*
X25511406Y-14955873D01*
X26139978Y-14955873D01*
X25511406Y-14955873D02*
X25397121Y-14898731D01*
X25339978Y-14784445D01*
X25339978Y-14613016D01*
X25397121Y-14498731D01*
X25511406Y-14441588D01*
X26139978Y-14441588D01*
X27957692Y-27155873D02*
X28014835Y-27213016D01*
X28071978Y-27384445D01*
X28071978Y-27498731D01*
X28014835Y-27670159D01*
X27900549Y-27784445D01*
X27786263Y-27841588D01*
X27557692Y-27898731D01*
X27386263Y-27898731D01*
X27157692Y-27841588D01*
X27043406Y-27784445D01*
X26929121Y-27670159D01*
X26871978Y-27498731D01*
X26871978Y-27384445D01*
X26929121Y-27213016D01*
X26986263Y-27155873D01*
X27729121Y-26698731D02*
X27729121Y-26127302D01*
X28071978Y-26813016D02*
X26871978Y-26413016D01*
X28071978Y-26013016D01*
X28071978Y-25613016D02*
X26871978Y-25613016D01*
X28071978Y-24927302D01*
X26871978Y-24927302D01*
X28014835Y-24413016D02*
X28071978Y-24241588D01*
X28071978Y-23955873D01*
X28014835Y-23841588D01*
X27957692Y-23784445D01*
X27843406Y-23727302D01*
X27729121Y-23727302D01*
X27614835Y-23784445D01*
X27557692Y-23841588D01*
X27500549Y-23955873D01*
X27443406Y-24184445D01*
X27386263Y-24298731D01*
X27329121Y-24355873D01*
X27214835Y-24413016D01*
X27100549Y-24413016D01*
X26986263Y-24355873D01*
X26929121Y-24298731D01*
X26871978Y-24184445D01*
X26871978Y-23898731D01*
X26929121Y-23727302D01*
X27729121Y-23270159D02*
X27729121Y-22698731D01*
X28071978Y-23384445D02*
X26871978Y-22984445D01*
X28071978Y-22584445D01*
X26871978Y-22355873D02*
X26871978Y-21670159D01*
X28071978Y-22013016D02*
X26871978Y-22013016D01*
X27614835Y-20355873D02*
X27614835Y-19441588D01*
X26986263Y-18013016D02*
X26929121Y-17955873D01*
X26871978Y-17841588D01*
X26871978Y-17555873D01*
X26929121Y-17441588D01*
X26986263Y-17384445D01*
X27100549Y-17327302D01*
X27214835Y-17327302D01*
X27386263Y-17384445D01*
X28071978Y-18070159D01*
X28071978Y-17327302D01*
X26871978Y-16584445D02*
X26871978Y-16470159D01*
X26929121Y-16355873D01*
X26986263Y-16298731D01*
X27100549Y-16241588D01*
X27329121Y-16184445D01*
X27614835Y-16184445D01*
X27843406Y-16241588D01*
X27957692Y-16298731D01*
X28014835Y-16355873D01*
X28071978Y-16470159D01*
X28071978Y-16584445D01*
X28014835Y-16698731D01*
X27957692Y-16755873D01*
X27843406Y-16813016D01*
X27614835Y-16870159D01*
X27329121Y-16870159D01*
X27100549Y-16813016D01*
X26986263Y-16755873D01*
X26929121Y-16698731D01*
X26871978Y-16584445D01*
X26986263Y-15727302D02*
X26929121Y-15670159D01*
X26871978Y-15555873D01*
X26871978Y-15270159D01*
X26929121Y-15155873D01*
X26986263Y-15098731D01*
X27100549Y-15041588D01*
X27214835Y-15041588D01*
X27386263Y-15098731D01*
X28071978Y-15784445D01*
X28071978Y-15041588D01*
X26986263Y-14584445D02*
X26929121Y-14527302D01*
X26871978Y-14413016D01*
X26871978Y-14127302D01*
X26929121Y-14013016D01*
X26986263Y-13955873D01*
X27100549Y-13898731D01*
X27214835Y-13898731D01*
X27386263Y-13955873D01*
X28071978Y-14641588D01*
X28071978Y-13898731D01*
D12*
%TO.P,D1,1,K*%
%TO.N,Net-(D1-Pad1)*%
X37600000Y-6500000D03*
D13*
%TO.P,D1,2,A*%
%TO.N,/LED*%
X37600000Y-9040000D03*
%TD*%
D14*
%TO.P,JP1,1,A*%
%TO.N,Net-(C1-Pad1)*%
X79100000Y-19000000D03*
D15*
%TO.P,JP1,2,B*%
%TO.N,3.3V*%
X76560000Y-19000000D03*
%TD*%
D16*
%TO.P,U2,P$1,5V*%
%TO.N,5V*%
X31560175Y-32680979D03*
%TO.P,U2,P$2,GND*%
%TO.N,GND*%
X31560175Y-30140979D03*
%TO.P,U2,P$3,IO12*%
%TO.N,unconnected-(U2-PadP$3)*%
X31560175Y-27600979D03*
%TO.P,U2,P$4,IO13*%
%TO.N,unconnected-(U2-PadP$4)*%
X31560175Y-25060979D03*
%TO.P,U2,P$5,IO15*%
%TO.N,unconnected-(U2-PadP$5)*%
X31560175Y-22520979D03*
%TO.P,U2,P$6,IO14*%
%TO.N,unconnected-(U2-PadP$6)*%
X31560175Y-19980979D03*
%TO.P,U2,P$7,IO2*%
%TO.N,unconnected-(U2-PadP$7)*%
X31560175Y-17440979D03*
%TO.P,U2,P$8,IO4*%
%TO.N,unconnected-(U2-PadP$8)*%
X31560175Y-14900979D03*
%TO.P,U2,P$9,.GND*%
%TO.N,unconnected-(U2-PadP$9)*%
X8700175Y-14900979D03*
%TO.P,U2,P$10,IO1/U0T*%
%TO.N,unconnected-(U2-PadP$10)*%
X8700175Y-17440979D03*
%TO.P,U2,P$11,IO3/U0R*%
%TO.N,/CAMARA*%
X8700175Y-19980979D03*
%TO.P,U2,P$12,3V3.*%
%TO.N,unconnected-(U2-PadP$12)*%
X8700175Y-22520979D03*
%TO.P,U2,P$13,GND.*%
%TO.N,unconnected-(U2-PadP$13)*%
X8700175Y-25060979D03*
%TO.P,U2,P$14,IO0*%
%TO.N,unconnected-(U2-PadP$14)*%
X8700175Y-27600979D03*
%TO.P,U2,P$15,IO16*%
%TO.N,unconnected-(U2-PadP$15)*%
X8700175Y-30140979D03*
%TO.P,U2,P$16,3V3*%
%TO.N,unconnected-(U2-PadP$16)*%
X8700175Y-32680979D03*
%TD*%
D17*
%TO.P,R1,1*%
%TO.N,Net-(D1-Pad1)*%
X17085000Y-7500000D03*
D18*
%TO.P,R1,2*%
%TO.N,GND*%
X24705000Y-7500000D03*
%TD*%
D14*
%TO.P,J4,1,Pin_1*%
%TO.N,/SDA_ACE*%
X43100000Y-33775000D03*
D15*
%TO.P,J4,2,Pin_2*%
%TO.N,/SCL_ACE*%
X43100000Y-31235000D03*
%TD*%
D19*
%TO.P,C1,1*%
%TO.N,Net-(C1-Pad1)*%
X78100000Y-23847349D03*
D20*
%TO.P,C1,2*%
%TO.N,GND*%
X78100000Y-27347349D03*
%TD*%
D17*
%TO.P,SW1,1,A*%
%TO.N,Net-(C1-Pad1)*%
X87169878Y-25366348D03*
D18*
%TO.P,SW1,2,B*%
%TO.N,3.7V*%
X87169878Y-20286348D03*
%TD*%
D21*
%TO.P,BAT1,1,+*%
%TO.N,3.7V*%
X96445000Y-14230000D03*
%TO.P,BAT1,2,-*%
%TO.N,GND*%
X99755000Y-16770000D03*
%TD*%
D14*
%TO.P,J2,1,Pin_1*%
%TO.N,GND*%
X69600000Y-34442476D03*
D15*
%TO.P,J2,2,Pin_2*%
%TO.N,/MOSI*%
X69600000Y-31902476D03*
%TO.P,J2,3,Pin_3*%
%TO.N,/MISO*%
X69600000Y-29362476D03*
%TO.P,J2,4,Pin_4*%
%TO.N,/SCK*%
X69600000Y-26822476D03*
%TO.P,J2,5,Pin_5*%
%TO.N,NSS*%
X69600000Y-24282476D03*
%TO.P,J2,6,Pin_6*%
%TO.N,DIO0*%
X69600000Y-21742476D03*
%TO.P,J2,7,Pin_7*%
%TO.N,3.3V*%
X69600000Y-19202476D03*
%TD*%
D14*
%TO.P,ACELEROMETRO,1,VCCIN*%
%TO.N,unconnected-(U3-Pad1)*%
X37680833Y-16234890D03*
D15*
%TO.P,ACELEROMETRO,2,3.3V*%
%TO.N,3.3V*%
X37680833Y-18774890D03*
%TO.P,ACELEROMETRO,3,GND*%
%TO.N,GND*%
X37680833Y-21314890D03*
%TO.P,ACELEROMETRO,4,SCL*%
%TO.N,/SCL_ACE*%
X37680833Y-23854890D03*
%TO.P,ACELEROMETRO,5,SDA*%
%TO.N,/SDA_ACE*%
X37680833Y-26394890D03*
%TO.P,ACELEROMETRO,6,FSYNC*%
%TO.N,unconnected-(U3-Pad6)*%
X37680833Y-28934890D03*
%TO.P,ACELEROMETRO,7,INTA*%
%TO.N,unconnected-(U3-Pad7)*%
X37680833Y-31474890D03*
%TO.P,ACELEROMETRO,8,DRDY*%
%TO.N,unconnected-(U3-Pad8)*%
X37680833Y-34014890D03*
%TD*%
D14*
%TO.P,GPS,1,GND*%
%TO.N,GND*%
X43600000Y-24040000D03*
D15*
%TO.P,GPS,2,TX*%
%TO.N,/GPS_TX*%
X43600000Y-21500000D03*
%TO.P,GPS,3,RX*%
%TO.N,/GPS_RX*%
X43600000Y-18960000D03*
%TO.P,GPS,4,VCC*%
%TO.N,3.3V*%
X43600000Y-16420000D03*
%TD*%
D22*
%TO.P,Arduino pro Mini,JP1_1,DTR*%
%TO.N,unconnected-(U1-PadJP1_1)*%
X62604119Y-4014597D03*
%TO.P,Arduino pro Mini,JP1_2,TXO*%
%TO.N,unconnected-(U1-PadJP1_2)*%
X60064119Y-4014597D03*
%TO.P,Arduino pro Mini,JP1_3,RXI*%
%TO.N,unconnected-(U1-PadJP1_3)*%
X57524119Y-4014597D03*
%TO.P,Arduino pro Mini,JP1_4,VCC*%
%TO.N,unconnected-(U1-PadJP1_4)*%
X54984119Y-4014597D03*
%TO.P,Arduino pro Mini,JP1_5,GND*%
%TO.N,GND*%
X52444119Y-4014597D03*
%TO.P,Arduino pro Mini,JP1_6,GND*%
X49904119Y-4014597D03*
%TO.P,Arduino pro Mini,JP2_1,A4*%
%TO.N,unconnected-(U1-PadJP2_1)*%
X60953119Y-17857597D03*
%TO.P,Arduino pro Mini,JP2_2,A5*%
%TO.N,unconnected-(U1-PadJP2_2)*%
X60953119Y-15317597D03*
%TO.P,Arduino pro Mini,JP3_1,A6*%
%TO.N,unconnected-(U1-PadJP3_1)*%
X60953119Y-28271597D03*
%TO.P,Arduino pro Mini,JP3_2,A7*%
%TO.N,unconnected-(U1-PadJP3_2)*%
X60953119Y-25731597D03*
%TO.P,Arduino pro Mini,JP6_1,RAW*%
%TO.N,unconnected-(U1-PadJP6_1)*%
X63874119Y-6554597D03*
%TO.P,Arduino pro Mini,JP6_2,GND_1*%
%TO.N,GND*%
X63874119Y-9094597D03*
%TO.P,Arduino pro Mini,JP6_3,RST_1*%
%TO.N,unconnected-(U1-PadJP6_3)*%
X63874119Y-11634597D03*
%TO.P,Arduino pro Mini,JP6_4,VCC_1*%
%TO.N,3.3V*%
X63874119Y-14174597D03*
%TO.P,Arduino pro Mini,JP6_5,A3*%
%TO.N,unconnected-(U1-PadJP6_5)*%
X63874119Y-16714597D03*
%TO.P,Arduino pro Mini,JP6_6,A2*%
%TO.N,unconnected-(U1-PadJP6_6)*%
X63874119Y-19254597D03*
%TO.P,Arduino pro Mini,JP6_7,A1*%
%TO.N,unconnected-(U1-PadJP6_7)*%
X63874119Y-21794597D03*
%TO.P,Arduino pro Mini,JP6_8,A0*%
%TO.N,unconnected-(U1-PadJP6_8)*%
X63874119Y-24334597D03*
%TO.P,Arduino pro Mini,JP6_9,SCK*%
%TO.N,/SCK*%
X63874119Y-26874597D03*
%TO.P,Arduino pro Mini,JP6_10,MISO*%
%TO.N,/MISO*%
X63874119Y-29414597D03*
%TO.P,Arduino pro Mini,JP6_11,MOSI*%
%TO.N,/MOSI*%
X63874119Y-31954597D03*
%TO.P,Arduino pro Mini,JP6_12,D10*%
%TO.N,NSS*%
X63874119Y-34494597D03*
%TO.P,Arduino pro Mini,JP7_1,D9*%
%TO.N,unconnected-(U1-PadJP7_1)*%
X48634119Y-34494597D03*
%TO.P,Arduino pro Mini,JP7_2,D8*%
%TO.N,unconnected-(U1-PadJP7_2)*%
X48634119Y-31954597D03*
%TO.P,Arduino pro Mini,JP7_3,D7*%
%TO.N,unconnected-(U1-PadJP7_3)*%
X48634119Y-29414597D03*
%TO.P,Arduino pro Mini,JP7_4,D6*%
%TO.N,/CAMARA*%
X48634119Y-26874597D03*
%TO.P,Arduino pro Mini,JP7_5,D5*%
%TO.N,/LED*%
X48634119Y-24334597D03*
%TO.P,Arduino pro Mini,JP7_6,D4*%
%TO.N,/GPS_TX*%
X48634119Y-21794597D03*
%TO.P,Arduino pro Mini,JP7_7,D3*%
%TO.N,/GPS_RX*%
X48634119Y-19254597D03*
%TO.P,Arduino pro Mini,JP7_8,D2*%
%TO.N,DIO0*%
X48634119Y-16714597D03*
%TO.P,Arduino pro Mini,JP7_9,GND_2*%
%TO.N,GND*%
X48634119Y-14174597D03*
%TO.P,Arduino pro Mini,JP7_10,RST_2*%
%TO.N,unconnected-(U1-PadJP7_10)*%
X48634119Y-11634597D03*
%TO.P,Arduino pro Mini,JP7_11,RXI_2*%
%TO.N,unconnected-(U1-PadJP7_11)*%
X48634119Y-9094597D03*
%TO.P,Arduino pro Mini,JP7_12,TXO_2*%
%TO.N,unconnected-(U1-PadJP7_12)*%
X48634119Y-6554597D03*
%TD*%
D23*
%TO.P,Carg1,1,Pin_1*%
%TO.N,GND*%
X75346624Y-3091166D03*
D24*
%TO.P,Carg1,2,Pin_2*%
%TO.N,5V*%
X79546624Y-3091166D03*
%TO.P,Carg1,3,Pin_3*%
%TO.N,Net-(C1-Pad1)*%
X83746624Y-3091166D03*
%TD*%
D25*
%TO.N,*%
X2448493Y2549D03*
X95038554Y-39513053D03*
X94990328Y-20168303D03*
X104032829Y-20154907D03*
X0Y-2040000D03*
X104006037Y17734D03*
D26*
X95750000Y-7570000D03*
X84500000Y-34530000D03*
D25*
X0Y-39523120D03*
D27*
%TO.N,Net-(C1-Pad1)*%
X87600000Y-3000000D03*
X87600000Y-14500000D03*
%TO.N,/LED*%
X46265403Y-24334597D03*
X46100000Y-17000000D03*
%TO.N,/CAMARA*%
X40600000Y-36000000D03*
X26100000Y-36000000D03*
%TO.N,3.3V*%
X36600000Y-37500000D03*
X10100000Y-12000000D03*
X25100000Y-12000000D03*
X31100000Y-37500000D03*
%TO.N,NSS*%
X66594597Y-34494597D03*
X66645075Y-24781242D03*
%TO.N,DIO0*%
X57100000Y-28000000D03*
X72100000Y-37000000D03*
X51814597Y-16714597D03*
X61600000Y-37500000D03*
%TD*%
D28*
%TO.N,Net-(C1-Pad1)*%
X79100000Y-19000000D02*
X83100000Y-19000000D01*
X78100000Y-23847349D02*
X78252651Y-23847349D01*
X87169878Y-25366348D02*
X83100000Y-21296470D01*
X83746624Y-3091166D02*
X87508834Y-3091166D01*
X78252651Y-23847349D02*
X79100000Y-23000000D01*
X83100000Y-19000000D02*
X87600000Y-14500000D01*
X79100000Y-23000000D02*
X79100000Y-19000000D01*
X83100000Y-21296470D02*
X83100000Y-19000000D01*
X87508834Y-3091166D02*
X87600000Y-3000000D01*
%TO.N,3.7V*%
X93226226Y-14230000D02*
X87169878Y-20286348D01*
X96445000Y-14230000D02*
X93226226Y-14230000D01*
%TO.N,Net-(D1-Pad1)*%
X35600000Y-4500000D02*
X20085000Y-4500000D01*
X37600000Y-6500000D02*
X35600000Y-4500000D01*
X20085000Y-4500000D02*
X17085000Y-7500000D01*
%TO.N,GND*%
X57524119Y-9094597D02*
X55264761Y-6835239D01*
X74100000Y-38500000D02*
X70600000Y-38500000D01*
X37680833Y-21314890D02*
X39414890Y-21314890D01*
D29*
X13100000Y-9000000D02*
X14600000Y-10500000D01*
D28*
X22165000Y-29065000D02*
X22165000Y-10435000D01*
X75346624Y-3091166D02*
X75100000Y-3337790D01*
X55264761Y-6835239D02*
X52444119Y-4014597D01*
D29*
X14333834Y-2766166D02*
X13100000Y-4000000D01*
D28*
X34459021Y-30140979D02*
X31560175Y-30140979D01*
X74600000Y-38000000D02*
X74100000Y-38500000D01*
D29*
X93830000Y-16770000D02*
X92600000Y-18000000D01*
D28*
X48634119Y-14174597D02*
X50925403Y-14174597D01*
D29*
X102100000Y-16000000D02*
X102100000Y-1500000D01*
D28*
X89600000Y-3000000D02*
X89600000Y-8500000D01*
X63874119Y-9094597D02*
X66005403Y-9094597D01*
X39414890Y-21314890D02*
X42140000Y-24040000D01*
X23240979Y-30140979D02*
X22165000Y-29065000D01*
D29*
X101330000Y-16770000D02*
X102100000Y-16000000D01*
D28*
X22165000Y-10435000D02*
X22165000Y-7500000D01*
X92600000Y-28000000D02*
X92100000Y-28500000D01*
X66100000Y-9000000D02*
X66100000Y-3000000D01*
X91100000Y-1500000D02*
X89600000Y-3000000D01*
X69600000Y-37500000D02*
X69600000Y-34442476D01*
X55264761Y-9835239D02*
X55264761Y-6835239D01*
X42140000Y-24040000D02*
X43600000Y-24040000D01*
X89600000Y-8500000D02*
X75100000Y-8500000D01*
X22100000Y-10500000D02*
X22165000Y-10435000D01*
X75100000Y-3337790D02*
X75100000Y-8500000D01*
X102100000Y-1500000D02*
X91100000Y-1500000D01*
X92600000Y-18000000D02*
X92600000Y-28000000D01*
D29*
X99755000Y-16770000D02*
X101330000Y-16770000D01*
D28*
X79252651Y-28500000D02*
X78100000Y-27347349D01*
X37680833Y-21314890D02*
X35785110Y-21314890D01*
D29*
X19165000Y-10500000D02*
X22100000Y-10500000D01*
D28*
X92100000Y-28500000D02*
X79252651Y-28500000D01*
X35785110Y-21314890D02*
X34459021Y-22640979D01*
X49904119Y-4014597D02*
X52444119Y-4014597D01*
X70600000Y-38500000D02*
X69600000Y-37500000D01*
D29*
X46114597Y-4014597D02*
X44866166Y-2766166D01*
D28*
X31560175Y-30140979D02*
X23240979Y-30140979D01*
D29*
X14600000Y-10500000D02*
X19165000Y-10500000D01*
D28*
X34459021Y-22640979D02*
X34459021Y-30140979D01*
X66100000Y-3000000D02*
X75255458Y-3000000D01*
X78100000Y-27347349D02*
X74600000Y-30847349D01*
D29*
X13100000Y-4000000D02*
X13100000Y-9000000D01*
D28*
X75255458Y-3000000D02*
X75346624Y-3091166D01*
X63874119Y-9094597D02*
X57524119Y-9094597D01*
X66005403Y-9094597D02*
X66100000Y-9000000D01*
D29*
X99755000Y-16770000D02*
X93830000Y-16770000D01*
D28*
X74600000Y-30847349D02*
X74600000Y-38000000D01*
X50925403Y-14174597D02*
X55264761Y-9835239D01*
D29*
X44866166Y-2766166D02*
X14333834Y-2766166D01*
X49904119Y-4014597D02*
X46114597Y-4014597D01*
D28*
X24705000Y-7500000D02*
X22165000Y-7500000D01*
%TO.N,/LED*%
X48634119Y-24334597D02*
X46265403Y-24334597D01*
X43100000Y-13000000D02*
X36600000Y-13000000D01*
X37600000Y-9040000D02*
X36600000Y-10040000D01*
X46100000Y-16000000D02*
X43100000Y-13000000D01*
X36600000Y-10040000D02*
X36600000Y-13000000D01*
X46100000Y-17000000D02*
X46100000Y-16000000D01*
%TO.N,5V*%
X11100000Y-9500000D02*
X11100000Y-2000000D01*
X77455458Y-1000000D02*
X79546624Y-3091166D01*
X12100000Y-1000000D02*
X77455458Y-1000000D01*
X18600000Y-30500000D02*
X18600000Y-17000000D01*
X11100000Y-2000000D02*
X12100000Y-1000000D01*
X18600000Y-17000000D02*
X11100000Y-9500000D01*
X20780979Y-32680979D02*
X18600000Y-30500000D01*
X31560175Y-32680979D02*
X20780979Y-32680979D01*
%TO.N,/CAMARA*%
X46100000Y-27500000D02*
X46100000Y-36000000D01*
X8700175Y-19980979D02*
X9700175Y-19980979D01*
X13600000Y-36000000D02*
X26100000Y-36000000D01*
X9700175Y-19980979D02*
X9719196Y-20000000D01*
X46100000Y-36000000D02*
X40600000Y-36000000D01*
X13100000Y-20000000D02*
X13100000Y-35500000D01*
X9719196Y-20000000D02*
X13100000Y-20000000D01*
X48634119Y-26874597D02*
X46725403Y-26874597D01*
X46725403Y-26874597D02*
X46100000Y-27500000D01*
X13100000Y-35500000D02*
X13600000Y-36000000D01*
%TO.N,3.3V*%
X69802476Y-19000000D02*
X69600000Y-19202476D01*
X54600000Y-37500000D02*
X36600000Y-37500000D01*
X37680833Y-18774890D02*
X34825110Y-18774890D01*
X34600000Y-12000000D02*
X25100000Y-12000000D01*
X76560000Y-19000000D02*
X69802476Y-19000000D01*
X4100000Y-12500000D02*
X4600000Y-12000000D01*
X34600000Y-18549780D02*
X34600000Y-12000000D01*
X43600000Y-16420000D02*
X41180000Y-16420000D01*
X4100000Y-37500000D02*
X4100000Y-12500000D01*
X63874119Y-14174597D02*
X63199522Y-13500000D01*
X38825110Y-18774890D02*
X37680833Y-18774890D01*
X63199522Y-13500000D02*
X54600000Y-13500000D01*
X34825110Y-18774890D02*
X34600000Y-18549780D01*
X4600000Y-12000000D02*
X10100000Y-12000000D01*
X69600000Y-17500000D02*
X66274597Y-14174597D01*
X69600000Y-19202476D02*
X69600000Y-17500000D01*
X31100000Y-37500000D02*
X4100000Y-37500000D01*
X41180000Y-16420000D02*
X38825110Y-18774890D01*
X66274597Y-14174597D02*
X63874119Y-14174597D01*
X54600000Y-13500000D02*
X54600000Y-37500000D01*
%TO.N,/MOSI*%
X63874119Y-31954597D02*
X68775283Y-31954597D01*
X68775283Y-31954597D02*
X68827404Y-31902476D01*
%TO.N,/MISO*%
X68775283Y-29414597D02*
X68827404Y-29362476D01*
X63874119Y-29414597D02*
X68775283Y-29414597D01*
%TO.N,/SCK*%
X68775283Y-26874597D02*
X68827404Y-26822476D01*
X63874119Y-26874597D02*
X68775283Y-26874597D01*
%TO.N,NSS*%
X67143841Y-24282476D02*
X66645075Y-24781242D01*
X63874119Y-34494597D02*
X66594597Y-34494597D01*
X69600000Y-24282476D02*
X67143841Y-24282476D01*
%TO.N,DIO0*%
X57100000Y-28000000D02*
X57100000Y-36500000D01*
X72100000Y-22500000D02*
X72100000Y-37000000D01*
X69600000Y-21742476D02*
X71342476Y-21742476D01*
X58100000Y-37500000D02*
X61600000Y-37500000D01*
X57100000Y-36500000D02*
X58100000Y-37500000D01*
X48634119Y-16714597D02*
X51814597Y-16714597D01*
X71342476Y-21742476D02*
X72100000Y-22500000D01*
%TO.N,/GPS_RX*%
X48634119Y-19254597D02*
X43894597Y-19254597D01*
X43894597Y-19254597D02*
X43600000Y-18960000D01*
%TO.N,/GPS_TX*%
X43894597Y-21794597D02*
X43600000Y-21500000D01*
X48634119Y-21794597D02*
X43894597Y-21794597D01*
%TO.N,/SCL_ACE*%
X37680833Y-23854890D02*
X38454890Y-23854890D01*
X38454890Y-23854890D02*
X43100000Y-28500000D01*
X43100000Y-28500000D02*
X43100000Y-31235000D01*
%TO.N,/SDA_ACE*%
X40600000Y-32550000D02*
X40600000Y-29314057D01*
X37680833Y-26394890D02*
X40600000Y-29314057D01*
X41825000Y-33775000D02*
X40600000Y-32550000D01*
X43100000Y-33775000D02*
X41825000Y-33775000D01*
%TD*%
%TA.AperFunction,Conductor*%
%TO.N,GND*%
G36*
X102042788Y-1520002D02*
G01*
X102089281Y-1573658D01*
X102100665Y-1625331D01*
X102113668Y-4076445D01*
X102175426Y-15717864D01*
X102155786Y-15786089D01*
X102102378Y-15832866D01*
X102032158Y-15843343D01*
X101965830Y-15812805D01*
X100000512Y-14069976D01*
X98113555Y-12396637D01*
X98113554Y-12396636D01*
X98100000Y-12384617D01*
X97787441Y-12383247D01*
X89713472Y-12347869D01*
X89645439Y-12327568D01*
X89599182Y-12273710D01*
X89588024Y-12221706D01*
X89589528Y-11063555D01*
X89594065Y-7570000D01*
X92236685Y-7570000D01*
X92255931Y-7937241D01*
X92313459Y-8300459D01*
X92408639Y-8655674D01*
X92540427Y-8998994D01*
X92707380Y-9326657D01*
X92709176Y-9329423D01*
X92709178Y-9329426D01*
X92905791Y-9632184D01*
X92926117Y-9700208D01*
X92918100Y-9745037D01*
X92891233Y-9816706D01*
X92880439Y-9961963D01*
X92910846Y-10104412D01*
X92915106Y-10112307D01*
X92915107Y-10112310D01*
X92973533Y-10220590D01*
X92980013Y-10232600D01*
X93030647Y-10283856D01*
X93076071Y-10329839D01*
X93076073Y-10329841D01*
X93082378Y-10336223D01*
X93090221Y-10340579D01*
X93090223Y-10340581D01*
X93200619Y-10401900D01*
X93209711Y-10406950D01*
X93266223Y-10419737D01*
X93343022Y-10437115D01*
X93343024Y-10437115D01*
X93351778Y-10439096D01*
X93404222Y-10435842D01*
X93488197Y-10430633D01*
X93488199Y-10430633D01*
X93497155Y-10430077D01*
X93576506Y-10401431D01*
X93647370Y-10397114D01*
X93687914Y-10414273D01*
X93990568Y-10610819D01*
X93990574Y-10610823D01*
X93993342Y-10612620D01*
X93996276Y-10614115D01*
X93996283Y-10614119D01*
X94318066Y-10778075D01*
X94321006Y-10779573D01*
X94664326Y-10911361D01*
X95019541Y-11006541D01*
X95212558Y-11037112D01*
X95379511Y-11063555D01*
X95379519Y-11063556D01*
X95382759Y-11064069D01*
X95750000Y-11083315D01*
X96117241Y-11064069D01*
X96120481Y-11063556D01*
X96120489Y-11063555D01*
X96287442Y-11037112D01*
X96480459Y-11006541D01*
X96835674Y-10911361D01*
X97178994Y-10779573D01*
X97181934Y-10778075D01*
X97503717Y-10614119D01*
X97503724Y-10614115D01*
X97506658Y-10612620D01*
X97509426Y-10610823D01*
X97509432Y-10610819D01*
X97812183Y-10414210D01*
X97880208Y-10393883D01*
X97925037Y-10401900D01*
X97958043Y-10414273D01*
X97996706Y-10428767D01*
X98005652Y-10429432D01*
X98005653Y-10429432D01*
X98090050Y-10435703D01*
X98141963Y-10439561D01*
X98150737Y-10437688D01*
X98150739Y-10437688D01*
X98275635Y-10411028D01*
X98275638Y-10411027D01*
X98284412Y-10409154D01*
X98292307Y-10404894D01*
X98292310Y-10404893D01*
X98404703Y-10344248D01*
X98412600Y-10339987D01*
X98463856Y-10289353D01*
X98509839Y-10243929D01*
X98509841Y-10243927D01*
X98516223Y-10237622D01*
X98520579Y-10229779D01*
X98520581Y-10229777D01*
X98582590Y-10118139D01*
X98582591Y-10118137D01*
X98586950Y-10110289D01*
X98619096Y-9968222D01*
X98610077Y-9822845D01*
X98581431Y-9743494D01*
X98577114Y-9672630D01*
X98594272Y-9632087D01*
X98790822Y-9329426D01*
X98790824Y-9329423D01*
X98792620Y-9326657D01*
X98959573Y-8998994D01*
X99091361Y-8655674D01*
X99186541Y-8300459D01*
X99244069Y-7937241D01*
X99263315Y-7570000D01*
X99244069Y-7202759D01*
X99186541Y-6839541D01*
X99091361Y-6484326D01*
X98959573Y-6141006D01*
X98792620Y-5813343D01*
X98594209Y-5507815D01*
X98573883Y-5439792D01*
X98581900Y-5394963D01*
X98605617Y-5331697D01*
X98605617Y-5331696D01*
X98608767Y-5323294D01*
X98619561Y-5178037D01*
X98589154Y-5035588D01*
X98584894Y-5027693D01*
X98584893Y-5027690D01*
X98524248Y-4915297D01*
X98519987Y-4907400D01*
X98469353Y-4856144D01*
X98423929Y-4810161D01*
X98423927Y-4810159D01*
X98417622Y-4803777D01*
X98409779Y-4799421D01*
X98409777Y-4799419D01*
X98298139Y-4737410D01*
X98298137Y-4737409D01*
X98290289Y-4733050D01*
X98233777Y-4720263D01*
X98156978Y-4702885D01*
X98156976Y-4702885D01*
X98148222Y-4700904D01*
X98095778Y-4704158D01*
X98011803Y-4709367D01*
X98011801Y-4709367D01*
X98002845Y-4709923D01*
X97923494Y-4738569D01*
X97852630Y-4742886D01*
X97812086Y-4725727D01*
X97509432Y-4529181D01*
X97509426Y-4529177D01*
X97506658Y-4527380D01*
X97503724Y-4525885D01*
X97503717Y-4525881D01*
X97181934Y-4361925D01*
X97178994Y-4360427D01*
X96835674Y-4228639D01*
X96480459Y-4133459D01*
X96287442Y-4102888D01*
X96120489Y-4076445D01*
X96120481Y-4076444D01*
X96117241Y-4075931D01*
X95750000Y-4056685D01*
X95382759Y-4075931D01*
X95379519Y-4076444D01*
X95379511Y-4076445D01*
X95212558Y-4102888D01*
X95019541Y-4133459D01*
X94664326Y-4228639D01*
X94321006Y-4360427D01*
X94318066Y-4361925D01*
X93996284Y-4525881D01*
X93996277Y-4525885D01*
X93993343Y-4527380D01*
X93990577Y-4529176D01*
X93990574Y-4529178D01*
X93893925Y-4591942D01*
X93687815Y-4725791D01*
X93619792Y-4746117D01*
X93574963Y-4738100D01*
X93511697Y-4714383D01*
X93511696Y-4714383D01*
X93503294Y-4711233D01*
X93494348Y-4710568D01*
X93494347Y-4710568D01*
X93383242Y-4702312D01*
X93358037Y-4700439D01*
X93349263Y-4702312D01*
X93349261Y-4702312D01*
X93224365Y-4728972D01*
X93224362Y-4728973D01*
X93215588Y-4730846D01*
X93207693Y-4735106D01*
X93207690Y-4735107D01*
X93099410Y-4793533D01*
X93087400Y-4800013D01*
X93036144Y-4850647D01*
X92990161Y-4896071D01*
X92990159Y-4896073D01*
X92983777Y-4902378D01*
X92979421Y-4910221D01*
X92979419Y-4910223D01*
X92976601Y-4915297D01*
X92913050Y-5029711D01*
X92880904Y-5171778D01*
X92889923Y-5317155D01*
X92892970Y-5325595D01*
X92918569Y-5396505D01*
X92922886Y-5467370D01*
X92905729Y-5507911D01*
X92707380Y-5813343D01*
X92540427Y-6141006D01*
X92408639Y-6484326D01*
X92313459Y-6839541D01*
X92255931Y-7202759D01*
X92236685Y-7570000D01*
X89594065Y-7570000D01*
X89599932Y-3052093D01*
X89620023Y-2984000D01*
X89636837Y-2963163D01*
X91063095Y-1536905D01*
X91125407Y-1502879D01*
X91152190Y-1500000D01*
X101974667Y-1500000D01*
X102042788Y-1520002D01*
G37*
%TD.AperFunction*%
%TD*%
%TA.AperFunction,Conductor*%
%TO.N,GND*%
G36*
X76758199Y-27520002D02*
G01*
X76804692Y-27573658D01*
X76811785Y-27593389D01*
X76864764Y-27791110D01*
X76868510Y-27801402D01*
X76960586Y-27998860D01*
X76966069Y-28008355D01*
X77002509Y-28060397D01*
X77012988Y-28068773D01*
X77026434Y-28061705D01*
X77588139Y-27500000D01*
X78611861Y-27500000D01*
X79174287Y-28062426D01*
X79186062Y-28068856D01*
X79198077Y-28059560D01*
X79233931Y-28008355D01*
X79239414Y-27998860D01*
X79331490Y-27801402D01*
X79335236Y-27791110D01*
X79388215Y-27593389D01*
X79425167Y-27532766D01*
X79489027Y-27501745D01*
X79509922Y-27500000D01*
X92474000Y-27500000D01*
X92542121Y-27520002D01*
X92588614Y-27573658D01*
X92600000Y-27626000D01*
X92600000Y-38874000D01*
X92579998Y-38942121D01*
X92526342Y-38988614D01*
X92474000Y-39000000D01*
X74226000Y-39000000D01*
X74157879Y-38979998D01*
X74111386Y-38926342D01*
X74100000Y-38874000D01*
X74100000Y-34530000D01*
X80986685Y-34530000D01*
X81005931Y-34897241D01*
X81063459Y-35260459D01*
X81158639Y-35615674D01*
X81290427Y-35958994D01*
X81457380Y-36286657D01*
X81657668Y-36595075D01*
X81889098Y-36880867D01*
X82149133Y-37140902D01*
X82434925Y-37372332D01*
X82743342Y-37572620D01*
X82746276Y-37574115D01*
X82746283Y-37574119D01*
X83068066Y-37738075D01*
X83071006Y-37739573D01*
X83414326Y-37871361D01*
X83769541Y-37966541D01*
X83962558Y-37997112D01*
X84129511Y-38023555D01*
X84129519Y-38023556D01*
X84132759Y-38024069D01*
X84500000Y-38043315D01*
X84867241Y-38024069D01*
X84870481Y-38023556D01*
X84870489Y-38023555D01*
X85037442Y-37997112D01*
X85230459Y-37966541D01*
X85585674Y-37871361D01*
X85928994Y-37739573D01*
X85931934Y-37738075D01*
X86253717Y-37574119D01*
X86253724Y-37574115D01*
X86256658Y-37572620D01*
X86565075Y-37372332D01*
X86850867Y-37140902D01*
X87110902Y-36880867D01*
X87342332Y-36595075D01*
X87542620Y-36286657D01*
X87709573Y-35958994D01*
X87841361Y-35615674D01*
X87936541Y-35260459D01*
X87994069Y-34897241D01*
X88013315Y-34530000D01*
X87994069Y-34162759D01*
X87936541Y-33799541D01*
X87841361Y-33444326D01*
X87709573Y-33101006D01*
X87542620Y-32773343D01*
X87342332Y-32464925D01*
X87110902Y-32179133D01*
X86850867Y-31919098D01*
X86565075Y-31687668D01*
X86256658Y-31487380D01*
X86253724Y-31485885D01*
X86253717Y-31485881D01*
X85931934Y-31321925D01*
X85928994Y-31320427D01*
X85585674Y-31188639D01*
X85230459Y-31093459D01*
X85037442Y-31062888D01*
X84870489Y-31036445D01*
X84870481Y-31036444D01*
X84867241Y-31035931D01*
X84500000Y-31016685D01*
X84132759Y-31035931D01*
X84129519Y-31036444D01*
X84129511Y-31036445D01*
X83962558Y-31062888D01*
X83769541Y-31093459D01*
X83414326Y-31188639D01*
X83071006Y-31320427D01*
X83068066Y-31321925D01*
X82746284Y-31485881D01*
X82746277Y-31485885D01*
X82743343Y-31487380D01*
X82434925Y-31687668D01*
X82149133Y-31919098D01*
X81889098Y-32179133D01*
X81657668Y-32464925D01*
X81457380Y-32773343D01*
X81290427Y-33101006D01*
X81158639Y-33444326D01*
X81063459Y-33799541D01*
X81005931Y-34162759D01*
X80986685Y-34530000D01*
X74100000Y-34530000D01*
X74100000Y-28433411D01*
X77378493Y-28433411D01*
X77387789Y-28445426D01*
X77438994Y-28481280D01*
X77448489Y-28486763D01*
X77645947Y-28578839D01*
X77656239Y-28582585D01*
X77866688Y-28638974D01*
X77877481Y-28640877D01*
X78094525Y-28659866D01*
X78105475Y-28659866D01*
X78322519Y-28640877D01*
X78333312Y-28638974D01*
X78543761Y-28582585D01*
X78554053Y-28578839D01*
X78751511Y-28486763D01*
X78761006Y-28481280D01*
X78813048Y-28444840D01*
X78821424Y-28434361D01*
X78814356Y-28420915D01*
X78112812Y-27719371D01*
X78098868Y-27711757D01*
X78097035Y-27711888D01*
X78090420Y-27716139D01*
X77384923Y-28421636D01*
X77378493Y-28433411D01*
X74100000Y-28433411D01*
X74100000Y-27626000D01*
X74120002Y-27557879D01*
X74173658Y-27511386D01*
X74226000Y-27500000D01*
X76690078Y-27500000D01*
X76758199Y-27520002D01*
G37*
%TD.AperFunction*%
%TD*%
M02*
