M48
; DRILL file {KiCad 6.0.4-6f826c9f35~116~ubuntu20.04.1} date vie 01 abr 2022 16:54:49
; FORMAT={-:-/ absolute / inch / decimal}
; #@! TF.CreationDate,2022-04-01T16:54:49+02:00
; #@! TF.GenerationSoftware,Kicad,Pcbnew,6.0.4-6f826c9f35~116~ubuntu20.04.1
; #@! TF.FileFunction,MixedPlating,1,2
FMAT,2
INCH
; #@! TA.AperFunction,Plated,PTH,ViaDrill
T1C0.0157
; #@! TA.AperFunction,Plated,PTH,ViaDrill
T2C0.0299
; #@! TA.AperFunction,Plated,PTH,ComponentDrill
T3C0.0315
; #@! TA.AperFunction,Plated,PTH,ComponentDrill
T4C0.0335
; #@! TA.AperFunction,Plated,PTH,ComponentDrill
T5C0.0354
; #@! TA.AperFunction,Plated,PTH,ComponentDrill
T6C0.0394
; #@! TA.AperFunction,Plated,PTH,ComponentDrill
T7C0.0400
; #@! TA.AperFunction,Plated,PTH,ComponentDrill
T8C0.0472
; #@! TA.AperFunction,Plated,PTH,ViaDrill
T9C0.1614
; #@! TA.AperFunction,NonPlated,NPTH,ComponentDrill
T10C0.0866
%
G90
G05
T1
X0.0Y-0.0803
X0.0Y-1.556
X0.0964Y0.0001
X3.7398Y-0.794
X3.7417Y-1.5556
X4.0947Y0.0007
X4.0958Y-0.7935
T2
X0.3976Y-0.4724
X0.9882Y-0.4724
X1.0276Y-1.4173
X1.2244Y-1.4764
X1.4409Y-1.4764
X1.5984Y-1.4173
X1.815Y-0.6693
X1.8215Y-0.9581
X2.0399Y-0.6581
X2.248Y-1.1024
X2.4252Y-1.4764
X2.6218Y-1.3581
X2.6238Y-0.9756
X2.8386Y-1.4567
X3.4488Y-0.1181
X3.4488Y-0.5709
T3
X3.0748Y-0.9389
X3.0748Y-1.0767
T4
X2.9664Y-0.1217
X3.1318Y-0.1217
X3.2971Y-0.1217
T5
X1.4803Y-0.2559
X1.4803Y-0.3559
T6
X0.3425Y-0.5867
X0.3425Y-0.6867
X0.3425Y-0.7867
X0.3425Y-0.8867
X0.3425Y-0.9867
X0.3425Y-1.0867
X0.3425Y-1.1867
X0.3425Y-1.2867
X1.2425Y-0.5867
X1.2425Y-0.6867
X1.2425Y-0.7867
X1.2425Y-0.8867
X1.2425Y-0.9867
X1.2425Y-1.0867
X1.2425Y-1.1867
X1.2425Y-1.2867
X1.4835Y-0.6392
X1.4835Y-0.7392
X1.4835Y-0.8392
X1.4835Y-0.9392
X1.4835Y-1.0392
X1.4835Y-1.1392
X1.4835Y-1.2392
X1.4835Y-1.3392
X1.6969Y-1.2297
X1.6969Y-1.3297
X1.7165Y-0.6465
X1.7165Y-0.7465
X1.7165Y-0.8465
X1.7165Y-0.9465
X2.7402Y-0.756
X2.7402Y-0.856
X2.7402Y-0.956
X2.7402Y-1.056
X2.7402Y-1.156
X2.7402Y-1.256
X2.7402Y-1.356
X3.0142Y-0.748
X3.1142Y-0.748
T7
X1.9147Y-0.2581
X1.9147Y-0.3581
X1.9147Y-0.4581
X1.9147Y-0.5581
X1.9147Y-0.6581
X1.9147Y-0.7581
X1.9147Y-0.8581
X1.9147Y-0.9581
X1.9147Y-1.0581
X1.9147Y-1.1581
X1.9147Y-1.2581
X1.9147Y-1.3581
X1.9647Y-0.1581
X2.0647Y-0.1581
X2.1647Y-0.1581
X2.2647Y-0.1581
X2.3647Y-0.1581
X2.3997Y-0.6031
X2.3997Y-0.7031
X2.3997Y-1.0131
X2.3997Y-1.1131
X2.4647Y-0.1581
X2.5147Y-0.2581
X2.5147Y-0.3581
X2.5147Y-0.4581
X2.5147Y-0.5581
X2.5147Y-0.6581
X2.5147Y-0.7581
X2.5147Y-0.8581
X2.5147Y-0.9581
X2.5147Y-1.0581
X2.5147Y-1.1581
X2.5147Y-1.2581
X2.5147Y-1.3581
T8
X0.6726Y-0.2953
X0.9726Y-0.2953
X3.4319Y-0.7987
X3.4319Y-0.9987
T9
X3.3268Y-1.3594
X3.7697Y-0.298
T10
X2.9664Y-0.5233
X3.1318Y-0.5233
X3.2971Y-0.5233
T0
M30
