%TF.GenerationSoftware,KiCad,Pcbnew,6.0.4-6f826c9f35~116~ubuntu20.04.1*%
%TF.CreationDate,2022-04-02T12:26:26+02:00*%
%TF.ProjectId,placaCANSAT_V3_GIRADA,706c6163-6143-4414-9e53-41545f56335f,rev?*%
%TF.SameCoordinates,Original*%
%TF.FileFunction,Soldermask,Top*%
%TF.FilePolarity,Negative*%
%FSLAX46Y46*%
G04 Gerber Fmt 4.6, Leading zero omitted, Abs format (unit mm)*
G04 Created by KiCad (PCBNEW 6.0.4-6f826c9f35~116~ubuntu20.04.1) date 2022-04-02 12:26:26*
%MOMM*%
%LPD*%
G01*
G04 APERTURE LIST*
G04 Aperture macros list*
%AMRoundRect*
0 Rectangle with rounded corners*
0 $1 Rounding radius*
0 $2 $3 $4 $5 $6 $7 $8 $9 X,Y pos of 4 corners*
0 Add a 4 corners polygon primitive as box body*
4,1,4,$2,$3,$4,$5,$6,$7,$8,$9,$2,$3,0*
0 Add four circle primitives for the rounded corners*
1,1,$1+$1,$2,$3*
1,1,$1+$1,$4,$5*
1,1,$1+$1,$6,$7*
1,1,$1+$1,$8,$9*
0 Add four rect primitives between the rounded corners*
20,1,$1+$1,$2,$3,$4,$5,0*
20,1,$1+$1,$4,$5,$6,$7,0*
20,1,$1+$1,$6,$7,$8,$9,0*
20,1,$1+$1,$8,$9,$2,$3,0*%
G04 Aperture macros list end*
%ADD10R,1.800000X1.800000*%
%ADD11C,1.800000*%
%ADD12R,1.700000X1.700000*%
%ADD13O,1.700000X1.700000*%
%ADD14O,1.422400X2.844800*%
%ADD15C,2.400000*%
%ADD16O,2.400000X2.400000*%
%ADD17R,1.600000X1.600000*%
%ADD18C,1.600000*%
%ADD19R,1.500000X3.000000*%
%ADD20C,1.879600*%
%ADD21C,2.200000*%
%ADD22RoundRect,0.250000X-0.675000X0.675000X-0.675000X-0.675000X0.675000X-0.675000X0.675000X0.675000X0*%
%ADD23C,1.850000*%
G04 APERTURE END LIST*
D10*
%TO.C,D1*%
X32997312Y-37568536D03*
D11*
X30457312Y-37568536D03*
%TD*%
D12*
%TO.C,JP1*%
X20497312Y-79068536D03*
D13*
X20497312Y-76528536D03*
%TD*%
D14*
%TO.C,U2*%
X6816333Y-31528711D03*
X9356333Y-31528711D03*
X11896333Y-31528711D03*
X14436333Y-31528711D03*
X16976333Y-31528711D03*
X19516333Y-31528711D03*
X22056333Y-31528711D03*
X24596333Y-31528711D03*
X24596333Y-8668711D03*
X22056333Y-8668711D03*
X19516333Y-8668711D03*
X16976333Y-8668711D03*
X14436333Y-8668711D03*
X11896333Y-8668711D03*
X9356333Y-8668711D03*
X6816333Y-8668711D03*
%TD*%
D15*
%TO.C,R1*%
X31997312Y-17053536D03*
D16*
X31997312Y-24673536D03*
%TD*%
D12*
%TO.C,J4*%
X5722312Y-43068536D03*
D13*
X8262312Y-43068536D03*
%TD*%
D17*
%TO.C,C1*%
X15649963Y-78068536D03*
D18*
X12149963Y-78068536D03*
%TD*%
D15*
%TO.C,SW1*%
X14130964Y-87138414D03*
D16*
X19210964Y-87138414D03*
%TD*%
D19*
%TO.C,BAT1*%
X25267312Y-96413536D03*
X22727312Y-99723536D03*
%TD*%
D12*
%TO.C,J2*%
X5054836Y-69568536D03*
D13*
X7594836Y-69568536D03*
X10134836Y-69568536D03*
X12674836Y-69568536D03*
X15214836Y-69568536D03*
X17754836Y-69568536D03*
X20294836Y-69568536D03*
%TD*%
D12*
%TO.C,ACELEROMETRO*%
X23262422Y-37649369D03*
D13*
X20722422Y-37649369D03*
X18182422Y-37649369D03*
X15642422Y-37649369D03*
X13102422Y-37649369D03*
X10562422Y-37649369D03*
X8022422Y-37649369D03*
X5482422Y-37649369D03*
%TD*%
D12*
%TO.C,GPS*%
X15457312Y-43568536D03*
D13*
X17997312Y-43568536D03*
X20537312Y-43568536D03*
X23077312Y-43568536D03*
%TD*%
D20*
%TO.C,Arduino pro Mini*%
X35482715Y-62572655D03*
X35482715Y-60032655D03*
X35482715Y-57492655D03*
X35482715Y-54952655D03*
X35482715Y-52412655D03*
X35482715Y-49872655D03*
X21639715Y-60921655D03*
X24179715Y-60921655D03*
X11225715Y-60921655D03*
X13765715Y-60921655D03*
X32942715Y-63842655D03*
X30402715Y-63842655D03*
X27862715Y-63842655D03*
X25322715Y-63842655D03*
X22782715Y-63842655D03*
X20242715Y-63842655D03*
X17702715Y-63842655D03*
X15162715Y-63842655D03*
X12622715Y-63842655D03*
X10082715Y-63842655D03*
X7542715Y-63842655D03*
X5002715Y-63842655D03*
X5002715Y-48602655D03*
X7542715Y-48602655D03*
X10082715Y-48602655D03*
X12622715Y-48602655D03*
X15162715Y-48602655D03*
X17702715Y-48602655D03*
X20242715Y-48602655D03*
X22782715Y-48602655D03*
X25322715Y-48602655D03*
X27862715Y-48602655D03*
X30402715Y-48602655D03*
X32942715Y-48602655D03*
%TD*%
D21*
%TO.C,Carg1*%
X26206146Y-75315160D03*
X26206146Y-83715160D03*
X26206146Y-79515160D03*
D22*
X36406146Y-75315160D03*
D23*
X36406146Y-79515160D03*
X36406146Y-83715160D03*
%TD*%
M02*
