%TF.GenerationSoftware,KiCad,Pcbnew,6.0.4-6f826c9f35~116~ubuntu20.04.1*%
%TF.CreationDate,2022-03-28T20:59:07+02:00*%
%TF.ProjectId,placaCANSAT_V2,706c6163-6143-4414-9e53-41545f56322e,rev?*%
%TF.SameCoordinates,Original*%
%TF.FileFunction,Legend,Top*%
%TF.FilePolarity,Positive*%
%FSLAX46Y46*%
G04 Gerber Fmt 4.6, Leading zero omitted, Abs format (unit mm)*
G04 Created by KiCad (PCBNEW 6.0.4-6f826c9f35~116~ubuntu20.04.1) date 2022-03-28 20:59:07*
%MOMM*%
%LPD*%
G01*
G04 APERTURE LIST*
%ADD10C,0.120000*%
%ADD11C,0.125000*%
%ADD12C,0.150000*%
%ADD13C,0.127000*%
G04 APERTURE END LIST*
D10*
G36*
X135000000Y-69500000D02*
G01*
X135000000Y-78000000D01*
X132500000Y-76000000D01*
X130500000Y-76000000D01*
X130500000Y-68000000D01*
X133500000Y-68000000D01*
X135000000Y-69500000D01*
G37*
X135000000Y-69500000D02*
X135000000Y-78000000D01*
X132500000Y-76000000D01*
X130500000Y-76000000D01*
X130500000Y-68000000D01*
X133500000Y-68000000D01*
X135000000Y-69500000D01*
G36*
X162000000Y-80000000D02*
G01*
X158500000Y-80000000D01*
X156000000Y-77000000D01*
X156000000Y-68000000D01*
X162000000Y-68000000D01*
X162000000Y-80000000D01*
G37*
X162000000Y-80000000D02*
X158500000Y-80000000D01*
X156000000Y-77000000D01*
X156000000Y-68000000D01*
X162000000Y-68000000D01*
X162000000Y-80000000D01*
D11*
X160380952Y-88726190D02*
X160380952Y-88226190D01*
X160666666Y-88726190D01*
X160666666Y-88226190D01*
X160880952Y-88702380D02*
X160952380Y-88726190D01*
X161071428Y-88726190D01*
X161119047Y-88702380D01*
X161142857Y-88678571D01*
X161166666Y-88630952D01*
X161166666Y-88583333D01*
X161142857Y-88535714D01*
X161119047Y-88511904D01*
X161071428Y-88488095D01*
X160976190Y-88464285D01*
X160928571Y-88440476D01*
X160904761Y-88416666D01*
X160880952Y-88369047D01*
X160880952Y-88321428D01*
X160904761Y-88273809D01*
X160928571Y-88250000D01*
X160976190Y-88226190D01*
X161095238Y-88226190D01*
X161166666Y-88250000D01*
X161357142Y-88702380D02*
X161428571Y-88726190D01*
X161547619Y-88726190D01*
X161595238Y-88702380D01*
X161619047Y-88678571D01*
X161642857Y-88630952D01*
X161642857Y-88583333D01*
X161619047Y-88535714D01*
X161595238Y-88511904D01*
X161547619Y-88488095D01*
X161452380Y-88464285D01*
X161404761Y-88440476D01*
X161380952Y-88416666D01*
X161357142Y-88369047D01*
X161357142Y-88321428D01*
X161380952Y-88273809D01*
X161404761Y-88250000D01*
X161452380Y-88226190D01*
X161571428Y-88226190D01*
X161642857Y-88250000D01*
X160214285Y-96226190D02*
X160214285Y-95726190D01*
X160380952Y-96083333D01*
X160547619Y-95726190D01*
X160547619Y-96226190D01*
X160880952Y-95726190D02*
X160976190Y-95726190D01*
X161023809Y-95750000D01*
X161071428Y-95797619D01*
X161095238Y-95892857D01*
X161095238Y-96059523D01*
X161071428Y-96154761D01*
X161023809Y-96202380D01*
X160976190Y-96226190D01*
X160880952Y-96226190D01*
X160833333Y-96202380D01*
X160785714Y-96154761D01*
X160761904Y-96059523D01*
X160761904Y-95892857D01*
X160785714Y-95797619D01*
X160833333Y-95750000D01*
X160880952Y-95726190D01*
X161285714Y-96202380D02*
X161357142Y-96226190D01*
X161476190Y-96226190D01*
X161523809Y-96202380D01*
X161547619Y-96178571D01*
X161571428Y-96130952D01*
X161571428Y-96083333D01*
X161547619Y-96035714D01*
X161523809Y-96011904D01*
X161476190Y-95988095D01*
X161380952Y-95964285D01*
X161333333Y-95940476D01*
X161309523Y-95916666D01*
X161285714Y-95869047D01*
X161285714Y-95821428D01*
X161309523Y-95773809D01*
X161333333Y-95750000D01*
X161380952Y-95726190D01*
X161500000Y-95726190D01*
X161571428Y-95750000D01*
X161785714Y-96226190D02*
X161785714Y-95726190D01*
X139023809Y-85750000D02*
X138976190Y-85726190D01*
X138904761Y-85726190D01*
X138833333Y-85750000D01*
X138785714Y-85797619D01*
X138761904Y-85845238D01*
X138738095Y-85940476D01*
X138738095Y-86011904D01*
X138761904Y-86107142D01*
X138785714Y-86154761D01*
X138833333Y-86202380D01*
X138904761Y-86226190D01*
X138952380Y-86226190D01*
X139023809Y-86202380D01*
X139047619Y-86178571D01*
X139047619Y-86011904D01*
X138952380Y-86011904D01*
X139261904Y-86226190D02*
X139261904Y-85726190D01*
X139452380Y-85726190D01*
X139500000Y-85750000D01*
X139523809Y-85773809D01*
X139547619Y-85821428D01*
X139547619Y-85892857D01*
X139523809Y-85940476D01*
X139500000Y-85964285D01*
X139452380Y-85988095D01*
X139261904Y-85988095D01*
X139738095Y-86202380D02*
X139809523Y-86226190D01*
X139928571Y-86226190D01*
X139976190Y-86202380D01*
X140000000Y-86178571D01*
X140023809Y-86130952D01*
X140023809Y-86083333D01*
X140000000Y-86035714D01*
X139976190Y-86011904D01*
X139928571Y-85988095D01*
X139833333Y-85964285D01*
X139785714Y-85940476D01*
X139761904Y-85916666D01*
X139738095Y-85869047D01*
X139738095Y-85821428D01*
X139761904Y-85773809D01*
X139785714Y-85750000D01*
X139833333Y-85726190D01*
X139952380Y-85726190D01*
X140023809Y-85750000D01*
X140119047Y-86273809D02*
X140500000Y-86273809D01*
X140547619Y-85726190D02*
X140833333Y-85726190D01*
X140690476Y-86226190D02*
X140690476Y-85726190D01*
X140952380Y-85726190D02*
X141285714Y-86226190D01*
X141285714Y-85726190D02*
X140952380Y-86226190D01*
X130869047Y-100202380D02*
X130940476Y-100226190D01*
X131059523Y-100226190D01*
X131107142Y-100202380D01*
X131130952Y-100178571D01*
X131154761Y-100130952D01*
X131154761Y-100083333D01*
X131130952Y-100035714D01*
X131107142Y-100011904D01*
X131059523Y-99988095D01*
X130964285Y-99964285D01*
X130916666Y-99940476D01*
X130892857Y-99916666D01*
X130869047Y-99869047D01*
X130869047Y-99821428D01*
X130892857Y-99773809D01*
X130916666Y-99750000D01*
X130964285Y-99726190D01*
X131083333Y-99726190D01*
X131154761Y-99750000D01*
X131369047Y-100226190D02*
X131369047Y-99726190D01*
X131488095Y-99726190D01*
X131559523Y-99750000D01*
X131607142Y-99797619D01*
X131630952Y-99845238D01*
X131654761Y-99940476D01*
X131654761Y-100011904D01*
X131630952Y-100107142D01*
X131607142Y-100154761D01*
X131559523Y-100202380D01*
X131488095Y-100226190D01*
X131369047Y-100226190D01*
X131845238Y-100083333D02*
X132083333Y-100083333D01*
X131797619Y-100226190D02*
X131964285Y-99726190D01*
X132130952Y-100226190D01*
X132178571Y-100273809D02*
X132559523Y-100273809D01*
X132654761Y-100083333D02*
X132892857Y-100083333D01*
X132607142Y-100226190D02*
X132773809Y-99726190D01*
X132940476Y-100226190D01*
X133392857Y-100178571D02*
X133369047Y-100202380D01*
X133297619Y-100226190D01*
X133250000Y-100226190D01*
X133178571Y-100202380D01*
X133130952Y-100154761D01*
X133107142Y-100107142D01*
X133083333Y-100011904D01*
X133083333Y-99940476D01*
X133107142Y-99845238D01*
X133130952Y-99797619D01*
X133178571Y-99750000D01*
X133250000Y-99726190D01*
X133297619Y-99726190D01*
X133369047Y-99750000D01*
X133392857Y-99773809D01*
X133607142Y-99964285D02*
X133773809Y-99964285D01*
X133845238Y-100226190D02*
X133607142Y-100226190D01*
X133607142Y-99726190D01*
X133845238Y-99726190D01*
X133940476Y-100273809D02*
X134321428Y-100273809D01*
X134416666Y-100083333D02*
X134654761Y-100083333D01*
X134369047Y-100226190D02*
X134535714Y-99726190D01*
X134702380Y-100226190D01*
X135083333Y-99892857D02*
X135083333Y-100226190D01*
X134964285Y-99702380D02*
X134845238Y-100059523D01*
X135154761Y-100059523D01*
D12*
X139452380Y-91357142D02*
X139404761Y-91404761D01*
X139261904Y-91452380D01*
X139166666Y-91452380D01*
X139023809Y-91404761D01*
X138928571Y-91309523D01*
X138880952Y-91214285D01*
X138833333Y-91023809D01*
X138833333Y-90880952D01*
X138880952Y-90690476D01*
X138928571Y-90595238D01*
X139023809Y-90500000D01*
X139166666Y-90452380D01*
X139261904Y-90452380D01*
X139404761Y-90500000D01*
X139452380Y-90547619D01*
X139833333Y-91166666D02*
X140309523Y-91166666D01*
X139738095Y-91452380D02*
X140071428Y-90452380D01*
X140404761Y-91452380D01*
X140738095Y-91452380D02*
X140738095Y-90452380D01*
X141071428Y-91166666D01*
X141404761Y-90452380D01*
X141404761Y-91452380D01*
X141833333Y-91166666D02*
X142309523Y-91166666D01*
X141738095Y-91452380D02*
X142071428Y-90452380D01*
X142404761Y-91452380D01*
X143309523Y-91452380D02*
X142976190Y-90976190D01*
X142738095Y-91452380D02*
X142738095Y-90452380D01*
X143119047Y-90452380D01*
X143214285Y-90500000D01*
X143261904Y-90547619D01*
X143309523Y-90642857D01*
X143309523Y-90785714D01*
X143261904Y-90880952D01*
X143214285Y-90928571D01*
X143119047Y-90976190D01*
X142738095Y-90976190D01*
X143690476Y-91166666D02*
X144166666Y-91166666D01*
X143595238Y-91452380D02*
X143928571Y-90452380D01*
X144261904Y-91452380D01*
D11*
X146250000Y-85823690D02*
X146250000Y-85323690D01*
X146369047Y-85323690D01*
X146440476Y-85347500D01*
X146488095Y-85395119D01*
X146511904Y-85442738D01*
X146535714Y-85537976D01*
X146535714Y-85609404D01*
X146511904Y-85704642D01*
X146488095Y-85752261D01*
X146440476Y-85799880D01*
X146369047Y-85823690D01*
X146250000Y-85823690D01*
X146750000Y-85823690D02*
X146750000Y-85323690D01*
X147083333Y-85323690D02*
X147178571Y-85323690D01*
X147226190Y-85347500D01*
X147273809Y-85395119D01*
X147297619Y-85490357D01*
X147297619Y-85657023D01*
X147273809Y-85752261D01*
X147226190Y-85799880D01*
X147178571Y-85823690D01*
X147083333Y-85823690D01*
X147035714Y-85799880D01*
X146988095Y-85752261D01*
X146964285Y-85657023D01*
X146964285Y-85490357D01*
X146988095Y-85395119D01*
X147035714Y-85347500D01*
X147083333Y-85323690D01*
X147607142Y-85323690D02*
X147654761Y-85323690D01*
X147702380Y-85347500D01*
X147726190Y-85371309D01*
X147750000Y-85418928D01*
X147773809Y-85514166D01*
X147773809Y-85633214D01*
X147750000Y-85728452D01*
X147726190Y-85776071D01*
X147702380Y-85799880D01*
X147654761Y-85823690D01*
X147607142Y-85823690D01*
X147559523Y-85799880D01*
X147535714Y-85776071D01*
X147511904Y-85728452D01*
X147488095Y-85633214D01*
X147488095Y-85514166D01*
X147511904Y-85418928D01*
X147535714Y-85371309D01*
X147559523Y-85347500D01*
X147607142Y-85323690D01*
X144916666Y-86128690D02*
X145202380Y-86128690D01*
X145059523Y-86628690D02*
X145059523Y-86128690D01*
X145369047Y-86366785D02*
X145535714Y-86366785D01*
X145607142Y-86628690D02*
X145369047Y-86628690D01*
X145369047Y-86128690D01*
X145607142Y-86128690D01*
X146059523Y-86628690D02*
X145821428Y-86628690D01*
X145821428Y-86128690D01*
X146226190Y-86366785D02*
X146392857Y-86366785D01*
X146464285Y-86628690D02*
X146226190Y-86628690D01*
X146226190Y-86128690D01*
X146464285Y-86128690D01*
X146678571Y-86628690D02*
X146678571Y-86128690D01*
X146845238Y-86485833D01*
X147011904Y-86128690D01*
X147011904Y-86628690D01*
X147250000Y-86366785D02*
X147416666Y-86366785D01*
X147488095Y-86628690D02*
X147250000Y-86628690D01*
X147250000Y-86128690D01*
X147488095Y-86128690D01*
X147630952Y-86128690D02*
X147916666Y-86128690D01*
X147773809Y-86628690D02*
X147773809Y-86128690D01*
X148369047Y-86628690D02*
X148202380Y-86390595D01*
X148083333Y-86628690D02*
X148083333Y-86128690D01*
X148273809Y-86128690D01*
X148321428Y-86152500D01*
X148345238Y-86176309D01*
X148369047Y-86223928D01*
X148369047Y-86295357D01*
X148345238Y-86342976D01*
X148321428Y-86366785D01*
X148273809Y-86390595D01*
X148083333Y-86390595D01*
X148583333Y-86628690D02*
X148583333Y-86128690D01*
X148797619Y-86485833D02*
X149035714Y-86485833D01*
X148750000Y-86628690D02*
X148916666Y-86128690D01*
X149083333Y-86628690D01*
D12*
X139857142Y-88952380D02*
X139380952Y-88952380D01*
X139380952Y-87952380D01*
X140190476Y-88428571D02*
X140523809Y-88428571D01*
X140666666Y-88952380D02*
X140190476Y-88952380D01*
X140190476Y-87952380D01*
X140666666Y-87952380D01*
X141095238Y-88952380D02*
X141095238Y-87952380D01*
X141333333Y-87952380D01*
X141476190Y-88000000D01*
X141571428Y-88095238D01*
X141619047Y-88190476D01*
X141666666Y-88380952D01*
X141666666Y-88523809D01*
X141619047Y-88714285D01*
X141571428Y-88809523D01*
X141476190Y-88904761D01*
X141333333Y-88952380D01*
X141095238Y-88952380D01*
D11*
X129880952Y-93202380D02*
X129952380Y-93226190D01*
X130071428Y-93226190D01*
X130119047Y-93202380D01*
X130142857Y-93178571D01*
X130166666Y-93130952D01*
X130166666Y-93083333D01*
X130142857Y-93035714D01*
X130119047Y-93011904D01*
X130071428Y-92988095D01*
X129976190Y-92964285D01*
X129928571Y-92940476D01*
X129904761Y-92916666D01*
X129880952Y-92869047D01*
X129880952Y-92821428D01*
X129904761Y-92773809D01*
X129928571Y-92750000D01*
X129976190Y-92726190D01*
X130095238Y-92726190D01*
X130166666Y-92750000D01*
X130666666Y-93178571D02*
X130642857Y-93202380D01*
X130571428Y-93226190D01*
X130523809Y-93226190D01*
X130452380Y-93202380D01*
X130404761Y-93154761D01*
X130380952Y-93107142D01*
X130357142Y-93011904D01*
X130357142Y-92940476D01*
X130380952Y-92845238D01*
X130404761Y-92797619D01*
X130452380Y-92750000D01*
X130523809Y-92726190D01*
X130571428Y-92726190D01*
X130642857Y-92750000D01*
X130666666Y-92773809D01*
X131119047Y-93226190D02*
X130880952Y-93226190D01*
X130880952Y-92726190D01*
X131166666Y-93273809D02*
X131547619Y-93273809D01*
X131642857Y-93083333D02*
X131880952Y-93083333D01*
X131595238Y-93226190D02*
X131761904Y-92726190D01*
X131928571Y-93226190D01*
X132380952Y-93178571D02*
X132357142Y-93202380D01*
X132285714Y-93226190D01*
X132238095Y-93226190D01*
X132166666Y-93202380D01*
X132119047Y-93154761D01*
X132095238Y-93107142D01*
X132071428Y-93011904D01*
X132071428Y-92940476D01*
X132095238Y-92845238D01*
X132119047Y-92797619D01*
X132166666Y-92750000D01*
X132238095Y-92726190D01*
X132285714Y-92726190D01*
X132357142Y-92750000D01*
X132380952Y-92773809D01*
X132595238Y-92964285D02*
X132761904Y-92964285D01*
X132833333Y-93226190D02*
X132595238Y-93226190D01*
X132595238Y-92726190D01*
X132833333Y-92726190D01*
X132928571Y-93273809D02*
X133309523Y-93273809D01*
X133404761Y-93083333D02*
X133642857Y-93083333D01*
X133357142Y-93226190D02*
X133523809Y-92726190D01*
X133690476Y-93226190D01*
X134095238Y-92726190D02*
X133857142Y-92726190D01*
X133833333Y-92964285D01*
X133857142Y-92940476D01*
X133904761Y-92916666D01*
X134023809Y-92916666D01*
X134071428Y-92940476D01*
X134095238Y-92964285D01*
X134119047Y-93011904D01*
X134119047Y-93130952D01*
X134095238Y-93178571D01*
X134071428Y-93202380D01*
X134023809Y-93226190D01*
X133904761Y-93226190D01*
X133857142Y-93202380D01*
X133833333Y-93178571D01*
X140250000Y-79823690D02*
X140250000Y-79323690D01*
X140369047Y-79323690D01*
X140440476Y-79347500D01*
X140488095Y-79395119D01*
X140511904Y-79442738D01*
X140535714Y-79537976D01*
X140535714Y-79609404D01*
X140511904Y-79704642D01*
X140488095Y-79752261D01*
X140440476Y-79799880D01*
X140369047Y-79823690D01*
X140250000Y-79823690D01*
X140750000Y-79823690D02*
X140750000Y-79323690D01*
X141083333Y-79323690D02*
X141178571Y-79323690D01*
X141226190Y-79347500D01*
X141273809Y-79395119D01*
X141297619Y-79490357D01*
X141297619Y-79657023D01*
X141273809Y-79752261D01*
X141226190Y-79799880D01*
X141178571Y-79823690D01*
X141083333Y-79823690D01*
X141035714Y-79799880D01*
X140988095Y-79752261D01*
X140964285Y-79657023D01*
X140964285Y-79490357D01*
X140988095Y-79395119D01*
X141035714Y-79347500D01*
X141083333Y-79323690D01*
X141607142Y-79323690D02*
X141654761Y-79323690D01*
X141702380Y-79347500D01*
X141726190Y-79371309D01*
X141750000Y-79418928D01*
X141773809Y-79514166D01*
X141773809Y-79633214D01*
X141750000Y-79728452D01*
X141726190Y-79776071D01*
X141702380Y-79799880D01*
X141654761Y-79823690D01*
X141607142Y-79823690D01*
X141559523Y-79799880D01*
X141535714Y-79776071D01*
X141511904Y-79728452D01*
X141488095Y-79633214D01*
X141488095Y-79514166D01*
X141511904Y-79418928D01*
X141535714Y-79371309D01*
X141559523Y-79347500D01*
X141607142Y-79323690D01*
X138916666Y-80128690D02*
X139202380Y-80128690D01*
X139059523Y-80628690D02*
X139059523Y-80128690D01*
X139369047Y-80366785D02*
X139535714Y-80366785D01*
X139607142Y-80628690D02*
X139369047Y-80628690D01*
X139369047Y-80128690D01*
X139607142Y-80128690D01*
X140059523Y-80628690D02*
X139821428Y-80628690D01*
X139821428Y-80128690D01*
X140226190Y-80366785D02*
X140392857Y-80366785D01*
X140464285Y-80628690D02*
X140226190Y-80628690D01*
X140226190Y-80128690D01*
X140464285Y-80128690D01*
X140678571Y-80628690D02*
X140678571Y-80128690D01*
X140845238Y-80485833D01*
X141011904Y-80128690D01*
X141011904Y-80628690D01*
X141250000Y-80366785D02*
X141416666Y-80366785D01*
X141488095Y-80628690D02*
X141250000Y-80628690D01*
X141250000Y-80128690D01*
X141488095Y-80128690D01*
X141630952Y-80128690D02*
X141916666Y-80128690D01*
X141773809Y-80628690D02*
X141773809Y-80128690D01*
X142369047Y-80628690D02*
X142202380Y-80390595D01*
X142083333Y-80628690D02*
X142083333Y-80128690D01*
X142273809Y-80128690D01*
X142321428Y-80152500D01*
X142345238Y-80176309D01*
X142369047Y-80223928D01*
X142369047Y-80295357D01*
X142345238Y-80342976D01*
X142321428Y-80366785D01*
X142273809Y-80390595D01*
X142083333Y-80390595D01*
X142583333Y-80628690D02*
X142583333Y-80128690D01*
X142797619Y-80485833D02*
X143035714Y-80485833D01*
X142750000Y-80628690D02*
X142916666Y-80128690D01*
X143083333Y-80628690D01*
X160214285Y-93726190D02*
X160214285Y-93226190D01*
X160380952Y-93583333D01*
X160547619Y-93226190D01*
X160547619Y-93726190D01*
X160785714Y-93726190D02*
X160785714Y-93226190D01*
X161000000Y-93702380D02*
X161071428Y-93726190D01*
X161190476Y-93726190D01*
X161238095Y-93702380D01*
X161261904Y-93678571D01*
X161285714Y-93630952D01*
X161285714Y-93583333D01*
X161261904Y-93535714D01*
X161238095Y-93511904D01*
X161190476Y-93488095D01*
X161095238Y-93464285D01*
X161047619Y-93440476D01*
X161023809Y-93416666D01*
X161000000Y-93369047D01*
X161000000Y-93321428D01*
X161023809Y-93273809D01*
X161047619Y-93250000D01*
X161095238Y-93226190D01*
X161214285Y-93226190D01*
X161285714Y-93250000D01*
X161595238Y-93226190D02*
X161690476Y-93226190D01*
X161738095Y-93250000D01*
X161785714Y-93297619D01*
X161809523Y-93392857D01*
X161809523Y-93559523D01*
X161785714Y-93654761D01*
X161738095Y-93702380D01*
X161690476Y-93726190D01*
X161595238Y-93726190D01*
X161547619Y-93702380D01*
X161500000Y-93654761D01*
X161476190Y-93559523D01*
X161476190Y-93392857D01*
X161500000Y-93297619D01*
X161547619Y-93250000D01*
X161595238Y-93226190D01*
X100571428Y-82822670D02*
X100523809Y-82870289D01*
X100380952Y-82917908D01*
X100285714Y-82917908D01*
X100142857Y-82870289D01*
X100047619Y-82775051D01*
X100000000Y-82679813D01*
X99952380Y-82489337D01*
X99952380Y-82346480D01*
X100000000Y-82156004D01*
X100047619Y-82060766D01*
X100142857Y-81965528D01*
X100285714Y-81917908D01*
X100380952Y-81917908D01*
X100523809Y-81965528D01*
X100571428Y-82013147D01*
X100952380Y-82632194D02*
X101428571Y-82632194D01*
X100857142Y-82917908D02*
X101190476Y-81917908D01*
X101523809Y-82917908D01*
X101857142Y-82917908D02*
X101857142Y-81917908D01*
X102190476Y-82632194D01*
X102523809Y-81917908D01*
X102523809Y-82917908D01*
X102952380Y-82632194D02*
X103428571Y-82632194D01*
X102857142Y-82917908D02*
X103190476Y-81917908D01*
X103523809Y-82917908D01*
X104428571Y-82917908D02*
X104095238Y-82441718D01*
X103857142Y-82917908D02*
X103857142Y-81917908D01*
X104238095Y-81917908D01*
X104333333Y-81965528D01*
X104380952Y-82013147D01*
X104428571Y-82108385D01*
X104428571Y-82251242D01*
X104380952Y-82346480D01*
X104333333Y-82394099D01*
X104238095Y-82441718D01*
X103857142Y-82441718D01*
X104809523Y-82632194D02*
X105285714Y-82632194D01*
X104714285Y-82917908D02*
X105047619Y-81917908D01*
X105380952Y-82917908D01*
X105476190Y-83013147D02*
X106238095Y-83013147D01*
X106428571Y-82870289D02*
X106571428Y-82917908D01*
X106809523Y-82917908D01*
X106904761Y-82870289D01*
X106952380Y-82822670D01*
X107000000Y-82727432D01*
X107000000Y-82632194D01*
X106952380Y-82536956D01*
X106904761Y-82489337D01*
X106809523Y-82441718D01*
X106619047Y-82394099D01*
X106523809Y-82346480D01*
X106476190Y-82298861D01*
X106428571Y-82203623D01*
X106428571Y-82108385D01*
X106476190Y-82013147D01*
X106523809Y-81965528D01*
X106619047Y-81917908D01*
X106857142Y-81917908D01*
X107000000Y-81965528D01*
X107428571Y-82394099D02*
X107761904Y-82394099D01*
X107904761Y-82917908D02*
X107428571Y-82917908D01*
X107428571Y-81917908D01*
X107904761Y-81917908D01*
X108904761Y-82917908D02*
X108571428Y-82441718D01*
X108333333Y-82917908D02*
X108333333Y-81917908D01*
X108714285Y-81917908D01*
X108809523Y-81965528D01*
X108857142Y-82013147D01*
X108904761Y-82108385D01*
X108904761Y-82251242D01*
X108857142Y-82346480D01*
X108809523Y-82394099D01*
X108714285Y-82441718D01*
X108333333Y-82441718D01*
X109333333Y-82917908D02*
X109333333Y-81917908D01*
X109761904Y-82632194D02*
X110238095Y-82632194D01*
X109666666Y-82917908D02*
X110000000Y-81917908D01*
X110333333Y-82917908D01*
X111142857Y-82917908D02*
X110666666Y-82917908D01*
X110666666Y-81917908D01*
X138964285Y-83250000D02*
X138916666Y-83226190D01*
X138845238Y-83226190D01*
X138773809Y-83250000D01*
X138726190Y-83297619D01*
X138702380Y-83345238D01*
X138678571Y-83440476D01*
X138678571Y-83511904D01*
X138702380Y-83607142D01*
X138726190Y-83654761D01*
X138773809Y-83702380D01*
X138845238Y-83726190D01*
X138892857Y-83726190D01*
X138964285Y-83702380D01*
X138988095Y-83678571D01*
X138988095Y-83511904D01*
X138892857Y-83511904D01*
X139202380Y-83726190D02*
X139202380Y-83226190D01*
X139392857Y-83226190D01*
X139440476Y-83250000D01*
X139464285Y-83273809D01*
X139488095Y-83321428D01*
X139488095Y-83392857D01*
X139464285Y-83440476D01*
X139440476Y-83464285D01*
X139392857Y-83488095D01*
X139202380Y-83488095D01*
X139678571Y-83702380D02*
X139750000Y-83726190D01*
X139869047Y-83726190D01*
X139916666Y-83702380D01*
X139940476Y-83678571D01*
X139964285Y-83630952D01*
X139964285Y-83583333D01*
X139940476Y-83535714D01*
X139916666Y-83511904D01*
X139869047Y-83488095D01*
X139773809Y-83464285D01*
X139726190Y-83440476D01*
X139702380Y-83416666D01*
X139678571Y-83369047D01*
X139678571Y-83321428D01*
X139702380Y-83273809D01*
X139726190Y-83250000D01*
X139773809Y-83226190D01*
X139892857Y-83226190D01*
X139964285Y-83250000D01*
X140059523Y-83773809D02*
X140440476Y-83773809D01*
X140845238Y-83726190D02*
X140678571Y-83488095D01*
X140559523Y-83726190D02*
X140559523Y-83226190D01*
X140750000Y-83226190D01*
X140797619Y-83250000D01*
X140821428Y-83273809D01*
X140845238Y-83321428D01*
X140845238Y-83392857D01*
X140821428Y-83440476D01*
X140797619Y-83464285D01*
X140750000Y-83488095D01*
X140559523Y-83488095D01*
X141011904Y-83226190D02*
X141345238Y-83726190D01*
X141345238Y-83226190D02*
X141011904Y-83726190D01*
X160357142Y-91202380D02*
X160428571Y-91226190D01*
X160547619Y-91226190D01*
X160595238Y-91202380D01*
X160619047Y-91178571D01*
X160642857Y-91130952D01*
X160642857Y-91083333D01*
X160619047Y-91035714D01*
X160595238Y-91011904D01*
X160547619Y-90988095D01*
X160452380Y-90964285D01*
X160404761Y-90940476D01*
X160380952Y-90916666D01*
X160357142Y-90869047D01*
X160357142Y-90821428D01*
X160380952Y-90773809D01*
X160404761Y-90750000D01*
X160452380Y-90726190D01*
X160571428Y-90726190D01*
X160642857Y-90750000D01*
X161142857Y-91178571D02*
X161119047Y-91202380D01*
X161047619Y-91226190D01*
X161000000Y-91226190D01*
X160928571Y-91202380D01*
X160880952Y-91154761D01*
X160857142Y-91107142D01*
X160833333Y-91011904D01*
X160833333Y-90940476D01*
X160857142Y-90845238D01*
X160880952Y-90797619D01*
X160928571Y-90750000D01*
X161000000Y-90726190D01*
X161047619Y-90726190D01*
X161119047Y-90750000D01*
X161142857Y-90773809D01*
X161357142Y-91226190D02*
X161357142Y-90726190D01*
X161642857Y-91226190D02*
X161428571Y-90940476D01*
X161642857Y-90726190D02*
X161357142Y-91011904D01*
D12*
%TO.C,D1*%
X127761904Y-75952380D02*
X127761904Y-74952380D01*
X128000000Y-74952380D01*
X128142857Y-75000000D01*
X128238095Y-75095238D01*
X128285714Y-75190476D01*
X128333333Y-75380952D01*
X128333333Y-75523809D01*
X128285714Y-75714285D01*
X128238095Y-75809523D01*
X128142857Y-75904761D01*
X128000000Y-75952380D01*
X127761904Y-75952380D01*
X129285714Y-75952380D02*
X128714285Y-75952380D01*
X129000000Y-75952380D02*
X129000000Y-74952380D01*
X128904761Y-75095238D01*
X128809523Y-75190476D01*
X128714285Y-75238095D01*
%TO.C,JP1*%
X170266654Y-81372321D02*
X170266654Y-82086607D01*
X170219035Y-82229464D01*
X170123797Y-82324702D01*
X169980940Y-82372321D01*
X169885702Y-82372321D01*
X170742845Y-82372321D02*
X170742845Y-81372321D01*
X171123797Y-81372321D01*
X171219035Y-81419941D01*
X171266654Y-81467560D01*
X171314273Y-81562798D01*
X171314273Y-81705655D01*
X171266654Y-81800893D01*
X171219035Y-81848512D01*
X171123797Y-81896131D01*
X170742845Y-81896131D01*
X172266654Y-82372321D02*
X171695226Y-82372321D01*
X171980940Y-82372321D02*
X171980940Y-81372321D01*
X171885702Y-81515179D01*
X171790464Y-81610417D01*
X171695226Y-81658036D01*
%TO.C,U2*%
X104738095Y-96952380D02*
X104738095Y-97761904D01*
X104785714Y-97857142D01*
X104833333Y-97904761D01*
X104928571Y-97952380D01*
X105119047Y-97952380D01*
X105214285Y-97904761D01*
X105261904Y-97857142D01*
X105309523Y-97761904D01*
X105309523Y-96952380D01*
X105738095Y-97047619D02*
X105785714Y-97000000D01*
X105880952Y-96952380D01*
X106119047Y-96952380D01*
X106214285Y-97000000D01*
X106261904Y-97047619D01*
X106309523Y-97142857D01*
X106309523Y-97238095D01*
X106261904Y-97380952D01*
X105690476Y-97952380D01*
X106309523Y-97952380D01*
X104987577Y-65327692D02*
X105320910Y-65327692D01*
X105463767Y-65851501D02*
X104987577Y-65851501D01*
X104987577Y-64851501D01*
X105463767Y-64851501D01*
X105844720Y-65803882D02*
X105987577Y-65851501D01*
X106225672Y-65851501D01*
X106320910Y-65803882D01*
X106368529Y-65756263D01*
X106416148Y-65661025D01*
X106416148Y-65565787D01*
X106368529Y-65470549D01*
X106320910Y-65422930D01*
X106225672Y-65375311D01*
X106035196Y-65327692D01*
X105939958Y-65280073D01*
X105892339Y-65232454D01*
X105844720Y-65137216D01*
X105844720Y-65041978D01*
X105892339Y-64946740D01*
X105939958Y-64899121D01*
X106035196Y-64851501D01*
X106273291Y-64851501D01*
X106416148Y-64899121D01*
X106844720Y-65851501D02*
X106844720Y-64851501D01*
X107225672Y-64851501D01*
X107320910Y-64899121D01*
X107368529Y-64946740D01*
X107416148Y-65041978D01*
X107416148Y-65184835D01*
X107368529Y-65280073D01*
X107320910Y-65327692D01*
X107225672Y-65375311D01*
X106844720Y-65375311D01*
X107749482Y-64851501D02*
X108368529Y-64851501D01*
X108035196Y-65232454D01*
X108178053Y-65232454D01*
X108273291Y-65280073D01*
X108320910Y-65327692D01*
X108368529Y-65422930D01*
X108368529Y-65661025D01*
X108320910Y-65756263D01*
X108273291Y-65803882D01*
X108178053Y-65851501D01*
X107892339Y-65851501D01*
X107797101Y-65803882D01*
X107749482Y-65756263D01*
X108749482Y-64946740D02*
X108797101Y-64899121D01*
X108892339Y-64851501D01*
X109130434Y-64851501D01*
X109225672Y-64899121D01*
X109273291Y-64946740D01*
X109320910Y-65041978D01*
X109320910Y-65137216D01*
X109273291Y-65280073D01*
X108701862Y-65851501D01*
X109320910Y-65851501D01*
X109749482Y-65470549D02*
X110511386Y-65470549D01*
X111559005Y-65756263D02*
X111511386Y-65803882D01*
X111368529Y-65851501D01*
X111273291Y-65851501D01*
X111130434Y-65803882D01*
X111035196Y-65708644D01*
X110987577Y-65613406D01*
X110939958Y-65422930D01*
X110939958Y-65280073D01*
X110987577Y-65089597D01*
X111035196Y-64994359D01*
X111130434Y-64899121D01*
X111273291Y-64851501D01*
X111368529Y-64851501D01*
X111511386Y-64899121D01*
X111559005Y-64946740D01*
X111939958Y-65565787D02*
X112416148Y-65565787D01*
X111844720Y-65851501D02*
X112178053Y-64851501D01*
X112511386Y-65851501D01*
X112844720Y-65851501D02*
X112844720Y-64851501D01*
X113178053Y-65565787D01*
X113511386Y-64851501D01*
X113511386Y-65851501D01*
%TO.C,R1*%
X109628333Y-68582380D02*
X109295000Y-68106190D01*
X109056904Y-68582380D02*
X109056904Y-67582380D01*
X109437857Y-67582380D01*
X109533095Y-67630000D01*
X109580714Y-67677619D01*
X109628333Y-67772857D01*
X109628333Y-67915714D01*
X109580714Y-68010952D01*
X109533095Y-68058571D01*
X109437857Y-68106190D01*
X109056904Y-68106190D01*
X110580714Y-68582380D02*
X110009285Y-68582380D01*
X110295000Y-68582380D02*
X110295000Y-67582380D01*
X110199761Y-67725238D01*
X110104523Y-67820476D01*
X110009285Y-67868095D01*
%TO.C,J4*%
X134166666Y-97892380D02*
X134166666Y-98606666D01*
X134119047Y-98749523D01*
X134023809Y-98844761D01*
X133880952Y-98892380D01*
X133785714Y-98892380D01*
X135071428Y-98225714D02*
X135071428Y-98892380D01*
X134833333Y-97844761D02*
X134595238Y-98559047D01*
X135214285Y-98559047D01*
%TO.C,C1*%
X169333333Y-88857142D02*
X169285714Y-88904761D01*
X169142857Y-88952380D01*
X169047619Y-88952380D01*
X168904761Y-88904761D01*
X168809523Y-88809523D01*
X168761904Y-88714285D01*
X168714285Y-88523809D01*
X168714285Y-88380952D01*
X168761904Y-88190476D01*
X168809523Y-88095238D01*
X168904761Y-88000000D01*
X169047619Y-87952380D01*
X169142857Y-87952380D01*
X169285714Y-88000000D01*
X169333333Y-88047619D01*
X170285714Y-88952380D02*
X169714285Y-88952380D01*
X170000000Y-88952380D02*
X170000000Y-87952380D01*
X169904761Y-88095238D01*
X169809523Y-88190476D01*
X169714285Y-88238095D01*
%TO.C,SW1*%
X176166666Y-87404761D02*
X176309523Y-87452380D01*
X176547619Y-87452380D01*
X176642857Y-87404761D01*
X176690476Y-87357142D01*
X176738095Y-87261904D01*
X176738095Y-87166666D01*
X176690476Y-87071428D01*
X176642857Y-87023809D01*
X176547619Y-86976190D01*
X176357142Y-86928571D01*
X176261904Y-86880952D01*
X176214285Y-86833333D01*
X176166666Y-86738095D01*
X176166666Y-86642857D01*
X176214285Y-86547619D01*
X176261904Y-86500000D01*
X176357142Y-86452380D01*
X176595238Y-86452380D01*
X176738095Y-86500000D01*
X177071428Y-86452380D02*
X177309523Y-87452380D01*
X177500000Y-86738095D01*
X177690476Y-87452380D01*
X177928571Y-86452380D01*
X178833333Y-87452380D02*
X178261904Y-87452380D01*
X178547619Y-87452380D02*
X178547619Y-86452380D01*
X178452380Y-86595238D01*
X178357142Y-86690476D01*
X178261904Y-86738095D01*
%TO.C,BAT1*%
X187780104Y-75279253D02*
X187922961Y-75326872D01*
X187970580Y-75374491D01*
X188018199Y-75469729D01*
X188018199Y-75612586D01*
X187970580Y-75707824D01*
X187922961Y-75755443D01*
X187827723Y-75803062D01*
X187446770Y-75803062D01*
X187446770Y-74803062D01*
X187780104Y-74803062D01*
X187875342Y-74850682D01*
X187922961Y-74898301D01*
X187970580Y-74993539D01*
X187970580Y-75088777D01*
X187922961Y-75184015D01*
X187875342Y-75231634D01*
X187780104Y-75279253D01*
X187446770Y-75279253D01*
X188399151Y-75517348D02*
X188875342Y-75517348D01*
X188303913Y-75803062D02*
X188637247Y-74803062D01*
X188970580Y-75803062D01*
X189161056Y-74803062D02*
X189732485Y-74803062D01*
X189446770Y-75803062D02*
X189446770Y-74803062D01*
X190589628Y-75803062D02*
X190018199Y-75803062D01*
X190303913Y-75803062D02*
X190303913Y-74803062D01*
X190208675Y-74945920D01*
X190113437Y-75041158D01*
X190018199Y-75088777D01*
%TO.C,J2*%
X158166666Y-100224856D02*
X158166666Y-100939142D01*
X158119047Y-101081999D01*
X158023809Y-101177237D01*
X157880952Y-101224856D01*
X157785714Y-101224856D01*
X158595238Y-100320095D02*
X158642857Y-100272476D01*
X158738095Y-100224856D01*
X158976190Y-100224856D01*
X159071428Y-100272476D01*
X159119047Y-100320095D01*
X159166666Y-100415333D01*
X159166666Y-100510571D01*
X159119047Y-100653428D01*
X158547619Y-101224856D01*
X159166666Y-101224856D01*
%TO.C,ACELEROMETRO*%
X124466688Y-98820150D02*
X124466688Y-98343959D01*
X124752402Y-98915388D02*
X123752402Y-98582054D01*
X124752402Y-98248721D01*
X124657164Y-97343959D02*
X124704783Y-97391578D01*
X124752402Y-97534435D01*
X124752402Y-97629673D01*
X124704783Y-97772530D01*
X124609545Y-97867769D01*
X124514307Y-97915388D01*
X124323831Y-97963007D01*
X124180974Y-97963007D01*
X123990498Y-97915388D01*
X123895260Y-97867769D01*
X123800022Y-97772530D01*
X123752402Y-97629673D01*
X123752402Y-97534435D01*
X123800022Y-97391578D01*
X123847641Y-97343959D01*
X124228593Y-96915388D02*
X124228593Y-96582054D01*
X124752402Y-96439197D02*
X124752402Y-96915388D01*
X123752402Y-96915388D01*
X123752402Y-96439197D01*
X124752402Y-95534435D02*
X124752402Y-96010626D01*
X123752402Y-96010626D01*
X124228593Y-95201102D02*
X124228593Y-94867769D01*
X124752402Y-94724911D02*
X124752402Y-95201102D01*
X123752402Y-95201102D01*
X123752402Y-94724911D01*
X124752402Y-93724911D02*
X124276212Y-94058245D01*
X124752402Y-94296340D02*
X123752402Y-94296340D01*
X123752402Y-93915388D01*
X123800022Y-93820150D01*
X123847641Y-93772530D01*
X123942879Y-93724911D01*
X124085736Y-93724911D01*
X124180974Y-93772530D01*
X124228593Y-93820150D01*
X124276212Y-93915388D01*
X124276212Y-94296340D01*
X123752402Y-93105864D02*
X123752402Y-92915388D01*
X123800022Y-92820150D01*
X123895260Y-92724911D01*
X124085736Y-92677292D01*
X124419069Y-92677292D01*
X124609545Y-92724911D01*
X124704783Y-92820150D01*
X124752402Y-92915388D01*
X124752402Y-93105864D01*
X124704783Y-93201102D01*
X124609545Y-93296340D01*
X124419069Y-93343959D01*
X124085736Y-93343959D01*
X123895260Y-93296340D01*
X123800022Y-93201102D01*
X123752402Y-93105864D01*
X124752402Y-92248721D02*
X123752402Y-92248721D01*
X124466688Y-91915388D01*
X123752402Y-91582054D01*
X124752402Y-91582054D01*
X124228593Y-91105864D02*
X124228593Y-90772530D01*
X124752402Y-90629673D02*
X124752402Y-91105864D01*
X123752402Y-91105864D01*
X123752402Y-90629673D01*
X123752402Y-90343959D02*
X123752402Y-89772530D01*
X124752402Y-90058245D02*
X123752402Y-90058245D01*
X124752402Y-88867769D02*
X124276212Y-89201102D01*
X124752402Y-89439197D02*
X123752402Y-89439197D01*
X123752402Y-89058245D01*
X123800022Y-88963007D01*
X123847641Y-88915388D01*
X123942879Y-88867769D01*
X124085736Y-88867769D01*
X124180974Y-88915388D01*
X124228593Y-88963007D01*
X124276212Y-89058245D01*
X124276212Y-89439197D01*
X123752402Y-88248721D02*
X123752402Y-88058245D01*
X123800022Y-87963007D01*
X123895260Y-87867769D01*
X124085736Y-87820150D01*
X124419069Y-87820150D01*
X124609545Y-87867769D01*
X124704783Y-87963007D01*
X124752402Y-88058245D01*
X124752402Y-88248721D01*
X124704783Y-88343959D01*
X124609545Y-88439197D01*
X124419069Y-88486816D01*
X124085736Y-88486816D01*
X123895260Y-88439197D01*
X123800022Y-88343959D01*
X123752402Y-88248721D01*
%TO.C,GPS*%
X131785714Y-89870000D02*
X131690476Y-89822380D01*
X131547619Y-89822380D01*
X131404761Y-89870000D01*
X131309523Y-89965238D01*
X131261904Y-90060476D01*
X131214285Y-90250952D01*
X131214285Y-90393809D01*
X131261904Y-90584285D01*
X131309523Y-90679523D01*
X131404761Y-90774761D01*
X131547619Y-90822380D01*
X131642857Y-90822380D01*
X131785714Y-90774761D01*
X131833333Y-90727142D01*
X131833333Y-90393809D01*
X131642857Y-90393809D01*
X132261904Y-90822380D02*
X132261904Y-89822380D01*
X132642857Y-89822380D01*
X132738095Y-89870000D01*
X132785714Y-89917619D01*
X132833333Y-90012857D01*
X132833333Y-90155714D01*
X132785714Y-90250952D01*
X132738095Y-90298571D01*
X132642857Y-90346190D01*
X132261904Y-90346190D01*
X133214285Y-90774761D02*
X133357142Y-90822380D01*
X133595238Y-90822380D01*
X133690476Y-90774761D01*
X133738095Y-90727142D01*
X133785714Y-90631904D01*
X133785714Y-90536666D01*
X133738095Y-90441428D01*
X133690476Y-90393809D01*
X133595238Y-90346190D01*
X133404761Y-90298571D01*
X133309523Y-90250952D01*
X133261904Y-90203333D01*
X133214285Y-90108095D01*
X133214285Y-90012857D01*
X133261904Y-89917619D01*
X133309523Y-89870000D01*
X133404761Y-89822380D01*
X133642857Y-89822380D01*
X133785714Y-89870000D01*
%TO.C,Arduino pro Mini*%
X139428571Y-65786263D02*
X139904761Y-65786263D01*
X139333333Y-66071977D02*
X139666666Y-65071977D01*
X140000000Y-66071977D01*
X140333333Y-66071977D02*
X140333333Y-65405311D01*
X140333333Y-65595787D02*
X140380952Y-65500549D01*
X140428571Y-65452930D01*
X140523809Y-65405311D01*
X140619047Y-65405311D01*
X141380952Y-66071977D02*
X141380952Y-65071977D01*
X141380952Y-66024358D02*
X141285714Y-66071977D01*
X141095238Y-66071977D01*
X141000000Y-66024358D01*
X140952380Y-65976739D01*
X140904761Y-65881501D01*
X140904761Y-65595787D01*
X140952380Y-65500549D01*
X141000000Y-65452930D01*
X141095238Y-65405311D01*
X141285714Y-65405311D01*
X141380952Y-65452930D01*
X142285714Y-65405311D02*
X142285714Y-66071977D01*
X141857142Y-65405311D02*
X141857142Y-65929120D01*
X141904761Y-66024358D01*
X142000000Y-66071977D01*
X142142857Y-66071977D01*
X142238095Y-66024358D01*
X142285714Y-65976739D01*
X142761904Y-66071977D02*
X142761904Y-65405311D01*
X142761904Y-65071977D02*
X142714285Y-65119597D01*
X142761904Y-65167216D01*
X142809523Y-65119597D01*
X142761904Y-65071977D01*
X142761904Y-65167216D01*
X143238095Y-65405311D02*
X143238095Y-66071977D01*
X143238095Y-65500549D02*
X143285714Y-65452930D01*
X143380952Y-65405311D01*
X143523809Y-65405311D01*
X143619047Y-65452930D01*
X143666666Y-65548168D01*
X143666666Y-66071977D01*
X144285714Y-66071977D02*
X144190476Y-66024358D01*
X144142857Y-65976739D01*
X144095238Y-65881501D01*
X144095238Y-65595787D01*
X144142857Y-65500549D01*
X144190476Y-65452930D01*
X144285714Y-65405311D01*
X144428571Y-65405311D01*
X144523809Y-65452930D01*
X144571428Y-65500549D01*
X144619047Y-65595787D01*
X144619047Y-65881501D01*
X144571428Y-65976739D01*
X144523809Y-66024358D01*
X144428571Y-66071977D01*
X144285714Y-66071977D01*
X145809523Y-65405311D02*
X145809523Y-66405311D01*
X145809523Y-65452930D02*
X145904761Y-65405311D01*
X146095238Y-65405311D01*
X146190476Y-65452930D01*
X146238095Y-65500549D01*
X146285714Y-65595787D01*
X146285714Y-65881501D01*
X146238095Y-65976739D01*
X146190476Y-66024358D01*
X146095238Y-66071977D01*
X145904761Y-66071977D01*
X145809523Y-66024358D01*
X146714285Y-66071977D02*
X146714285Y-65405311D01*
X146714285Y-65595787D02*
X146761904Y-65500549D01*
X146809523Y-65452930D01*
X146904761Y-65405311D01*
X147000000Y-65405311D01*
X147476190Y-66071977D02*
X147380952Y-66024358D01*
X147333333Y-65976739D01*
X147285714Y-65881501D01*
X147285714Y-65595787D01*
X147333333Y-65500549D01*
X147380952Y-65452930D01*
X147476190Y-65405311D01*
X147619047Y-65405311D01*
X147714285Y-65452930D01*
X147761904Y-65500549D01*
X147809523Y-65595787D01*
X147809523Y-65881501D01*
X147761904Y-65976739D01*
X147714285Y-66024358D01*
X147619047Y-66071977D01*
X147476190Y-66071977D01*
X149000000Y-66071977D02*
X149000000Y-65071977D01*
X149333333Y-65786263D01*
X149666666Y-65071977D01*
X149666666Y-66071977D01*
X150142857Y-66071977D02*
X150142857Y-65405311D01*
X150142857Y-65071977D02*
X150095238Y-65119597D01*
X150142857Y-65167216D01*
X150190476Y-65119597D01*
X150142857Y-65071977D01*
X150142857Y-65167216D01*
X150619047Y-65405311D02*
X150619047Y-66071977D01*
X150619047Y-65500549D02*
X150666666Y-65452930D01*
X150761904Y-65405311D01*
X150904761Y-65405311D01*
X150999999Y-65452930D01*
X151047619Y-65548168D01*
X151047619Y-66071977D01*
X151523809Y-66071977D02*
X151523809Y-65405311D01*
X151523809Y-65071977D02*
X151476190Y-65119597D01*
X151523809Y-65167216D01*
X151571428Y-65119597D01*
X151523809Y-65071977D01*
X151523809Y-65167216D01*
%TO.C,Carg1*%
X171192705Y-65329743D02*
X171145086Y-65377362D01*
X171002229Y-65424981D01*
X170906991Y-65424981D01*
X170764134Y-65377362D01*
X170668896Y-65282124D01*
X170621277Y-65186886D01*
X170573658Y-64996410D01*
X170573658Y-64853553D01*
X170621277Y-64663077D01*
X170668896Y-64567839D01*
X170764134Y-64472601D01*
X170906991Y-64424981D01*
X171002229Y-64424981D01*
X171145086Y-64472601D01*
X171192705Y-64520220D01*
X172049848Y-65424981D02*
X172049848Y-64901172D01*
X172002229Y-64805934D01*
X171906991Y-64758315D01*
X171716515Y-64758315D01*
X171621277Y-64805934D01*
X172049848Y-65377362D02*
X171954610Y-65424981D01*
X171716515Y-65424981D01*
X171621277Y-65377362D01*
X171573658Y-65282124D01*
X171573658Y-65186886D01*
X171621277Y-65091648D01*
X171716515Y-65044029D01*
X171954610Y-65044029D01*
X172049848Y-64996410D01*
X172526038Y-65424981D02*
X172526038Y-64758315D01*
X172526038Y-64948791D02*
X172573658Y-64853553D01*
X172621277Y-64805934D01*
X172716515Y-64758315D01*
X172811753Y-64758315D01*
X173573658Y-64758315D02*
X173573658Y-65567839D01*
X173526038Y-65663077D01*
X173478419Y-65710696D01*
X173383181Y-65758315D01*
X173240324Y-65758315D01*
X173145086Y-65710696D01*
X173573658Y-65377362D02*
X173478419Y-65424981D01*
X173287943Y-65424981D01*
X173192705Y-65377362D01*
X173145086Y-65329743D01*
X173097467Y-65234505D01*
X173097467Y-64948791D01*
X173145086Y-64853553D01*
X173192705Y-64805934D01*
X173287943Y-64758315D01*
X173478419Y-64758315D01*
X173573658Y-64805934D01*
X174573658Y-65424981D02*
X174002229Y-65424981D01*
X174287943Y-65424981D02*
X174287943Y-64424981D01*
X174192705Y-64567839D01*
X174097467Y-64663077D01*
X174002229Y-64710696D01*
D10*
%TO.C,D1*%
X128045000Y-69210000D02*
X124955000Y-69210000D01*
X126499538Y-74760000D02*
G75*
G03*
X128044830Y-69210000I462J2990000D01*
G01*
X124955170Y-69210000D02*
G75*
G03*
X126500462Y-74760000I1544830J-2560000D01*
G01*
X129000000Y-71770000D02*
G75*
G03*
X129000000Y-71770000I-2500000J0D01*
G01*
%TO.C,JP1*%
X166730000Y-84330000D02*
X164130000Y-84330000D01*
X168000000Y-81670000D02*
X169330000Y-81670000D01*
X166730000Y-81670000D02*
X166730000Y-84330000D01*
X169330000Y-81670000D02*
X169330000Y-83000000D01*
X166730000Y-81670000D02*
X164130000Y-81670000D01*
X164130000Y-81670000D02*
X164130000Y-84330000D01*
D13*
%TO.C,U2*%
X122190175Y-101950979D02*
X95870175Y-101950979D01*
X95870175Y-101950979D02*
X95870175Y-61950979D01*
X122190175Y-61950979D02*
X122190175Y-101950979D01*
X95870175Y-61950979D02*
X122190175Y-61950979D01*
D10*
%TO.C,R1*%
X108355000Y-71500000D02*
X112105000Y-71500000D01*
X108355000Y-71500000D02*
G75*
G03*
X108355000Y-71500000I-2370000J0D01*
G01*
%TO.C,J4*%
X133330000Y-93905000D02*
X130670000Y-93905000D01*
X133330000Y-99105000D02*
X132000000Y-99105000D01*
X133330000Y-97775000D02*
X133330000Y-99105000D01*
X133330000Y-96505000D02*
X133330000Y-93905000D01*
X130670000Y-96505000D02*
X130670000Y-93905000D01*
X133330000Y-96505000D02*
X130670000Y-96505000D01*
%TO.C,C1*%
X169228000Y-93038349D02*
X164772000Y-93038349D01*
X165960000Y-91558349D02*
X163416000Y-91558349D01*
X168964000Y-93198349D02*
X165036000Y-93198349D01*
X170469000Y-91758349D02*
X168040000Y-91758349D01*
X171077000Y-89757349D02*
X162923000Y-89757349D01*
X167768000Y-93638349D02*
X166232000Y-93638349D01*
X165960000Y-90398349D02*
X162998000Y-90398349D01*
X165960000Y-91278349D02*
X163278000Y-91278349D01*
X170704000Y-91318349D02*
X168040000Y-91318349D01*
X170124000Y-92238349D02*
X168040000Y-92238349D01*
X170309000Y-91998349D02*
X168040000Y-91998349D01*
X165960000Y-91958349D02*
X163662000Y-91958349D01*
X171037000Y-90197349D02*
X162963000Y-90197349D01*
X170392000Y-91878349D02*
X168040000Y-91878349D01*
X170517000Y-91678349D02*
X168040000Y-91678349D01*
X171080000Y-89637349D02*
X162920000Y-89637349D01*
X169907000Y-92478349D02*
X164093000Y-92478349D01*
X170584000Y-91558349D02*
X168040000Y-91558349D01*
X167533000Y-93678349D02*
X166467000Y-93678349D01*
X169034000Y-93158349D02*
X164966000Y-93158349D01*
X171076000Y-89797349D02*
X162924000Y-89797349D01*
X170722000Y-91278349D02*
X168040000Y-91278349D01*
X165960000Y-90598349D02*
X163043000Y-90598349D01*
X169505000Y-92838349D02*
X164495000Y-92838349D01*
X170156000Y-92198349D02*
X168040000Y-92198349D01*
X170902000Y-90798349D02*
X168040000Y-90798349D01*
X165960000Y-91598349D02*
X163438000Y-91598349D01*
X169315000Y-85187651D02*
X169315000Y-85987651D01*
X170805000Y-91078349D02*
X168040000Y-91078349D01*
X167948000Y-93598349D02*
X166052000Y-93598349D01*
X169651000Y-92718349D02*
X164349000Y-92718349D01*
X169697000Y-92678349D02*
X164303000Y-92678349D01*
X170666000Y-91398349D02*
X168040000Y-91398349D01*
X165960000Y-90318349D02*
X162983000Y-90318349D01*
X168645000Y-93358349D02*
X165355000Y-93358349D01*
X171002000Y-90398349D02*
X168040000Y-90398349D01*
X171048000Y-90117349D02*
X162952000Y-90117349D01*
X165960000Y-91118349D02*
X163210000Y-91118349D01*
X171061000Y-89997349D02*
X162939000Y-89997349D01*
X168098000Y-93558349D02*
X165902000Y-93558349D01*
X165960000Y-91398349D02*
X163334000Y-91398349D01*
X170821000Y-91038349D02*
X168040000Y-91038349D01*
X165960000Y-92198349D02*
X163844000Y-92198349D01*
X169945000Y-92438349D02*
X164055000Y-92438349D01*
X170976000Y-90518349D02*
X168040000Y-90518349D01*
X171068000Y-89917349D02*
X162932000Y-89917349D01*
X170936000Y-90678349D02*
X168040000Y-90678349D01*
X171057000Y-90037349D02*
X162943000Y-90037349D01*
X165960000Y-90478349D02*
X163015000Y-90478349D01*
X165960000Y-91798349D02*
X163556000Y-91798349D01*
X170967000Y-90558349D02*
X168040000Y-90558349D01*
X165960000Y-92038349D02*
X163720000Y-92038349D01*
X168731000Y-93318349D02*
X165269000Y-93318349D01*
X165960000Y-92118349D02*
X163780000Y-92118349D01*
X169345000Y-92958349D02*
X164655000Y-92958349D01*
X165960000Y-92158349D02*
X163811000Y-92158349D01*
X165960000Y-90718349D02*
X163075000Y-90718349D01*
X170418000Y-91838349D02*
X168040000Y-91838349D01*
X169715000Y-85587651D02*
X168915000Y-85587651D01*
X171017000Y-90318349D02*
X168040000Y-90318349D01*
X165960000Y-90758349D02*
X163086000Y-90758349D01*
X170540000Y-91638349D02*
X168040000Y-91638349D01*
X170250000Y-92078349D02*
X168040000Y-92078349D01*
X171080000Y-89677349D02*
X162920000Y-89677349D01*
X165960000Y-91878349D02*
X163608000Y-91878349D01*
X171074000Y-89837349D02*
X162926000Y-89837349D01*
X170606000Y-91518349D02*
X168040000Y-91518349D01*
X170055000Y-92318349D02*
X168040000Y-92318349D01*
X169826000Y-92558349D02*
X164174000Y-92558349D01*
X165960000Y-90798349D02*
X163098000Y-90798349D01*
X170365000Y-91918349D02*
X168040000Y-91918349D01*
X165960000Y-90438349D02*
X163006000Y-90438349D01*
X171030000Y-90237349D02*
X162970000Y-90237349D01*
X165960000Y-90358349D02*
X162990000Y-90358349D01*
X169556000Y-92798349D02*
X164444000Y-92798349D01*
X170686000Y-91358349D02*
X168040000Y-91358349D01*
X169102000Y-93118349D02*
X164898000Y-93118349D01*
X171042000Y-90157349D02*
X162958000Y-90157349D01*
X165960000Y-91238349D02*
X163260000Y-91238349D01*
X165960000Y-90838349D02*
X163111000Y-90838349D01*
X170889000Y-90838349D02*
X168040000Y-90838349D01*
X165960000Y-92278349D02*
X163910000Y-92278349D01*
X165960000Y-91758349D02*
X163531000Y-91758349D01*
X165960000Y-90958349D02*
X163150000Y-90958349D01*
X170019000Y-92358349D02*
X168040000Y-92358349D01*
X165960000Y-90558349D02*
X163033000Y-90558349D01*
X165960000Y-91998349D02*
X163691000Y-91998349D01*
X165960000Y-92238349D02*
X163876000Y-92238349D01*
X165960000Y-92078349D02*
X163750000Y-92078349D01*
X170835000Y-90998349D02*
X168040000Y-90998349D01*
X165960000Y-91518349D02*
X163394000Y-91518349D01*
X170877000Y-90878349D02*
X168040000Y-90878349D01*
X170647000Y-91438349D02*
X168040000Y-91438349D01*
X165960000Y-91918349D02*
X163635000Y-91918349D01*
X171052000Y-90077349D02*
X162948000Y-90077349D01*
X170493000Y-91718349D02*
X168040000Y-91718349D01*
X168229000Y-93518349D02*
X165771000Y-93518349D01*
X168552000Y-93398349D02*
X165448000Y-93398349D01*
X165960000Y-91358349D02*
X163314000Y-91358349D01*
X170985000Y-90478349D02*
X168040000Y-90478349D01*
X165960000Y-91158349D02*
X163226000Y-91158349D01*
X170090000Y-92278349D02*
X168040000Y-92278349D01*
X170562000Y-91598349D02*
X168040000Y-91598349D01*
X168813000Y-93278349D02*
X165187000Y-93278349D01*
X170790000Y-91118349D02*
X168040000Y-91118349D01*
X170994000Y-90438349D02*
X168040000Y-90438349D01*
X168453000Y-93438349D02*
X165547000Y-93438349D01*
X169166000Y-93078349D02*
X164834000Y-93078349D01*
X165960000Y-91718349D02*
X163507000Y-91718349D01*
X165960000Y-91318349D02*
X163296000Y-91318349D01*
X170627000Y-91478349D02*
X168040000Y-91478349D01*
X165960000Y-92318349D02*
X163945000Y-92318349D01*
X171024000Y-90277349D02*
X162976000Y-90277349D01*
X165960000Y-92358349D02*
X163981000Y-92358349D01*
X169454000Y-92878349D02*
X164546000Y-92878349D01*
X171065000Y-89957349D02*
X162935000Y-89957349D01*
X169741000Y-92638349D02*
X164259000Y-92638349D01*
X170850000Y-90958349D02*
X168040000Y-90958349D01*
X171079000Y-89717349D02*
X162921000Y-89717349D01*
X170914000Y-90758349D02*
X168040000Y-90758349D01*
X170220000Y-92118349D02*
X168040000Y-92118349D01*
X170947000Y-90638349D02*
X168040000Y-90638349D01*
X165960000Y-90918349D02*
X163137000Y-90918349D01*
X169604000Y-92758349D02*
X164396000Y-92758349D01*
X169784000Y-92598349D02*
X164216000Y-92598349D01*
X170957000Y-90598349D02*
X168040000Y-90598349D01*
X169867000Y-92518349D02*
X164133000Y-92518349D01*
X165960000Y-91478349D02*
X163373000Y-91478349D01*
X170774000Y-91158349D02*
X168040000Y-91158349D01*
X170925000Y-90718349D02*
X168040000Y-90718349D01*
X165960000Y-90678349D02*
X163064000Y-90678349D01*
X168890000Y-93238349D02*
X165110000Y-93238349D01*
X170280000Y-92038349D02*
X168040000Y-92038349D01*
X170338000Y-91958349D02*
X168040000Y-91958349D01*
X165960000Y-91838349D02*
X163582000Y-91838349D01*
X165960000Y-90518349D02*
X163024000Y-90518349D01*
X171080000Y-89597349D02*
X162920000Y-89597349D01*
X170740000Y-91238349D02*
X168040000Y-91238349D01*
X170444000Y-91798349D02*
X168040000Y-91798349D01*
X165960000Y-91438349D02*
X163353000Y-91438349D01*
X165960000Y-90638349D02*
X163053000Y-90638349D01*
X169400000Y-92918349D02*
X164600000Y-92918349D01*
X165960000Y-91078349D02*
X163195000Y-91078349D01*
X165960000Y-90998349D02*
X163165000Y-90998349D01*
X171010000Y-90358349D02*
X168040000Y-90358349D01*
X169983000Y-92398349D02*
X164017000Y-92398349D01*
X165960000Y-91198349D02*
X163243000Y-91198349D01*
X169287000Y-92998349D02*
X164713000Y-92998349D01*
X165960000Y-90878349D02*
X163123000Y-90878349D01*
X171071000Y-89877349D02*
X162929000Y-89877349D01*
X170863000Y-90918349D02*
X168040000Y-90918349D01*
X165960000Y-91678349D02*
X163483000Y-91678349D01*
X168346000Y-93478349D02*
X165654000Y-93478349D01*
X170757000Y-91198349D02*
X168040000Y-91198349D01*
X165960000Y-91638349D02*
X163460000Y-91638349D01*
X165960000Y-91038349D02*
X163179000Y-91038349D01*
X170189000Y-92158349D02*
X168040000Y-92158349D01*
X171120000Y-89597349D02*
G75*
G03*
X171120000Y-89597349I-4120000J0D01*
G01*
%TO.C,SW1*%
X179389878Y-86046348D02*
X172749878Y-86046348D01*
X179389878Y-92686348D02*
X179389878Y-86046348D01*
X172749878Y-86046348D02*
X172749878Y-92686348D01*
X172749878Y-92686348D02*
X179389878Y-92686348D01*
X176069878Y-86046348D02*
X176069878Y-85786348D01*
%TO.C,BAT1*%
X188330000Y-76900000D02*
X188330000Y-80010000D01*
X185670000Y-77470000D02*
X184150000Y-77470000D01*
X185670000Y-76900000D02*
X185670000Y-77470000D01*
X188330000Y-81530000D02*
X188330000Y-82100000D01*
X185670000Y-78990000D02*
X185670000Y-82100000D01*
X185670000Y-76900000D02*
X188330000Y-76900000D01*
X185670000Y-82100000D02*
X188330000Y-82100000D01*
%TO.C,J2*%
X159830000Y-99772476D02*
X158500000Y-99772476D01*
X159830000Y-97172476D02*
X157170000Y-97172476D01*
X157170000Y-97172476D02*
X157170000Y-81872476D01*
X159830000Y-97172476D02*
X159830000Y-81872476D01*
X159830000Y-81872476D02*
X157170000Y-81872476D01*
X159830000Y-98442476D02*
X159830000Y-99772476D01*
%TO.C,ACELEROMETRO*%
X127910833Y-81504890D02*
X127910833Y-99344890D01*
X125250833Y-78904890D02*
X126580833Y-78904890D01*
X125250833Y-81504890D02*
X127910833Y-81504890D01*
X125250833Y-81504890D02*
X125250833Y-99344890D01*
X125250833Y-99344890D02*
X127910833Y-99344890D01*
X125250833Y-80234890D02*
X125250833Y-78904890D01*
%TO.C,GPS*%
X133830000Y-79090000D02*
X131170000Y-79090000D01*
X133830000Y-86770000D02*
X133830000Y-79090000D01*
X133830000Y-89370000D02*
X132500000Y-89370000D01*
X131170000Y-86770000D02*
X131170000Y-79090000D01*
X133830000Y-88040000D02*
X133830000Y-89370000D01*
X133830000Y-86770000D02*
X131170000Y-86770000D01*
D13*
%TO.C,Arduino pro Mini*%
X136264119Y-66744597D02*
X136264119Y-99764597D01*
X154044119Y-66744597D02*
X136264119Y-66744597D01*
X154044119Y-99764597D02*
X154044119Y-66744597D01*
X136264119Y-99764597D02*
X154044119Y-99764597D01*
D10*
%TO.C,Carg1*%
X165206624Y-68276166D02*
X165206624Y-76331166D01*
X163286624Y-68276166D02*
X163286624Y-76331166D01*
X173606624Y-68276166D02*
X173606624Y-76331166D01*
X169406624Y-68276166D02*
X169406624Y-76331166D01*
X171686624Y-68276166D02*
X171686624Y-76331166D01*
X167486624Y-68276166D02*
X167486624Y-76331166D01*
%TD*%
M02*
