%TF.GenerationSoftware,KiCad,Pcbnew,6.0.4-6f826c9f35~116~ubuntu20.04.1*%
%TF.CreationDate,2022-03-28T20:59:07+02:00*%
%TF.ProjectId,placaCANSAT_V2,706c6163-6143-4414-9e53-41545f56322e,rev?*%
%TF.SameCoordinates,Original*%
%TF.FileFunction,Copper,L1,Top*%
%TF.FilePolarity,Positive*%
%FSLAX46Y46*%
G04 Gerber Fmt 4.6, Leading zero omitted, Abs format (unit mm)*
G04 Created by KiCad (PCBNEW 6.0.4-6f826c9f35~116~ubuntu20.04.1) date 2022-03-28 20:59:07*
%MOMM*%
%LPD*%
G01*
G04 APERTURE LIST*
G04 Aperture macros list*
%AMRoundRect*
0 Rectangle with rounded corners*
0 $1 Rounding radius*
0 $2 $3 $4 $5 $6 $7 $8 $9 X,Y pos of 4 corners*
0 Add a 4 corners polygon primitive as box body*
4,1,4,$2,$3,$4,$5,$6,$7,$8,$9,$2,$3,0*
0 Add four circle primitives for the rounded corners*
1,1,$1+$1,$2,$3*
1,1,$1+$1,$4,$5*
1,1,$1+$1,$6,$7*
1,1,$1+$1,$8,$9*
0 Add four rect primitives between the rounded corners*
20,1,$1+$1,$2,$3,$4,$5,0*
20,1,$1+$1,$4,$5,$6,$7,0*
20,1,$1+$1,$6,$7,$8,$9,0*
20,1,$1+$1,$8,$9,$2,$3,0*%
G04 Aperture macros list end*
%TA.AperFunction,ComponentPad*%
%ADD10R,1.800000X1.800000*%
%TD*%
%TA.AperFunction,ComponentPad*%
%ADD11C,1.800000*%
%TD*%
%TA.AperFunction,ComponentPad*%
%ADD12R,1.700000X1.700000*%
%TD*%
%TA.AperFunction,ComponentPad*%
%ADD13O,1.700000X1.700000*%
%TD*%
%TA.AperFunction,ComponentPad*%
%ADD14O,2.844800X1.422400*%
%TD*%
%TA.AperFunction,ComponentPad*%
%ADD15C,2.400000*%
%TD*%
%TA.AperFunction,ComponentPad*%
%ADD16O,2.400000X2.400000*%
%TD*%
%TA.AperFunction,ComponentPad*%
%ADD17R,1.600000X1.600000*%
%TD*%
%TA.AperFunction,ComponentPad*%
%ADD18C,1.600000*%
%TD*%
%TA.AperFunction,ComponentPad*%
%ADD19C,1.879600*%
%TD*%
%TA.AperFunction,ComponentPad*%
%ADD20RoundRect,0.250000X-0.675000X-0.675000X0.675000X-0.675000X0.675000X0.675000X-0.675000X0.675000X0*%
%TD*%
%TA.AperFunction,ComponentPad*%
%ADD21C,1.850000*%
%TD*%
%TA.AperFunction,ViaPad*%
%ADD22C,6.000000*%
%TD*%
%TA.AperFunction,ViaPad*%
%ADD23C,1.524000*%
%TD*%
%TA.AperFunction,Conductor*%
%ADD24C,1.000000*%
%TD*%
G04 APERTURE END LIST*
D10*
%TO.P,D1,1,K*%
%TO.N,Net-(D1-Pad1)*%
X126500000Y-70500000D03*
D11*
%TO.P,D1,2,A*%
%TO.N,/LED*%
X126500000Y-73040000D03*
%TD*%
D12*
%TO.P,JP1,1,A*%
%TO.N,Net-(C1-Pad1)*%
X168000000Y-83000000D03*
D13*
%TO.P,JP1,2,B*%
%TO.N,3.3V*%
X165460000Y-83000000D03*
%TD*%
D14*
%TO.P,U2,P$1,5V*%
%TO.N,5V*%
X120460175Y-96680979D03*
%TO.P,U2,P$2,GND*%
%TO.N,GND*%
X120460175Y-94140979D03*
%TO.P,U2,P$3,IO12*%
%TO.N,unconnected-(U2-PadP$3)*%
X120460175Y-91600979D03*
%TO.P,U2,P$4,IO13*%
%TO.N,unconnected-(U2-PadP$4)*%
X120460175Y-89060979D03*
%TO.P,U2,P$5,IO15*%
%TO.N,unconnected-(U2-PadP$5)*%
X120460175Y-86520979D03*
%TO.P,U2,P$6,IO14*%
%TO.N,unconnected-(U2-PadP$6)*%
X120460175Y-83980979D03*
%TO.P,U2,P$7,IO2*%
%TO.N,unconnected-(U2-PadP$7)*%
X120460175Y-81440979D03*
%TO.P,U2,P$8,IO4*%
%TO.N,unconnected-(U2-PadP$8)*%
X120460175Y-78900979D03*
%TO.P,U2,P$9,.GND*%
%TO.N,unconnected-(U2-PadP$9)*%
X97600175Y-78900979D03*
%TO.P,U2,P$10,IO1/U0T*%
%TO.N,unconnected-(U2-PadP$10)*%
X97600175Y-81440979D03*
%TO.P,U2,P$11,IO3/U0R*%
%TO.N,/CAMARA*%
X97600175Y-83980979D03*
%TO.P,U2,P$12,3V3.*%
%TO.N,unconnected-(U2-PadP$12)*%
X97600175Y-86520979D03*
%TO.P,U2,P$13,GND.*%
%TO.N,unconnected-(U2-PadP$13)*%
X97600175Y-89060979D03*
%TO.P,U2,P$14,IO0*%
%TO.N,unconnected-(U2-PadP$14)*%
X97600175Y-91600979D03*
%TO.P,U2,P$15,IO16*%
%TO.N,unconnected-(U2-PadP$15)*%
X97600175Y-94140979D03*
%TO.P,U2,P$16,3V3*%
%TO.N,unconnected-(U2-PadP$16)*%
X97600175Y-96680979D03*
%TD*%
D15*
%TO.P,R1,1*%
%TO.N,Net-(D1-Pad1)*%
X105985000Y-71500000D03*
D16*
%TO.P,R1,2*%
%TO.N,GND*%
X113605000Y-71500000D03*
%TD*%
D12*
%TO.P,J4,1,Pin_1*%
%TO.N,/SDA_ACE*%
X132000000Y-97775000D03*
D13*
%TO.P,J4,2,Pin_2*%
%TO.N,/SCL_ACE*%
X132000000Y-95235000D03*
%TD*%
D17*
%TO.P,C1,1*%
%TO.N,Net-(C1-Pad1)*%
X167000000Y-87847349D03*
D18*
%TO.P,C1,2*%
%TO.N,GND*%
X167000000Y-91347349D03*
%TD*%
D15*
%TO.P,SW1,1,A*%
%TO.N,Net-(C1-Pad1)*%
X176069878Y-89366348D03*
D16*
%TO.P,SW1,2,B*%
%TO.N,3.7V*%
X176069878Y-84286348D03*
%TD*%
D12*
%TO.P,J2,1,Pin_1*%
%TO.N,GND*%
X158500000Y-98442476D03*
D13*
%TO.P,J2,2,Pin_2*%
%TO.N,/MOSI*%
X158500000Y-95902476D03*
%TO.P,J2,3,Pin_3*%
%TO.N,/MISO*%
X158500000Y-93362476D03*
%TO.P,J2,4,Pin_4*%
%TO.N,/SCK*%
X158500000Y-90822476D03*
%TO.P,J2,5,Pin_5*%
%TO.N,NSS*%
X158500000Y-88282476D03*
%TO.P,J2,6,Pin_6*%
%TO.N,DIO0*%
X158500000Y-85742476D03*
%TO.P,J2,7,Pin_7*%
%TO.N,3.3V*%
X158500000Y-83202476D03*
%TD*%
D12*
%TO.P,ACELEROMETRO,1,VCCIN*%
%TO.N,unconnected-(U3-Pad1)*%
X126580833Y-80234890D03*
D13*
%TO.P,ACELEROMETRO,2,3.3V*%
%TO.N,3.3V*%
X126580833Y-82774890D03*
%TO.P,ACELEROMETRO,3,GND*%
%TO.N,GND*%
X126580833Y-85314890D03*
%TO.P,ACELEROMETRO,4,SCL*%
%TO.N,/SCL_ACE*%
X126580833Y-87854890D03*
%TO.P,ACELEROMETRO,5,SDA*%
%TO.N,/SDA_ACE*%
X126580833Y-90394890D03*
%TO.P,ACELEROMETRO,6,FSYNC*%
%TO.N,unconnected-(U3-Pad6)*%
X126580833Y-92934890D03*
%TO.P,ACELEROMETRO,7,INTA*%
%TO.N,unconnected-(U3-Pad7)*%
X126580833Y-95474890D03*
%TO.P,ACELEROMETRO,8,DRDY*%
%TO.N,unconnected-(U3-Pad8)*%
X126580833Y-98014890D03*
%TD*%
D12*
%TO.P,GPS,1,GND*%
%TO.N,GND*%
X132500000Y-88040000D03*
D13*
%TO.P,GPS,2,TX*%
%TO.N,/GPS_TX*%
X132500000Y-85500000D03*
%TO.P,GPS,3,RX*%
%TO.N,/GPS_RX*%
X132500000Y-82960000D03*
%TO.P,GPS,4,VCC*%
%TO.N,3.3V*%
X132500000Y-80420000D03*
%TD*%
D19*
%TO.P,Arduino pro Mini,JP1_1,DTR*%
%TO.N,unconnected-(U1-PadJP1_1)*%
X151504119Y-68014597D03*
%TO.P,Arduino pro Mini,JP1_2,TXO*%
%TO.N,unconnected-(U1-PadJP1_2)*%
X148964119Y-68014597D03*
%TO.P,Arduino pro Mini,JP1_3,RXI*%
%TO.N,unconnected-(U1-PadJP1_3)*%
X146424119Y-68014597D03*
%TO.P,Arduino pro Mini,JP1_4,VCC*%
%TO.N,unconnected-(U1-PadJP1_4)*%
X143884119Y-68014597D03*
%TO.P,Arduino pro Mini,JP1_5,GND*%
%TO.N,GND*%
X141344119Y-68014597D03*
%TO.P,Arduino pro Mini,JP1_6,GND*%
X138804119Y-68014597D03*
%TO.P,Arduino pro Mini,JP2_1,A4*%
%TO.N,unconnected-(U1-PadJP2_1)*%
X149853119Y-81857597D03*
%TO.P,Arduino pro Mini,JP2_2,A5*%
%TO.N,unconnected-(U1-PadJP2_2)*%
X149853119Y-79317597D03*
%TO.P,Arduino pro Mini,JP3_1,A6*%
%TO.N,unconnected-(U1-PadJP3_1)*%
X149853119Y-92271597D03*
%TO.P,Arduino pro Mini,JP3_2,A7*%
%TO.N,unconnected-(U1-PadJP3_2)*%
X149853119Y-89731597D03*
%TO.P,Arduino pro Mini,JP6_1,RAW*%
%TO.N,unconnected-(U1-PadJP6_1)*%
X152774119Y-70554597D03*
%TO.P,Arduino pro Mini,JP6_2,GND_1*%
%TO.N,GND*%
X152774119Y-73094597D03*
%TO.P,Arduino pro Mini,JP6_3,RST_1*%
%TO.N,unconnected-(U1-PadJP6_3)*%
X152774119Y-75634597D03*
%TO.P,Arduino pro Mini,JP6_4,VCC_1*%
%TO.N,3.3V*%
X152774119Y-78174597D03*
%TO.P,Arduino pro Mini,JP6_5,A3*%
%TO.N,unconnected-(U1-PadJP6_5)*%
X152774119Y-80714597D03*
%TO.P,Arduino pro Mini,JP6_6,A2*%
%TO.N,unconnected-(U1-PadJP6_6)*%
X152774119Y-83254597D03*
%TO.P,Arduino pro Mini,JP6_7,A1*%
%TO.N,unconnected-(U1-PadJP6_7)*%
X152774119Y-85794597D03*
%TO.P,Arduino pro Mini,JP6_8,A0*%
%TO.N,unconnected-(U1-PadJP6_8)*%
X152774119Y-88334597D03*
%TO.P,Arduino pro Mini,JP6_9,SCK*%
%TO.N,/SCK*%
X152774119Y-90874597D03*
%TO.P,Arduino pro Mini,JP6_10,MISO*%
%TO.N,/MISO*%
X152774119Y-93414597D03*
%TO.P,Arduino pro Mini,JP6_11,MOSI*%
%TO.N,/MOSI*%
X152774119Y-95954597D03*
%TO.P,Arduino pro Mini,JP6_12,D10*%
%TO.N,NSS*%
X152774119Y-98494597D03*
%TO.P,Arduino pro Mini,JP7_1,D9*%
%TO.N,unconnected-(U1-PadJP7_1)*%
X137534119Y-98494597D03*
%TO.P,Arduino pro Mini,JP7_2,D8*%
%TO.N,unconnected-(U1-PadJP7_2)*%
X137534119Y-95954597D03*
%TO.P,Arduino pro Mini,JP7_3,D7*%
%TO.N,unconnected-(U1-PadJP7_3)*%
X137534119Y-93414597D03*
%TO.P,Arduino pro Mini,JP7_4,D6*%
%TO.N,/CAMARA*%
X137534119Y-90874597D03*
%TO.P,Arduino pro Mini,JP7_5,D5*%
%TO.N,/LED*%
X137534119Y-88334597D03*
%TO.P,Arduino pro Mini,JP7_6,D4*%
%TO.N,/GPS_TX*%
X137534119Y-85794597D03*
%TO.P,Arduino pro Mini,JP7_7,D3*%
%TO.N,/GPS_RX*%
X137534119Y-83254597D03*
%TO.P,Arduino pro Mini,JP7_8,D2*%
%TO.N,DIO0*%
X137534119Y-80714597D03*
%TO.P,Arduino pro Mini,JP7_9,GND_2*%
%TO.N,GND*%
X137534119Y-78174597D03*
%TO.P,Arduino pro Mini,JP7_10,RST_2*%
%TO.N,unconnected-(U1-PadJP7_10)*%
X137534119Y-75634597D03*
%TO.P,Arduino pro Mini,JP7_11,RXI_2*%
%TO.N,unconnected-(U1-PadJP7_11)*%
X137534119Y-73094597D03*
%TO.P,Arduino pro Mini,JP7_12,TXO_2*%
%TO.N,unconnected-(U1-PadJP7_12)*%
X137534119Y-70554597D03*
%TD*%
D20*
%TO.P,Carg1,1,Pin_1*%
%TO.N,GND*%
X164246624Y-67091166D03*
D21*
%TO.P,Carg1,2,Pin_2*%
%TO.N,5V*%
X168446624Y-67091166D03*
%TO.P,Carg1,3,Pin_3*%
%TO.N,Net-(C1-Pad1)*%
X172646624Y-67091166D03*
%TD*%
D22*
%TO.N,*%
X184650000Y-71570000D03*
X173400000Y-98530000D03*
D23*
%TO.N,Net-(C1-Pad1)*%
X176500000Y-67000000D03*
X176500000Y-78500000D03*
%TO.N,/LED*%
X135165403Y-88334597D03*
X135000000Y-81000000D03*
%TO.N,/CAMARA*%
X129500000Y-100000000D03*
X115000000Y-100000000D03*
%TO.N,3.3V*%
X125500000Y-101500000D03*
X99000000Y-76000000D03*
X114000000Y-76000000D03*
X120000000Y-101500000D03*
%TO.N,NSS*%
X155494597Y-98494597D03*
X155545075Y-88781242D03*
%TO.N,DIO0*%
X146000000Y-92000000D03*
X161000000Y-101000000D03*
X140714597Y-80714597D03*
X150500000Y-101500000D03*
%TD*%
D24*
%TO.N,Net-(C1-Pad1)*%
X176500000Y-67000000D02*
X176500000Y-78500000D01*
%TO.N,/LED*%
X135000000Y-81000000D02*
X135000000Y-88169194D01*
X135000000Y-88169194D02*
X135165403Y-88334597D01*
%TO.N,/CAMARA*%
X115000000Y-100000000D02*
X129500000Y-100000000D01*
%TO.N,3.3V*%
X114000000Y-76000000D02*
X99000000Y-76000000D01*
X125500000Y-101500000D02*
X120000000Y-101500000D01*
%TO.N,NSS*%
X155545075Y-98444119D02*
X155494597Y-98494597D01*
X155545075Y-88781242D02*
X155545075Y-98444119D01*
%TO.N,DIO0*%
X140714597Y-80714597D02*
X146000000Y-86000000D01*
X161000000Y-101000000D02*
X151000000Y-101000000D01*
X151000000Y-101000000D02*
X150500000Y-101500000D01*
X146000000Y-86000000D02*
X146000000Y-92000000D01*
%TD*%
M02*
